<?xml version="1.0" encoding="utf-8"?>
<!-- Generator: Adobe Illustrator 23.0.1, SVG Export Plug-In . SVG Version: 6.00 Build 0)  -->
<svg version="1.1" id="Ebene_1" xmlns="http://www.w3.org/2000/svg" xmlns:xlink="http://www.w3.org/1999/xlink" x="0px" y="0px"
	 viewBox="0 0 24 16" style="enable-background:new 0 0 24 16;" xml:space="preserve">
<style type="text/css">
	.st0{fill:#2A6190;}
	.st1{fill:#ADAFAA;}
	.st2{fill:#75263D;}
	.st3{fill:#FFFFFF;}
</style>
<path d="M19.6,9c0,0.2,0.2,0.4,0.4,0.4c0.2,0,0.4-0.2,0.4-0.4S20.2,8.6,20,8.6C19.8,8.6,19.6,8.8,19.6,9C19.6,9,19.6,9,19.6,9
	L19.6,9z M20.3,9c0,0.2-0.1,0.3-0.3,0.3c-0.2,0-0.3-0.1-0.3-0.3c0,0,0,0,0,0c0-0.2,0.2-0.3,0.3-0.3C20.1,8.8,20.3,8.9,20.3,9z"/>
<path d="M19.8,9.3L19.8,9.3l0.1-0.2H20L20,9.3h0.1L20,9.1c0.1,0,0.1-0.1,0.1-0.1c0-0.1-0.1-0.1-0.1-0.1h-0.2V9.3z M19.9,8.9H20
	c0,0,0,0,0,0s0,0,0,0L19.9,8.9L19.9,8.9L19.9,8.9z"/>
<path class="st0" d="M19,9.2c0.6-0.8,0.9-1.6,0.9-2.5c0-1.9-1.9-3.3-5.1-3.3c-0.1,0-0.2,0-0.4,0c-0.3-0.6-1-0.9-1.4-1l-0.8-1.3
	l-1.9,3.1C6.7,5.6,4,8,4,10.4c0,0.9,0.4,1.6,1.1,2.2l-1.4,2.3c0,0,2.9-0.4,6.3-0.6l0.2-0.7c1.3-0.1,2.7-0.5,3.9-1
	c0,0.1,0,0.3,0.1,0.4l0.2,0.4c0.4,0.7,1,1.4,2.1,1.4c3.1,0,4-2.6,4-2.6C20.5,10.9,19.9,9.9,19,9.2L19,9.2z"/>
<g>
	<path class="st1" d="M12.6,11.5c-1.6,0-2.6,0.8-4,0.8c-2,0-2.6-1.4-2.6-2.4c0-3,3.5-4.8,3.5-4.8L9.5,5c0,0,0,0-0.1,0
		C8.8,5.3,5.7,7,5.7,9.9c0,0.5,0.1,1,0.4,1.5l-2,3.3c0,0,2.5-0.4,5.7-0.5l0.7-2c0.7-0.2,1.3-0.4,2.1-0.4c1.7,0,2.9,0.9,2.9,0.9
		S14.9,11.5,12.6,11.5L12.6,11.5z"/>
	<path class="st1" d="M12.7,2.5l-0.6-0.9L7.9,8.4c0,0.1,0,0.2,0,0.4c0.1,0.5,0.4,1.2,1.3,1.2c1.9,0,4.6-1.7,6.6-1.7
		c0.1,0,0.2,0,0.3,0L12.7,2.5L12.7,2.5z"/>
</g>
<g>
	<path class="st2" d="M12.1,2.1L8,8.8c0.1,0.5,0.4,1.2,1.3,1.2c1.9,0,4.6-1.7,6.6-1.7c0,0,0,0,0,0L12.1,2.1 M6.3,11.6l-1.7,2.8
		c0,0,2.1-0.3,5-0.5l0.6-1.7c-0.6,0.2-1.1,0.3-1.9,0.3C7.5,12.5,6.8,12.2,6.3,11.6L6.3,11.6z"/>
</g>
<path d="M20,12.7c0-0.5-0.4-1.2-0.4-1.2c-0.2,0.3-0.5,0.6-0.6,0.8l0,0.9l-0.1,0l-0.1,0l-0.3-0.5c-2.2,1.6-3.9,0.6-3.9,0.6l0.5,0.8
	c0.9,1.1,3.8,0.7,5.1-1.4L20,12.7L20,12.7z"/>
<g>
	<path class="st3" d="M10.7,12.4l-0.2,0.5c1.2,0,2.4-0.3,3.5-0.7C12.8,11.7,10.9,12.3,10.7,12.4z M9.4,5.1c-2.6,1-4.7,2.9-4.7,4.7
		c0,0.8,0.4,1.4,0.9,1.9L6,11.1c-0.2-0.4-0.3-0.8-0.3-1.2C5.7,7,8.8,5.3,9.4,5.1z M18.6,9c0.3-0.5,0.5-1.1,0.5-1.6
		c0-2.1-2.4-2.9-4.6-3.1c0,0.2-0.1,0.4-0.1,0.6l2.2,3.4C17.3,8.3,18,8.6,18.6,9z M13.6,3.9c0.3,0.1,0.6,0.3,0.7,0.6
		c0.2-0.7,0-1.7-1.6-2c-0.2,0-0.4-0.1-0.6-0.1L12,3l-0.4,0.1L11.3,4L11,4.3l-0.5,0.8c1-0.7,2-1.2,2.7-1.2
		C13.4,3.9,13.5,3.9,13.6,3.9z"/>
	<path class="st3" d="M15.9,8.4c-2.3,0-4.7,1.8-6.7,1.8c-0.6,0-0.8-0.2-0.8-0.2l-0.1,0.1c0,0-2.4-1.1,0.9-4.7c0,0-2.8,1.5-3,4.4
		l0.2-0.1c0,0-0.1,2,2.2,2c1.8,0,2.5-0.7,4.1-0.7c3.6,0,4.2,2,4.2,2s-2.4,0.7-2.5-0.6c0,0-0.4,1.5,2.7,0.8c0,0,0.2-0.3,0.2-0.7
		c0,0,0.3,0.3,0.3,0.5c0,0,0.2-0.3-0.1-1c0,0,0.3,0.3,0.5,0.7l0.1-0.1c0,0,0-0.3-0.6-1.1l-0.4,0.3c0,0-1-1.8-4.5-1.6
		c0,0,3-1.1,4.7,1.1l0.4-0.3c0,0,1,1,1.3,2.2l0.1,0l0-0.9l0-1.1l0.3,0.4c0,0,0.1-0.3,0-0.8c0,0,0.7,0.7,0.9,2l0.1-0.7
		C20.2,11.4,19.2,8.4,15.9,8.4L15.9,8.4z"/>
</g>
<g>
	<path class="st1" d="M12.1,6.9l-0.8,2.2c0,0-1.2,0.4-2,0.6c1.6,0.1,4.3-1.6,6-1.6c-0.8-0.2-2.7,0.5-2.7,0.5L12.1,6.9L12.1,6.9z
		 M11.1,4.5C13,3.5,13.7,3.8,14,4c-0.9-1-2.8,0.3-2.8,0.3L11.1,4.5L11.1,4.5z M17.4,13.9l0.1-0.2c-1.9,0.6-2.6,0-2.6,0
		C15.5,14.4,16.9,14.1,17.4,13.9L17.4,13.9z"/>
	<path class="st1" d="M15.1,14c0.5,0.7,2.2,0.6,3.5-0.2l0.1-0.3C17.9,14.2,16.1,14.7,15.1,14z"/>
</g>
<g>
	<path class="st0" d="M12.1,7.6L11.6,9l0.8-0.3C12.3,8.4,12.2,8,12.1,7.6L12.1,7.6z M13.9,3.7c-0.6-0.6-2.2-0.1-2.2-0.1l0,0.2
		C13.2,3.2,13.9,3.7,13.9,3.7L13.9,3.7z"/>
	<path class="st0" d="M17,8.7c0,0,1.1,0.3,1.5,1.3l-0.2,0.4l0,0.4L18,10.4l-0.2,0.1c0,0-0.9-1.3-3.2-1.3c-2.4,0-3.5,1.4-5.5,1.4
		c-2.6,0-1.8-2.6-1.7-3.1c0,0-0.5,0.9-0.5,1.8c0,0.5,0.1,1.6,2,1.6c1.8,0,3.6-1.5,5.7-1.5c1.5,0,2.7,1,3,1.4l0.2-0.1l0.5,0.5
		l0.1-0.8l0.3-0.4C18.8,10,18.4,9,17,8.7L17,8.7z M19.3,11.6L19,11.2l0,1.1c0.1-0.1,0.4-0.5,0.6-0.8c0,0,0.4,0.7,0.4,1.2l0.2,0
		c-0.2-1.3-0.9-2-0.9-2C19.4,11.3,19.3,11.6,19.3,11.6L19.3,11.6z"/>
</g>
</svg>
