<?xml version="1.0" encoding="utf-8"?>
<!-- Generator: Adobe Illustrator 23.0.1, SVG Export Plug-In . SVG Version: 6.00 Build 0)  -->
<svg version="1.1" id="Ebene_1" xmlns="http://www.w3.org/2000/svg" xmlns:xlink="http://www.w3.org/1999/xlink" x="0px" y="0px"
	 viewBox="0 0 24 16" style="enable-background:new 0 0 24 16;" xml:space="preserve">
<style type="text/css">
	.st0{fill:#D18A00;}
	.st1{fill:#FFFFFF;}
	.st2{fill:#CF0A2C;}
	.st3{fill:#00833E;}
	.st4{fill:#FFD100;}
	.st5{fill:#FF671B;}
	.st6{fill:#001970;}
</style>
<path d="M18.7,10.7c-0.2,0-0.3,0.2-0.3,0.3c0,0.2,0.2,0.3,0.3,0.3c0.2,0,0.3-0.2,0.3-0.4C19,10.9,18.8,10.7,18.7,10.7L18.7,10.7z
	 M18.7,11.3c-0.1,0-0.3-0.1-0.3-0.3c0,0,0,0,0,0c0-0.1,0.1-0.3,0.3-0.3c0.1,0,0.3,0.1,0.3,0.3C18.9,11.2,18.8,11.3,18.7,11.3
	C18.7,11.3,18.7,11.3,18.7,11.3z"/>
<path d="M18.8,11c0-0.1,0-0.1-0.1-0.1l0,0h-0.2v0.4h0.1v-0.2h0l0.1,0.2h0.1l-0.1-0.2C18.8,11.1,18.8,11,18.8,11L18.8,11z M18.7,11
	L18.7,11L18.7,11L18.7,11C18.7,10.9,18.7,11,18.7,11C18.7,11,18.7,11,18.7,11L18.7,11z"/>
<path d="M20.5,10.3c0-0.6,0.6-3-3.9-6.5l0.8-0.2L17,2.3l-0.7,0.5V2.1h-1.5c-1-0.7-1.4-1.6-2.9-1.6c-0.6,0-1.3,0.1-1.4,0.1
	c-0.1,0-0.4-0.1-1-0.1c-1.7,0-1.8,1.2-1.6,1.7C5.7,3.7,4.6,4.8,4.6,5.2c0,0.2,0.1,0.3,0.1,0.6c0,0.6-1.3,2-1.3,2.7
	c0,0.7,0.8,0.7,0.8,0.7c0,0.2-0.3,0.8,0,1.2c-0.4,0.4,0.1,0.7,0.1,1c0,0.2-0.2,0.3-0.2,0.8c0,0.5,0.2,1.1,1.5,1.1
	c0.5,0,0.9-0.1,1.3-0.1c0.1,1,0.5,1.4,0.6,1.7C7.5,15,7.7,15.5,8,15.5c0.4,0,2.3-0.6,3.8-1.6c0.8,0.3,1.7,0.2,2.1,0.2
	c0.4,0,0.5,0.2,0.8,0.2c0.1,0,1.2-1.1,1.1-3.6c0.6,1.1,1,1.8,1.1,2.2c0.8-0.3,1.5-2.3,1.2-3.5c0,0,1,1.7,2.6,1.4
	C20.6,10.7,20.5,10.5,20.5,10.3L20.5,10.3z"/>
<path class="st0" d="M10.6,11.8c0.4-0.6,0.2-1.6-0.6-1.3C9.6,9.8,9.1,8.9,9.1,7.7c0-1.2,0.2-1.6,0.2-2.6c0-1.8-0.9-2.2-1.4-2.6
	c-1.3,0.9-3,2.1-3,2.7C4.9,5.5,5,5.6,5,5.8c0,0.7-1.3,2-1.3,2.6c0,0.2,0.2,0.4,0.5,0.4s1.1-0.1,1.4-0.1c0.3,0,0.3-0.2,0.3-0.2
	C5.9,8.3,5.6,8,5.3,8C5.1,8,5.1,8.1,5.1,8.1c0,0.1,0.2,0.2,0.2,0.2c0.2,0,0.2,0.2,0,0.2c-0.2,0-0.4-0.1-0.4-0.4
	c0-0.2,0.2-0.3,0.3-0.3c0.6,0,0.9,0.5,0.8,0.8C6.7,9,6.7,9.5,6.6,9.5c-0.2,0-0.1-0.6-1-0.6C5.4,8.9,4.8,9,4.7,9C4.6,9,4.6,9,4.5,9.1
	c0,0.1-0.1,0.5-0.1,0.7c0,0.3,0.2,0.4,0.4,0.4c0.4,0,1-0.1,1-0.2c0-0.1-0.2-0.1-0.2-0.1c-0.1,0-0.2-0.1-0.2-0.1
	c0-0.1,0.2-0.1,0.4-0.1c0.3,0,0.4,0.2,0.3,0.3c0,0.2,0.3,0.2,0.3,0.6c0,0.1,0,0.2-0.1,0.2c-0.1,0-0.1-0.1-0.1-0.2
	c0-0.1-0.1-0.2-0.2-0.2c-0.1,0-0.5,0.2-1.4,0.1c-0.4,0.4,0.1,0.5,0.1,0.9c0,0.5-0.2,0.5-0.2,0.8c0,0.6,0.7,0.8,1.3,0.8
	c1.4,0,2.9-0.3,3.5-1.3c-0.2,0.9-0.9,1.2-2.1,1.5c0.1,1,0.3,1.2,0.5,1.5c0.1,0.3,0.2,0.6,0.4,0.6c0.3,0,2.1-0.7,3.4-1.4L10.6,11.8
	L10.6,11.8z"/>
<path d="M12.2,11.7c0,0-0.1,0-0.1,0.2c0,0.1,0.1,0.4,0.3,0.6c0-0.1,0-0.2,0-0.2C12.4,12.1,12.4,11.7,12.2,11.7L12.2,11.7z M8.8,9.9
	C8.6,9.6,8.2,8.8,9,8.1C8.4,7.9,7.5,9.5,8.8,9.9z M7.9,4.3c0,0,0.1,0.1,0.1,0c0,0,0.1-0.1,0-0.1C7.8,4,7.6,3.8,7.4,3.6l0.2-0.1
	c0.2,0.1,0.8,0.7,1.2,1.1c0,0,0.1,0.1,0.1,0c0,0,0-0.1,0-0.1C8.5,4,7.9,3.5,7.7,3.3c0.1,0,0.1-0.1,0.2-0.1c0.4,0.3,0.6,0.6,0.6,0.6
	c0,0,0.1,0.1,0.1,0c0,0,0,0,0,0c0,0,0.1-0.1,0-0.1C8.5,3.4,8.2,3.2,7.9,3c0,0-0.1,0-0.1,0L7.2,3.5c-0.1,0,0,0.1,0,0.2
	C7.6,4,7.9,4.3,7.9,4.3L7.9,4.3z M7.7,5.2c-0.6,0-0.8-0.7-1.6-0.7c-0.4,0-0.6,0.2-0.6,0.3c0,0.1,0.2,0.3,0.2,0.3
	c0.1,0.2-0.5,0.4-0.2,0.5l0.3,0.1c-0.1,0.2,0,0.6,0,0.7c-0.7,0-0.6,0.2,0,0.2c0,0.1-0.1,0.4,0,0.4c0.1,0,0.3-0.1,0.3-0.4
	c0.5-0.1,1.1-0.2,1.1-0.2c0.1,0,0.2-0.1,0-0.2l-1-0.6c0,0-0.1,0,0-0.2l0.1-0.2c0-0.1,0.1-0.1,0.1-0.1c0.3,0,0.7,0.4,1.2,0.4
	c0.2,0,0.5-0.1,0.5-0.3C8.1,5.1,7.8,5.2,7.7,5.2L7.7,5.2z"/>
<g>
	<path class="st1" d="M6.2,5.8c0,0.2,0,0.3,0,0.5c0.6,0,0.9-0.2,0.9-0.2S6.2,5.8,6.2,5.8z M5.3,10.9c-0.1,0,0.2,0.6,0.2,0.9
		c0,0.1,0.2,0.5,0.5,0.4c0.3-0.1,0-0.5,0-0.6C5.7,11.4,5.3,10.9,5.3,10.9z M7.8,6.9C7.6,7,7.3,7.2,6.9,7.3c-0.2,0-0.4,0-0.5,0
		c0.1,0.1,0.2,0.2,0.2,0.2S6.6,7.7,6.5,7.8c0.1,0,0.3-0.2,0.4-0.2c0.4-0.1,0.7,0,1-0.1c0.1,0,0.3-0.1,0.2-0.4
		C8.1,6.8,7.9,6.9,7.8,6.9L7.8,6.9z"/>
</g>
<g>
	<path class="st2" d="M10.3,10.6c-0.3-0.1-0.6,0.2-0.7,0.6c-0.1,0.4,0,0.8,0.3,0.9c0.3,0.1,0.6-0.2,0.7-0.6
		C10.7,11.1,10.6,10.7,10.3,10.6L10.3,10.6z M5.6,10.8c-0.1-0.2-0.2,0-0.3,0.1c-0.1,0.1-0.3,0-0.2,0.2c0.1,0.2-0.1,0.7,0,0.8
		C5,12,5.2,12.1,5.3,12c0.1,0,0.1-0.1,0.2-0.2c0.1-0.3-0.1-0.6,0-0.6c0.1,0,0.3,0.3,0.5,0.4c0.1,0,0.2,0.1,0.3,0
		c0.1-0.1,0.1-0.2,0.1-0.3C6.2,11.1,5.7,11,5.6,10.8L5.6,10.8z M7.4,7.8c-0.1,0-0.2,0.1-0.4,0.1c-0.2,0-0.4,0-0.4-0.1c0,0,0,0,0,0
		c0-0.1,0.2-0.3,0.2-0.3s-0.2,0-0.3-0.1c0,0,0,0,0,0c0-0.1,0.2-0.2,0.3-0.3C7,7,7.1,7,7.2,7c0.1,0,0.3-0.1,0.2-0.2
		C7.4,6.5,7.1,6.6,7,6.6C6.2,6.8,6.1,7.1,6.1,7.3c0.1,0.2,0.3,0.3,0.3,0.3S6.2,7.8,6.3,8c0.1,0.2,0.4,0.4,1.1,0.2
		c0.2,0,0.4-0.1,0.4-0.3C7.7,7.7,7.6,7.7,7.4,7.8L7.4,7.8z M15.1,3.6c-2.2,1.6-3.4,4.1-3.7,4.9c0,0,0,0.1,0,0.2l0.7,1.4
		c0,0.1,0.1,0.1,0.1,0l1.1-1c0.1-0.1,0.1-0.2,0.1-0.2c0.5-3,1.2-4.4,1.7-5.1C15.1,3.8,15.1,3.7,15.1,3.6C15.1,3.6,15.1,3.6,15.1,3.6
		L15.1,3.6z"/>
</g>
<g>
	<path class="st3" d="M16.9,2.7l-0.6,0.4l0.1,0.4l0.7-0.1L16.9,2.7z M15.3,4.1c0,0-0.1-0.1-0.1-0.1c-0.7,1.1-1.6,3.9-1.6,6.3
		c0,2.5,0.8,3.8,1,3.8c0.2,0,0.9-1.3,0.9-3c0-0.5-0.4-2.3-0.4-5.8C15.2,4.5,15.2,4.3,15.3,4.1z M11.6,8.6l0.6,1.3l1.1-1
		c0,0,0.5-3.2,1.5-4.9C12.3,6.5,11.6,8.6,11.6,8.6L11.6,8.6z M15.7,3.2c-0.3,0-0.5,0.2-0.5,0.5s0.2,0.5,0.5,0.5c0,0,0,0,0,0
		c0.3,0,0.5-0.2,0.5-0.5S16,3.2,15.7,3.2z"/>
</g>
<g>
	<path class="st4" d="M13.9,4c0.2,0,0.1-0.2,0-0.2c-2.2,0-3.4,0.3-3.6,0.3C10.1,3.1,9.5,2.7,9.5,2c0-0.3,0.2-0.3,0.3-0.3
		c0.5,0,0.9,0.6,1.6,0.6c0.7,0,0.8-0.5,1.2-0.5c0.6,0,0.3,1.5,1.3,1.5c0.3,0,0.5-0.1,0.5-0.1c0.1-0.1,0-0.2-0.1-0.2
		c0,0-0.2,0.1-0.4,0.1c-0.8,0-0.5-1.5-1.4-1.5c-0.4,0-0.6,0.5-1.2,0.5c-0.7,0-0.9-0.6-1.6-0.6C9.5,1.5,9.3,1.8,9.3,2
		c0,0.8,0.8,1.4,0.8,2.4c0,1.1-0.4,2-0.4,3.5c0,1.7,1.6,2.3,1.6,3.9c0,0.9,0.4,1.5,0.7,1.5c0.2,0,0.4-0.1,0.5-0.5c0,0,0.1,0,0.2,0
		c0.1,0,0.5-0.1,0.5-0.6c0-1.4-2.4-2.1-2.4-4.3c0-1,0.2-2.7,0.4-2.7c0.1,0,0.3,0.6,0.6,0.6c0.4,0,0.3-1.2,0.4-1.2
		c0.1,0,0.4,0.5,0.6,0.5c0.2,0,0.3-0.4,0.4-0.7c0-0.2-0.2-0.2-0.2,0C13.1,4.7,13,5,13,5c-0.1-0.1-0.3-0.5-0.6-0.5
		c-0.4,0-0.3,1.1-0.4,1.1c-0.2,0-0.3-0.6-0.6-0.6c-0.5,0-0.6,1.6-0.6,2.9c0,2.3,2.4,3,2.4,4.2c0,0.3-0.2,0.4-0.3,0.4
		c0,0-0.1,0-0.1,0c0-0.1,0-0.2,0-0.3c0-0.7-0.4-0.8-0.5-0.8c-0.2,0-0.2,0.1-0.2,0.4c0,0.3,0.3,0.6,0.5,0.8c0,0.2-0.1,0.4-0.3,0.4
		c-0.3,0-0.5-0.8-0.5-1.3c0-1.7-1.6-2.2-1.6-3.9c0-1.5,0.4-2.4,0.4-3.4c0-0.1,0-0.1,0-0.2C10.5,4.3,11.9,4,13.9,4L13.9,4z"/>
	<path class="st4" d="M15,4.6c0,0-1.2,2.6-1.2,5.7c0,2,0.6,3.6,0.8,3.6c0.1,0,0.8-1,0.8-3C15.4,10.1,14.9,7,15,4.6z"/>
</g>
<g>
	<path class="st3" d="M14.4,8.4L14,8.8c-0.1,0.4-0.1,0.9-0.1,1.4l0.5-0.3C14.4,9.4,14.4,8.9,14.4,8.4L14.4,8.4z M14.8,6.4
		c-0.1,0.7-0.1,1.4-0.2,2l0.5,0.4C15,8,14.9,7.2,14.9,6.4C14.9,6.3,14.8,6.2,14.8,6.4z M14.5,9.9l0.7,0.5c0-0.4-0.1-0.9-0.1-1.4
		l-0.5-0.4C14.5,9,14.5,9.5,14.5,9.9z M14.6,6.4c0-0.1-0.1-0.1-0.1,0C14.3,7,14.1,7.8,14,8.6l0.4-0.3C14.5,7.7,14.5,7.1,14.6,6.4
		L14.6,6.4z M14,11.7c0,0.2,0.1,0.4,0.1,0.6c0.1,0.1,0.3,0.2,0.4-0.3c0.3,0.5,0.5,0.4,0.5,0.4c0-0.2,0.1-0.4,0.1-0.6l-0.7-0.5
		C14.5,11.4,14,11.7,14,11.7z M14.6,11.3l0.6,0.4c0-0.4,0.1-0.8,0-1.3L14.5,10C14.5,10.5,14.5,10.9,14.6,11.3z M14.4,9.9l-0.5,0.3
		c0,0.5,0,0.9,0.1,1.3l0.4-0.3C14.4,10.9,14.4,10.4,14.4,9.9L14.4,9.9z"/>
</g>
<g>
	<path class="st2" d="M12.4,7.2c-0.3,0.5-0.6,1-0.7,1.3c0,0.1-0.1,0.2-0.1,0.2l0.5,1.1l1-0.9c0-0.1,0.1-0.5,0.3-1.2
		c0.2-0.9,0.6-2.3,1-3.1C13.7,5.3,13,6.2,12.4,7.2L12.4,7.2z"/>
	<circle class="st2" cx="15.7" cy="3.7" r="0.3"/>
</g>
<path class="st1" d="M13.7,5.6C13.7,5.6,13.7,5.6,13.7,5.6c-0.3,0.4-0.4,0.8-0.6,1.2L12.5,7c0,0.1-0.1,0.1-0.1,0.2l0.7-0.3
	c-0.2,0.4-0.3,0.8-0.4,1.1l-0.8,0.3c0,0,0,0.1-0.1,0.1l0.8-0.3c-0.3,0.7-0.4,1.2-0.4,1.2c0,0,0,0.1,0,0.1c0,0,0.1,0,0.1,0
	c0,0,0.1-0.4,0.4-1.1l0.4,0.8l0.1-0.1l0,0L12.7,8c0.1-0.3,0.2-0.6,0.4-1l0.3,0.6c0-0.1,0-0.1,0-0.2l-0.3-0.6
	C13.3,6.5,13.5,6.1,13.7,5.6C13.8,5.6,13.8,5.6,13.7,5.6z"/>
<g>
	<path class="st5" d="M16,2.3h-1L15.7,3H16L16,2.3z M19.6,7.1c-1-1.7-2.9-3.1-3.3-3.4c0,0.1-0.1,0.3-0.1,0.3C16.1,4.1,16,4.2,16,4.2
		c0.1,0.3,0.2,0.7,0.3,1.2c0.2,0.5,0.5,1.2,0.7,1.9c0.2,0.6,0.5,1.1,0.8,1.6c1.3,2.1,2.6,1.8,2.6,1.8C20.2,10.3,20.9,9.1,19.6,7.1
		L19.6,7.1z"/>
</g>
<path class="st1" d="M19.2,7.2c-0.8-1.3-2.6-2.9-3-3.3c0,0-0.1,0.1-0.1,0.1c0.3,0.7,1.2,3.4,2.1,4.9c0.9,1.4,1.7,1.4,1.7,1.4
	S20.3,9,19.2,7.2L19.2,7.2z"/>
<g>
	<path class="st5" d="M16.3,4.1c0.1,0.4,0.4,1.1,0.8,2l0.1-0.5l-0.5-0.7c0,0,0-0.1,0-0.1c0,0,0,0,0,0c0,0,0.1,0,0.1,0l0.4,0.7
		l0.7,0.2C17.4,5.2,16.8,4.6,16.3,4.1L16.3,4.1z"/>
	<path class="st5" d="M17.3,5.7l0.8,1.3l1,0.3c-0.3-0.5-0.7-0.9-1.1-1.4L17.3,5.7L17.3,5.7z M17.1,6.3c0.2,0.5,0.4,0.9,0.6,1.4L18,7
		l-0.8-1.3L17.1,6.3L17.1,6.3z M19.9,10.2c0-0.2,0.1-0.7-0.2-1.5l-0.7-0.1l0.4,0.6c0,0,0,0.1,0,0.1c0,0-0.1,0-0.1,0L19,8.6l-0.3,0.8
		C19.3,10,19.7,10.2,19.9,10.2z M18.2,7.1L19,8.5l0.7,0.1c-0.1-0.4-0.3-0.8-0.6-1.2L18.2,7.1L18.2,7.1z M18.7,9.3l0.3-0.8l-0.9-1.4
		l-0.3,0.7c0.2,0.4,0.4,0.7,0.6,1C18.5,9,18.6,9.2,18.7,9.3L18.7,9.3z"/>
</g>
<g>
	<path class="st0" d="M6.1,5L5.7,5.1c-0.1,0-0.1,0.1,0,0.1L6,5.4c0,0,0.1,0,0.1,0c0,0,0,0,0,0L6.1,5C6.2,5.1,6.2,5,6.1,5L6.1,5z"/>
	<ellipse transform="matrix(0.2794 -0.9602 0.9602 0.2794 -3.642 17.8812)" class="st0" cx="10.1" cy="11.4" rx="0.5" ry="0.3"/>
</g>
<path class="st4" d="M17,7.3c-0.2-0.6-0.4-1.3-0.7-1.9c-0.1-0.5-0.3-0.9-0.3-1.2c-0.2,0.1-0.4,0.1-0.6,0c-0.2,4.3,0.2,5.1,0.3,6.3
	c1.1,1.7,1.1,2.2,1.1,2.2s1.3-0.9,1-3.5c-0.2-0.4-0.4-0.7-0.6-1.1"/>
<path class="st6" d="M17.4,8.8c0-0.2-0.1-0.5-0.1-0.7c-0.1-0.3-0.1-0.5-0.2-0.8c-0.2-0.7-0.5-1.3-0.7-1.9c-0.2-0.5-0.4-0.9-0.5-1.1
	c-0.1,0-0.2,0-0.3,0c0,0.5-0.2,2.4,0.1,4.2c0.4,2.6,1.4,3.5,1.4,3.5S17.7,11,17.4,8.8L17.4,8.8z"/>
<g>
	<path class="st4" d="M16.1,7.2L15.8,5c0-0.1-0.1-0.1-0.1,0.1c0,0.6,0,1.6,0,2.5L16.1,7.2L16.1,7.2z M16.5,9.4l-0.2-1.1l-0.5,0.5
		c0.1,0.4,0.2,0.7,0.3,1.1L16.5,9.4L16.5,9.4z M15.7,7.7c0,0.3,0.1,0.5,0.1,0.8c0,0.1,0,0.1,0,0.2l0.5-0.5l-0.1-0.9L15.7,7.7
		L15.7,7.7z M15.9,5l0.3,2.2L17,7.6c-0.3-0.9-0.6-1.8-1-2.6C16,4.9,15.9,4.9,15.9,5L15.9,5z M16.8,10.6l-0.3-1.1L16.1,10
		c0.1,0.4,0.3,0.8,0.4,1L16.8,10.6L16.8,10.6z M16.3,7.3c0,0.3,0.1,0.6,0.1,0.9l0.8,0.5c-0.1-0.3-0.1-0.6-0.2-0.9L16.3,7.3L16.3,7.3
		z M16.4,8.3l0.2,1l0.8,0.4c0-0.3,0-0.7-0.1-1L16.4,8.3z M17.3,11.1l-0.4-0.4l-0.2,0.4c0.1,0.2,0.3,0.4,0.4,0.6
		C17.1,11.6,17.2,11.4,17.3,11.1L17.3,11.1z M17.4,9.9l-0.7-0.4l0.3,1.1l0.4,0.4C17.3,10.7,17.4,10.3,17.4,9.9L17.4,9.9z"/>
</g>
</svg>
