<?xml version="1.0" encoding="utf-8"?>
<!-- Generator: Adobe Illustrator 23.0.1, SVG Export Plug-In . SVG Version: 6.00 Build 0)  -->
<svg version="1.1" id="Layer_1" xmlns="http://www.w3.org/2000/svg" xmlns:xlink="http://www.w3.org/1999/xlink" x="0px" y="0px"
	 viewBox="0 0 24 16" style="enable-background:new 0 0 24 16;" xml:space="preserve">
<style type="text/css">
	.st0{fill:#002654;}
	.st1{fill:#A4A9AD;}
	.st2{fill:#CE1126;}
	.st3{fill:#FFFFFF;}
</style>
<g id="reg">
	<path class="st0" d="M16.9,11.9c-0.2,0-0.3,0.1-0.3,0.3c0,0.2,0.1,0.3,0.3,0.3c0.2,0,0.3-0.1,0.3-0.3C17.2,12,17.1,11.8,16.9,11.9
		L16.9,11.9z M16.9,12.4c-0.1,0-0.2-0.1-0.2-0.2c0,0,0,0,0,0c0-0.1,0.1-0.2,0.2-0.2c0.1,0,0.2,0.1,0.2,0.2
		C17.1,12.3,17,12.4,16.9,12.4C16.9,12.4,16.9,12.4,16.9,12.4z"/>
	<path class="st0" d="M17,12.1c0-0.1,0-0.1-0.1-0.1h-0.2v0.4h0.1v-0.1h0l0.1,0.1H17l-0.1-0.1C17,12.2,17,12.1,17,12.1L17,12.1z
		 M16.9,12.1L16.9,12.1L16.9,12.1L16.9,12.1C16.9,12.1,16.9,12.1,16.9,12.1C16.9,12.1,16.9,12.1,16.9,12.1L16.9,12.1z"/>
</g>
<path class="st1" d="M17.3,11.3l3.4-7.8c0,0-2.4,1.4-5.2,2.6l4.8-3.6l-3,0.5c-0.4-0.3-1.9-1-4.4-1l-0.4,0L12,0.5l-0.8,1.6
	c-4.4,0.6-7.9,3.2-7.9,6c0,1.3,0.5,2.9,3,3.8L5.1,15l3.3-2.6c0.7,0.1,1.5,0.1,2.4,0.1c1,0,2-0.1,2.9-0.2l3.6,3.2l-1.2-3.7
	C16.1,11.8,16.8,11.5,17.3,11.3L17.3,11.3z"/>
<path class="st0" d="M20,4.2c0,0-2.8,1.7-6,2.8l-0.1-0.3l5.4-3.8l-6,1.5l3.4-1.4c0,0-1.4-0.8-3.8-0.8c-0.2,0-0.4,0-0.6,0l-0.4-1
	L10,5.2L7.2,6l2.7-1.1l0.9-1.8l0.2-0.4L11,2.4C7,3,3.6,5.4,3.6,8.1c0,1.5,0.8,2.9,3.1,3.6l-1.2,2.6l2.8-2.2c0.7,0.1,1.5,0.2,2.4,0.2
	c1.1,0,2.2-0.1,3-0.2l3.1,2.7l-1.1-3.2c0.9-0.3,1.4-0.5,1.4-0.5L20,4.2L20,4.2z"/>
<path class="st2" d="M15.7,3.1c0,0-1.1-0.6-3.4-0.5l0.1,0.3C12.7,2.8,14,2.7,15.7,3.1z M12.5,10.3c-1.3-0.2-2.1-0.5-2.1-0.5
	s0.6-0.2,1.5-0.6c1-0.4,1.9-0.9,2.8-1.5c0.8-0.5,1.6-1,2.4-1.6c0,0-4.1,2.3-7.6,2.3c-2.3,0-3.4-1.1-3.4-1.8c0-2.1,3.8-3.3,4.6-3.5
	l0.2-0.4c-3.6,0.7-5,2.1-5,2.1S4.7,5.6,4.2,7C4.1,7.3,4.1,7.6,4.1,8c0,1.6,1.1,3.8,6.6,3.8c3.9,0,6-1,6-1
	C15.2,10.7,13.8,10.6,12.5,10.3z"/>
<path class="st1" d="M8.5,7.9l0.2-0.5L7.4,7C7.4,7,7,7.7,8.5,7.9z"/>
<g>
	<path class="st1" d="M17,4l-4.4,1.1l-0.8-2.4l-1.2,2.9L7.2,6.4L9.6,7L9.1,7.9l0.1,0l0.2,0c0.2,0,0.3,0,0.5,0c0.4,0,0.8-0.1,1.3-0.2
		c0.3-0.1,0.7-0.1,1-0.2c0.4-0.1,0.9-0.2,1.3-0.4l-0.3-0.7L17,4L17,4z M15.3,11.9c-0.1,0-0.2,0.1-0.3,0.1c-0.1,0.1-0.1,0.2-0.2,0.3
		c0,0,0,0.1,0,0.1l1,0.8L15.3,11.9L15.3,11.9z M7.3,11.9C7.3,11.9,7.3,11.9,7.3,11.9c-0.1,0-0.2,0-0.2,0L6.6,13l1-0.8
		C7.6,12.1,7.5,12,7.3,11.9z"/>
</g>
<g>
	<path class="st3" d="M8.8,9.6c1.4,0,2.5-0.2,3.1-0.4c1-0.4,1.9-0.9,2.8-1.5C13.8,8.1,11.1,9,9.2,9C6.3,9,5.4,7.3,5.4,6.4
		c0-0.9,0.5-1.5,0.5-1.5s-1,0.7-1,1.9C4.9,8.7,6.8,9.6,8.8,9.6L8.8,9.6z"/>
	<path class="st3" d="M9.9,10.5c-5.4,0-5.7-2.9-5.7-3.5C4.1,7.3,4.1,7.6,4.1,8c0,0,0.1,3.2,6.3,3.2c2,0,3.8-0.4,4.4-0.6
		c-0.8-0.1-1.5-0.2-2.3-0.3C12,10.4,11.2,10.5,9.9,10.5L9.9,10.5z M16.7,8.2C16.5,7.8,16,7.7,15.6,8c-0.5,0.3-0.7,0.8-0.5,1.2
		c0.2,0.4,0.7,0.4,1.2,0.1C16.7,9.1,16.9,8.5,16.7,8.2z"/>
	<path class="st3" d="M12.1,9.6l0-0.1L12,9.6l-0.2,0l0.1,0.1l-0.1,0.1L12,9.7l0.1,0.1L12.1,9.6l0.2,0L12.1,9.6z M13.5,8.9l0-0.1
		l-0.1,0.1l-0.2,0L13.3,9l-0.1,0.1l0.2-0.1l0.1,0.1L13.5,8.9l0.2,0L13.5,8.9z M14.5,9l0-0.1L14.4,9l-0.2,0l0.1,0.1l-0.1,0.1l0.2-0.1
		l0.1,0.1L14.5,9l0.2,0L14.5,9z M13.1,9.8V9.6L13,9.8l-0.2,0l0.1,0.1L12.8,10L13,9.9l0.1,0.1L13.1,9.8l0.2,0L13.1,9.8z M14.1,9.9
		V9.8L14,9.9l-0.2,0l0.1,0.1l-0.1,0.1L14,10l0.1,0.1L14.1,9.9l0.2,0L14.1,9.9z M14.9,8l0-0.2l-0.1,0.2l-0.2,0l0.1,0.1l-0.1,0.2
		l0.2-0.1L15,8.3L14.9,8l0.2,0L14.9,8z M16.3,7.2l-0.1,0.2l0.3-0.2l0.2,0.1l-0.1-0.2L16.8,7l-0.3,0.1l0-0.2l-0.1,0.2l-0.3,0.1
		L16.3,7.2z M18.4,6.1l-0.3,0l0-0.2l-0.2,0.3l-0.3,0l0.2,0.1l-0.2,0.3l0.3-0.2l0.3,0.2l-0.1-0.3L18.4,6.1z M16.8,10V9.8L16.6,10
		l-0.3,0l0.2,0.1l-0.2,0.2l0.3-0.1l0.2,0.1l0-0.2L17,10L16.8,10z M17.3,8.8l0-0.2l-0.2,0.2l-0.2,0L17,8.9l-0.1,0.2L17.1,9l0.2,0.1
		l0-0.2l0.2-0.1L17.3,8.8z M17.7,7.6l0-0.2l-0.2,0.2l-0.3,0l0.2,0.1l-0.2,0.2l0.3-0.1l0.2,0.1l0-0.2l0.3-0.1L17.7,7.6z M15.4,9.9
		L15.2,10l-0.2,0l0.1,0.1L15,10.3l0.2-0.1l0.1,0.1l0-0.2l0.2-0.1l-0.2,0L15.4,9.9z M11.8,3.1l-0.6,2.9l1.2-0.8L11.8,3.1z M16.3,4.4
		l-5.1,1.6c0,0,1.9,0.4,1.9,0.4C13.2,6.4,16.3,4.4,16.3,4.4L16.3,4.4z"/>
	<path class="st3" d="M12.2,7.5l-1-1.6v1.8C11.5,7.7,11.8,7.6,12.2,7.5L12.2,7.5z M9.2,7.9l0.2,0c0.2,0,0.3,0,0.5,0l1.3-2L9.7,7
		L9.2,7.9L9.2,7.9z"/>
	<path class="st3" d="M10.6,5.7L7.9,6.4l3.3-0.4L10.6,5.7z M14.8,12.3l0.7,0.5L15,12C14.9,12.1,14.8,12.2,14.8,12.3L14.8,12.3z
		 M6.8,12.7l0.5-0.8c0,0-0.1,0-0.1,0L6.8,12.7L6.8,12.7z"/>
</g>
<path class="st2" d="M15.6,8.1c-0.4,0.2-0.6,0.7-0.4,1c0.1,0.3,0.5,0.4,0.9,0.1c0.4-0.2,0.6-0.7,0.4-1C16.4,8,16,7.9,15.6,8.1
	L15.6,8.1z"/>
</svg>
