<?xml version="1.0" encoding="utf-8"?>
<!-- Generator: Adobe Illustrator 23.0.1, SVG Export Plug-In . SVG Version: 6.00 Build 0)  -->
<svg version="1.1" id="Ebene_1" xmlns="http://www.w3.org/2000/svg" xmlns:xlink="http://www.w3.org/1999/xlink" x="0px" y="0px"
	 viewBox="0 0 24 16" style="enable-background:new 0 0 24 16;" xml:space="preserve">
<style type="text/css">
	.st0{fill:#002654;}
	.st1{fill:#FFFFFF;}
	.st2{fill:#FCB514;}
	.st3{fill:#002F87;}
</style>
<g>
	<path class="st0" d="M20.5,1.2H6.4c0.9,1.5,1.2,1.9,0.4,1.9L5.7,1.2H3.5l5.1,8.3c-0.1,0-0.1,0-0.2,0c-2.1,0-3.7,1.2-3.7,2.7
		s1.6,2.7,3.7,2.7c2.1,0,3.7-1.2,3.7-2.7c0-0.4-0.1-0.7-0.3-1.1l-1.1-1.9c0,0,0.9,0.2,1.6-0.1l-0.3-0.4c0,0,1.4,0.1,2.7-0.3
		l-0.4-0.5c0,0,2-0.1,3.3-1.8h-0.1c0,0,1-0.5,1.4-1.6h-0.1c0,0,0.6-0.5,0.9-1.5h-0.2C19.3,3.1,20.4,2.4,20.5,1.2L20.5,1.2z"/>
	<path class="st0" d="M11.2,14.3h0.1v0.3h0v-0.3h0.1v0L11.2,14.3L11.2,14.3z M11.7,14.5l-0.1-0.3h-0.1v0.4h0v-0.3L11.7,14.5
		L11.7,14.5l0.1-0.2v0.3h0v-0.4h-0.1L11.7,14.5z"/>
</g>
<path class="st1" d="M20.2,1.4H6.9C8,3.1,7.7,3.3,6.7,3.3L5.6,1.4H3.9L9,9.8c-0.2,0-0.4,0-0.7,0c-1.9,0-3.5,1.1-3.5,2.4
	s1.5,2.4,3.5,2.4s3.5-1.1,3.5-2.4c0-0.3-0.1-0.7-0.3-1l-1.4-2.4c0,0,1,0.3,1.7,0.1l-0.4-0.6c0,0,1.7,0.1,2.8-0.1l-0.5-0.6
	c0,0,2.5,0,3.4-1.6h-0.4c0,0,1.2-0.2,1.8-1.4h-0.4c0,0,1-0.5,1.3-1.5h-0.5C18.7,3.2,19.8,2.5,20.2,1.4L20.2,1.4z"/>
<path class="st2" d="M19.9,1.6H7.2c0.8,1.1,0.9,2-0.6,1.9L5.5,1.6H4.2L9.4,10C9,10,8.7,9.9,8.4,9.9c-1.8,0-3.3,1-3.3,2.2
	s1.5,2.2,3.3,2.2s3.3-1,3.3-2.2c0-0.3-0.1-0.6-0.2-0.9L9.7,8.6c0,0,1.1,0.4,1.8,0.3c0,0-0.3-0.4-0.5-0.7c0,0,1.2,0.1,2.8,0l-0.6-0.6
	l0.2,0c2.6,0,3.3-1.3,3.3-1.3H16c0,0,1.7-0.4,2.1-1.4h-0.6c0,0,1.4-0.7,1.5-1.4h-0.8C18.2,3.4,19.5,2.6,19.9,1.6L19.9,1.6z"/>
<path class="st3" d="M19.6,1.8H7.5c1,1.6,0,2-1,1.9L5.4,1.8H4.5l5.2,8.5c-0.5-0.2-0.9-0.2-1.4-0.2c-1.7,0-3.1,0.9-3.1,2.1
	c0,1.1,1.4,2.1,3.1,2.1c1.7,0,3.1-0.9,3.1-2.1c0-0.3-0.1-0.5-0.2-0.8L9.3,8.2c0,0,1.3,0.4,1.8,0.4c0,0-0.3-0.3-0.4-0.7
	c0,0,1.5,0.2,2.7,0.1l-0.7-0.7c0,0,0.2,0,0.6,0c2.1,0,2.9-0.9,2.9-0.9H10L9.9,6.3h5.2c0,0,2.1-0.4,2.6-1.3H9.2L9.1,4.9H17
	c0,0,1.5-0.7,1.7-1.3H8.3L8.2,3.4h9.6C17.8,3.4,19.2,2.7,19.6,1.8L19.6,1.8z"/>
</svg>
