<?xml version="1.0" encoding="utf-8"?>
<!-- Generator: Adobe Illustrator 23.0.1, SVG Export Plug-In . SVG Version: 6.00 Build 0)  -->
<svg version="1.1" id="Layer_2" xmlns="http://www.w3.org/2000/svg" xmlns:xlink="http://www.w3.org/1999/xlink" x="0px" y="0px"
	 viewBox="0 0 24 16" style="enable-background:new 0 0 24 16;" xml:space="preserve">
<style type="text/css">
	.st0{fill:#111111;}
	.st1{fill:#FCB514;}
	.st2{fill:#FFFFFF;}
</style>
<g id="reg">
	<path class="st0" d="M18.1,14.6c0.2,0,0.4-0.2,0.4-0.4c0-0.2-0.2-0.4-0.4-0.4l0,0c-0.2,0-0.4,0.2-0.4,0.4S17.9,14.6,18.1,14.6
		L18.1,14.6z M18.1,13.8c0.2,0,0.3,0.1,0.3,0.3c0,0.2-0.1,0.3-0.3,0.3l0,0c-0.2,0-0.3-0.1-0.3-0.3C17.8,14,18,13.8,18.1,13.8
		L18.1,13.8L18.1,13.8z"/>
	<path class="st0" d="M18.1,14.2L18.1,14.2l0.2,0.2h0.1l-0.1-0.2c0.1,0,0.1-0.1,0.1-0.2c0-0.1-0.1-0.1-0.1-0.1H18v0.5h0.1L18.1,14.2
		L18.1,14.2z M18.1,14h0.1c0,0,0,0,0,0.1c0,0,0,0.1,0,0.1c0,0,0,0,0,0h-0.1V14L18.1,14z"/>
</g>
<path class="st1" d="M12,16c4.4,0,8-3.6,8-8s-3.6-8-8-8S4,3.6,4,8S7.6,16,12,16z"/>
<path class="st0" d="M12,15.7c4.3,0,7.7-3.4,7.7-7.7c0,0,0,0,0,0c0-4.3-3.4-7.7-7.7-7.7S4.3,3.7,4.3,8C4.3,12.3,7.7,15.7,12,15.7
	L12,15.7z"/>
<path class="st1" d="M16.9,3.7c-0.2-0.2-0.4-0.4-0.6-0.6L15,4.4L15.6,5L16.9,3.7L16.9,3.7z M12.4,1.5c-0.1,0-0.3,0-0.4,0
	c-0.1,0-0.3,0-0.4,0v2.1h0.9C12.4,3.6,12.4,1.5,12.4,1.5z M8.3,3.7L7.7,3.1C7.5,3.3,7.3,3.5,7.1,3.7l1.3,1.3V3.7z M7.7,12.9l0.6-0.6
	v-1.2l-1.3,1.3C7.3,12.5,7.5,12.7,7.7,12.9z M8.9,7.6H5.5c0,0.1,0,0.3,0,0.4s0,0.3,0,0.4h3.4L8.9,7.6L8.9,7.6z M15.2,8l0.4,0.4h2.9
	c0-0.1,0-0.3,0-0.4s0-0.3,0-0.4h-2.9L15.2,8z M15,11.6l1.3,1.3c0.2-0.2,0.4-0.4,0.6-0.6L15.6,11L15,11.6L15,11.6z M11.6,14.5
	c0.1,0,0.3,0,0.4,0c0.1,0,0.3,0,0.4,0v-2.1h-0.9L11.6,14.5L11.6,14.5z"/>
<path class="st1" d="M9.2,10.4l-0.6,0.5v1.2H14l1.4-1.3V8.6L14.7,8l0.6-0.6V5.2L14,3.9H8.7v1.2l0.6,0.5L9.2,10.4L9.2,10.4z"/>
<path class="st2" d="M11.2,12.4H8.7L8,13.2c0.9,0.7,2,1.2,3.3,1.3V12.4L11.2,12.4z M14.1,12.4h-1.3v2.1c1.2-0.1,2.3-0.6,3.2-1.3
	l-1.3-1.3C14.7,11.9,14.1,12.4,14.1,12.4z M8.9,10V8.8H5.5C5.6,10,6.1,11.1,6.8,12L8.9,10z M8.9,6l-2-2C6.1,4.9,5.6,6,5.5,7.2h3.4V6
	z M14.7,4.2L16,2.8c-0.9-0.7-2.1-1.2-3.2-1.3v2.1h1.3L14.7,4.2L14.7,4.2z M15.7,8.8v1.8l1.5,1.5c0.7-0.9,1.2-2.1,1.3-3.2L15.7,8.8
	L15.7,8.8z M11.2,3.6V1.5C10,1.6,8.9,2.1,8,2.8l0.7,0.7L11.2,3.6L11.2,3.6z M15.7,7.2h2.8C18.4,6,17.9,4.9,17.2,4l-1.5,1.5V7.2z"/>
<path class="st0" d="M8.9,11v0.8h4.9l1.2-1.2v-2L14.4,8l0.7-0.7v-2l-1.2-1.2H8.9V5l0.6,0.5v5L8.9,11L8.9,11z"/>
<path class="st1" d="M13.8,10.1v-1l-0.5-0.5h-2.6v2.1h2.6C13.3,10.7,13.8,10.1,13.8,10.1z M13.8,6.9v-1l-0.5-0.5h-2.6v2.1h2.6
	L13.8,6.9z"/>
<path class="st0" d="M13.5,6l-0.4-0.4H11v1.5h2.2l0.4-0.4L13.5,6L13.5,6z M13.5,9.2l-0.4-0.4H11v1.5h2.2l0.4-0.4L13.5,9.2L13.5,9.2z
	"/>
<path class="st2" d="M13.2,6.6V6.1L13,5.9h-1.7v0.9H13L13.2,6.6z M13.2,9.9V9.4L13,9.2h-1.7v0.9H13L13.2,9.9z"/>
</svg>
