<?xml version="1.0" encoding="utf-8"?>
<!-- Generator: Adobe Illustrator 23.0.1, SVG Export Plug-In . SVG Version: 6.00 Build 0)  -->
<svg version="1.1" id="Layer_1" xmlns="http://www.w3.org/2000/svg" xmlns:xlink="http://www.w3.org/1999/xlink" x="0px" y="0px"
	 viewBox="0 0 24 16" style="enable-background:new 0 0 24 16;" xml:space="preserve">
<style type="text/css">
	.st0{fill:#192168;}
	.st1{fill:#FFFFFF;}
	.st2{fill:#AF1E2D;}
</style>
<g id="reg">
	<path class="st0" d="M20.2,12.3c-0.2,0-0.4,0.2-0.4,0.4c0,0.2,0.2,0.4,0.4,0.4s0.4-0.2,0.4-0.4S20.4,12.3,20.2,12.3z M20.2,13
		c-0.2,0-0.3-0.1-0.3-0.3c0-0.2,0.1-0.3,0.3-0.3c0.2,0,0.3,0.1,0.3,0.3C20.5,12.9,20.4,13,20.2,13L20.2,13z"/>
	<path class="st0" d="M20.4,12.6c0-0.1-0.1-0.1-0.1-0.1h-0.2v0.4h0.1v-0.2h0.1l0.1,0.2h0.1l-0.1-0.2C20.4,12.7,20.4,12.7,20.4,12.6
		L20.4,12.6z M20.3,12.7h-0.1v-0.1L20.3,12.7C20.3,12.6,20.3,12.6,20.3,12.7C20.3,12.7,20.3,12.7,20.3,12.7L20.3,12.7z"/>
</g>
<path class="st0" d="M18.9,7.9l1.4-1.5l-0.7-3.2l-3-0.9l-0.3,0.3c-1-0.3-3.2-0.7-4.7-0.7c-5,0-8.8,2.7-8.8,6.1
	c0,3.5,3.4,6.2,8.8,6.2c3.8,0,7.7-2,9.3-3.2L18.9,7.9L18.9,7.9z"/>
<path class="st1" d="M18.4,8.2c0,0-2.1,1.5-4.5,1.9V5.9C16.5,6.3,18,8,18,8l1.7-1.8l-0.5-2.5L16.8,3l-0.3,0.3
	c-0.9-0.4-2.9-0.9-5.1-0.9C7.1,2.5,3.5,4.9,3.5,8c0,3,3,5.5,7.9,5.5c4.5,0,7.7-2.1,8.8-2.7L18.4,8.2L18.4,8.2z M11,7.4V5.7
	c0.6,0,1.3,0,1.7,0.1v1.7L11,7.4L11,7.4z M12.7,8.5v1.7c-0.6,0.1-1.1,0.1-1.7,0V8.5L12.7,8.5L12.7,8.5z M9.7,5.8v4.4
	c-0.7,0-3-0.8-3-2.2C6.7,6.4,9.1,5.9,9.7,5.8L9.7,5.8z"/>
<path class="st1" d="M9.1,9.4V6.6C8.3,6.8,7.4,7.3,7.4,8C7.4,8.5,8.1,9.1,9.1,9.4z M17.3,8.1c-0.8-0.7-1.7-1.2-2.8-1.4v2.6
	C15.5,9,16.4,8.6,17.3,8.1z M11.4,6.9h0.8V6.2l-0.8,0V6.9z M11.4,9.1h0.8v0.7h-0.8V9.1z"/>
<path class="st2" d="M18.3,8.8c-2.8,1.6-4.7,2-7,1.9c-3.2,0-5-1.3-5-2.8c0-1.4,1.7-2.7,5.1-2.7c2.3,0,5.1,0.6,6.6,2.1l1.2-1.3
	l-0.4-2l-1.8-0.5l-0.3,0.4c-1-0.4-2.7-1-5.3-1C7.4,2.9,4,5.2,4,7.9c0,2.9,3,5.1,7.2,5.1c4.3,0,6.8-1.6,8.3-2.4L18.3,8.8L18.3,8.8z"
	/>
</svg>
