<?xml version="1.0" encoding="utf-8"?>
<!-- Generator: Adobe Illustrator 23.0.1, SVG Export Plug-In . SVG Version: 6.00 Build 0)  -->
<svg version="1.1" id="Ebene_1" xmlns="http://www.w3.org/2000/svg" xmlns:xlink="http://www.w3.org/1999/xlink" x="0px" y="0px"
	 viewBox="0 0 24 16" style="enable-background:new 0 0 24 16;" xml:space="preserve">
<style type="text/css">
	.st0{fill:#99999A;}
	.st1{fill:#001F5B;}
	.st2{fill:#071C2C;}
	.st3{fill:#FFFFFF;}
</style>
<path class="st0" d="M11.9,11.4l2.6-1.3c1.8,0.5,2.3,1.2,2.3,1.2l1-1.2c0.1-0.1,0.2-0.3,0.2-0.7c0-0.4-0.4-0.7-0.7-0.9
	c-0.5-1.3-3.3-1.7-3.6-2.2c-0.1-0.2-0.5-1.6-0.5-1.6C13,4,12.3,4,12,4s-0.9,0.1-0.9,0.1c0,1-0.1,2.2-0.3,2.5c0,0-0.5,0.3-1.1,0.5
	l-1.4-1l0.4,1.3c-2.4,1.3-3,3.6-3,3.6s0.6,4.9,6.7,4.9c3.2,0,5.1-1.6,5.1-1.6l-1-2.3c0,0-1.6,0.8-3.6,0.8c-1.9,0-2.6-0.9-2.9-1.4
	C11.6,11.5,11.9,11.4,11.9,11.4L11.9,11.4z"/>
<g>
	<path class="st1" d="M11.8,11.1l2.7-1.4c1.8,0.5,2.4,1.1,2.4,1.1l0.8-0.9c0,0,0.2-0.1,0.2-0.5c0-0.3-0.5-0.6-0.7-0.8
		c-0.5-1.3-3.3-1.6-3.6-2.2c-0.1-0.3-0.3-0.9-0.5-1.6c-0.2-0.5-0.7-0.5-1-0.5c-0.3,0-0.6,0.1-0.6,0.1c0,0.6-0.1,2.1-0.4,2.4
		C11,6.8,10.6,7,10,7.2l0.2,0.1L10,7.5L9.8,7.8l-0.3,1L9,8.6l0.1,0.4L8.4,9.1l0.4,0.1l-1.2,0.9l0.3,0L7.5,11
		c0.6-0.3,0.8-0.3,0.8-0.3l-0.2-0.2l1.3-0.5c0,0-0.1,0.3-0.1,0.7c0,0.1,0,0.2,0,0.3c0.2,0.8,0.9,2.3,3.5,2.3c1.9,0,3.4-0.7,3.4-0.7
		l0.7,1.5c0,0-1.8,1.2-4.5,1.2c-5.5,0-6.2-4.4-6.2-4.4C7,9,8.3,8.1,9.1,7.7l-0.3,0l0-0.1C6.6,8.8,6,11,6,11s0.7,4.6,6.5,4.6
		c3,0,4.8-1.4,4.8-1.4l-0.8-1.9c0,0-1.6,0.7-3.5,0.7c-2.9,0-3.3-2-3.3-2S11.2,11.2,11.8,11.1L11.8,11.1z M8.3,3.7L7.8,1.9l1.2,1.5
		l0.4-0.1L8.5,0.5L8.1,0.7l0.5,1.7L7.4,0.8L7,1l0.8,2.8L8.3,3.7z M9.7,3c0,0.2,0.1,0.3,0.3,0.2l0.9-0.1c0.2,0,0.3-0.1,0.2-0.3
		L11,2.1l-0.4,0.1l0.1,0.6l-0.6,0.1L9.8,0.7l0.6-0.1l0.1,0.6l0.4-0.1l-0.1-0.7c0-0.2-0.1-0.3-0.3-0.2L9.6,0.3
		c-0.2,0-0.2,0.1-0.2,0.3L9.7,3L9.7,3z M11.8,3.1l1,0C12.9,3.1,13,3,13,2.8l0-2.4c0-0.2-0.1-0.3-0.3-0.3l-1,0
		c-0.2,0-0.3,0.1-0.3,0.3l0,2.4C11.5,3,11.6,3,11.8,3.1L11.8,3.1z M12,0.5l0.6,0l0,2.2l-0.6,0L12,0.5L12,0.5z M13.7,3.2l0.9,0.2
		c0.2,0,0.3,0,0.3-0.2l0.5-2.6l-0.4-0.1l-0.4,2.5l-0.6-0.1l0.4-2.5l-0.4-0.1l-0.5,2.6C13.4,3,13.5,3.1,13.7,3.2z M17.1,3.8L17.5,3
		l0.6,0.3l0.2-0.3l-0.6-0.3l0.4-0.8l0.7,0.3l0.2-0.4l-1.1-0.5l-1.3,2.7l1.1,0.5l0.2-0.3L17.1,3.8z M20.5,2.8l-1-0.6L18,4.6l0.4,0.2
		L19,3.8l0.1,0.1l-0.3,1.4l0.4,0.3l0,0l0.3-1.4l0.1,0.1c0.1,0.1,0.3,0.1,0.4-0.1l0.6-0.9C20.7,3,20.7,2.9,20.5,2.8L20.5,2.8z
		 M19.7,3.8l-0.5-0.3l0.5-0.8L20.2,3L19.7,3.8L19.7,3.8z M17.4,1.1L17.4,1.1l-0.4-0.1l-1,1.9l0.3-2.1l-0.4-0.1v0l-0.4,3l0.4,0.1
		L17.4,1.1z M6.4,3.9l0.5-0.2l0.3,0.5l0.4-0.2v0L5.8,1.5L5.4,1.7l0.8,2.9l0,0l0.4-0.2L6.4,3.9L6.4,3.9z M5.9,2.2l0.8,1.1L6.3,3.5
		L5.9,2.2L5.9,2.2z M4.6,2.1L4.3,2.3l0.8,1.9L3.7,2.7L3.3,2.9l0,0l2.1,2.2l0.4-0.2L4.6,2.1L4.6,2.1z"/>
</g>
<g>
	<path class="st2" d="M16.9,8.8c-0.5-1.3-3-1.4-3.6-2.2c-0.2-0.2-0.4-1.7-0.7-1.9c-0.3-0.2-1-0.1-1-0.1c0,0.2-0.1,2-0.4,2.4
		C11,7.1,10.6,7.2,10,7.5L9.8,7.8l-0.3,1L9,8.6l0.1,0.4L8.4,9.1l0.4,0.1l-1.2,0.9l0.3,0L7.5,11c0.6-0.3,0.8-0.3,0.8-0.3l-0.2-0.2
		l1.3-0.5c0,0-0.1,0.3-0.1,0.7c0,0.1,0,0.2,0,0.3c0.1-0.1,1.1-1.1,2.3-1.4L9.9,11c0,0,1.5,0.1,1.8,0c1.1-0.5,2-1,2.7-1.4
		c1.6,0.4,2.4,1,2.4,1l0.2-0.2c-0.1-0.1-0.7-0.5-1.9-0.9c0.4-0.1,0.8-0.3,0.9-0.3c0.3,0,0.8,0.3,1.4,0.7l0.1-0.1c0,0,0,0,0.1-0.1
		c0-0.1,0-0.1,0-0.2C17.6,9.2,17.2,9,16.9,8.8L16.9,8.8z M18,13.8c-0.2,0-0.3,0.1-0.3,0.3s0.1,0.3,0.3,0.3c0.2,0,0.3-0.1,0.3-0.3
		C18.3,13.9,18.2,13.8,18,13.8C18,13.8,18,13.8,18,13.8z M18,14.3c-0.1,0-0.2-0.1-0.2-0.2s0.1-0.2,0.2-0.2c0.1,0,0.2,0.1,0.2,0.2
		S18.1,14.3,18,14.3z"/>
	<path class="st2" d="M18.1,14C18.1,13.9,18.1,13.9,18.1,14L18.1,14l-0.2-0.1v0.3h0.1v-0.1h0l0.1,0.1h0.1L18.1,14
		C18.1,14.1,18.1,14,18.1,14z M18,14L18,14L18,14L18,14C18,13.9,18.1,14,18,14C18.1,14,18,14,18,14z"/>
</g>
<g>
	<path class="st0" d="M10.6,8.6L9.9,9l1.4,0.2L10.6,8.6L10.6,8.6z M9.7,9.7l0.1-0.9L8.2,9.9L9.7,9.7L9.7,9.7z M11,7.3L9.9,7.9
		l0.3,0.7L11,7.3L11,7.3z"/>
</g>
<g>
	<path class="st1" d="M8.6,9.7l1-0.2L9.7,9L8.6,9.7z M11,9l-0.5-0.3l-0.4,0.2L11,9z M10.1,8.4l0.6-0.8L10,8L10.1,8.4z"/>
	<path class="st1" d="M12.9,13.5c-3,0-3.8-2.1-3.8-2.9c0-0.2,0-0.3,0-0.4l-0.7,0.2l0.1,0.2L8,10.9l-0.5,0.3l1,0.2L8.3,12l0.4-0.1
		l0.4,1l0.5-0.1l0.2,0.7c0,0,0.9,0.6,2.4,0.8c2,0.2,3.8-0.5,3.8-0.5s-2.1,0.8-4,0.6c-1.5-0.2-2.4-0.8-2.4-0.8l0-0.6l-0.6,0l-0.3-1
		L8,12.3l0.2-0.9l-1-0.1l0.2-0.6l0.2-0.5l-0.3,0l1.3-1L8.1,9L9,8.8L8.7,8.2l0.6,0.3l0.2-0.7c-0.7,0.2-2.2,1-3.1,3.3
		c0.1,0.5,1,4.1,6,4.1c2.2,0,3.7-0.8,4.2-1.1l-0.5-1.2C15.1,13.3,14,13.5,12.9,13.5L12.9,13.5z M8.6,6.4L9,7.6l0.7,0.2L10,7.4
		L8.6,6.4z"/>
</g>
<g>
	<path class="st3" d="M12.5,6.5C12.4,6.4,12.3,5,12.3,5s0,1.3-0.1,1.5c-0.1,0.1-0.5,0.3-0.5,0.3s0.4-0.1,0.6-0.2
		c0.2,0,0.6,0.1,0.6,0.1S12.6,6.6,12.5,6.5L12.5,6.5z M12.5,8.9c-2.1,0.1-3.1,2-3.2,2.1c0.1-0.1,1.1-1.1,2.3-1.4L12.5,8.9L12.5,8.9z
		 M16.9,8.8c-1.2-0.1-1.5-0.4-1.5-0.6c0-0.1,0.1-0.1,0.1-0.1c0.3,0,0.6,0.2,0.8,0.4c-0.1-0.3-0.8-0.7-1.3-0.7c-0.1,0-0.2,0-0.2,0.2
		c0,0.3,0.4,0.7,1.6,0.8c0.6,0.1,1.2,0.5,1.1,0.9c0-0.1,0-0.1,0-0.2C17.6,9.2,17.2,9,16.9,8.8L16.9,8.8z M15.3,9.5l0.4,0.2
		c0.1,0,0.1-0.1,0.2-0.1c0,0,0,0,0,0c-0.1,0-0.2-0.1-0.3-0.1L15.3,9.5L15.3,9.5z M15.7,9.3c0.1,0,0.3,0.1,0.3,0.1c0,0,0,0,0.1,0
		c0,0,0.1-0.1,0.2-0.1c-0.1,0-0.2-0.1-0.3-0.1C15.9,9.3,15.7,9.3,15.7,9.3L15.7,9.3z M16.2,9.5C16.2,9.5,16.2,9.5,16.2,9.5
		c0,0,0.3,0.2,0.3,0.2c0,0,0,0,0.1,0c0.1,0,0.1-0.1,0.1-0.1l-0.3-0.2C16.3,9.4,16.2,9.5,16.2,9.5L16.2,9.5z M16.4,9.7
		C16.4,9.7,16.4,9.7,16.4,9.7c-0.1-0.1-0.2-0.1-0.3-0.2c0,0,0,0-0.1,0c-0.1,0-0.1,0.1-0.2,0.1l0.4,0.2C16.3,9.8,16.4,9.7,16.4,9.7
		L16.4,9.7z M16.8,9.9C16.8,9.9,16.8,9.9,16.8,9.9c0.1,0,0.1-0.1,0.2-0.1l-0.3-0.2c-0.1,0-0.1,0.1-0.1,0.1c0,0,0,0,0,0
		C16.6,9.7,16.8,9.9,16.8,9.9z M16.9,9.9C16.9,9.9,16.9,9.9,16.9,9.9c0,0,0.1,0.1,0.2,0.2l0.1-0.1L17,9.8C17,9.8,17,9.9,16.9,9.9
		L16.9,9.9z M16.8,9.9C16.8,9.9,16.8,9.9,16.8,9.9c-0.1-0.1-0.2-0.1-0.3-0.2c0,0,0,0-0.1,0c0,0-0.1,0-0.1,0.1l0.3,0.2
		C16.7,10,16.8,9.9,16.8,9.9L16.8,9.9z M16.8,10c0,0-0.1,0.1-0.1,0.1l0.3,0.2l0.1-0.1C17.1,10.1,17,10,16.8,10
		C16.9,10,16.8,10,16.8,10L16.8,10z"/>
	<path class="st3" d="M14.4,9.5c1.6,0.4,2.3,1,2.3,1l0.2-0.2c-0.1-0.1-0.7-0.5-1.9-0.9c0.4-0.1,0.8-0.3,0.9-0.3
		c0.3,0,0.8,0.3,1.4,0.7l0.1-0.1C17,9.4,16.4,9,16,9C15.6,9,15.1,9.2,14.4,9.5L14.4,9.5z"/>
</g>
</svg>
