<?xml version="1.0" encoding="utf-8"?>
<!-- Generator: Adobe Illustrator 23.0.1, SVG Export Plug-In . SVG Version: 6.00 Build 0)  -->
<svg version="1.1" id="Ebene_1" xmlns="http://www.w3.org/2000/svg" xmlns:xlink="http://www.w3.org/1999/xlink" x="0px" y="0px"
	 viewBox="0 0 24 16" style="enable-background:new 0 0 24 16;" xml:space="preserve">
<style type="text/css">
	.st0{fill:#CF0A2C;}
	.st1{fill:#041E41;}
	.st2{fill:#FFFFFF;}
</style>
<path class="st0" d="M6.8,5.6l0.5-0.3l0.5,0.3L7.5,5L8,4.7H7.4L7.2,4.1L7.1,4.7H6.5L7,5L6.8,5.6z M9.9,5.6l0.5-0.3l0.5,0.3L10.7,5
	l0.5-0.3h-0.6l-0.2-0.6l-0.2,0.6H9.6L10.1,5L9.9,5.6z M13,5.6l0.5-0.3l0.5,0.3L13.8,5l0.5-0.3h-0.6l-0.2-0.6l-0.2,0.6h-0.6L13.2,5
	L13,5.6z M5.6,6.3l0,0.6h0.2l0.5-0.7H6.1L5.7,6.7l0-0.5H5.6L5.2,6.7h0l0-0.5H5l0,0.7h0.2L5.6,6.3z M6,6.9h0.2l0.1-0.2h0.4l0,0.2h0.2
	L6.8,6.2H6.6L6,6.9L6,6.9z M6.7,6.6H6.4l0.3-0.3L6.7,6.6L6.7,6.6z M7.9,6.4c0.1-0.1,0-0.2-0.2-0.2c-0.2,0-0.3,0.1-0.4,0.2
	C7.1,6.7,7.7,6.5,7.6,6.7c0,0.1-0.1,0.1-0.2,0.1c-0.1,0-0.2-0.1-0.1-0.1H7.1C7,6.8,7.1,6.9,7.3,6.9c0.2,0,0.4-0.1,0.5-0.2
	c0.1-0.3-0.5-0.1-0.4-0.3c0-0.1,0.1-0.1,0.2-0.1c0.1,0,0.2,0,0.1,0.1L7.9,6.4L7.9,6.4z M8,6.9l0.1-0.3h0.4L8.4,6.9h0.2l0.3-0.7H8.7
	L8.6,6.5H8.2l0.1-0.3H8.1L7.9,6.9L8,6.9z M8.9,6.9l0.3-0.7H9.1L8.8,6.9H8.9z M9.3,6.9l0.2-0.5h0l0.2,0.5h0.2l0.3-0.7H10L9.8,6.7h0
	L9.6,6.2H9.4L9.1,6.9H9.3z M11.1,6.4c0.1-0.2-0.1-0.2-0.3-0.2c-0.2,0-0.5,0.1-0.6,0.4c-0.1,0.3,0,0.4,0.3,0.4c0.1,0,0.3,0,0.4-0.1
	L11,6.5h-0.4l0,0.1h0.2l-0.1,0.1c-0.1,0-0.1,0-0.2,0c-0.2,0-0.2-0.1-0.2-0.3c0.1-0.2,0.2-0.3,0.4-0.3c0.1,0,0.2,0,0.1,0.1L11.1,6.4
	L11.1,6.4z M11.3,6.9h0.2l0.2-0.6h0.3l0-0.1h-0.7l0,0.1h0.3L11.3,6.9z M12.2,6.9c0.2,0,0.5-0.1,0.6-0.4c0.1-0.2,0-0.4-0.3-0.4
	S12,6.3,11.9,6.5C11.8,6.8,11.9,6.9,12.2,6.9z M12.1,6.5c0.1-0.2,0.2-0.3,0.4-0.3s0.2,0.1,0.1,0.3c-0.1,0.2-0.2,0.3-0.4,0.3
	C12.1,6.8,12,6.7,12.1,6.5z M13.4,6.7l-0.2-0.5h-0.2l-0.3,0.7h0.1l0.2-0.5l0.2,0.5h0.2l0.3-0.7h-0.1L13.4,6.7L13.4,6.7z"/>
<path class="st1" d="M22.3,10.2c0,0.1,0.1,0.2,0.2,0.2s0.2-0.1,0.2-0.2c0-0.1-0.1-0.2-0.2-0.2C22.4,10,22.3,10.1,22.3,10.2z
	 M22.7,10.2c0,0.1-0.1,0.2-0.2,0.2c0,0,0,0,0,0c-0.1,0-0.2-0.1-0.2-0.2s0.1-0.2,0.2-0.2C22.6,10,22.7,10.1,22.7,10.2L22.7,10.2z"/>
<path class="st1" d="M22.4,10.3L22.4,10.3l0-0.1h0l0,0.1h0.1l0-0.1c0,0,0.1-0.1,0-0.1c0,0,0,0-0.1,0h-0.1L22.4,10.3L22.4,10.3z
	 M22.4,10.1L22.4,10.1C22.5,10.1,22.5,10.1,22.4,10.1C22.5,10.2,22.5,10.2,22.4,10.1C22.5,10.2,22.5,10.2,22.4,10.1L22.4,10.1
	L22.4,10.1L22.4,10.1z"/>
<path class="st0" d="M17.7,12.3H16L15.5,13h1.7L17.7,12.3z"/>
<g>
	<path class="st1" d="M3.7,8.2h0.9l0.2-0.5H3.9c-1.1,0-2.2,0.6-2.5,1.4C1.2,9.6,1.5,10,2.1,10h1.2c0.5,0,1.1-0.5,1.1-0.5L3.8,9.2
		c0,0-0.2,0.2-0.5,0.2H2.2C2,9.4,2,9.3,2.1,9.1C2.3,8.6,3,8.2,3.7,8.2L3.7,8.2z M7.2,10l0.5-1.3c0.2-0.6-0.1-1-0.8-1H5.2L5,8.2h1.9
		c0.4,0,0.3,0.3,0.3,0.3H5.8C5.3,8.5,4.9,8.7,4.8,9C4.5,9.6,4.8,10,5.5,10h0.7c0.2,0,0.5-0.1,0.5-0.1L6.5,10H7.2z M14.9,7.7
		l-0.2,0.5h2.1c0.4,0,0.3,0.3,0.3,0.3h-1.3c-0.5,0-0.9,0.2-1.1,0.6c-0.2,0.5,0.1,0.9,0.7,0.9H16c0.2,0,0.5-0.1,0.5-0.1L16.4,10h0.7
		l0.5-1.3c0.2-0.6-0.1-1-0.8-1L14.9,7.7L14.9,7.7z M18,10l2.1-5.1h-0.7L17.4,10H18z M13,7.7h-0.7l-0.2,0.5h0.7L13,7.7z M12,10
		l0.6-1.5H12L11.4,10H12z M19.2,8.2c-0.2,0.5,0.1,0.9,0.6,0.9h1.3c0.1,0,0.1,0.1,0.1,0.2c0,0.1-0.2,0.2-0.2,0.2h-2.5L18.4,10h2.5
		c0.5,0,0.9-0.1,1.1-0.5c0.2-0.5-0.1-0.9-0.6-0.9h-1.3c-0.1,0-0.1-0.1-0.1-0.2c0-0.1,0.1-0.2,0.2-0.2h2.2l0.2-0.5h-2.2
		C19.8,7.7,19.4,7.9,19.2,8.2L19.2,8.2z M11.3,9.4L12,7.7h-1.6c-1.2,0-2.2,0.8-2.6,1.7l-0.8,2h0.7l0.8-1.9c0.3-0.7,0.9-1.3,2-1.3
		h0.7l-0.4,1c-0.1,0.1-0.2,0.2-0.3,0.2H8.8L8.6,10h1.8C10.7,10,11.1,9.8,11.3,9.4L11.3,9.4z"/>
	<path class="st1" d="M12.8,10.7c-0.2,0.5-0.2,1.3,0,1.6l1.3,2.1l0.9-1.2l-1.6-1.3c-0.2-0.1-0.2-0.5-0.1-0.7l4.1-9.9h-0.7L14,7.7
		h-0.8L13,8.2h0.8L12.8,10.7L12.8,10.7z"/>
</g>
<g>
	<path class="st2" d="M15.5,9c-0.1,0-0.2,0.1-0.3,0.2s0,0.2,0.1,0.2h1c0.1,0,0.3-0.1,0.4-0.2l0.1-0.3c0,0-0.2,0.1-0.4,0.1
		C16.4,9,15.5,9,15.5,9z M5.6,9C5.5,9,5.4,9.1,5.3,9.2s0,0.2,0.1,0.2h1c0.1,0,0.3-0.1,0.4-0.2L7,8.9C7,8.9,6.8,9,6.6,9H5.6L5.6,9z"
		/>
</g>
</svg>
