<?xml version="1.0" encoding="utf-8"?>
<!-- Generator: Adobe Illustrator 23.0.1, SVG Export Plug-In . SVG Version: 6.00 Build 0)  -->
<svg version="1.1" id="Ebene_1" xmlns="http://www.w3.org/2000/svg" xmlns:xlink="http://www.w3.org/1999/xlink" x="0px" y="0px"
	 viewBox="0 0 24 16" style="enable-background:new 0 0 24 16;" xml:space="preserve">
<style type="text/css">
	.st0{fill:#FFFFFF;}
	.st1{fill:#111111;}
	.st2{fill:#8C2633;}
	.st3{fill:#E2D6B5;}
</style>
<g>
	<path class="st0" d="M18.6,7.5c0,0,0.2-0.8-0.7-1.5c0,0.7-0.3,1-0.3,1l-0.1,0l-0.2-0.5l0.9-1.8c0,0.2,0.1,0.3,0.1,0.3l0.2-0.5
		c0.1-0.3,0.2-0.6,0.2-1L18.9,3l-0.1-1.8c-0.1-0.3-0.4-0.6-0.7-0.7c-0.3-0.1-0.7,0-0.9,0.2l-3.8,2.9C11.5,3.7,10,4.6,9.1,6.1
		L4.7,9.6c0.2,0.5,1.3,1.9,3,1.6L8.6,11c0,0,0.7,3.9,4.1,4.5c0,0-1.1-1.9-0.9-3.4c0,0,0.8,2.2,2.3,1.9c-1.2-1.5-0.5-3-0.5-3
		s0.6,1,2,0.9c0,0-0.9-1-0.6-2.3l2.3,0.1l1.2-0.5l0.8-1.5L18.6,7.5z"/>
	<path class="st1" d="M18.1,6.4c0,0.4-0.4,0.8-0.4,0.8l-0.3-0.2l-0.3-0.7L18.2,4c0.1,0.1,0.1,0.2,0.1,0.3c0.1-0.3,0.2-0.6,0.2-0.9
		L18.7,3l-0.1-1.7c-0.1-0.2-0.3-0.5-0.6-0.5c-0.2-0.1-0.5,0-0.7,0.1l-3.8,3c-1.9,0.1-3.4,0.9-4.3,2.4L5,9.6c0,0,0.8,1.5,2.6,1.3
		l1.2-0.2c0.1,0.5,0.8,3.7,3.5,4.4c-0.5-0.9-1.1-2.4-0.5-3.7c0.8,2.5,1.9,2.4,1.9,2.4c-1.1-1.6-0.2-3.2-0.2-3.2
		c0.4,0.8,1.1,1.1,1.6,1.1c0,0-0.8-1-0.4-2.4l2.4,0.1L18.3,9l0.7-1.2l-0.5-0.2C18.6,6.9,18.1,6.4,18.1,6.4z"/>
	<path class="st2" d="M18.2,7.6L18.2,7.6c0-0.1,0.1-0.5,0-0.8c-0.1,0.2-0.2,0.5-0.4,0.6l-0.5-0.3l0,0l1.1,0.7L17.6,8h0L17,7.8h0l0,0
		c0-0.2,0.1-0.6,0-0.9c-0.1,0.3-0.2,0.5-0.4,0.7L16,7.4l-0.5-1.3l1.7-2.8c0.1,0.1,0.2,0.3,0.3,0.4c0.1-0.3,0-0.6-0.1-0.8l0.2-0.3
		l0.5-0.4l0.1,0.5L17.5,5l0.7-1.4c0,0,0.1,0.1,0.2,0.4c0.1-0.2,0-0.7,0-0.7l0.2-0.4l-0.1-1.4c-0.1,0.1-0.2,0.4-0.2,0.5
		c-0.2-1.1-0.6-0.3-0.7-0.9l-0.4,0.3c-0.1,0.3-0.1,0.6-0.1,0.8c0,0-0.2-0.3-0.3-0.5c-0.1,0.3-0.1,0.6-0.1,0.9c0,0-0.3-0.3-0.4-0.6
		c-0.1,0.3-0.1,0.7-0.1,1c0,0-0.3-0.3-0.4-0.6c-0.1,0.4-0.1,0.7-0.1,1.1c0,0-0.3-0.4-0.4-0.7l-1.8,1.4c-0.1,0.1-0.7,0.7-0.9,1.5
		c0,0,0-0.6,0-0.8C12.5,5,12,5.4,11.7,5.7c0,0,0-0.6,0.3-0.9C11.4,5.2,10.6,6,10.6,6c0.7-1.1,1.2-1.5,1.4-1.7
		c-1.3,0.4-2.5,1.3-3,2.9c0-0.2,0-0.4,0.1-0.6l-3.8,3c0,0,0.6,1.1,2.2,1l2.1-0.3c0,0-0.2-0.6-0.2-1c0.3,0.9,0.7,1.2,0.7,1.2L9,10.7
		c0.2,0.8,0.7,3,2.8,4c-0.4-0.8-0.6-1.7-0.5-2.7c0.1-0.9,0.6-1.5,0.6-1.5c0.1,1.1,0.6,1.9,0.9,2.3c0.1,0.1,0.2,0.2,0.3,0.3
		c0,0-0.4-0.8-0.1-2.2c0-0.1,0.3-0.8,0.5-1c0.2,0.5,0.6,1,1.1,1.3C14.2,10.1,14.6,9,14.6,9s2.5,0.1,2.5,0.1l0.9-0.4l0.5-0.9
		L18.2,7.6z"/>
	<path class="st1" d="M8.9,7.3C8.7,7.5,8.3,7.8,7.8,8.2c-0.6,0.5-1.3,1-1.9,1.5c0.3,0.5,0.9,0.6,1.3,0.7c0.1,0,0.2,0,0.3,0L9.3,10
		C9.3,10,6.7,9.4,8.9,7.3z M14.8,5.6l2.7-3l-2.8,2.9c0,0-0.7,0.1-1.7,0.9c0.5,1-1.9,4-2.9,3.2c0.2,0.6,1,0.4,1,0.4
		c-0.1,0.2-1.1,1.9,0.2,3.9C9.1,10.4,14,7.1,14.3,7c-0.1-0.5-0.8-0.6-0.8-0.6C13.9,5.9,14.9,5.6,14.8,5.6L14.8,5.6z"/>
	<polygon class="st2" points="16.6,6.3 17,6.8 16.8,6.3 17,5.7 	"/>
	<path class="st3" d="M12.9,4.6c0-0.1-0.2-0.1-0.2-0.1c0.1-0.1,0.3-0.2,0.4-0.2c0.1-0.1,0.1-0.1,0.1-0.2c-0.1,0-0.4,0.1-1,0.5
		C12.4,4.6,12.6,4.5,12.9,4.6z M5.9,9.7c0.3,0.5,0.9,0.6,1.3,0.7c-0.1-0.1-0.5-0.5-0.4-0.8c0.2,0.2,0.5,0.2,0.7,0.3
		c0,0-0.3-0.9,0.2-1.7C7.2,8.7,6.6,9.2,5.9,9.7z M18.2,7.6L18.2,7.6c0-0.1,0.1-0.5,0-0.8c-0.1,0.2-0.2,0.5-0.4,0.6l-0.5-0.3l0,0
		l1.1,0.7L17.6,8h0L17,7.8h0l0,0c0-0.2,0.1-0.6,0-0.9c-0.1,0.3-0.2,0.5-0.4,0.7L16,7.4l-0.5-1.3l1.7-2.8c0.1,0.1,0.2,0.3,0.3,0.4
		c0.1-0.3,0-0.6-0.1-0.8l0.2-0.3l0.5-0.4l0.1,0.5L17.5,5l0.7-1.4c0,0,0.1,0.1,0.2,0.4c0.1-0.2,0-0.7,0-0.7l0.2-0.4l-0.3-0.7
		l-0.8,0.4l-2.6,3c0.1,0-0.9,0.3-1.2,0.8c0,0,0.7,0.1,0.8,0.6c-0.3,0.1-5.2,3.5-3.1,6.9c0.2,0.3,0.4,0.6,0.7,0.9
		c-0.4-0.8-0.6-1.7-0.5-2.7c0.1-0.8,0.3-1.5,0.8-2.2c0,0,0,1.9,0.8,3c0.1,0.1,0.2,0.2,0.3,0.3c0,0-0.4-0.8-0.1-2.2
		c0.1-0.6,0.4-1.2,0.7-1.7c-0.2,1,0.7,1.8,0.9,2C14.2,10.1,14.6,9,14.6,9s2.5,0.1,2.5,0.1l0.9-0.9l0.1,0.5l0.5-0.9L18.2,7.6z"/>
	<polygon class="st1" points="15.9,5.2 15.1,6.1 15.8,7.4 15.3,6.1 	"/>
</g>
</svg>
