<?xml version="1.0" encoding="utf-8"?>
<!-- Generator: Adobe Illustrator 23.0.1, SVG Export Plug-In . SVG Version: 6.00 Build 0)  -->
<svg version="1.1" id="Ebene_1" xmlns="http://www.w3.org/2000/svg" xmlns:xlink="http://www.w3.org/1999/xlink" x="0px" y="0px"
	 viewBox="0 0 24 16" style="enable-background:new 0 0 24 16;" xml:space="preserve">
<style type="text/css">
	.st0{fill:#CE1126;}
	.st1{fill:#FFFFFF;}
</style>
<path d="M17.5,12.7c-0.2,0-0.3,0.1-0.3,0.3c0,0.2,0.1,0.3,0.3,0.3s0.3-0.1,0.3-0.3C17.8,12.8,17.6,12.7,17.5,12.7z M17.5,13.3
	c-0.1,0-0.2-0.1-0.2-0.2c0-0.1,0.1-0.3,0.2-0.3s0.2,0.1,0.2,0.2C17.7,13.1,17.6,13.3,17.5,13.3C17.5,13.3,17.5,13.3,17.5,13.3z"/>
<path d="M17.6,12.9c0-0.1,0-0.1-0.1-0.1h-0.2v0.4h0.1V13h0l0.1,0.1h0.1L17.5,13C17.6,13,17.6,13,17.6,12.9L17.6,12.9z M17.5,13
	L17.5,13L17.5,13L17.5,13C17.5,12.9,17.5,12.9,17.5,13L17.5,13C17.5,13,17.5,13,17.5,13L17.5,13L17.5,13z M19.5,2.2
	c0-1.4-1.3-2-2.5-1.9c0,0,0.5,0.5,0.5,0.9c0,0.2-0.1,0.4-0.6,0.4h-1.9c-0.4,0-0.7-0.1-0.7-0.4c0-0.4,0.6-0.9,0.6-0.9
	s-1.3,0.1-2.1,0.7C9.3,0.6,6,3.2,5.5,6.9c-0.2,1.5,0.1,3,0.9,4.2c-0.1,0.1-0.2,0.1-0.3,0.1c-0.5,0-0.5-1-0.5-1s-1.2,1.4-1.2,3.2
	c0,1.1,0.5,2.1,0.5,2.1s1.3-1.6,4-1.6c0,0-1.3-0.5-1.3-1.1c0,0,0-0.1,0.1-0.1c2.7,2.4,6.9,2.2,9.4-0.5c2-2.2,2.3-5.5,0.6-8
	C18.4,4,19.5,3.6,19.5,2.2L19.5,2.2z"/>
<path class="st0" d="M17.6,0.6c0,0,0.2,0.2,0.2,0.6S17.5,1.9,17,1.9h-1.9c-0.7,0-1-0.4-1-0.7c0-0.3,0.2-0.5,0.2-0.5
	s-1.8,0.4-1.8,1.9c0,1.3,1.4,1.3,1.4,1.3h0.4l-1.1,3l-1.8-2.2C11.3,4.5,10.8,4,10.2,4C9.3,4,8.9,5,8.8,5.3l-1.9,4.9
	c0,0,0.7-0.2,1.6-0.2c0.8,0,1.4,0.2,1.4,0.2l0.9-2.3l1.1,2l-0.8,0.8c-0.5,0.5-1.6,0.2-2.6,0.2c-1.9,0-1.7,0.6-2.4,0.6
	c-0.5,0-0.6-0.6-0.6-0.6s-0.7,1.2-0.7,2.5C4.7,14.2,5,15,5,15s1.5-1.3,3-1.3c0,0-0.7-0.3-0.7-0.9c0-0.2,0.2-0.7,1-0.7
	c1.1,0,1.6,0.7,3,0.7c1.9,0,3-1.2,3.4-2.2l2.5-6.7c0,0,2,0,2-1.6C19.3,0.7,17.6,0.6,17.6,0.6z"/>
<g>
	<path class="st1" d="M10.2,3.7c0.4,0,0.9,0.1,1.4,0.8L13,6.3l0.8-2.2c0,0-1.7,0-1.7-1.5c0-0.3,0.1-0.6,0.2-0.9c-0.1,0-0.2,0-0.2,0
		c-3.3,0-6,2.7-5.9,6c0,0.8,0.2,1.7,0.5,2.4l1.8-4.9C8.9,4.2,9.5,3.7,10.2,3.7L10.2,3.7z M15,10.6c-0.4,1.1-1.6,2.4-3.7,2.4
		c-1.4,0-1.9-0.6-2.9-0.7c2.6,2,6.3,1.6,8.4-1c1.5-1.9,1.7-4.6,0.5-6.7L15,10.6L15,10.6z"/>
	<path class="st1" d="M10.9,10.5l0.6-0.7l-0.7-1.3l-0.7,1.9c0,0-0.8-0.2-1.6-0.2c-0.7,0-1.2,0.1-1.6,0.3c0,0.1,0.1,0.2,0.2,0.3
		c0.3-0.1,0.7-0.2,1.5-0.2C9.6,10.6,10.6,10.9,10.9,10.5L10.9,10.5z"/>
</g>
</svg>
