<?xml version="1.0" encoding="utf-8"?>
<!-- Generator: Adobe Illustrator 23.0.1, SVG Export Plug-In . SVG Version: 6.00 Build 0)  -->
<svg version="1.1" id="Layer_2" xmlns="http://www.w3.org/2000/svg" xmlns:xlink="http://www.w3.org/1999/xlink" x="0px" y="0px"
	 viewBox="0 0 24 16" style="enable-background:new 0 0 24 16;" xml:space="preserve">
<style type="text/css">
	.st0{fill:#111111;}
	.st1{fill:#A4A9AD;}
	.st2{fill:#F95602;}
	.st3{fill:#FFFFFF;}
	.st4{fill:#B5985A;}
</style>
<g id="reg">
	<path class="st0" d="M19.7,11.3l-0.1-0.2c0.1,0,0.1-0.1,0.1-0.2c0-0.1-0.1-0.1-0.1-0.1h-0.2v0.4h0.1v-0.2h0.1L19.7,11.3L19.7,11.3
		L19.7,11.3z M19.5,11h-0.1v-0.1L19.5,11C19.6,10.9,19.6,10.9,19.5,11C19.6,11,19.6,11,19.5,11C19.5,11,19.5,11,19.5,11L19.5,11z"/>
	<path class="st0" d="M19.9,11.1c0-0.2-0.2-0.4-0.4-0.4c-0.2,0-0.4,0.2-0.4,0.4l0,0c0,0.2,0.2,0.4,0.4,0.4
		C19.7,11.4,19.9,11.3,19.9,11.1L19.9,11.1L19.9,11.1z M19.2,11.1c0-0.2,0.1-0.3,0.3-0.3c0.2,0,0.3,0.1,0.3,0.3s-0.1,0.3-0.3,0.3
		C19.3,11.4,19.2,11.2,19.2,11.1z"/>
</g>
<path class="st1" d="M14.2,2.3c-5.5,0-9.8,3-9.8,3s5.4-0.4,5.4,0.7c0,1-4.3,2.6-4.3,2.6s3.4,0.1,3.4,0.9c0,1.4-7,3.2-7,3.2
	s2.4,1.1,6.3,1.1c6.8,0,14.1-3.9,14.1-6.9C22.2,4.1,18.1,2.3,14.2,2.3L14.2,2.3z"/>
<path class="st0" d="M14.2,2.5c-4,0-7.4,1.6-8.9,2.5c0,0,4.6-0.3,4.6,1c0,0.8-2,1.8-3.4,2.4C7.7,8.4,9,8.7,9,9.4
	c0,1.3-4.3,2.6-6.4,3.2c1,0.3,2.9,0.8,5.5,0.8c6.9,0,13.9-3.9,13.9-6.7C21.9,4.2,17.9,2.5,14.2,2.5L14.2,2.5z"/>
<path class="st2" d="M6.8,12.6L6,12.8c0,0,0.7,0.1,1.9,0.1c8.2,0,13.6-5,13.6-5.8c0-0.1,0-0.1,0-0.2C18.5,10.4,12.8,12.8,6.8,12.6
	L6.8,12.6z"/>
<path class="st3" d="M14.3,3.2c-3,0-6.4,1.2-6.4,1.2s3.4-0.2,3.4,1.3c0,1.3-2.4,2.3-2.4,2.3s1.5,0.3,1.5,1.2c0,1.9-4.7,3.1-4.7,3.1
	c10,0.5,15.6-4.8,15.6-5.8C21.3,5.5,18.5,3.2,14.3,3.2L14.3,3.2z"/>
<path class="st4" d="M14.3,3.4c-1.9,0-3.9,0.5-5.2,0.8c0,0,2.4,0.1,2.4,1.4c0,1.1-1.3,1.9-2.1,2.3c0.5,0.2,1.1,0.6,1.1,1.2
	c0,1.4-2.3,2.4-3.7,2.9c9,0,14.2-4.8,14.2-5.7C21.1,5.6,18.4,3.4,14.3,3.4L14.3,3.4z"/>
<path class="st3" d="M12.6,4.8c0,0,2.7,0.6,3.9,1.4l-5.2,1.3l4.9-0.2c-1.1,0.8-5.1,2.7-5.1,2.7s4.9-0.7,8-3.6
	C16.3,4.1,12.6,4.8,12.6,4.8z"/>
<path class="st0" d="M13.7,4.9c0,0,2.1,0.5,3.2,1.4l-3.9,1l3.8-0.1c-1.1,0.9-4.2,2.4-4.2,2.4c1.6-0.4,4.2-1.3,6.2-3
	C17.1,5.1,15,4.9,13.7,4.9L13.7,4.9z"/>
</svg>
