<?xml version="1.0" encoding="utf-8"?>
<!-- Generator: Adobe Illustrator 23.0.1, SVG Export Plug-In . SVG Version: 6.00 Build 0)  -->
<svg version="1.1" id="Layer_1" xmlns="http://www.w3.org/2000/svg" xmlns:xlink="http://www.w3.org/1999/xlink" x="0px" y="0px"
	 viewBox="0 0 24 16" style="enable-background:new 0 0 24 16;" xml:space="preserve">
<style type="text/css">
	.st0{fill:#111111;}
	.st1{fill:none;}
	.st2{fill:#F3BC52;}
	.st3{fill:#CE1126;}
</style>
<g id="reg">
	<path class="st0" d="M10.6,15.1c-0.2,0-0.3-0.1-0.3-0.3c0-0.2,0.1-0.3,0.3-0.3c0.2,0,0.3,0.1,0.3,0.3S10.8,15.1,10.6,15.1
		C10.6,15.1,10.6,15.1,10.6,15.1z"/>
	<path class="st0" d="M10.8,14.7c0-0.1-0.1-0.1-0.1-0.1c0,0,0,0,0,0h-0.2V15h0.1v-0.2h0.1l0.1,0.2h0.1l-0.1-0.2
		C10.8,14.8,10.8,14.7,10.8,14.7L10.8,14.7z M10.7,14.7h-0.1v-0.1h0.1C10.7,14.6,10.7,14.6,10.7,14.7C10.7,14.7,10.7,14.7,10.7,14.7
		L10.7,14.7z"/>
</g>
<path class="st0" d="M20.2,6.8c0,0,0.2-0.6,0.2-1.4c0-2.6-2.1-4.6-4.9-4.6c-2.2,0-3.8,1.5-4.7,1.5c-0.4,0-0.8-0.8-0.8-0.8
	s-0.6,0.3-0.5,1c0,0-0.5-0.3-1.3-0.3c-1,0-1.8,0.6-2,1.2C5,3.9,5.2,4.4,4.2,4.5c0,0,0,1,1.1,1.3C4.8,6.4,3.6,6.5,3.6,6.5
	c0,0.4,0.8,1.3,2.4,1C5.6,8,5.9,8.6,4.9,9.1c0,0,0.1,0.2,0.7,0.4c0,0,0,0.5,0.2,1c0,0-0.6-0.1-1,0.1c0,0,0.6,0.4,0.6,1.3
	c0.1,0.9,0.6,2.3,2.1,2.2c-0.2,0.2-0.7,0.4-0.7,0.4s0.4,0.7,1.5,0.7c1.1,0,1.4-1.2,2.5-1.2c1,0,1.5,0.8,3.1,0.8
	c3.4,0,5.9-3.4,6.1-5.7h-4.2c0,0-0.4,1.6-1.5,1.6c-0.7,0-1.4-0.5-1.4-1.8c0-1.4,1.2-3.9,2.9-3.9c0.5,0,0.7,0.4,0.7,0.9
	c0,0.5-0.2,1-0.2,1L20.2,6.8L20.2,6.8z M7.5,9.9c-0.8,0-1.1-0.6-1.1-0.6c0.3-0.1,0.4-0.5,0.7-0.5c0.3,0,0.3,0.4,1.4,0.7
	C8.3,9.6,8,9.9,7.5,9.9L7.5,9.9z"/>
<path class="st1" d="M7.1,9C6.9,9,6.8,9.3,6.6,9.3c0,0,0.2,0.4,0.8,0.4C7.8,9.7,8,9.5,8,9.5C7.3,9.4,7.2,9,7.1,9L7.1,9z"/>
<path class="st2" d="M20,6.6c0,0,0.1-0.5,0.1-1.2c0-2.5-1.9-4.4-4.7-4.4c-2,0-3.7,1.5-4.7,1.5c-0.4,0-0.9-0.7-0.9-0.7S9.4,2.2,9.7,3
	c0,0-0.6-0.5-1.6-0.5c-1.4,0-1.9,1.1-1.9,1.1c-1.1,0.4-1,1-1.9,1c0,0,0.1,0.9,1.3,1c-0.4,0.8-1.8,1-1.8,1s0.4,0.7,1.6,0.7
	C6.2,7.3,6.8,7,6.8,7C5.6,7.7,6.3,8.6,5.2,9.2c0,0,0.3,0.1,0.6,0.2c0,0,0,0.7,0.3,1.5c0,0-0.3-0.3-1-0.2c0,0,0.4,0.5,0.5,1.1
	c0.1,1,0.6,2.1,1.7,2.1c0.6,0,0.9-0.3,0.9-0.3c-0.1,0.5-1,0.9-1,0.9s0.5,0.4,1.2,0.4c1.1,0,1.3-1.2,2.5-1.2c0.9,0,1.7,0.8,3.1,0.8
	c3.7,0,5.8-3.9,5.9-5.3h-3.9c0,0-0.5,1.5-1.6,1.5c-1,0-1.6-0.8-1.6-2c0-1.5,1.2-4.1,3.1-4.1c0.7,0,0.9,0.6,0.9,1
	c0,0.5-0.2,0.9-0.2,0.9L20,6.6L20,6.6z M6.6,9.3C6.8,9.3,6.9,9,7.1,9c0.2,0,0.2,0.4,1,0.6c0,0-0.3,0.2-0.6,0.2
	C6.9,9.7,6.6,9.3,6.6,9.3L6.6,9.3z"/>
<path class="st3" d="M19.7,6.2c0,0,0.1-0.3,0.1-0.8c0-2.2-1.9-4-4.4-4c-1.9,0-3.5,1.5-4.7,1.5c-0.5,0-0.8-0.4-0.8-0.4s0,1,1.3,1.5
	C9.8,3.8,9.4,2.8,8.2,2.8C7,2.8,6.6,3.7,6.6,3.7s0.3-0.3,0.8-0.3c1.1,0,1.1,1.1,2.4,2.1C9,5.6,8.7,5.1,7.7,5.1c-1.9,0-1.5,1.3-3,1.6
	C4.7,6.8,5,7,5.4,7c1.1,0,1.1-0.5,1.8-0.5C8,6.5,7.9,7,8.8,7.7C8.6,7.7,8,7.3,7.4,7.3c-0.6,0-1,0.4-1.1,1C6.2,8.9,5.9,9,5.9,9
	c0.6,0,0.7-0.6,1.1-0.6c0.4,0,0.7,0.6,1.3,0.7c0.5,0.1,1,0.2,1.2,0.5c-1,0.1-1.1,0.6-2,0.6c-1,0-1.4-0.8-1.4-0.8
	c-0.1,1.1,0.7,2.6,2,2.6c0.7,0,1.2-0.2,1.7,0c-1.6,0.5-1,1.8-2,2.3c0,0,0.2,0.1,0.5,0.1c0.9,0,1.1-1.2,2.5-1.2c1,0,1.8,0.8,3.1,0.8
	c3,0,5.2-3.1,5.4-4.5h-3.1c0,0-0.6,1.6-1.9,1.6c-1.3,0-2-1-2-2.4c0-2,1.5-4.5,3.5-4.5C16.5,4.3,17,5,17,5.7c0,0.3-0.1,0.5-0.1,0.5
	L19.7,6.2L19.7,6.2z"/>
<path class="st3" d="M8.3,4.6c0,0-0.5-0.7-1.4-0.7c-1.1,0-1.4,0.9-2.1,1c0,0,0.2,0.4,0.9,0.4C7.1,5.3,7,4.2,8.3,4.6z M9,12.3
	c-0.6-0.2-1,0.2-1.6,0.2c-1,0-1-1.2-1.7-1.4c0,0,0.2,0.4,0.2,0.6c0,0.4,0.2,1.9,1.3,1.9C8.1,13.5,8,12.8,9,12.3z"/>
<path class="st0" d="M6.4,9.3c0,0,0.3,0.6,1.1,0.6c0.5,0,0.9-0.3,1-0.3C7.3,9.2,7.3,8.8,7.1,8.8C6.8,8.8,6.7,9.2,6.4,9.3L6.4,9.3z
	 M8.1,9.5c0,0-0.3,0.2-0.6,0.2c-0.6,0-0.8-0.4-0.8-0.4C6.8,9.3,6.9,9,7.1,9C7.2,9,7.3,9.4,8.1,9.5L8.1,9.5z"/>
</svg>
