<?xml version="1.0" encoding="utf-8"?>
<!-- Generator: Adobe Illustrator 23.0.1, SVG Export Plug-In . SVG Version: 6.00 Build 0)  -->
<svg version="1.1" id="Ebene_1" xmlns="http://www.w3.org/2000/svg" xmlns:xlink="http://www.w3.org/1999/xlink" x="0px" y="0px"
	 viewBox="0 0 24 16" style="enable-background:new 0 0 24 16;" xml:space="preserve">
<style type="text/css">
	.st0{fill:#FFFFFF;}
	.st1{fill:#F74902;}
</style>
<path d="M15.1,2.1H3.6v0.5c0,0.8,0.3,1.6,0.9,2.2H3.6v0.5c0,0.8,0.3,1.6,0.9,2.2H3.6v0.5c0,0.8,0.3,1.6,0.9,2.2H3.6v0.5
	c0,1.7,1.3,3.1,2.9,3.1h2.7l1.8-3.1c1,1.2,2.5,2,4.1,2c3,0,5.4-2.4,5.4-5.4C20.4,4.5,18,2.1,15.1,2.1L15.1,2.1z"/>
<path d="M11,11.6c-0.2,0-0.4,0.2-0.4,0.4c0,0.2,0.2,0.4,0.4,0.4c0.2,0,0.4-0.2,0.4-0.4S11.3,11.6,11,11.6L11,11.6L11,11.6z M11,12.3
	c-0.2,0-0.3-0.1-0.3-0.3c0-0.2,0.1-0.3,0.3-0.3c0,0,0,0,0,0c0.2,0,0.3,0.2,0.3,0.3C11.3,12.1,11.2,12.2,11,12.3z"/>
<path d="M11.2,11.9c0-0.1-0.1-0.1-0.1-0.1h-0.2v0.4H11V12H11l0.1,0.2h0.1L11.1,12C11.2,12,11.2,11.9,11.2,11.9L11.2,11.9z
	 M11.1,11.9H11v-0.1L11.1,11.9C11.1,11.8,11.1,11.8,11.1,11.9C11.1,11.9,11.1,11.9,11.1,11.9L11.1,11.9z"/>
<path class="st0" d="M15.1,2.3H3.7v0.4c0,1,0.5,1.9,1.2,2.4H3.7v0.4c0,1,0.5,1.9,1.2,2.4H3.7v0.4c0,1,0.5,1.9,1.2,2.4H3.7v0.4
	c0,1.6,1.2,2.9,2.7,2.9H9l1.9-3.2c1,1.3,2.5,2.1,4.2,2.1c2.9,0,5.2-2.3,5.2-5.2C20.3,4.6,17.9,2.3,15.1,2.3z"/>
<path d="M15.1,2.6H4.2c0,1.4,1,2.5,2.3,2.5h4.1c0.1,0,0.1,0.1,0.1,0.1c0,0.1-0.1,0.1-0.1,0.1H4.2c0,1.4,1,2.5,2.3,2.5H9
	c0.1,0,0.1,0.1,0.1,0.1c0,0.1-0.1,0.1-0.1,0.1H4.2c0,1.4,1,2.5,2.3,2.5h0.8c0.1,0,0.1,0.1,0.1,0.1c0,0.1-0.1,0.1-0.1,0.1H4.2
	c0,1.4,1,2.5,2.3,2.5h2.3L13,6.2c0.7-1.1,2.1-1.5,3.3-0.8s1.5,2.1,0.8,3.3c-0.7,1.1-2.1,1.5-3.3,0.8c-0.7-0.4-1.2-1.2-1.2-2
	l-1.6,2.7c1.5,2.2,4.5,2.8,6.7,1.2s2.8-4.5,1.2-6.7C18.1,3.4,16.7,2.6,15.1,2.6L15.1,2.6z"/>
<circle class="st1" cx="15.1" cy="7.5" r="1.4"/>
</svg>
