<?xml version="1.0" encoding="utf-8"?>
<!-- Generator: Adobe Illustrator 23.0.1, SVG Export Plug-In . SVG Version: 6.00 Build 0)  -->
<svg version="1.1" id="Ebene_1" xmlns="http://www.w3.org/2000/svg" xmlns:xlink="http://www.w3.org/1999/xlink" x="0px" y="0px"
	 viewBox="0 0 24 16" style="enable-background:new 0 0 24 16;" xml:space="preserve">
<style type="text/css">
	.st0{fill:#FFFFFF;}
	.st1{fill:#B4975A;}
	.st2{fill:#333F42;}
</style>
<g>
	<path class="st0" d="M12.8,1.6C12.7,1.5,12,0.8,12,0.8s-0.7,0.7-0.8,0.8H6.7v9.8c1.7,1.9,3.1,2.7,5.3,3.8c2.2-1,3.6-1.9,5.3-3.8
		V1.6H12.8z"/>
	<path class="st1" d="M12.8,1.8c0,0-0.8-0.7-0.8-0.7s-0.8,0.7-0.8,0.7H6.9v9.6c1.6,1.7,3,2.6,5.1,3.6c2.2-1,3.6-1.9,5.1-3.6V1.8
		H12.8z"/>
	<path d="M16.8,2.1v9.1c-1.4,1.6-2.9,2.5-4.8,3.4c-1.8-0.8-3.3-1.8-4.8-3.4V2.1h3.2c-1.3,0.7-2.1,2-2.1,3.7v4.9
		c0.9,0.9,2,1.8,3.1,2.3l-2.4-7l2.3,1.1l-0.3,0.3l0.8,2.7h0.2l0.8-2.7l-0.3-0.3l2.3-1.1l-2.4,7c1.1-0.5,2.3-1.4,3.1-2.3V5.9
		c0-1.7-0.8-3-2.1-3.7L16.8,2.1z"/>
	<path class="st2" d="M12.6,2.1c0.1-0.3,0.1-0.3,0.1-0.3S12.1,1.1,12,1.1l0,0v7l0.5-1.6l2.7-1.3C15,3.7,14.1,2.6,12.6,2.1z"/>
	<path class="st2" d="M15.5,6.6l-2,5.8l0.3-0.5c0,0,0.9-0.7,1.5-1.4v-3L15.5,6.6z"/>
	<polygon class="st0" points="11.3,7.5 11.3,7.2 11.1,7.5 11.9,10.1 12,9.9 	"/>
	<path class="st2" d="M11.3,6.1L9.1,5.3l2.3,1.1V3L11.3,6.1z M8.5,6.6l1.7,4.9L9.3,9.2L8.7,7.6L8.5,6.6z"/>
	<polygon class="st0" points="14.9,6.1 12.5,13.1 12.8,12.7 15.2,6 	"/>
	<path class="st0" d="M11.4,2.1c0-0.1,0-0.1-0.1-0.2c0,0,0-0.1-0.1-0.1c-1.7,0.6-2.9,2-2.9,4.1v4.9c0.1,0.1,0.1,0.1,0.2,0.2V5.9
		c0-1.7,0.8-3.1,2.6-3.9C11.2,2,11.3,2.1,11.4,2.1z"/>
</g>
</svg>
