<?xml version="1.0" encoding="utf-8"?>
<!-- Generator: Adobe Illustrator 23.0.1, SVG Export Plug-In . SVG Version: 6.00 Build 0)  -->
<svg version="1.1" id="Layer_1" xmlns="http://www.w3.org/2000/svg" xmlns:xlink="http://www.w3.org/1999/xlink" x="0px" y="0px"
	 viewBox="0 0 24 16" style="enable-background:new 0 0 24 16;" xml:space="preserve">
<style type="text/css">
	.st0{fill:#111111;}
	.st1{fill:#A4A9AD;}
	.st2{fill:#FFFFFF;}
	.st3{fill:#CE1126;}
</style>
<g id="reg">
	<path class="st0" d="M19.5,11.1c-0.2,0-0.4,0.2-0.4,0.5c0,0.2,0.2,0.4,0.4,0.4c0.2,0,0.4-0.2,0.4-0.5
		C19.9,11.3,19.7,11.1,19.5,11.1z M19.5,11.8c-0.2,0-0.3-0.1-0.3-0.3c0,0,0,0,0,0c0-0.2,0.1-0.3,0.3-0.3c0.2,0,0.3,0.1,0.3,0.3
		S19.7,11.8,19.5,11.8L19.5,11.8z"/>
	<path class="st0" d="M19.7,11.4c0-0.1-0.1-0.1-0.1-0.1h-0.2v0.5h0.1v-0.2h0.1l0.1,0.2h0.1l-0.1-0.2C19.7,11.5,19.7,11.5,19.7,11.4
		L19.7,11.4z M19.6,11.5h-0.1v-0.1h0.1C19.6,11.4,19.6,11.4,19.6,11.5C19.6,11.4,19.6,11.5,19.6,11.5z"/>
</g>
<path class="st1" d="M22,5.5c-0.3-1.9-2-2.5-3-2.7l0.9-0.6c0,0-4.5-1-10.3,0.9c-5.3,1.7-8,4.3-7.6,7.4c0.3,1.9,2,2.5,3,2.7l-0.9,0.6
	c0,0,4.5,1,10.3-0.9C19.8,11.2,22.5,8.6,22,5.5L22,5.5z"/>
<path class="st2" d="M21.7,5.6C21.4,3,18.2,3,18.2,3l0.9-0.6c0,0-4.3-0.7-9.5,1C5,4.8,1.8,7.2,2.3,10.4C2.6,13,5.8,13,5.8,13
	l-0.9,0.6c0,0,4.3,0.7,9.5-1C19,11.2,22.2,8.8,21.7,5.6L21.7,5.6z"/>
<path class="st3" d="M21.2,5.7c-0.5-3.2-5.5-2.6-8.1-1.7c-1.4,0.4-2.3,0.9-2.3,0.9c4.7-1.7,8-0.5,8-0.5c-1.6-0.1-3,0.4-3,0.4
	s1.6,0.3,1.8,1.8c0.3,1.9-1.4,4.1-6.4,5.7c-2.8,0.9-5.1,1-5.1,1s3.3,0.5,8.2-1.1C18.9,10.8,21.6,8.5,21.2,5.7z"/>
<path class="st3" d="M12,9.9c1.4-0.4,2.6-1.1,3.2-1.7c0.4-0.3,0.5-0.7,0.5-1c0-0.1-0.1-0.2-0.1-0.3c-0.5-0.5-2.1-0.5-4,0.1
	C9.4,7.6,7.7,8.9,7.8,9.7C8,10.5,9.8,10.6,12,9.9L12,9.9z"/>
<path class="st0" d="M11.8,9c0.9-0.3,1.6-0.8,1.6-1.1s-0.8-0.3-1.7,0C10.7,8.2,10,8.6,10.1,9C10.1,9.3,10.9,9.3,11.8,9z"/>
<path class="st0" d="M5.1,11.6c1.6,0.1,3-0.4,3-0.4s-1.6-0.3-1.8-1.8c-0.3-1.9,1.4-4.1,6.4-5.7c2.8-0.9,5.1-1,5.1-1
	s-3.3-0.5-8.2,1.1c-4.6,1.4-7.3,3.8-6.9,6.5c0.5,3.2,5.5,2.6,8.1,1.7c1.4-0.4,2.3-0.9,2.3-0.9C8.4,12.8,5.1,11.6,5.1,11.6z"/>
<path class="st0" d="M11.3,5.7c-1.7,0.6-2.7,1.2-3,2L7.7,9.2c0,0,0.8-1.4,3.9-2.4c2.3-0.7,3.8-0.6,4,0.1c0.1,0.1,0.1,0.2,0.1,0.3
	c0,0.3-0.1,0.6-0.5,1c-0.6,0.8-1.7,1.7-2.7,2.3c0.8-0.2,4.3-1.9,4.1-3.7C16.4,5.1,14.3,4.8,11.3,5.7L11.3,5.7z"/>
</svg>
