<?xml version="1.0" encoding="utf-8"?>
<!-- Generator: Adobe Illustrator 23.0.1, SVG Export Plug-In . SVG Version: 6.00 Build 0)  -->
<svg version="1.1" id="Ebene_1" xmlns="http://www.w3.org/2000/svg" xmlns:xlink="http://www.w3.org/1999/xlink" x="0px" y="0px"
	 viewBox="0 0 24 16" style="enable-background:new 0 0 24 16;" xml:space="preserve">
<style type="text/css">
	.st0{fill:#003893;}
	.st1{fill:#F95602;}
	.st2{fill:#FFFFFF;}
</style>
<g>
	<path class="st0" d="M18.4,13.7c-0.2,0-0.4,0.2-0.4,0.4c0,0.2,0.2,0.4,0.4,0.4c0.2,0,0.4-0.2,0.4-0.4S18.6,13.7,18.4,13.7
		L18.4,13.7z M18.4,14.5c-0.2,0-0.3-0.1-0.3-0.3c0-0.2,0.1-0.3,0.3-0.3c0.2,0,0.3,0.1,0.3,0.3C18.7,14.3,18.6,14.5,18.4,14.5
		L18.4,14.5z"/>
	<path class="st0" d="M18.6,14.1c0-0.1-0.1-0.1-0.1-0.1h-0.2v0.5h0.1v-0.2h0.1l0.1,0.2h0.1l-0.1-0.2C18.5,14.2,18.6,14.1,18.6,14.1z
		 M18.4,14.1h-0.1V14h0.1C18.5,14,18.5,14,18.4,14.1C18.5,14.1,18.5,14.1,18.4,14.1L18.4,14.1z"/>
</g>
<path class="st1" d="M12,0.6C7.7,0.6,4.3,3.9,4.3,8s3.4,7.4,7.7,7.4s7.7-3.3,7.7-7.4S16.3,0.6,12,0.6z"/>
<path class="st0" d="M19.2,7.6c0-0.1,0-0.2,0-0.4h0C19,5.4,18,3.8,16.6,2.7c-1.3-1-2.9-1.6-4.6-1.6c-1,0-1.9,0.2-2.7,0.5
	C8.6,1.8,8,2.2,7.4,2.7C5.8,3.9,4.8,5.9,4.8,8c0,3.8,3.2,6.9,7.2,6.9s7.2-3.1,7.2-6.9C19.2,7.9,19.2,7.7,19.2,7.6"/>
<path class="st2" d="M11.3,11.9l1-0.2c0.1,0,0.2-0.1,0.2-0.2l0.6-1.3l0.5-1.2L14,8.3l0.2-0.4L14.6,7l2-4.4c-0.2-0.1-0.3-0.2-0.5-0.3
	l-1.3,2.6l-1.5-3.3c0,0-0.1-0.1-0.1-0.1h-2.7c-0.1,0-0.1,0-0.1,0.1v2.2L9.3,1.6C8.6,1.8,8,2.2,7.4,2.7v4c0,0.1,0.1,0.1,0.1,0.1H9
	c0.1,0,0.1-0.1,0.1-0.1V4.9l1.1,1.9c0,0,0.1,0.1,0.1,0.1H12c0.1,0,0.1,0,0.1-0.1V3.2L13.9,7l-0.2,0.4l-1.2,2.5l-0.2,0.4
	c0,0.1-0.1,0.2-0.2,0.2l-3.3,0.5c0,0-0.1,0-0.1,0c0,0,0,0.1,0,0.1l0.2,1.3c0,0,0,0.1,0.1,0.1s0.1,0,0.1,0l0.3-0.1"/>
<g>
	<path class="st1" d="M13.2,10.1l-0.6-0.3l-0.1,0.2l0.6,0.3L13.2,10.1z M13.4,9.5l-0.6-0.3l-0.1,0.2l0.6,0.3L13.4,9.5z M12.6,9.6
		l0.6,0.3l0.1-0.2l-0.6-0.3L12.6,9.6z M10.3,12.2l-0.1-0.4c0,0,0,0,0,0l-0.6-0.2c0,0-0.1,0-0.1,0l-0.2,0.8l-0.3,1.3c0,0,0,0.1,0,0.1
		l0.4,0.1c0,0,0,0,0,0c0,0,0,0,0,0l0.1-0.4l0.5,0.2l0.1,0.5c0,0,0,0,0,0l0.4,0.1c0,0,0,0,0,0c0,0,0,0,0,0L10.3,12.2L10.3,12.2z"/>
	<path class="st1" d="M13.7,7.4c-0.4-0.1-1,0.2-1.4,0c-0.4,0-1,0-1.4-0.2c-0.3,0-0.5,0-0.8-0.1C10,7.3,9.9,7,9.7,7.1
		c-0.1,0-0.2,0.1-0.1,0.2c0,0.2-0.3,0.1-0.5,0.2C8.8,7.7,8.6,7.2,8.4,7.3C8.2,7.2,8,7.2,7.9,7.4c-0.2,0-0.2-0.2-0.4-0.1
		c-0.1-0.1,0.1-0.1,0-0.2C7.4,7,7.2,6.9,7,7c0,0.2,0.2,0.4,0.1,0.6C7,7.6,7,7.4,6.9,7.4C6.8,7.3,6.8,7.5,6.8,7.5
		c-0.2,0-0.2-0.2-0.2-0.4c-0.2,0-0.4,0.1-0.6,0.2c-0.1,0.1,0,0.3-0.2,0.4C5.7,7.7,5.7,7.6,5.6,7.5C5.5,7.4,5.4,7.4,5.3,7.4
		c-0.1,0-0.1,0.1-0.1,0.2c0,0,0,0.1,0.1,0.1c0.1,0,0.1,0.1,0.1,0.1c0,0-0.1,0.1-0.1,0.1C5.2,7.8,5.1,7.7,5,7.8c0,0,0,0.1,0,0.1
		C4.9,8.1,5,8.2,5.1,8.3c0,0.1,0,0.3-0.1,0.4C4.9,8.7,4.9,8.9,4.9,9c0,0.1,0.2,0.1,0.2,0.2C5.1,9.3,5,9.3,5,9.4C5,9.5,5,9.6,5.1,9.7
		c0.1,0,0.1-0.1,0.2-0.1c0,0,0.1,0.1,0.1,0.1c0,0.1,0.1,0.2,0.2,0.1c0.1,0,0.2-0.2,0.3-0.1v1.3l0.3,0.5c0.1,0.1,0.1,0.1,0.1,0V9.8
		c0.2,0,0.4,0,0.5-0.1c0.3,0,0.7,0.1,1-0.1c0.3,0,0.5-0.1,0.8-0.1c0.2,0,0.3,0.1,0.5,0.1c0.3-0.3,0.6,0.1,1-0.1
		c0.2-0.1,0.5,0.1,0.7,0.1c0.2,0,0.4-0.2,0.6,0c0.1,0.1,0.3,0,0.4,0c0.1-0.2,0.3-0.1,0.5-0.2c0.1,0,0.3-0.1,0.5-0.1l0-0.1l0.6,0.3
		l0.1-0.2l-0.6-0.3L13.7,7.4L13.7,7.4z M14.7,7.5c0.2-0.2,0.6,0,0.7-0.3C15.5,7,15.7,7.1,15.9,7c0-0.1,0-0.1,0-0.2
		c0.2-0.2,0.4-0.3,0.6-0.5c0.1-0.1,0.3-0.1,0.5-0.1C17,6.2,17.1,6.1,17.1,6l0,0c-0.2,0-0.5,0-0.7,0.1c-0.3,0.2-0.5,0.4-0.8,0.5
		c-0.2,0.3-0.6,0.4-1,0.5l-0.4,0.8C14.4,7.8,14.7,7.7,14.7,7.5L14.7,7.5z"/>
	<path class="st1" d="M7.7,10.6L7,10c-0.3-0.2-0.5,0-0.5,0.1v0.6c0,0.1,0,0.2,0.1,0.3l0.6,0.8c0,0,0.1,0.1,0.1,0.1v0.1
		c0,0.1-0.1,0.1-0.1,0L7.1,12c-0.1,0,0-0.1,0-0.2v-0.1c0,0,0-0.1-0.1-0.2l-0.3-0.3c-0.1,0-0.1,0-0.1,0.1v0.4c0,0.2,0.1,0.3,0.2,0.4
		l0.7,0.6c0.2,0.2,0.3,0,0.3-0.4v-0.4c0-0.2-0.1-0.4-0.2-0.5l-0.5-0.7c0,0,0-0.1,0-0.1v-0.1c0,0,0-0.1,0.1,0l0.1,0.1
		c0,0,0.1,0.1,0.1,0.1V11c0,0.1,0,0.1,0.1,0.1l0.3,0.2c0.1,0.1,0.2,0,0.2-0.1v-0.4C7.8,10.8,7.7,10.7,7.7,10.6L7.7,10.6z M8.8,13.3
		l-0.4-0.2v-1.9c0,0,0,0,0-0.1l-0.4-0.2c0,0,0,0-0.1,0s0,0,0,0.1v2.2c0,0,0,0,0,0.1l0.8,0.5c0,0,0,0,0.1,0c0,0,0,0,0-0.1L8.8,13.3
		C8.9,13.3,8.9,13.3,8.8,13.3L8.8,13.3z M13.7,11.8l-1,0.2c0,0,0,0-0.1,0.1v2.2c0,0,0,0,0,0s0,0,0.1,0l1-0.2
		c0.5-0.1,0.5-0.4,0.5-0.4V12C14.2,12,14.2,11.7,13.7,11.8L13.7,11.8z M15.5,11.1C15.4,11.1,15.4,11.1,15.5,11.1l-0.9,0.4
		c0,0,0,0,0,0v2.2c0,0,0,0,0,0s0,0,0,0l0.9-0.4c0,0,0,0,0,0v-0.3c0,0,0,0,0,0c0,0,0,0,0,0L15,13.3c0,0-0.1,0-0.1,0c0,0,0,0,0,0v-0.4
		c0,0,0,0,0,0l0.5-0.2c0,0,0,0,0,0v-0.3c0,0,0,0,0,0c0,0,0,0,0,0L15,12.3c0,0,0,0,0,0s0,0,0,0v-0.5c0,0,0,0,0,0l0.5-0.2c0,0,0,0,0,0
		L15.5,11.1C15.5,11.2,15.5,11.2,15.5,11.1L15.5,11.1z M16.5,11.9c0,0,0.3-0.2,0.3-0.6v-0.6c0-0.3-0.2-0.3-0.4-0.2L15.6,11
		c0,0,0,0,0,0v2.2c0,0,0,0,0,0s0,0,0.1,0l0.4-0.3c0,0,0,0,0,0v-0.9l0.1-0.1l0.4,0.5c0,0,0,0,0.1,0l0.3-0.2c0,0,0,0,0,0c0,0,0,0,0,0
		L16.5,11.9L16.5,11.9z M17.6,9.3l-0.5,0.5c-0.1,0.1-0.1,0.3-0.1,0.5v0.2c0,0.2,0,0.3,0.2,0.3l0.3,0.1c0.1,0,0.1,0,0.1,0.1v0.1
		c0,0.1,0,0.1-0.1,0.2s-0.1,0.1-0.1,0v-0.1c0-0.1,0-0.1-0.1,0L17,11.4c0,0-0.1,0.1-0.1,0.1v0.2c0,0.4,0.2,0.4,0.4,0.2l0.5-0.6
		c0.1-0.2,0.2-0.4,0.2-0.6c0-0.2-0.1-0.2-0.2-0.3l-0.2,0c-0.1,0-0.1-0.1-0.1-0.1v-0.1c0,0,0-0.1,0.1-0.2l0,0c0,0,0.1,0,0.1,0v0.2
		c0,0,0,0.1,0.1,0l0.3-0.3C18,9.8,18,9.7,18,9.7V9.4C18,9.1,17.7,9.1,17.6,9.3L17.6,9.3z M14.4,9.6c-0.6,0-1,0.2-1,0.3v0.6
		c0,0.2,0.5,0.3,1,0.3c0.6,0,1-0.2,1-0.3V10C15.4,9.8,15,9.6,14.4,9.6L14.4,9.6z M14.2,8.8c0.2,0.2,0.3-0.1,0.4-0.2
		c0.1,0,0.2,0.1,0.3,0.2c0.3,0.1,0.6,0,0.8-0.1c0.2-0.1,0.5-0.1,0.8-0.2c0.2-0.1,0.3-0.2,0.5-0.2c0.7-0.2,1.6-0.5,2.3-0.8
		c0-0.1,0-0.2,0-0.3L19,7.2c-0.1,0.3-0.5,0.1-0.7,0.4c-0.2,0-0.4,0-0.6,0.2c-0.1,0-0.2,0-0.2-0.1c0-0.2-0.3-0.3-0.1-0.5
		c0-0.1-0.1-0.1-0.2-0.1c-0.1,0.1-0.2,0.2-0.2,0.3c-0.2,0-0.2-0.3-0.4-0.2c-0.2,0.2-0.5,0.3-0.8,0.2c-0.5,0-0.7,0.7-1.2,0.8
		c-0.2,0-0.5-0.1-0.7-0.2l-0.4,0.8L13.9,9C14,9,14.1,8.9,14.2,8.8L14.2,8.8z M12.4,12L12,12c0,0,0,0,0,0s0,0,0,0v1.2l-0.7-1.4
		c0,0,0,0,0,0c0,0,0,0,0,0l-0.5-0.1c0,0-0.1,0-0.1,0.1c0,0,0,0,0,0v2.4c0,0,0,0.1,0.1,0.1l0.4,0.1c0,0,0,0,0.1,0c0,0,0,0,0,0v-1.4
		l0.8,1.5c0,0,0,0,0.1,0l0.4,0c0,0,0.1,0,0.1-0.1L12.4,12C12.4,12.1,12.4,12,12.4,12L12.4,12z"/>
</g>
<g>
	<path class="st0" d="M13.5,12.3l-0.4,0.1v1.5l0.4-0.1c0.2,0,0.2-0.2,0.2-0.2v-1.1C13.7,12.5,13.7,12.3,13.5,12.3L13.5,12.3z
		 M16.3,11.1l-0.2,0.1c0,0,0,0,0,0v0.4c0,0,0,0,0,0c0,0,0,0,0,0l0.1-0.1c0.1-0.1,0.1-0.1,0.1-0.2v-0.2C16.4,11.1,16.3,11,16.3,11.1
		L16.3,11.1z M9.9,13.2l-0.1-0.9l-0.2,0.8L9.9,13.2z M6.4,9.8V9.3L5.9,8.9v0.9C6,9.8,6.2,9.8,6.4,9.8L6.4,9.8z"/>
</g>
<ellipse class="st2" cx="14.4" cy="10" rx="1" ry="0.3"/>
</svg>
