<?xml version="1.0" encoding="utf-8"?>
<!-- Generator: Adobe Illustrator 23.0.1, SVG Export Plug-In . SVG Version: 6.00 Build 0)  -->
<svg version="1.1" id="Ebene_1" xmlns="http://www.w3.org/2000/svg" xmlns:xlink="http://www.w3.org/1999/xlink" x="0px" y="0px"
	 viewBox="0 0 24 16" style="enable-background:new 0 0 24 16;" xml:space="preserve">
<style type="text/css">
	.st0{fill:#8E9090;}
	.st1{fill:#041E41;}
	.st2{fill:#FFFFFF;}
	.st3{fill:#7B303E;}
	.st4{fill:#AC162C;}
	.st5{fill:#55565A;}
</style>
<g>
	<path class="st0" d="M19.2,8c0,4-3.2,7.2-7.2,7.2S4.8,12,4.8,8S8,0.8,12,0.8c0,0,0,0,0,0C16,0.8,19.2,4,19.2,8z"/>
	<path class="st1" d="M18.7,8c0,3.7-3,6.7-6.7,6.7c-3.7,0-6.7-3-6.7-6.7c0-3.7,3-6.7,6.7-6.7c0,0,0,0,0,0C15.7,1.3,18.7,4.3,18.7,8
		C18.7,8,18.7,8,18.7,8z"/>
	<path class="st2" d="M12.7,3.1L12,1.5l-0.7,1.6C8.9,3.4,7,5.5,7,8c0,2.7,2.2,5,5,5c2.7,0,5-2.2,4.9-5C16.9,5.5,15.1,3.4,12.7,3.1
		L12.7,3.1z"/>
	<path class="st3" d="M11.6,10.7l0.1,0.1L11.6,10.7z M10.3,10.8v0.7l1.2-0.6l0.1-0.2l0.4,2.1l0.4-2.1l0.1,0.2l1.2,0.6v-0.7l-0.4-0.6
		l0,0L14,10l-0.3-0.4l0.5-0.5l0.5,0L15,9.3V8.4l0.8-0.7l-0.8,0l0.5-1.5l-1.5,0.6l0-0.8l-1,1c0-0.2,0.4-2.3,0.4-2.3l-1,0.6L10.3,10.8
		z M12.5,5.4L12,5.6l-0.5-0.2l-0.9-0.6c0,0,0.4,2.3,0.4,2.3l-1-1l0,0.8L8.4,6.2L9,7.7l-0.8,0L9,8.4v0.9l0.3-0.1l0.6,0l0.5,0.5L10,10
		l0.5,0.1L12.5,5.4z"/>
	<path class="st4" d="M15.5,6.4l-1.4,0.5l-0.4,0.7l0.3,0.1L15.5,6.4z M13.4,4.9l-0.8,0.6l0.1,0.4L13.4,4.9z M8.3,7.8L9,8.3V7.8
		L8.3,7.8z M11.7,11l0.3,1.5v-0.8L11.7,11z M10.9,7.1L10.9,7.1L10,6.2l0,0.7L8.5,6.4l1.4,1.4l1.2-0.6L10.9,7.1z M11.5,5.4l-0.8-0.5
		v0l0.7,1.6l0-0.5L11.5,5.4z M11.2,9.3L9.9,9.2l0.5,0.5c0,0-0.3,0.4-0.3,0.4l0.6,0.1l0.4-0.5L11.2,9.3z"/>
	<polygon class="st5" points="15,7.1 14.6,8.1 12.8,7.2 12.7,6 12,3 11.4,6 11.3,7.2 9.4,8.1 9,7.1 9,7.6 9,9.3 9.3,9.1 11.2,9.3 
		11.2,9.6 10.3,10.8 10.3,11.5 11.5,11 11.6,10.7 12,11.7 12.4,10.7 12.5,11 13.7,11.5 13.7,10.8 12.9,9.6 12.9,9.3 14.7,9.1 
		15,9.3 15,7.6 	"/>
	<polygon class="st0" points="11.5,6 11.4,7.3 11.3,7.9 11.2,7.3 9.3,8.2 9.1,7.7 9.1,9.1 9.2,9 11.3,9.1 11.3,9.6 10.4,10.8 
		10.4,11.3 11.4,10.9 11.5,10.5 11.5,10.1 11.6,10.4 12,11.3 12,3.6 	"/>
</g>
</svg>
