<?xml version="1.0" encoding="utf-8"?>
<!-- Generator: Adobe Illustrator 23.0.1, SVG Export Plug-In . SVG Version: 6.00 Build 0)  -->
<svg version="1.1" id="Ebene_1" xmlns="http://www.w3.org/2000/svg" xmlns:xlink="http://www.w3.org/1999/xlink" x="0px" y="0px"
	 viewBox="0 0 24 16" style="enable-background:new 0 0 24 16;" xml:space="preserve">
<style type="text/css">
	.st0{fill:#111111;}
	.st1{fill:#FFFFFF;}
	.st2{fill:#ACAEA9;}
</style>
<path class="st0" d="M18.5,0.2h-13v10.8l0.1,0.1l6.3,4.5l0.1,0.1l0.1-0.1l6.3-4.5l0.1-0.1L18.5,0.2L18.5,0.2z"/>
<path class="st1" d="M5.7,11l6.3,4.5l6.3-4.5V0.5H5.7V11L5.7,11z"/>
<path class="st0" d="M16.4,13.4c0-0.1-0.1-0.1-0.1-0.1h-0.2v0.4h0.1v-0.2h0.1l0.1,0.2h0.1l-0.1-0.2C16.4,13.5,16.4,13.5,16.4,13.4
	L16.4,13.4z M16.3,13.5h-0.1v-0.1L16.3,13.5C16.3,13.4,16.3,13.4,16.3,13.5C16.3,13.5,16.3,13.5,16.3,13.5z"/>
<path class="st0" d="M16.2,13.1c-0.2,0-0.4,0.2-0.4,0.4s0.2,0.4,0.4,0.4s0.4-0.2,0.4-0.4S16.4,13.1,16.2,13.1z M16.2,13.8
	c-0.2,0-0.3-0.1-0.3-0.3c0-0.2,0.1-0.3,0.3-0.3c0.2,0,0.3,0.1,0.3,0.3C16.5,13.7,16.4,13.8,16.2,13.8C16.2,13.8,16.2,13.8,16.2,13.8
	z"/>
<g>
	<path class="st2" d="M6.1,10.8L12,15l5.9-4.2V8.2H6.1C6.1,8.2,6.1,10.8,6.1,10.8z M6.1,7.8h11.7V0.9H6.1L6.1,7.8L6.1,7.8z"/>
</g>
<g>
	<path class="st0" d="M6.5,10.6l5.5,4l5.5-4V8.8h-11C6.5,8.8,6.5,10.6,6.5,10.6z M6.5,7.3h11v-6h-11V7.3z"/>
</g>
<g>
	<path class="st2" d="M7.9,5.6V4.3c0-1.5,0.4-2,0.4-2H6.8c0,0,0.4,0.5,0.4,2c0,1.5-0.4,2-0.4,2h4.5c0,0,0.4-0.5,0.4-1.3
		c0,0-0.5,0.5-1.7,0.5L7.9,5.6L7.9,5.6z M12.1,2.2c0,0,0.4,0.5,0.4,2c0,1.5-0.4,2-0.4,2h1V4.8h3.1v1.5h1c0,0-0.4-0.5-0.4-2.1
		s0.4-2,0.4-2S12.1,2.2,12.1,2.2z"/>
</g>
<g>
	<path class="st1" d="M12.2,2.3c0.1,0.2,0.3,0.8,0.3,2c0,1.1-0.2,1.7-0.3,2H13V4.7h3.2v1.5H17c-0.1-0.2-0.3-0.8-0.3-2s0.2-1.7,0.3-2
		L12.2,2.3L12.2,2.3z M7.8,5.7V4.3c0-1.1,0.2-1.7,0.3-2H7c0.1,0.2,0.3,0.8,0.3,2c0,1.1-0.2,1.7-0.3,2h4.3c0.1-0.1,0.3-0.5,0.3-1
		c-0.2,0.2-0.8,0.4-1.6,0.4L7.8,5.7L7.8,5.7z"/>
</g>
<path class="st2" d="M13,4.2h3.2V2.9H13V4.2z"/>
<path d="M13.1,3h3.1v1.1h-3.1L13.1,3z"/>
<path class="st1" d="M13.6,12.6l0.4-2.3l-0.1,0c0,0-0.3,0.4-0.4,0.5c-0.2-0.2-0.5-0.4-0.7-0.5L13,9.9L12.7,10l0,0l-0.3,0
	c0,0-0.2-0.3-0.2-0.4l0.1-0.2l0.1-0.1l-0.1-0.2l-0.2,0l0,0.1l0,0l0,0l0-0.1l-0.2,0l-0.1,0.2l0.1,0.1l0.1,0.2L11.6,10
	c-0.1,0-0.4,0-0.4,0l0,0C11.2,10,11,9.9,11,9.9l0.2,0.4c-0.3,0.1-0.5,0.3-0.7,0.5c-0.1-0.1-0.4-0.5-0.4-0.5l-0.1,0l0.4,2.3
	c0,0,0.6,0.1,1.6,0.1S13.6,12.6,13.6,12.6L13.6,12.6z"/>
<path class="st0" d="M11.7,12.7c0,0-0.5-0.1-0.8-0.2C11,12.5,11.4,12.6,11.7,12.7c0-0.1-0.4-0.1-0.7-0.2c0.2,0,0.5,0.1,0.8,0.1
	c0,0-0.4,0-0.7-0.1c0.3-0.1,0.6-0.1,0.9-0.1s0.7,0,0.9,0.1c-0.3,0.1-0.7,0.1-0.7,0.1c0.3,0,0.6,0,0.8-0.1c-0.3,0.1-0.7,0.1-0.7,0.1
	c0.3,0,0.7,0,0.9-0.1c-0.3,0.1-0.8,0.2-0.8,0.2c0.8,0,1.2-0.1,1.2-0.1l0.4-2.1l-0.4,0.5c-0.2-0.3-0.5-0.5-0.9-0.6l0.1-0.3l-0.6,0.2
	v-0.1L12,9.8l-0.3,0.4v0.1l-0.6-0.2l0.1,0.3c-0.4,0.1-0.7,0.3-0.9,0.6l-0.4-0.5l0.4,2.1C10.4,12.5,10.9,12.7,11.7,12.7z"/>
<g>
	<path class="st2" d="M11.7,10.4l-0.5-0.2l0.5,1.1V10.4z M12.3,10.4v0.9l0.5-1.1L12.3,10.4L12.3,10.4z M12.2,10.4L12,10.1l-0.2,0.3
		l0.2,0.3L12.2,10.4z"/>
	<path class="st2" d="M13.7,11.8c-0.1,0-0.2-0.1-0.2-0.2c0-0.1,0.1-0.2,0.2-0.2c0,0,0,0,0,0l0.1-0.8l-0.6,0.8c0,0.4-0.1,0.5-0.1,0.5
		s-0.2-0.1-0.4-0.1l-0.1-0.4c0,0-0.1,0-0.1,0h0l-0.2,0.3c0,0-0.2,0-0.4,0l0.1-0.3L12,10.9l-0.2,0.5l0.1,0.3c-0.1,0-0.4,0-0.4,0
		l-0.2-0.3c0,0,0,0,0,0c0,0,0,0-0.1,0l-0.1,0.4c-0.2,0-0.4,0.1-0.4,0.1s-0.1-0.1-0.1-0.5l-0.6-0.8l0.1,0.8c0,0,0,0,0,0
		c0.1,0,0.2,0.1,0.2,0.2c0,0.1-0.1,0.2-0.2,0.2l0.1,0.7c0.2-0.1,0.8-0.3,1.5-0.3c0.8,0,1.4,0.2,1.5,0.3L13.7,11.8L13.7,11.8z"/>
</g>
<g>
	<path class="st0" d="M12.1,10.4C12.1,10.3,12,10.3,12.1,10.4L12.1,10.4c-0.1-0.1-0.2-0.1-0.2,0S11.9,10.5,12.1,10.4
		C12,10.5,12.1,10.4,12.1,10.4z M12.5,10.5C12.5,10.4,12.4,10.4,12.5,10.5c-0.1,0-0.2,0-0.2,0.1c0,0,0,0.1,0.1,0.1c0,0,0,0,0,0
		C12.5,10.6,12.5,10.6,12.5,10.5C12.5,10.5,12.5,10.5,12.5,10.5C12.5,10.5,12.5,10.5,12.5,10.5L12.5,10.5z M11.6,10.5
		C11.6,10.4,11.6,10.4,11.6,10.5c-0.1,0-0.2,0-0.2,0.1c0,0,0,0.1,0.1,0.1c0,0,0,0,0,0C11.6,10.6,11.7,10.6,11.6,10.5
		C11.7,10.5,11.7,10.5,11.6,10.5C11.7,10.5,11.6,10.5,11.6,10.5L11.6,10.5z"/>
</g>
<g>
	<path class="st1" d="M10.5,11l0.1,0.1c0.2-0.5,0.7-0.5,0.7-0.5c-0.4,0.2-0.6,0.4-0.6,0.6l0.1,0.1c0,0,0,0.3,0.1,0.5c0,0,0,0,0.1,0
		c-0.2-0.9,0.5-1,0.5-1c-0.5,0.3-0.4,0.7-0.3,1l0.1,0l0.1-0.4c-0.1,0-0.1-0.1-0.1-0.2c0-0.1,0.1-0.1,0.2-0.1c0,0,0.1,0,0.1,0.1
		c0,0,0.1,0.1,0.1,0.1c0,0.1,0,0.1-0.1,0.1l0.2,0.3c0.1,0,0.2,0,0.3,0l-0.5-1.2C10.9,10.6,10.6,10.8,10.5,11L10.5,11z M12.6,11.4
		c-0.1,0-0.1-0.2-0.1-0.2s0.2-0.1,0.2-0.1c0,0,0,0,0,0c0,0,0.1,0.1,0.1,0.1c0,0.1,0,0.1-0.1,0.2l0.1,0.3l0.1,0
		c0.1-0.3,0.1-0.8-0.3-1c0,0,0.7,0.2,0.5,1c0,0,0.1,0,0.1,0c0.1-0.1,0.1-0.5,0.1-0.5l0.1-0.1c-0.1-0.2-0.2-0.5-0.6-0.6
		c0,0,0.5,0.1,0.7,0.5l0.1-0.1c-0.1-0.3-0.4-0.5-0.8-0.6l-0.5,1.2c0.1,0,0.2,0,0.3,0C12.4,11.7,12.6,11.4,12.6,11.4z"/>
	<path class="st1" d="M11.3,11.1c-0.1,0-0.1,0.1-0.1,0.1c0,0.1,0.1,0.1,0.1,0.1c0.1,0,0.1-0.1,0.1-0.1S11.4,11.1,11.3,11.1z
		 M12.8,11.2c0-0.1-0.1-0.1-0.1-0.1s-0.1,0.1-0.1,0.1s0.1,0.1,0.1,0.1S12.8,11.3,12.8,11.2L12.8,11.2z M10.4,11.6
		C10.4,11.6,10.3,11.5,10.4,11.6C10.3,11.5,10.3,11.5,10.4,11.6L10.4,11.6C10.3,11.7,10.4,11.6,10.4,11.6z"/>
	<path class="st1" d="M10.3,11.4C10.3,11.4,10.3,11.4,10.3,11.4L10.3,11.4C10.3,11.4,10.3,11.4,10.3,11.4c0.1,0,0.1,0.1,0.1,0.2
		c0,0.1-0.1,0.1-0.1,0.2l0,0c0.1,0,0.1-0.1,0.1-0.2C10.5,11.5,10.4,11.4,10.3,11.4z M13.6,11.6C13.6,11.6,13.6,11.7,13.6,11.6
		L13.6,11.6C13.7,11.5,13.7,11.5,13.6,11.6C13.7,11.5,13.6,11.6,13.6,11.6L13.6,11.6z"/>
	<path class="st1" d="M13.7,11.8L13.7,11.8c-0.1,0-0.1-0.1-0.1-0.2c0-0.1,0.1-0.2,0.1-0.2c0,0,0,0,0,0l0,0c0,0,0,0,0,0
		c-0.1,0-0.2,0.1-0.2,0.2C13.5,11.7,13.6,11.8,13.7,11.8z M12.1,10.4C12.1,10.3,12,10.3,12.1,10.4c-0.1-0.1-0.2,0-0.2,0
		C11.9,10.4,12,10.4,12.1,10.4C12,10.4,12.1,10.4,12.1,10.4z M12.4,10.6C12.4,10.6,12.5,10.6,12.4,10.6
		C12.5,10.5,12.5,10.5,12.4,10.6c0.1-0.1,0-0.1,0-0.2c0,0,0,0,0,0C12.4,10.4,12.3,10.5,12.4,10.6L12.4,10.6
		C12.3,10.6,12.4,10.6,12.4,10.6z M11.6,10.6C11.6,10.6,11.6,10.6,11.6,10.6C11.6,10.5,11.6,10.5,11.6,10.6c0.1-0.1,0-0.1,0-0.2
		c0,0,0,0,0,0C11.5,10.4,11.5,10.5,11.6,10.6C11.5,10.6,11.5,10.6,11.6,10.6z"/>
</g>
<g>
	<circle class="st0" cx="11.3" cy="11.2" r="0.1"/>
	<circle class="st0" cx="12.7" cy="11.2" r="0.1"/>
	<path class="st0" d="M12,11.4C12,11.5,12,11.5,12,11.4c0.1,0,0.1,0,0.1-0.1c0,0,0,0,0,0c0,0,0-0.1,0-0.1
		C12.1,11.3,12.1,11.3,12,11.4C12.1,11.4,12,11.5,12,11.4C12,11.5,12,11.5,12,11.4L12,11.4z"/>
	<circle class="st0" cx="12" cy="11.4" r="0.1"/>
	<circle class="st0" cx="12" cy="10.4" r="0.1"/>
	<circle class="st0" cx="12.4" cy="10.5" r="0.1"/>
	<circle class="st0" cx="11.6" cy="10.5" r="0.1"/>
	<path class="st0" d="M11.6,12L11.6,12C11.6,12,11.6,12.1,11.6,12c0.1,0,0.1,0,0.1-0.1c0,0,0-0.1,0-0.1C11.7,11.9,11.7,11.9,11.6,12
		C11.7,12,11.6,12,11.6,12L11.6,12z M10.9,12.2L10.9,12.2C10.9,12.2,11,12.2,10.9,12.2c0.1,0,0.1,0,0.1-0.1c0,0,0-0.1,0-0.1
		C11,12,11,12.1,10.9,12.2C11,12.1,11,12.2,10.9,12.2z M12.4,12C12.4,12,12.4,12.1,12.4,12c0.1,0,0.1,0,0.1-0.1c0,0,0-0.1,0-0.1
		C12.4,11.9,12.4,11.9,12.4,12C12.4,12,12.4,12,12.4,12L12.4,12z M13,12.2C13,12.2,13,12.2,13,12.2c0.1,0,0.1,0,0.1-0.1
		c0,0,0-0.1,0-0.1C13.1,12,13.1,12.1,13,12.2C13.1,12.1,13.1,12.2,13,12.2L13,12.2z"/>
	<circle class="st0" cx="11.6" cy="12" r="0.1"/>
	<circle class="st0" cx="10.9" cy="12.1" r="0.1"/>
	<circle class="st0" cx="12.4" cy="12" r="0.1"/>
	<circle class="st0" cx="13" cy="12.1" r="0.1"/>
	<path class="st0" d="M10.3,11.4L10.3,11.4l0-0.1L10.3,11.4z M10.5,11.4l0-0.1L10.5,11.4L10.5,11.4z M10.6,11.5l-0.1,0L10.6,11.5
		L10.6,11.5z M10.5,11.7l0.1,0L10.5,11.7L10.5,11.7z M10.5,11.7L10.5,11.7L10.5,11.7L10.5,11.7z M10.4,11.8L10.4,11.8L10.4,11.8
		L10.4,11.8z M13.7,11.3l0,0.1l0.1,0L13.7,11.3z M13.6,11.4L13.6,11.4L13.6,11.4L13.6,11.4z M13.5,11.5l-0.1,0L13.5,11.5L13.5,11.5z
		 M13.5,11.6l-0.1,0.1L13.5,11.6L13.5,11.6z M13.4,11.8l0.1,0L13.4,11.8L13.4,11.8z M13.6,11.8l0,0.1L13.6,11.8L13.6,11.8z
		 M11.7,10.2L12,9.7l0.3,0.5h0.2l0-0.1h-0.2L12,9.7l0.1-0.2l0,0l0,0l-0.1,0l0,0L12,9.6l-0.1-0.2l0,0l-0.1,0l0,0l0,0L12,9.7
		L11.7,10.2l-0.2-0.1l0,0.1L11.7,10.2z"/>
</g>
</svg>
