<?xml version="1.0" encoding="utf-8"?>
<!-- Generator: Adobe Illustrator 23.0.1, SVG Export Plug-In . SVG Version: 6.00 Build 0)  -->
<svg version="1.1" id="Ebene_1" xmlns="http://www.w3.org/2000/svg" xmlns:xlink="http://www.w3.org/1999/xlink" x="0px" y="0px"
	 viewBox="0 0 24 16" style="enable-background:new 0 0 24 16;" xml:space="preserve">
<style type="text/css">
	.st0{fill:#002868;}
</style>
<g>
	<path class="st0" d="M20.1,7.3c0-1.6-1-3.3-2.8-4.2l-0.7,0.5c1.2,0.8,2,1.9,2,3.3c0,3.1-3.8,5.9-8,5.9c-0.4,0-0.9,0-1.3-0.1
		l-1.4,1.1c0.9,0.3,1.9,0.5,3,0.5C15.8,14.1,20.1,10.7,20.1,7.3"/>
	<path class="st0" d="M13.7,8.4l-2.6,0.5l5.7-4.7l-2.7,0.4l5.2-4.1l-6,1.6c-0.1,0-0.2,0-0.2,0C8.1,2.1,3.9,5.4,3.9,9
		c0,1.7,0.9,3.1,2.4,4l-2.2,2.6L13.7,8.4L13.7,8.4z M4.6,8.4c0-3.2,4-5.9,8-5.9h0.1L8.8,7l2.3-0.4l-4.4,4.3l1.8-0.3L7.2,12
		C5.6,11.3,4.6,10,4.6,8.4 M17.7,12.1h0.1v0.3h0v-0.3h0.1v0L17.7,12.1L17.7,12.1z M18.1,12.3L18,12H18v0.3h0v-0.3L18.1,12.3
		L18.1,12.3l0.1-0.2v0.3h0V12h-0.1L18.1,12.3z"/>
</g>
</svg>
