<?xml version="1.0" encoding="utf-8"?>
<!-- Generator: Adobe Illustrator 23.0.1, SVG Export Plug-In . SVG Version: 6.00 Build 0)  -->
<svg version="1.1" id="Ebene_1" xmlns="http://www.w3.org/2000/svg" xmlns:xlink="http://www.w3.org/1999/xlink" x="0px" y="0px"
	 viewBox="0 0 24 16" style="enable-background:new 0 0 24 16;" xml:space="preserve">
<style type="text/css">
	.st0{fill:#002868;}
	.st1{fill:#FFFFFF;}
</style>
<g>
	<path class="st0" d="M16.7,11.3l2.2-1.1l-0.3-0.4c-0.1-0.2-0.2-0.4-0.1-0.6l1-3.7L16.3,5l-1.8,1.1l0.9-4h-0.6
		c-0.2,0-0.5-0.1-0.6-0.2L12,0.1L9.8,1.9C9.7,2,9.4,2.1,9.2,2.1H8.6l0.9,4L7.7,5L4.6,5.4l1,3.7c0.1,0.2,0,0.5-0.1,0.6l-0.3,0.4
		l2.2,1.1c0.3,0.2,0.4,0.6,0.3,0.9L7,13.3h4.1v2.6h1.7v-2.6H17l-0.5-1.2C16.3,11.9,16.4,11.5,16.7,11.3L16.7,11.3z"/>
	<path class="st0" d="M13.5,13.6c-0.2,0-0.4,0.2-0.4,0.4c0,0.2,0.2,0.4,0.4,0.4c0,0,0,0,0,0c0.2,0,0.4-0.2,0.4-0.4
		C13.9,13.8,13.7,13.6,13.5,13.6z M13.5,14.3c-0.2,0-0.3-0.1-0.3-0.3c0-0.2,0.1-0.3,0.3-0.3c0,0,0,0,0,0c0.2,0,0.3,0.1,0.3,0.3
		C13.8,14.2,13.7,14.3,13.5,14.3z"/>
	<path class="st0" d="M13.7,13.9c0-0.1-0.1-0.1-0.1-0.1h-0.2v0.4h0.1v-0.2h0.1l0.1,0.2h0.1l-0.1-0.2C13.7,14,13.7,14,13.7,13.9
		L13.7,13.9z M13.6,14h-0.1v-0.1L13.6,14C13.6,13.9,13.6,13.9,13.6,14C13.6,14,13.6,14,13.6,14L13.6,14z"/>
</g>
<g>
	<path class="st1" d="M10,9.7l0.1,0.7h0.4l-0.2-1.4H9.9L9.7,9.5L9.5,8.9H9.1l-0.2,1.4h0.4l0.1-0.7l0.3,0.7L10,9.7z M11,8.9l-0.4,1.4
		h0.4l0.1-0.2h0.5l0.1,0.2H12l-0.4-1.4L11,8.9L11,8.9z M14.6,9.8h0.3V9.5h-0.3V9.2h0.4L15,8.9h-0.7v1.4H15l0.1-0.3h-0.5L14.6,9.8z
		 M13.3,8.9v1.4H14l0.1-0.3h-0.5V8.9L13.3,8.9z M12.1,8.9v1.4h0.4V9.9h0.1c0.3,0,0.5-0.2,0.5-0.5s-0.2-0.5-0.5-0.5L12.1,8.9
		L12.1,8.9z M13.1,7.8l0.5,0.7H14V7.1h-0.4v0.7l-0.5-0.7h-0.4v1.4h0.4V7.8z M14.4,8.6h0.4v-1H15V7.1h-0.9l-0.1,0.4h0.3L14.4,8.6z
		 M7.4,7.5h0.3v1h0.4v-1h0.3V7.1H7.5L7.4,7.5z M10.4,8L10.4,8l0.3,0.6H11l-0.3-0.6c0,0,0.2-0.1,0.2-0.3c0-0.3-0.2-0.5-0.5-0.5H10
		v1.4h0.4L10.4,8L10.4,8z M15.8,7.1c-0.4,0-0.7,0.3-0.7,0.7c0,0.4,0.3,0.7,0.7,0.7c0.4,0,0.7-0.3,0.7-0.7S16.2,7.1,15.8,7.1
		L15.8,7.1z M11.9,8.6c0.4,0,0.7-0.3,0.7-0.7c0-0.4-0.3-0.7-0.7-0.7c0,0,0,0,0,0c-0.4,0-0.7,0.3-0.7,0.7c0,0,0,0,0,0
		C11.2,8.3,11.5,8.6,11.9,8.6L11.9,8.6z M9.9,7.8c0-0.4-0.3-0.7-0.7-0.7c0,0,0,0,0,0c-0.4,0-0.7,0.3-0.7,0.7c0,0,0,0,0,0
		c0,0.4,0.3,0.7,0.7,0.7C9.6,8.6,9.9,8.3,9.9,7.8L9.9,7.8z M11.7,10.7l-0.4,1.4h0.4l0.1-0.2h0.5l0.1,0.2h0.4l-0.4-1.4L11.7,10.7
		L11.7,10.7z M10.7,11.6H11v-0.3h-0.3V11h0.4L11,10.7h-0.7v1.4h0.8l0.1-0.3h-0.5V11.6z M13.6,11l-0.1-0.3h-0.7v1.4h0.4v-0.5h0.3
		v-0.3h-0.3V11L13.6,11z M9.7,10.7H9.4v1.4h0.8l0.1-0.3H9.7L9.7,10.7z M14,11.1c0-0.1,0.1-0.1,0.2-0.1c0.1,0,0.2,0,0.3,0v-0.4
		c-0.1,0-0.2,0-0.3,0c-0.3,0-0.6,0.1-0.6,0.5c0,0.4,0.6,0.4,0.6,0.6c0,0.1-0.1,0.1-0.2,0.1c-0.2,0-0.3,0-0.4-0.1v0.4
		c0.1,0,0.2,0,0.4,0c0.3,0,0.6-0.1,0.6-0.5C14.6,11.2,14,11.3,14,11.1L14,11.1z"/>
</g>
<g>
	<ellipse class="st0" cx="9.2" cy="7.8" rx="0.4" ry="0.4"/>
	<path class="st0" d="M10.6,7.6c0-0.1-0.1-0.2-0.2-0.2c0,0,0,0,0,0h-0.1v0.3h0.1C10.6,7.8,10.6,7.7,10.6,7.6L10.6,7.6z M12.5,9.2
		v0.3h0.1c0.1,0,0.2-0.1,0.2-0.2C12.7,9.3,12.7,9.2,12.5,9.2L12.5,9.2z M11.8,11.5h0.3L12,11L11.8,11.5z"/>
	<ellipse class="st0" cx="15.8" cy="7.8" rx="0.4" ry="0.4"/>
	<circle class="st0" cx="11.9" cy="7.8" r="0.4"/>
	<path class="st0" d="M11.1,9.8h0.3l-0.2-0.5L11.1,9.8z"/>
</g>
</svg>
