<?xml version="1.0" encoding="utf-8"?>
<!-- Generator: Adobe Illustrator 23.0.1, SVG Export Plug-In . SVG Version: 6.00 Build 0)  -->
<svg version="1.1" id="Ebene_1" xmlns="http://www.w3.org/2000/svg" xmlns:xlink="http://www.w3.org/1999/xlink" x="0px" y="0px"
	 viewBox="0 0 24 16" style="enable-background:new 0 0 24 16;" xml:space="preserve">
<style type="text/css">
	.st0{fill:#0038A8;}
	.st1{fill:#FFFFFF;}
	.st2{fill:#D14414;}
</style>
<g>
	<path class="st0" d="M18.6,14.1c0-0.2-0.2-0.4-0.4-0.4s-0.4,0.2-0.4,0.4s0.2,0.4,0.4,0.4C18.4,14.6,18.6,14.4,18.6,14.1L18.6,14.1
		 M17.8,14.1c0-0.2,0.1-0.3,0.3-0.3c0.2,0,0.3,0.1,0.3,0.3l0,0c0,0.2-0.2,0.3-0.3,0.3C18,14.4,17.8,14.3,17.8,14.1"/>
	<path class="st0" d="M18.3,14.4l-0.1-0.2c0.1,0,0.1-0.1,0.1-0.2c0-0.1-0.1-0.1-0.1-0.1H18v0.5h0.1v-0.2h0.1L18.3,14.4L18.3,14.4
		L18.3,14.4z M18.2,14.1h-0.1V14h0.1C18.2,14,18.2,14,18.2,14.1C18.2,14,18.2,14.1,18.2,14.1L18.2,14.1L18.2,14.1"/>
</g>
<path class="st0" d="M12.4,0.4c0.9,1.4,1.3,2,1.3,2.8c0,1-0.8,1.7-1.8,1.7s-1.8-0.8-1.8-1.7c0-0.8,0.4-1.3,1.3-2.8
	c-4.1,0.2-7.3,3.8-7,8c0.2,4.2,3.9,7.4,8.1,7.2s7.4-3.9,7.2-8.1C19.4,3.7,16.3,0.6,12.4,0.4"/>
<path class="st1" d="M12,14.9c3.8,0,6.9-3.1,6.9-6.9c0-3.2-2.1-5.9-5.2-6.7c0.2,0.2,0.7,0.9,0.7,1.8c0,1.3-1.1,2.4-2.5,2.4
	s-2.4-1-2.4-2.4c0-0.9,0.5-1.6,0.7-1.8c-3.7,1-5.9,4.8-4.9,8.5C6.1,12.8,8.9,14.9,12,14.9"/>
<path class="st0" d="M13.4,8.8h-0.5v0.8c0,0.2-0.2,0.3-0.3,0.3s-0.2-0.1-0.3-0.3v-1h0.6V7.9h-0.6V7.3c0-0.2,0.1-0.3,0.3-0.3
	s0.3,0.1,0.3,0.3l0,0v0.4h0.5V6h-2.1v1c0.2,0,0.4,0.2,0.4,0.4v2.3c0,0.1-0.1,0.2-0.2,0.2l0,0v4.2c0,0.3-0.2,0.4-0.2,0.5
	c0.5,0.1,1.1,0.1,1.6,0c0,0,0.5-0.1,0.5-0.6V8.8L13.4,8.8z"/>
<path class="st0" d="M11.3,8.8h-0.5v0.9c0,0.1-0.1,0.2-0.2,0.2s-0.2-0.1-0.2-0.2V7.2c0-0.1,0.1-0.2,0.2-0.2V6h-1v1
	c0.1,0,0.2,0.1,0.2,0.2v2.5c0,0.1-0.1,0.2-0.2,0.2l0,0v3.7c0,0.3-0.2,0.4-0.2,0.4c0.5,0.2,1,0.4,1.5,0.5c0,0,0.5,0.1,0.5-0.4V8.8
	H11.3z"/>
<path class="st0" d="M9.4,13.6V9.9c-0.1,0-0.2-0.1-0.2-0.2l0,0V7.2C9.2,7.1,9.3,7,9.4,7l0,0V6H8.3v1c0.1,0,0.2,0.1,0.2,0.2l0,0v2.5
	c0,0.1-0.1,0.2-0.2,0.2l0,0v2.5C8.3,13,8,13,7.9,13.1C8.2,13.4,8.6,13.7,9,14C9,13.9,9.4,14,9.4,13.6 M17.7,7.6V6.5
	c0-0.3-0.2-0.5-0.5-0.6h-0.6C16.2,6,16,6.2,16,6.5l0,0V8c0,0.1,0.1,0.2,0.1,0.2L17,9c0.1,0.1,0.1,0.2,0.1,0.2v0.3
	c0,0.2-0.1,0.3-0.3,0.3s-0.3-0.1-0.3-0.3l0,0V8.8H16v4.3c1.1-1,1.7-2.4,1.7-3.9V9c0-0.1,0-0.2-0.1-0.2L16.8,8
	c-0.1-0.1-0.1-0.2-0.1-0.2V7.2c0-0.1,0.1-0.2,0.2-0.2s0.2,0.1,0.2,0.2l0,0v0.4H17.7L17.7,7.6z"/>
<path class="st0" d="M8.2,12.4V6.5C8.2,6.2,7.9,6,7.6,6l0,0H6.8C6.5,6,6.3,6.2,6.3,6.5l0,0v2.7c0,1.4,0.5,2.6,1.4,3.5
	C7.8,13,8.2,13,8.2,12.4 M15.6,9.7V8.5c0-0.2-0.2-0.3-0.2-0.3s0.2-0.1,0.2-0.3V6.5c0-0.3-0.2-0.6-0.6-0.6l0,0h-1.5v1
	c0.1,0,0.2,0.1,0.2,0.2v2.5c0,0.1-0.1,0.2-0.2,0.2l0,0V14c0,0.2-0.1,0.4-0.2,0.5c0.4-0.1,0.8-0.2,1.1-0.4c0,0,0.3-0.1,0.3-0.6V9.9
	c-0.2,0-0.3-0.1-0.3-0.3l0,0V8.7c0-0.1,0.1-0.2,0.2-0.2s0.2,0.1,0.2,0.2v4.9c0,0.1,0,0.3,0,0.4c0.3-0.2,0.6-0.4,0.8-0.6
	c0,0,0.1-0.1,0.1-0.6V9.9C15.7,9.9,15.6,9.8,15.6,9.7L15.6,9.7"/>
<path class="st1" d="M7.2,7C7,7,6.9,7.1,6.9,7.3v2.3c0,0.2,0.1,0.3,0.3,0.3c0.2,0,0.3-0.1,0.3-0.3V7.3C7.5,7.1,7.4,7,7.2,7
	 M14.7,7.9c0.1,0,0.2-0.1,0.2-0.2V7.2C15,7.1,14.9,7,14.7,7s-0.2,0.1-0.2,0.2v0.4C14.5,7.8,14.6,7.9,14.7,7.9"/>
<path class="st2" d="M13.3,3.2c0-0.9-0.8-1.4-1.3-2.6c-0.5,1.3-1.3,1.7-1.3,2.6c0,0.6,0.5,1.2,1.3,1.2S13.3,3.8,13.3,3.2"/>
</svg>
