<?xml version="1.0" encoding="utf-8"?>
<!-- Generator: Adobe Illustrator 23.0.1, SVG Export Plug-In . SVG Version: 6.00 Build 0)  -->
<svg version="1.1" id="Ebene_1" xmlns="http://www.w3.org/2000/svg" xmlns:xlink="http://www.w3.org/1999/xlink" x="0px" y="0px"
	 viewBox="0 0 24 16" style="enable-background:new 0 0 24 16;" xml:space="preserve">
<style type="text/css">
	.st0{fill:#041E42;}
	.st1{fill:#B9975B;}
	.st2{fill:#FFFFFF;}
	.st3{fill:#C8102E;}
</style>
<g>
	<path class="st0" d="M5.3,1.9v2.9c0,1.8,0.4,3.5,1.2,5.1c1.3,2.7,3.1,4.4,5.6,5.7c2.5-1.3,4.4-2.9,5.6-5.7c0.7-1.6,1.1-3.3,1.2-5.1
		V1.9c-2.1-1.1-4.5-1.5-6.8-1.5C9.8,0.4,7.4,0.8,5.3,1.9z"/>
	<path class="st1" d="M5.6,2.2v2.7c0,1.7,0.4,3.4,1.1,5c1.2,2.6,3,4.2,5.3,5.4c2.3-1.2,4.1-2.9,5.3-5.4c0.7-1.6,1.1-3.2,1.1-5V2.2
		c-1.9-1-4.3-1.4-6.4-1.4C9.9,0.8,7.5,1.2,5.6,2.2L5.6,2.2z"/>
	<path class="st0" d="M14.8,7.6C15.1,7.4,15.5,7,15.5,7c0.2-0.6,0.4-1.5,0.4-1.5c0-0.1-0.1-0.2-0.1-0.2c-0.1,0-0.2-0.1-0.3-0.1
		c-0.4,0.1-0.8,0.4-1.2,0.7c0.2,0,0.3,0,0.5-0.1c-0.1,0.2-0.3,0.6-0.3,0.6c0.2,0,0.3,0,0.4-0.1c-0.1,0.3-0.2,0.5-0.3,0.8L14.8,7.6
		L14.8,7.6z M12.3,6.4c0,0-0.1,0-0.1-0.1c-0.1-0.1-0.3-0.1-0.3-0.1s0,0-0.1,0c0,0,0,0,0,0c0,0-0.1,0-0.1,0c-0.4,0.1-0.7,0.2-1.1,0.4
		h0l0-0.1l-0.1-0.1L9.9,7.2h0c0.2,0,0.4,0,0.6,0c0.2,0,0.5,0,0.7-0.1c0.2-0.2,0.4-0.3,0.5-0.5c0,0,0.1-0.1,0.1-0.1
		c0,0,0.1-0.1,0.1-0.1C12,6.4,12.1,6.4,12.3,6.4L12.3,6.4z M13.1,6.9c-0.3-0.3-0.5-0.3-0.5-0.3s0,0.4,0,0.5
		c-0.2,0.3-0.4,0.6-0.7,0.8L13,7.4C13.1,7.1,13.1,6.9,13.1,6.9L13.1,6.9z"/>
	<path class="st0" d="M12,4.1c-3.5,0-5.8,1.1-6,1.2c0.1,2.2,1,6.1,4.7,8.6c0.5-0.3,0.8-0.7,1-1.1c0.4,0.5,0.4,1.1,0.4,1.1v0
		c0,0.2-0.1,0.5-0.2,0.7h0c0.3-0.2,0.6-0.3,0.9-0.5c0.5-0.3,0.9-0.6,1.3-1l0,0c0,0,0,0,0,0c1.3-1.3,1.3-3.4,1.3-3.4
		c-0.3-1.2-0.8-1.6-0.8-1.6c0.1,0.5,0.2,1.1,0.2,1.1c-0.2,0.4-0.5,0.8-0.9,1.2c-0.5,0.1-0.9,0-1.6-0.2c-0.4-0.1-0.7-0.3-1.1-0.5
		c-0.2,0-0.3,0-0.5,0c-0.2,0-0.5,0.1-0.5,0.1C10.8,9.2,11,8.7,11,8.4c-0.2-0.2-0.4-0.4-0.7-0.6c-0.5,0-0.9,0.1-0.9,0.1l0.2-0.7
		c0,0-0.1,0.1-0.2,0.2C9.2,7.6,9.1,7.7,9.1,7.7C8.8,7.8,8.6,7.9,8.3,7.9C8.2,7.9,8,7.8,7.9,7.7C8.4,7,9.3,6.7,9.3,6.7
		C9.1,6.5,9.1,6.3,9.1,6.3C9.3,6.2,9.5,6.1,9.7,6c0,0.1,0,0.1,0,0.2c0.2-0.1,0.3-0.2,0.5-0.3c0.2-0.1,0.4-0.2,0.4-0.2
		c0.1-0.4,0.3-0.8,0.4-0.8c0.1,0,0.1,0,0.2,0c0,0.1,0.2,0.4,0.2,0.4c-0.2,0.1-0.4,0.2-0.6,0.3c0,0,0.7-0.2,1.3-0.2
		c0.8,0,1.4,0.2,1.4,0.2c-0.1,0.1-0.2,0.3-0.3,0.4c1.4-0.5,1.6-0.8,2.3-1C15.6,4.9,15.8,5,16,5c0.1,0.1,0.2,0.2,0.2,0.4
		c-0.1,0.8-0.4,1.7-0.4,1.7c-0.3,0.3-0.7,0.6-0.7,0.6c0.4-0.1,1.1-0.3,1.1-0.3c0.4,0.3,0.9,0.9,1.2,1.2c0.4-1.1,0.6-2.2,0.7-3.4
		C17.8,5.2,15.5,4.1,12,4.1L12,4.1z"/>
	<path class="st2" d="M8.1,9.5c0.1-0.2,0.2-0.3,0.3-0.4L8.3,8.5C8.2,8.5,8.1,8.4,8.1,8.3C8,8.3,8,8.2,7.9,8.1L7.7,8.6
		C7.9,8.9,8,9.2,8.1,9.5L8.1,9.5z M8.4,9.8c0.1,0.3,0.2,0.5,0.5,0.7c0.4-0.2,0.8-0.2,1.3-0.3c0,0-0.9-0.4-1.6-0.8
		C8.5,9.5,8.4,9.7,8.4,9.8z M11.2,7.2c-0.2,0-0.5,0.1-0.7,0.1c-0.2,0-0.4,0-0.6,0l0.4,0.2c0.3,0,0.7,0,1-0.1
		c0.2-0.2,0.4-0.4,0.6-0.7c0-0.1,0-0.1,0-0.2c0,0,0,0-0.1,0.1c0,0-0.1,0.1-0.1,0.1C11.5,6.8,11.4,7,11.2,7.2L11.2,7.2z M10,9.6
		c0,0,0-0.1,0.1-0.1C9.9,9.4,9.8,9.3,9.7,9.2c0.2,0,0.3,0,0.5,0c0,0,0-0.1,0-0.1C10.1,9,9.9,8.9,9.7,8.9c0.2,0,0.4,0,0.6,0
		c0,0,0-0.1,0-0.1c-0.2-0.1-0.4-0.2-0.6-0.3c0.1,0,0.3-0.1,0.4-0.1L9.9,8.2c-0.1,0-0.3,0-0.4,0c-0.3,0-0.6,0.1-0.6,0.1
		c0,0-0.1,0.1-0.2,0.1C8.7,8.4,8.6,8.5,8.6,8.5l0,0.5C8.7,9.2,9.4,9.5,10,9.6L10,9.6z M12.9,11.2c0.1,0.2,0.1,0.4,0.2,0.6
		c0,0.2,0,0.3,0,0.5c-0.9-1-2.2-1.7-2.2-1.7s1.8,1.5,1.4,3.5v0c0,0.2-0.1,0.5-0.2,0.7h0c0.3-0.2,0.6-0.3,0.9-0.5
		c0.5-0.3,0.9-0.6,1.3-1h0C13.8,12,12.9,11.2,12.9,11.2L12.9,11.2z M10.5,6.6c0.3-0.2,0.7-0.3,1.1-0.4c0,0,0.1,0,0.1,0c0,0,0,0,0,0
		c0.1,0,0.1,0,0.1,0h0c-0.7-0.1-1.4,0.2-1.4,0.2v0L10.5,6.6L10.5,6.6z"/>
	<path class="st3" d="M10.8,6.9c-0.1,0-0.2,0-0.3-0.1c0,0.1-0.1,0.1-0.1,0.1c0.2,0.1,0.4,0.1,0.6,0c0.1-0.1,0.2-0.2,0.2-0.3
		c-0.1,0-0.2,0-0.3,0C10.9,6.8,10.9,6.9,10.8,6.9L10.8,6.9z M6.1,4.8c1.8-0.8,4-1.2,6-1.2c2,0,4.2,0.4,6,1.2V2.4c0,0-2.4-1.2-6-1.2
		s-6,1.2-6,1.2L6.1,4.8L6.1,4.8z"/>
	<path class="st2" d="M9.3,3.1c-0.2,0-0.3,0.1-0.5,0.1V2c-0.1,0-0.2,0-0.3,0.1v1.5C8.7,3.6,9,3.5,9.3,3.5V3.1z M12.1,2.6
		C12.1,2.6,12.1,2.6,12.1,2.6c0.2,0.2,0.2,0.4,0.3,0.6c0.1,0,0.2,0,0.3,0c-0.1-0.2-0.2-0.4-0.3-0.6c0,0,0.1,0,0.1,0
		c0-0.1,0.1-0.2,0.1-0.3V1.9c0-0.1-0.1-0.2-0.1-0.3c-0.3,0-0.6,0-0.8,0c0,0.5,0,1,0,1.5c0.1,0,0.2,0,0.3,0L12.1,2.6L12.1,2.6z
		 M12.1,2c0.1,0,0.2,0,0.3,0v0.3c-0.1,0-0.2,0-0.3,0V2z M7.2,3.4c0.1,0,0.2-0.1,0.4-0.1V2.9C7.5,3,7.4,3,7.2,3.1V2.7
		c0.2-0.1,0.3-0.1,0.5-0.2V2.3C7.5,2.4,7.2,2.4,6.9,2.5c0,0.5,0,1,0,1.5C7,4.1,7.1,4,7.2,4L7.2,3.4L7.2,3.4z M16.5,3.3
		c0.1,0,0.2,0.1,0.3,0.1V4c0.1,0,0.2,0.1,0.3,0.1V2.8c0-0.1-0.1-0.2-0.1-0.3c-0.2-0.1-0.4-0.1-0.7-0.2c0,0.1-0.1,0.2-0.1,0.2v1.3
		c0.1,0,0.2,0.1,0.3,0.1V3.3L16.5,3.3z M16.5,2.6c0.1,0,0.2,0.1,0.3,0.1v0.3c-0.1,0-0.2-0.1-0.3-0.1V2.6z M10.8,3.2
		c0-0.1,0.1-0.2,0.1-0.3V2c0-0.1-0.1-0.2-0.1-0.3c-0.2,0-0.5,0-0.7,0.1c0,0.1-0.1,0.2-0.1,0.3v1c0,0.1,0.1,0.2,0.1,0.2
		C10.4,3.3,10.6,3.3,10.8,3.2L10.8,3.2z M10.3,2.1c0.1,0,0.2,0,0.3,0v0.9c-0.1,0-0.2,0-0.3,0V2.1z M13.8,1.7c-0.1,0-0.2,0-0.3,0v1.5
		c0.1,0,0.2,0,0.3,0C13.8,3.3,13.8,1.7,13.8,1.7z M15.5,3.3v-1c0-0.1-0.1-0.2-0.1-0.3c-0.3-0.1-0.5-0.1-0.8-0.2v1.5
		c0.3,0,0.5,0.1,0.8,0.2C15.4,3.5,15.4,3.4,15.5,3.3L15.5,3.3z M15.2,3.2c-0.1,0-0.2,0-0.3-0.1V2.2c0.1,0,0.2,0,0.3,0.1V3.2
		L15.2,3.2z"/>
</g>
</svg>
