<?xml version="1.0" encoding="utf-8"?>
<!-- Generator: Adobe Illustrator 23.0.1, SVG Export Plug-In . SVG Version: 6.00 Build 0)  -->
<svg version="1.1" id="Ebene_1" xmlns="http://www.w3.org/2000/svg" xmlns:xlink="http://www.w3.org/1999/xlink" x="0px" y="0px"
	 viewBox="0 0 24 16" style="enable-background:new 0 0 24 16;" xml:space="preserve">
<style type="text/css">
	.st0{fill:#DBCEA5;}
	.st1{fill:#FFFFFF;}
</style>
<path d="M16.9,6l0.4,0.1l0,0.2c-0.2,0-0.3,0-0.3,0.5C17,7.2,17,7.4,17,7.5c0,0.2,0,0.2-0.6,0.2c0,0-0.1-0.1-0.4-0.2c0,0,0,0,0-0.1
	l2.6-4.6h-0.8c0.1-0.1,0-0.3-0.1-0.5c-0.2-0.2-0.4-0.2-0.5-0.1c0,0-0.1,0.1,0,0.2l-0.3,0.3c0-0.1,0-0.3-0.5-0.5
	C16.1,2,16,1.6,15.7,1.6c-0.3,0-0.5,0.2-0.5,0.2s-0.9-0.9-1.9-0.9c-0.8,0-1.9,0.8-2.4,0.8c-0.5,0-1-1.2-1.7-1.2
	c-0.4,0-0.9,0.3-1.3,0.6C7.4,1.4,7.3,1.7,7.2,2C7.1,2.2,6.9,2.5,6.6,2.8H4.3l4.6,8.1c0,0-0.1,0-0.1,0H5.4L4.7,12h4.1
	c0.2,0,0.4-0.1,0.5-0.2l0.1-0.1l2,3.5l1.9-3.2h1.6v-0.3h-0.4l-0.1-0.2h0.1l0.3-0.1c0-0.3-0.4-0.8-0.4-0.8l-0.1-0.4l0.5-0.9l2.4-0.9
	c0.4-0.2,0.5-0.8,0.5-0.8s0.4,0.2,0.6-0.3c0,0,0.4,0.1,0.7,0.1c0.2,0,0.5-0.1,0.5-0.4c0,0,0.3-0.2,0.4-0.5l-2.8-0.9L16.9,6L16.9,6z"
	/>
<g>
	<path class="st0" d="M13.4,9c0-0.1-0.7-0.2-1-0.4c-0.3,0.1,0.1,0.2,0.1,0.5c0,0.2-0.1,0.4-0.1,0.4l-0.1,0c0,0-0.3,0.5-0.5,0.5
		c-0.3,0.5-0.4,0.6-0.8,0.6c-0.1,0-0.3,0-0.4-0.1l-0.9,1l1.8,3.2L13,12h-1.1c0-0.3,0.2-0.5,0.2-0.5c0-0.5,0.3-0.6,0.5-0.6
		c0.5,0,0.6,0,0.6-0.2c0-0.2,0-0.3,0-0.3h0.2c0-0.6-0.2-0.8-0.2-1.1C13.2,9.1,13.4,9.1,13.4,9L13.4,9z M14.1,10.1l0.4-0.6L14,9.7
		L14.1,10.1z M15.3,3.8l-0.1-0.2c-0.4,0.1-0.8-0.1-0.9-0.2c-0.1-0.1,0-0.3,0-0.3s0-0.1-0.1-0.1h-0.5c-0.1,0.1-0.1,0.2,0,0.3
		c0.5,0.5,0.9,1,1.2,1.5l0.5-0.5L15.3,3.8L15.3,3.8z M13.2,11.6l0.1-0.2h-0.2L13.2,11.6z M17.2,3L17.2,3c0.2,0.4,0.1,0.7,0.1,0.7
		C17.3,4,17.1,4,17.1,4c0,0.6-0.3,0.5-0.3,0.5c0,0.7-0.8,0.4-0.8,0.4c-0.1,0-0.2,0-0.3-0.1l-0.6,0.6c0.4,0.7,0.6,1.3,0.7,1.7l2.3-4
		L17.2,3L17.2,3z M9.9,9.3C9.8,8.9,9.8,8.8,9.8,8.8S9.4,8.4,9.5,7.9c0,0-1.2-1.8-1.2-2.8c0-0.5,0.3-0.5,0.3-0.9
		c0-0.4-0.2-0.6-0.4-0.6c-0.2,0-0.8,0.4-1.8,1l0.4-0.8L5.8,4.6c0,0-0.2-0.9,0.3-1.3L6.3,3H4.7l4.5,7.8c0.1,0,0.1-0.1,0.2-0.1
		l0.7-0.7C10,9.7,9.9,9.5,9.9,9.3L9.9,9.3z"/>
	<path class="st0" d="M12.5,11.7h0.2l0.1-0.2h-0.3L12.5,11.7z"/>
</g>
<path class="st1" d="M13.6,11.5l-0.1,0.2H14l0.1-0.2H13.6z M19,6.6l-0.1,0.2l0.3,0.1l0-0.2L19,6.6z M17.8,6.2l-0.1,0.2l0.8,0.3
	l0-0.2L17.8,6.2z"/>
<ellipse transform="matrix(0.9726 -0.2327 0.2327 0.9726 -1.1608 4.6113)" class="st1" cx="19" cy="7.2" rx="0.2" ry="0.1"/>
<ellipse transform="matrix(0.7887 -0.6148 0.6148 0.7887 -4.2278 9.9784)" class="st1" cx="12.4" cy="11.1" rx="0.2" ry="0.1"/>
<path class="st1" d="M9.5,10.8C9.3,10.9,9.1,11,8.8,11h0l-0.4,0.9h0.4c0.2,0,0.3-0.1,0.4-0.2l1.1-1.2l-0.3-0.4L9.5,10.8L9.5,10.8z
	 M5,11.9h0.6L6,11H5.5L5,11.9z M14.1,11.5l-0.1,0.3h-0.9L13,11.5h-0.2l-0.1,0.3h-0.3l-0.2-0.3h-0.1c-0.1,0.1-0.2,0.3-0.2,0.4h2.8
	v-0.1h-0.3l-0.1-0.3C14.3,11.5,14.1,11.5,14.1,11.5z M17.4,6.3l0.2,0.1l0.2-0.3l0.8,0.3l0,0.3l0.2,0.1l0.2-0.3l0.3,0.1l0.1,0.3
	l0.1,0c0.1-0.1,0.2-0.2,0.3-0.3l-2.6-0.9l0,0.1L17.4,6L17.4,6.3L17.4,6.3z M11.9,8l2.4-2.5c-0.9-1.2-2.1-2.3-3.3-2.3
	c-1,0-1.7,0.8-1.7,1.6C9.3,6.1,10.6,7.2,11.9,8L11.9,8z M12.6,8.3c0.8,0.3,1.6,0.5,1.9,0.5c0.4,0,0.9-0.1,0.9-0.9
	c0-0.5-0.3-1.2-0.7-2L12.6,8.3z M6.1,3.4C5.9,3.6,5.9,4.2,5.9,4.2L7.3,3L6.7,4c0,0,0.9-0.4,1-0.6c0,0-0.2-0.5-0.6-0.9
	C7.1,2.5,6.3,3.3,6.1,3.4L6.1,3.4z M8,1.9c0-0.1,0.2-0.3,0.2-0.4c0,0-0.1-0.2-0.3-0.1c0,0.4-0.1,0.6-0.2,0.9C7.9,2.4,7.8,2.1,8,2.1
	c0.1,0,0.2,0.1,0.2,0.2c0,0.1-0.1,0.2-0.1,0.2l0.2,0c0,0,0.1-0.1,0.1-0.2C8.4,2,8,2,8,1.9L8,1.9z M15.5,4.4l-3.8,4
	c-0.1,0.1,0.2,0.4,0.4,0.3l3.7-4.1C15.8,4.4,15.7,4.2,15.5,4.4L15.5,4.4z M10.7,8.7c0,0,0.1-0.2-0.1-0.2c-0.3,0-0.7,0.3-0.7,0.4
	c0,0.1,0,0.1,0,0.1S10.4,8.7,10.7,8.7L10.7,8.7z M11.4,8.7c0-0.1-0.1-0.2-0.3-0.2s-0.2,0.1-0.2,0.1c0,0.2,0.2,0.3,0.2,0.3
	C11.2,9,11.4,8.9,11.4,8.7L11.4,8.7z M11.6,8.8c-0.1,0-0.1,0.1-0.1,0.3c0,0.1,0.1,0.1,0.1,0.1c0,0,0.1-0.1,0.1-0.3
	C11.7,8.8,11.6,8.8,11.6,8.8L11.6,8.8z M11.9,8.9c-0.1,0-0.1,0.3-0.1,0.4c0,0.1,0,0.2,0,0.2c0,0.1,0,0.2,0.1,0.2
	c0.1,0,0.1-0.1,0.1-0.3C12,9.1,12,8.9,11.9,8.9L11.9,8.9z M12.1,9l0,0.2l0.1,0l0-0.1C12.3,9.1,12.2,9,12.1,9L12.1,9z M10.1,9.3
	c0.1,0.8,0.6,1.2,0.6,1.2l0.1-0.1c0,0-0.2-0.5-0.5-1.4C10.2,9.1,10.1,9.3,10.1,9.3z M10.4,9c0.2,0.9,0.5,1.4,0.6,1.4
	c0,0,0.1-0.1,0.1-0.9C11.1,9.5,10.9,8.7,10.4,9L10.4,9z M11.3,9.3c0,0.9-0.1,0.9-0.1,1c0,0.2,0.4-0.1,0.4-0.6
	C11.6,9,11.3,9.3,11.3,9.3z M9.7,7.9C9.4,8.3,9.9,8.6,9.9,8.6s0.2,0,0.2-0.1C10.1,8.6,10,8.1,9.7,7.9L9.7,7.9z M10.3,8.2
	c0-0.1-0.1,0-0.1-0.4c0-0.3-0.3-0.2-0.3,0s0.3,0.4,0.3,0.5C10.2,8.3,10.3,8.3,10.3,8.2L10.3,8.2z M10.6,8c0-0.6-0.2-0.5-0.2-0.3
	C10.4,8,10.5,8.1,10.6,8z M10.8,7.6c-0.1,0.2,0,0.4,0,0.6c0,0.2,0.1,0.2,0.2,0.1C10.9,8.2,11,7.7,10.8,7.6z M11.1,7.7
	c0,0.2,0,0.6,0,0.6s0.1,0.1,0.2,0c0-0.1,0-0.2,0-0.3C11.3,7.7,11.1,7.7,11.1,7.7L11.1,7.7z M11.4,7.9c-0.1,0.3,0.1,0.5,0.1,0.5
	c0,0,0.1,0,0.1-0.3C11.6,7.8,11.4,7.9,11.4,7.9z M16.5,2.9c0.2-0.1,0-0.4-0.2-0.3c-0.7,0.5-0.8,1.2-0.8,1.2s0.1,0.1,0.2,0.1
	C15.8,3.8,16.1,3.1,16.5,2.9L16.5,2.9z M15.9,3.8c0,0,0,0.1,0.1,0.1c0.2,0,0.6-0.4,0.6-0.8C16.7,3,16.6,3,16.6,3
	C16.2,3.3,15.9,3.8,15.9,3.8L15.9,3.8z M16.9,3c0.3,0,0.5-0.3,0.5-0.3c0-0.1-0.1-0.1-0.2-0.1S16.8,2.8,16.9,3
	C16.8,2.9,16.8,3,16.9,3L16.9,3z M15.5,4.2c0,0,0.1-0.1,0.2,0C15.6,3.9,15.4,4,15.4,4C15.4,4.1,15.5,4.2,15.5,4.2L15.5,4.2z
	 M16.4,4.9c0.1-0.4-0.3-0.8-0.3-0.8c-0.3,0-0.3,0.1-0.3,0.1S16,4.9,16.4,4.9L16.4,4.9z M16.3,4c0,0,0.1,0.6,0.4,0.6
	C16.7,4.5,16.6,4,16.3,4z M16.6,3.8c0,0,0.2,0.4,0.3,0.4c0,0,0.1-0.3-0.2-0.5C16.6,3.7,16.6,3.8,16.6,3.8L16.6,3.8z M17.2,3.9
	c0-0.2-0.3-0.6-0.3-0.6l-0.1,0.2L17.2,3.9C17.1,3.9,17.2,4,17.2,3.9L17.2,3.9z M16.9,3.1l0.3,0.5C17.2,3.7,17.2,3.4,16.9,3.1
	C17,3.1,16.9,3.1,16.9,3.1z M15.1,3.5c0,0-0.4-0.2-0.7-0.3l0,0.1C14.4,3.3,14.6,3.5,15.1,3.5z M15.3,3.4c0,0,0.1-0.1,0.1-0.1
	c-0.1,0-0.6-0.3-0.8-0.4c-0.1,0.1,0,0.2,0,0.2L15.3,3.4L15.3,3.4z M15.4,3.2c0,0,0.1-0.1,0.1-0.1c-0.3-0.2-0.5-0.3-0.8-0.5
	c-0.1,0.1-0.1,0.2-0.1,0.2L15.4,3.2L15.4,3.2z M15.6,2.8c0-0.1-0.6-0.6-0.7-0.6s-0.1,0.1-0.1,0.1L15.6,2.8
	C15.6,2.9,15.6,2.9,15.6,2.8z M15.8,2.7L15.3,2C15.2,1.9,15,2.1,15,2.1l0.6,0.6C15.7,2.8,15.8,2.7,15.8,2.7L15.8,2.7z M16,2.4
	l-0.5-0.6c-0.1,0-0.1,0.1-0.1,0.1l0.5,0.6C15.9,2.5,16,2.4,16,2.4L16,2.4z M16,2.1l-0.1-0.3c0,0-0.1,0-0.1,0
	C15.7,1.8,15.8,2.1,16,2.1z"/>
<path d="M13.3,14.4c0-0.2-0.1-0.3-0.3-0.3c-0.2,0-0.3,0.1-0.3,0.3c0,0,0,0,0,0c0,0.2,0.1,0.3,0.3,0.3C13.1,14.7,13.3,14.6,13.3,14.4
	z M12.7,14.4c0-0.1,0.1-0.2,0.2-0.2s0.2,0.1,0.2,0.2c0,0.1-0.1,0.2-0.2,0.2C12.8,14.7,12.7,14.6,12.7,14.4
	C12.7,14.4,12.7,14.4,12.7,14.4z"/>
<path d="M13.1,14.6L13,14.5c0,0,0.1-0.1,0.1-0.1c0-0.1-0.1-0.1-0.1-0.1h-0.2v0.4h0.1v-0.1H13L13.1,14.6L13.1,14.6L13.1,14.6z
	 M13,14.4L13,14.4L13,14.4L13,14.4C13,14.3,13,14.3,13,14.4C13,14.4,13,14.4,13,14.4L13,14.4z"/>
</svg>
