<?xml version="1.0" encoding="utf-8"?>
<!-- Generator: Adobe Illustrator 23.0.1, SVG Export Plug-In . SVG Version: 6.00 Build 0)  -->
<svg version="1.1" id="Ebene_1" xmlns="http://www.w3.org/2000/svg" xmlns:xlink="http://www.w3.org/1999/xlink" x="0px" y="0px"
	 viewBox="0 0 24 16" style="enable-background:new 0 0 24 16;" xml:space="preserve">
<style type="text/css">
	.st0{fill:#FFFFFF;}
	.st1{fill:#FFB81C;}
	.st2{fill:#041E42;}
</style>
<g>
	<path class="st0" d="M1.2,5.3l0.7-0.9c0-0.1,0.1-0.1,0.2-0.1L8.4,3C8.3,3,8.3,2.7,8.6,2.6c0,0,1.1-0.2,2.2-0.1l4.3-0.9
		c0.1,0,0.1,0,0.2,0l3.2,1.4c0,0,0.1,0,0.1,0.1L19,3.7l0.8,0.5c0.1,0,0.1,0.1,0.1,0.2L20.1,5l0.5,0.6L21,6l1.1,0.5
		c0.1,0,0.1,0.1,0.1,0.1l0.6,1.5c0.1,0.1,0,0.2-0.1,0.3c0,0-0.4,0.4-0.8,1.2c0,0.1-0.2,0.2-0.3,0.2c0,0-0.5,0-1.3,0.4
		c0,0-0.1,0-0.1,0h-0.8c-2,2.4-4.8,3.8-8.6,4.1c-0.3,0-0.4-0.4-0.1-0.5l0.4-0.2c-0.1-0.1-0.1-0.3,0.1-0.4c0,0,3.7-1.6,4.7-4.7
		c-0.7,0.1-2.1,0.4-3.2,0.8c-0.7,0.2-1.1,0.6-1.4,0.9c0.1,0,0.2-0.1,0.4-0.1c0.3,0,0.4,0.2,0.4,0.2c0,0,0.1,0,0.1,0
		c0.2,0,0.5,0.2,0.5,0.5c0,0.5-0.7,1-1.3,1.3c-0.1,0.4-0.4,0.8-1.6,0.8c-1,0-1.6-0.5-1.8-0.6l-2.6-0.5c-0.2,0-0.3-0.3-0.2-0.4
		c0,0,0.7-1,0.7-2.1c0-2.8-4.7-3.5-4.7-3.5C1.1,5.7,1,5.5,1.2,5.3 M1.3,5.9c0,0,4.5,0.6,4.5,3.3c0,1-0.7,1.9-0.7,2
		c-0.2,0.2-0.1,0.7,0.3,0.7L8,12.4C8.3,12.6,9,13,9.9,13c1.2,0,1.6-0.4,1.7-0.9c0.6-0.3,1.3-0.9,1.3-1.4c0-0.4-0.4-0.7-0.7-0.7
		C12.2,10,12.1,9.9,12,9.9c0.3-0.2,0.6-0.3,0.9-0.4c0.9-0.3,2-0.6,2.8-0.7c-1.2,2.8-4.5,4.3-4.5,4.3c-0.3,0.2-0.3,0.5-0.3,0.5
		l-0.2,0.1c-0.5,0.2-0.3,0.9,0.2,0.9c3.9-0.3,6.7-1.7,8.7-4.1h0.7c0.1,0,0.2,0,0.2-0.1c0.7-0.4,1.2-0.4,1.2-0.4
		c0.2,0,0.4-0.1,0.4-0.3c0.4-0.7,0.8-1.1,0.8-1.2c0.1-0.1,0.2-0.3,0.1-0.5l-0.6-1.5c0-0.1-0.1-0.2-0.2-0.2l-1.1-0.5l-0.3-0.2L20.3,5
		l-0.2-0.7c0-0.1-0.1-0.2-0.2-0.3l-0.8-0.4L18.7,3c0,0-0.1-0.1-0.1-0.1l-3.2-1.4c-0.1,0-0.2,0-0.3,0l-4.3,0.9
		C9.7,2.3,8.7,2.4,8.6,2.4C8.2,2.5,8.2,2.8,8.2,2.9C7.8,3,2,4.1,2,4.1c-0.1,0-0.2,0.1-0.3,0.2L1,5.2C0.8,5.5,1,5.9,1.3,5.9"/>
	<path class="st0" d="M20.9,7c0,0,0.7,0.5,1-0.1l-1.1-0.5c-0.3,0.2-0.6,0.3-0.9,0.3C20.5,6.8,20.9,7,20.9,7 M8,4.9
		c0,0-0.8,0.3-1.4,1.2C6.9,6,7.2,5.9,7.5,5.9C7.7,5.3,8,4.9,8,4.9"/>
	<path class="st0" d="M19.4,4.8l-0.2,0.6c0-0.4-0.3-0.7-1-1.1L19.4,4.8z M13.3,4.7c-0.6,0-1.1,0.3-1.5,0.5c0.5,0,1,0,1.5,0
		c0.3-0.3,0.4-0.7,0.4-1.1c0-0.7-0.3-1.1-0.3-1.1l1.7-0.4l0.5,0.3c0,0-1.2,0.5-1.2,1.8c0,0.2,0,0.4,0.1,0.5c0.9,0,1.8,0.1,2.7,0.3
		c0,0,0.3,0.7,1.1,0.7C18.7,6.2,19,6,19,6c0.9,0.7,1.7,0.3,1.7,0.3l-0.3-0.3l-0.3,0.2l0.2-0.3l-0.1-0.1L19.8,6L20,5.7l-0.1-0.1
		l-0.3,0.1l0.2-0.3l-0.1-0.2c-0.1,0.5-0.6,0.6-1,0.6l0-0.2c-0.2,0.1-0.4,0.1-0.6,0S17.7,5.2,17.7,5c0-0.2-0.9-1-0.9-1L18,4.4
		c1,0.3,1,0.8,1,1.1c0.2,0.1,0.5,0.1,0.7-0.3l-0.1-0.7l-0.8-0.4l-0.5-0.5l-3.1-1.2l-3,0.7c0.7,0.2,1.3,0.5,1.3,0.5
		S13.6,4.1,13.3,4.7 M17,6.8c-0.3,0.2-0.6,0.4-0.9,0.7l0.4-0.7c0,0-1,0-1.9,0L14,7.4c-0.2-0.1-0.5-0.1-0.7-0.1
		c0-0.3,0.1-0.7,0.4-1.1C13.3,6.5,13,6.9,13,7.3c-0.2,0-0.3,0-0.5,0.1c-0.1-0.3-0.1-0.6,0.1-1c-0.2,0.3-0.3,0.7-0.3,1.1
		c-0.2,0.1-0.3,0.1-0.5,0.2c-0.1-0.2-0.2-0.5-0.2-0.9c-0.1,0.4-0.1,0.7,0.1,1c-0.5,0.4-0.7,0.9-0.7,0.9c-1.6-0.3-2.6,1.1-2.7,2
		C8.1,10,8.3,8.8,9.6,8.3l0.4-1c0-0.1,0.1-0.1,0.1-0.2C8.7,7.3,7.8,7.9,7.8,7.9S7.4,8.6,7.6,9.3c0,0-0.3-0.4-0.4-0.9
		C7.1,8.4,7.1,8.5,7,8.6C7.1,8.8,7.1,9,7.1,9.2c0,1.1-0.4,1.7-0.4,1.7l1.5,0.3c0,0,0.6,0.8,1.8,0.8c0.4,0,0.9,0,0.9-0.3
		c0-0.2-0.5-0.4-0.5-1c0-0.9,1.1-1.8,2.3-2.2c1.4-0.5,3.5-1,4.5-1c3,0,2.9,2,2.9,2l0.1,0c0.7-0.4,1.3-0.4,1.4-0.5
		C21.9,8.1,21.4,7.2,17,6.8 M5.2,4.8L9.1,4c0,0,0.2,0.5,0.8,0.9l0,0.1C9.6,5.1,9.1,5.3,8.7,5.6c0.8-0.1,1.5-0.2,2.3-0.3l0.2-0.5
		C9.9,5,9.4,4,9.4,4L9.3,3.7l-7,1.6C3,5.3,3.8,5.5,4.6,5.9C4.8,5.3,5.2,4.8,5.2,4.8"/>
	<path class="st0" d="M18.4,8.3c-1.4,0-1.3,2.9-6.2,5.4c4.1-0.6,7.2-3.4,7.2-4.5C19.5,8.7,18.8,8.3,18.4,8.3 M10.6,10.9
		c0.1,0.4,0.4,0.6,0.4,0.7c0,0,0.8-0.2,1.3-0.9C11.3,11.2,10.6,10.9,10.6,10.9 M9.6,3.9c0,0,0.4,0.8,1.2,0.8l0.8-0.1l0.7-0.7
		l0.9-0.1c-0.3-0.2-0.7-0.4-1.1-0.5l-0.8,1.1l0.5-1.1c-0.1,0-0.3-0.1-0.4-0.1l-0.7,0.9l0.4-1c-0.2,0-0.3,0-0.5,0l-0.5,0.7L10.5,3
		c-0.7,0-1.2,0-1.2,0l0.2,0.2L9.6,3.9L9.6,3.9z M5,6.1c0.2,0.1,0.3,0.2,0.4,0.3c0.1,0,0.3-0.1,0.4-0.1c0.3-1,0.8-1.6,0.8-1.6
		C5.6,5,5.1,5.9,5,6.1"/>
	<path class="st1" d="M21.8,9.5c0,0-0.6,0-1.4,0.5h-0.7l-0.1-0.1c-2,2.5-4.8,3.9-8.6,4.2c0,0,1.3-0.6,2-0.9l-1.5,0.3
		c0,0,4.1-1.8,5-5.3c0,0-2.1,0.4-3.7,0.9c-1.5,0.5-1.9,1.6-1.9,1.6c0.5-0.1,0.8-0.3,1-0.3c0.2,0,0.3,0.2,0.2,0.3
		c0.1,0,0.2-0.1,0.3-0.1c0.1,0,0.2,0.1,0.2,0.2c0,0.3-0.7,0.9-1.3,1.1c0,0.2-0.1,0.7-1.3,0.7c-1.1,0-1.7-0.6-1.7-0.6l-2.7-0.5
		c0,0,0.8-1.1,0.8-2.2c0-3.1-4.9-3.7-4.9-3.7l0.7-0.9L9,3.2L8.7,2.9c0,0,1-0.2,2.2-0.1L15.2,2l3.2,1.4l0.5,0.5l0.8,0.5l0.2,0.8
		l0.6,0.7l0.4,0.3L22,6.8l0.6,1.5C22.6,8.2,22.2,8.6,21.8,9.5 M22.9,8.1l-0.6-1.5c0-0.1-0.1-0.1-0.1-0.1L21,6l-0.4-0.3L20.1,5
		L20,4.3c0-0.1-0.1-0.1-0.1-0.2L19,3.6l-0.5-0.5c0,0-0.1,0-0.1-0.1l-3.2-1.4c-0.1,0-0.1,0-0.2,0l-4.3,0.9C9.7,2.5,8.6,2.6,8.6,2.6
		C8.3,2.7,8.3,2.9,8.4,3L2,4.3c-0.1,0-0.1,0.1-0.2,0.1L1.2,5.3C1,5.5,1.1,5.7,1.3,5.7c0,0,4.7,0.6,4.7,3.5c0,1-0.7,2.1-0.7,2.1
		c-0.1,0.1,0,0.4,0.2,0.4l2.6,0.5c0.2,0.2,0.9,0.6,1.8,0.6c1.2,0,1.5-0.4,1.6-0.8c0.6-0.2,1.3-0.8,1.3-1.3c0-0.3-0.3-0.5-0.5-0.5
		c0,0-0.1,0-0.1,0c0,0-0.1-0.2-0.4-0.2c-0.1,0-0.3,0.1-0.4,0.1c0.3-0.3,0.7-0.7,1.4-0.9c1.1-0.4,2.5-0.7,3.2-0.8
		c-1.1,3.1-4.7,4.7-4.7,4.7c-0.2,0.1-0.2,0.4-0.1,0.4l-0.4,0.2c-0.3,0.1-0.2,0.5,0.1,0.5c3.9-0.3,6.7-1.7,8.6-4.1h0.8
		c0,0,0.1,0,0.1,0c0.8-0.4,1.3-0.4,1.3-0.4c0.1,0,0.2-0.1,0.3-0.2c0.4-0.8,0.8-1.2,0.8-1.2C22.9,8.3,22.9,8.2,22.9,8.1"/>
	<path class="st1" d="M18.4,5.4c0.1,0,0.2-0.1,0.2-0.1c0,0,0-0.1,0-0.1c0,0-0.1,0-0.1,0c-0.1,0-0.2-0.1-0.2-0.2
		c0-0.1,0.1-0.2,0.2-0.2c-0.1-0.2-0.2-0.2-0.2-0.2S17.9,4.7,17.9,5C17.9,5.2,18.2,5.4,18.4,5.4 M5.8,6.7c0-0.1,0.1-0.3,0.1-0.4
		C5.7,6.3,5.6,6.4,5.4,6.4C5.6,6.5,5.7,6.6,5.8,6.7 M10.9,6.4l-0.5,0.1l0.5-1.3c-0.8,0.1-1.6,0.2-2.3,0.3C8,6.1,7.4,7,7.4,8.2
		c0,0.6,0.2,1.1,0.2,1.1C7.4,8.6,7.8,7.9,7.8,7.9s0.9-0.6,2.4-0.9c0.1-0.1,0.3-0.2,0.5-0.3c1.1-0.3,2.1-0.9,2.7-1.6
		c-0.5,0-1,0-1.5,0C11.1,5.7,10.9,6.4,10.9,6.4 M17.2,5.5c-0.9-0.2-1.8-0.3-2.7-0.3c0.2,0.6,0.6,1,0.6,1l-0.5,0.6c0.9,0,1.9,0,1.9,0
		l-0.4,0.7l1-1L17.2,5.5z M7.5,5.9C7.1,5.9,6.9,6,6.6,6.1c-0.2,0.3-0.3,0.6-0.4,1C6.6,7.5,6.9,8,7,8.6c0.1-0.1,0.1-0.1,0.2-0.2
		C7.1,8.1,7.1,7.8,7.1,7.5C7.1,6.9,7.3,6.3,7.5,5.9 M20.9,7c0,0-0.4-0.2-0.9-0.3c-0.8,0.1-1.4-0.2-1.4-0.2c-0.7,0-1.1,0.1-1.5,0.3
		c4.4,0.4,4.9,1.3,4.6,2.4c0,0,0.1,0,0.1,0s0.3-0.5,0.6-0.9c0,0-0.4-0.9-2-1L20.9,7L20.9,7z"/>
	<path class="st2" d="M5,6.1C5.1,5.9,5.6,5,6.7,4.6c0,0-0.5,0.7-0.8,1.6c0,0.1-0.1,0.3-0.1,0.4C5.7,6.6,5.6,6.5,5.4,6.4
		C5.3,6.3,5.2,6.2,5,6.1 M2.2,5.2l7-1.6L9.4,4c0,0,0.5,1,1.8,0.9l-0.2,0.5l-0.5,1.3l0.5-0.1c0,0,0.3-0.7,1-1.2
		c0.4-0.3,0.9-0.5,1.5-0.5c0.3-0.6,0.1-1.1,0.1-1.1S12.8,3.2,12.1,3l3-0.7l3.1,1.2l0.5,0.5l0.8,0.4l0.1,0.7l0.1,0.2l-0.2,0.3
		l0.3-0.1L20,5.6L19.8,6l0.4-0.2l0.1,0.1l-0.2,0.3l0.3-0.2l0.3,0.3c0,0-0.8,0.4-1.7-0.3c0,0-0.3,0.2-0.7,0.2c-0.8,0-1.1-0.7-1.1-0.7
		L17,6.4l-0.9,1c0.3-0.3,0.6-0.5,0.9-0.7c0.4-0.2,0.9-0.3,1.5-0.3c0,0,0.6,0.3,1.4,0.2c0.3,0,0.6-0.1,0.9-0.3l1.1,0.5
		c-0.3,0.6-1,0.1-1,0.1l-0.6,0.2c1.6,0.1,2,1,2,1c-0.3,0.4-0.6,0.9-0.6,0.9s0,0-0.1,0c-0.2,0-0.8,0.1-1.4,0.5l-0.1,0
		c0,0,0.1-2-2.9-2c-1.1,0-3.1,0.5-4.5,1c-1.2,0.4-2.3,1.3-2.3,2.2c0,0.5,0.5,0.8,0.5,1c0,0.2-0.5,0.3-0.9,0.3
		c-1.2,0-1.8-0.8-1.8-0.8l-1.5-0.3c0,0,0.4-0.7,0.4-1.7c0-0.2,0-0.4-0.1-0.7C6.9,8,6.6,7.5,6.2,7c0.1-0.3,0.2-0.7,0.4-1
		C7.2,5.2,8,4.9,8,4.9s-0.3,0.4-0.5,1c-0.2,0.5-0.4,1-0.4,1.7c0,0.3,0,0.6,0.1,0.9C7.3,9,7.6,9.3,7.6,9.3S7.4,8.8,7.4,8.2
		C7.4,7,8,6.1,8.6,5.6C9.1,5.3,9.6,5.1,9.9,5l0-0.1C9.3,4.5,9.1,4,9.1,4L5.2,4.8c0,0-0.5,0.5-0.6,1.1C3.8,5.5,3,5.3,2.2,5.2 M10.4,3
		l-0.3,0.7l0.5-0.7c0.2,0,0.3,0,0.5,0l-0.4,1l0.7-0.9c0.1,0,0.3,0,0.4,0.1l-0.5,1.1l0.8-1.1c0.4,0.1,0.8,0.3,1.1,0.5l-0.9,0.1
		l-0.7,0.7l-0.8,0.1c-0.8,0-1.2-0.8-1.2-0.8L9.4,3.2L9.2,3.1C9.2,3.1,9.7,3,10.4,3 M12.2,13.7c4.8-2.5,4.8-5.4,6.2-5.4
		c0.3,0,1,0.4,1,0.8C19.5,10.3,16.4,13.1,12.2,13.7 M12.3,10.7c-0.5,0.7-1.3,0.9-1.3,0.9c0-0.2-0.3-0.3-0.4-0.7
		C10.6,10.9,11.3,11.2,12.3,10.7 M6.3,9.2c0,1.1-0.8,2.2-0.8,2.2l2.7,0.5c0,0,0.7,0.6,1.7,0.6c1.2,0,1.3-0.5,1.3-0.7
		c0.5-0.2,1.3-0.8,1.3-1.1c0-0.1-0.1-0.2-0.2-0.2c-0.1,0-0.2,0.1-0.3,0.1c0.1-0.1,0-0.3-0.2-0.3c-0.2,0-0.4,0.2-1,0.3
		c0,0,0.4-1.1,1.9-1.6c1.5-0.5,3.7-0.9,3.7-0.9c-0.9,3.5-5,5.3-5,5.3l1.5-0.3c-0.7,0.4-2,0.9-2,0.9c3.8-0.3,6.6-1.6,8.6-4.2l0.1,0.1
		h0.7c0.9-0.5,1.4-0.5,1.4-0.5c0.4-0.8,0.9-1.3,0.9-1.3L22,6.7l-1.2-0.6l-0.4-0.3l-0.6-0.7l-0.2-0.8l-0.8-0.5l-0.5-0.5L15.2,2
		l-4.3,0.9C9.7,2.7,8.6,2.9,8.6,2.9L9,3.2L2.1,4.6L1.4,5.5C1.4,5.5,6.3,6.1,6.3,9.2"/>
	<path class="st2" d="M18.4,5.4c-0.2,0-0.4-0.2-0.4-0.4s0.2-0.4,0.2-0.4s0.1,0.1,0.2,0.2c-0.1,0-0.2,0.1-0.2,0.2
		c0,0.1,0.1,0.2,0.2,0.2c0.1,0,0.1,0,0.1,0c0,0,0,0.1,0,0.1C18.6,5.3,18.5,5.4,18.4,5.4 M19,5.4c0-0.3,0-0.8-1-1.1L16.8,4
		c0,0,0.9,0.8,0.9,1c0,0.3,0.3,0.6,0.6,0.6c0.1,0,0.2,0,0.3-0.1l0,0.2c0.4,0,0.9,0,1-0.6C19.5,5.6,19.1,5.5,19,5.4"/>
	<path class="st2" d="M8.2,10.7c0-1,1-2.3,2.7-2c0.2-0.3,0.4-0.6,0.7-0.9c-0.1-0.3-0.2-0.6-0.1-1c0,0.3,0.1,0.6,0.2,0.9
		c0.2-0.1,0.3-0.2,0.5-0.2c0-0.4,0.1-0.8,0.3-1.1c-0.1,0.3-0.1,0.7-0.1,1c0.2,0,0.3-0.1,0.5-0.1c0.1-0.4,0.3-0.8,0.7-1.1
		c-0.3,0.4-0.4,0.7-0.4,1.1c0.2,0,0.5,0,0.7,0.1l0.6-0.7l0.5-0.6c-0.3-0.2-0.5-0.6-0.6-1c0-0.2-0.1-0.3-0.1-0.5
		c0-1.3,1.2-1.8,1.2-1.8l-0.5-0.3L13.4,3c0.2,0.3,0.4,0.7,0.3,1.1c0,0.4-0.2,0.8-0.4,1.1c-0.6,0.8-1.6,1.3-2.7,1.6
		c-0.2,0-0.3,0.1-0.5,0.3c0,0.1-0.1,0.1-0.1,0.2l-0.4,1C8.3,8.8,8.1,10,8.2,10.7 M19.2,5.4l0.2-0.6l-1.2-0.6
		C19,4.7,19.2,4.9,19.2,5.4"/>
</g>
</svg>
