<?xml version="1.0" encoding="utf-8"?>
<!-- Generator: Adobe Illustrator 23.0.1, SVG Export Plug-In . SVG Version: 6.00 Build 0)  -->
<svg version="1.1" id="Ebene_1" xmlns="http://www.w3.org/2000/svg" xmlns:xlink="http://www.w3.org/1999/xlink" x="0px" y="0px"
	 viewBox="0 0 24 16" style="enable-background:new 0 0 24 16;" xml:space="preserve">
<style type="text/css">
	.st0{fill:#0038A8;}
	.st1{fill:#FFFFFF;}
	.st2{fill:#CE1126;}
</style>
<path class="st0" d="M16,0.3l-0.6,0.6l-0.6-0.6H9.2L8.6,0.9L8,0.3H4l1.2,2.1v10.3c0,0.2,0,1.8,2,1.8h3.1c1.1,0,1.7,1,1.7,1H12
	c0,0,0.5-1,1.7-1h3.1c2,0,2-1.6,2-1.8V2.5L20,0.3C20,0.3,16,0.3,16,0.3z"/>
<path class="st1" d="M18.7,2.4l1.1-2H16L15.4,1l-0.6-0.6H9.2L8.6,1L8,0.4H4.2l1.1,2v10.4c0,0.5,0.2,1.7,1.9,1.7h3.1
	c1,0,1.6,0.8,1.7,1c0.1-0.2,0.7-1,1.7-1h3.1c1.7,0,1.9-1.2,1.9-1.7L18.7,2.4L18.7,2.4z"/>
<path class="st0" d="M18.8,14.3c-0.2,0-0.4,0.2-0.4,0.4s0.2,0.4,0.4,0.4c0.2,0,0.4-0.2,0.4-0.4C19.1,14.5,19,14.3,18.8,14.3
	L18.8,14.3z M18.8,15c-0.2,0-0.3-0.1-0.3-0.3c0-0.2,0.1-0.3,0.3-0.3s0.3,0.1,0.3,0.3C19.1,14.8,19,15,18.8,15L18.8,15z"/>
<path class="st0" d="M19,14.6c0-0.1-0.1-0.1-0.1-0.1h-0.2v0.4h0.1v-0.2h0.1l0.1,0.2H19l-0.1-0.2C18.9,14.7,19,14.6,19,14.6L19,14.6z
	 M18.8,14.6h-0.1v-0.1L18.8,14.6C18.8,14.5,18.9,14.6,18.8,14.6C18.9,14.6,18.8,14.6,18.8,14.6L18.8,14.6z M16.2,0.9l-0.8,0.8
	l-0.8-0.8H9.4L8.6,1.7L7.8,0.9H5l0.8,1.4v10.5c0,0.6,0.2,1.3,1.4,1.3h3.1c0.8,0,1.4,0.4,1.7,0.8c0.4-0.4,0.9-0.8,1.7-0.8h3.1
	c1.2,0,1.4-0.7,1.4-1.3V2.3L19,0.9L16.2,0.9L16.2,0.9z"/>
<path class="st2" d="M10.9,5.5l6.9,5v-5H10.9z"/>
<g>
	<path class="st1" d="M6.1,4.8h11.7v0.3H6.1V4.8z M6.1,12.8c0,0.8,0.6,0.9,1.1,0.9h3.1c0.7,0,1.3,0.4,1.7,0.7c0.4-0.3,1-0.7,1.7-0.7
		h1.1L6.1,7.4C6.1,7.4,6.1,12.8,6.1,12.8z M6.1,6.9l9.5,6.9H16L6.1,6.6V6.9z M9.7,5.5l8.1,5.9v-0.3l-7.7-5.6H9.7z M13.1,11.1
		l0.7,0.5l0.2-0.3L13.6,11l0.3-0.4l0.4,0.3l0.2-0.3l-0.4-0.3l0.3-0.4l0.4,0.3L15,9.9l-0.7-0.5L13.1,11.1z M9.6,6L9,5.5L7.8,7.2
		L8,7.4l0.6-0.8l0.2,0.1l-0.3,1L8.8,8L9,7C9.2,7,9.4,7,9.5,6.8l0.2-0.3C9.9,6.4,9.8,6.1,9.6,6C9.6,6,9.6,6,9.6,6L9.6,6z M15.2,12.6
		l0.3-1c0.2,0.1,0.4,0,0.5-0.1l0.2-0.3c0.1-0.2,0.1-0.5-0.1-0.6l-0.6-0.5l-1.2,1.7l0.3,0.2l0.6-0.8l0.2,0.1l-0.3,1L15.2,12.6
		L15.2,12.6z M11.6,7.4l-1.2,1.7l0.3,0.2l0.8-1l-0.3,1.4l0.3,0.2l1.2-1.7l-0.3-0.2l-0.8,1l0.3-1.4L11.6,7.4z M9,8.1l0.3,0.2L9.6,8
		l0.5,0.3L9.9,8.8L10.2,9L11,6.9l-0.3-0.2L9,8.1L9,8.1z M13.6,8.8l-0.2-0.2c-0.2-0.1-0.5-0.1-0.6,0.1c0,0,0,0,0,0l-0.8,1
		c-0.1,0.2-0.1,0.4,0.1,0.6c0,0,0,0,0,0l0.2,0.2c0.1,0,0.1,0.1,0.2,0.1l0,0.1l0.1,0.1l0.7-0.9l-0.6-0.4l-0.2,0.2l0.3,0.2l-0.2,0.3
		c0,0.1-0.1,0.1-0.2,0c0,0,0,0,0,0l-0.1-0.1c-0.1,0-0.1-0.1,0-0.2c0,0,0,0,0,0L13,9c0-0.1,0.1-0.1,0.2,0c0,0,0,0,0,0l0.1,0.1
		c0.1,0,0.1,0.1,0,0.2l-0.2,0.2l0.3,0.2l0.2-0.3C13.8,9.2,13.8,9,13.6,8.8C13.6,8.8,13.6,8.8,13.6,8.8L13.6,8.8z M17.1,11.4
		c-0.3-0.2-0.6-0.1-0.8,0.1c0,0,0,0,0,0c-0.3,0.5,0.3,1,0.1,1.3c-0.1,0.1-0.3,0.1-0.4,0C16,12.7,16,12.6,16,12.5l0.1-0.1l-0.3-0.2
		l-0.1,0.1c-0.2,0.3-0.1,0.6,0.1,0.8c0,0,0,0,0,0c0.3,0.2,0.6,0.1,0.8-0.1c0,0,0,0,0,0c0.3-0.5-0.3-1-0.1-1.3
		c0.1-0.1,0.2-0.1,0.3-0.1c0,0,0,0,0,0C17,11.7,17,11.9,17,12c0,0,0,0,0,0l-0.1,0.1l0.3,0.2l0.1-0.1C17.4,11.9,17.4,11.6,17.1,11.4
		L17.1,11.4z M8.8,4.1H8.3V3.5h0.5V3.2H8.3V2.6h0.5V2.3H7.9v2.1h0.8V4.1z M15.1,3.5h0.2l0.4,1H16l-0.4-1C15.8,3.4,16,3.2,16,3V2.7
		c0-0.2-0.2-0.4-0.4-0.4h-0.8v2.1h0.3L15.1,3.5L15.1,3.5z M6.6,3.1l0.6,1.3h0.3V2.3H7.1v1.3L6.6,2.3H6.2v2.1h0.3V3.1z M13.8,4.4h0.3
		c0.2,0,0.4-0.2,0.4-0.4c0,0,0,0,0,0V2.7c0-0.2-0.2-0.4-0.4-0.4h-0.3c-0.2,0-0.4,0.2-0.4,0.4c0,0,0,0,0,0V4
		C13.3,4.2,13.5,4.4,13.8,4.4L13.8,4.4z M16.8,3.5l0.2-0.2l0.5,1.1h0.3L17.1,3l0.4-0.7h-0.3L16.8,3V2.3h-0.3v2.1h0.3L16.8,3.5z
		 M12.3,4.4h0.3V3.5l0.5-1.2h-0.3l-0.3,0.8l-0.3-0.8h-0.3l0.5,1.2L12.3,4.4z M9.9,4.4l0.2-1.1l0.2,1.1h0.4L11,2.3h-0.3l-0.2,1.3
		l-0.2-1.3H9.9L9.7,3.6L9.5,2.3H9.1l0.3,2.1L9.9,4.4z"/>
</g>
<g>
	<path class="st0" d="M13.8,4.1H14c0.1,0,0.1-0.1,0.1-0.1V2.8c0-0.1-0.1-0.1-0.1-0.1h-0.1c-0.1,0-0.1,0.1-0.1,0.1c0,0,0,0,0,0v1.2
		C13.7,4,13.8,4.1,13.8,4.1L13.8,4.1z M10.2,8.1l0.3-0.7L9.8,7.8L10.2,8.1z M9.4,6.2L9.1,6L8.8,6.4l0.3,0.2c0.1,0,0.2,0,0.2,0
		l0.1-0.2C9.5,6.3,9.4,6.2,9.4,6.2L9.4,6.2z M15.6,3V2.8c0-0.1-0.1-0.1-0.1-0.1h-0.4v0.5h0.4C15.6,3.1,15.6,3.1,15.6,3L15.6,3z
		 M15.7,11.2l0.1-0.2c0-0.1,0-0.2,0-0.2l-0.3-0.2L15.2,11l0.3,0.2C15.6,11.3,15.7,11.3,15.7,11.2z"/>
</g>
</svg>
