<?xml version="1.0" encoding="utf-8"?>
<!-- Generator: Adobe Illustrator 23.0.1, SVG Export Plug-In . SVG Version: 6.00 Build 0)  -->
<svg version="1.1" id="Ebene_1" xmlns="http://www.w3.org/2000/svg" xmlns:xlink="http://www.w3.org/1999/xlink" x="0px" y="0px"
	 viewBox="0 0 24 16" style="enable-background:new 0 0 24 16;" xml:space="preserve">
<style type="text/css">
	.st0{fill:#CE1126;}
	.st1{fill:#FFFFFF;}
</style>
<g>
	<path class="st0" d="M12.4,12.8c-0.2,0-0.4,0.2-0.4,0.4s0.2,0.4,0.4,0.4s0.4-0.2,0.4-0.4v0C12.8,12.9,12.7,12.8,12.4,12.8z
		 M12.4,13.5c-0.2,0-0.3-0.1-0.3-0.3c0-0.2,0.1-0.3,0.3-0.3c0,0,0,0,0,0c0.2,0,0.3,0.1,0.3,0.3S12.6,13.5,12.4,13.5L12.4,13.5
		L12.4,13.5z"/>
	<path class="st0" d="M12.6,13.1c0-0.1-0.1-0.1-0.1-0.1h-0.2v0.5h0.1v-0.2h0.1l0.1,0.2h0.1l-0.1-0.2C12.6,13.2,12.6,13.1,12.6,13.1
		L12.6,13.1z M12.5,13.1h-0.1V13h0.1C12.5,13,12.5,13,12.5,13.1C12.5,13.1,12.5,13.1,12.5,13.1z"/>
</g>
<path class="st0" d="M20.9,4.9c0.9-0.8,1.8-2,1.8-3.4c0-0.2-0.2-0.3-0.4-0.1c-0.9,1.3-1.8,1.7-2.3,1.9c0.9-0.7,1.7-1.7,2-3
	c0-0.1,0-0.2-0.2-0.2c-0.1,0-0.1,0-0.2,0.1c-1.1,1.1-2.5,2.2-6.5,2.2c-1,0-2.1,0-2.8,0c-3.2,0-4.4,2-4.7,2.5c-0.3,0-0.5-0.1-0.8-0.1
	c-3.1,0-5.5,2.5-5.5,5.5c0,3.1,2.5,5.5,5.5,5.5c2.2,0,4.2-1.3,5.1-3.4c0.1,0,0.1,0,0.2,0c0.7,0,0.8-0.2,0.8-0.4
	c0-0.1-0.1-0.2-0.1-0.3c1,0,1.3-0.1,1.8-0.2c0.1,0,0.1-0.1,0.1-0.2c0-0.2-0.3-0.4-0.5-0.6c1.4,0,2.5-0.3,2.5-0.6
	c0-0.1,0-0.1-0.4-0.4c0.8-0.2,2.2-0.8,2.2-1.1c0-0.1-0.1-0.2-0.3-0.3c1.3-0.5,2.3-1.3,2.3-1.6c0-0.2-0.4-0.3-0.5-0.3
	c0.6-0.4,1.5-1.1,1.5-1.4C21.6,4.8,21.1,4.9,20.9,4.9L20.9,4.9z"/>
<path class="st1" d="M20.5,5c1-0.8,2-2.1,2-3.5c0,0,0,0,0,0c-1.6,2.1-3,2.1-3,2.1c-0.1,0-0.1-0.1,0-0.1c1-0.6,2.1-1.8,2.3-3.2
	c0,0,0,0,0,0c-1.1,1.1-2.7,2.3-6.6,2.3c-1.3,0-1.9,0-2.8,0c-3.4,0-4.4,2.3-4.6,2.6C4.9,4.6,2.1,6.5,1.6,9.5s1.5,5.7,4.4,6.2
	c2.5,0.4,5-1,5.9-3.3c0.1,0,0.2,0,0.3,0c0.5,0,0.7-0.1,0.7-0.2c0-0.1-0.4-0.4-0.2-0.4c1.2,0,1.5,0,1.9-0.2c-0.2-0.3-1-0.8-0.6-0.8
	c1.9,0,2.5-0.4,2.5-0.4c0-0.1-0.6-0.5-0.6-0.5c0.9-0.1,2.5-0.9,2.5-1c0-0.1-0.5-0.3-0.4-0.4c1.4-0.5,2.4-1.4,2.4-1.5
	c0-0.1-0.8-0.1-0.8-0.1V6.6c0.7-0.4,1.8-1.3,1.8-1.5C21.4,5,20.4,5.2,20.5,5L20.5,5z"/>
<path class="st0" d="M8.2,9.4C8,9.1,7.8,8.9,7.5,8.8l0,0l0.1,0.6c0,0,0.1,0,0.1,0.1l0.4,0C8.1,9.6,8.2,9.4,8.2,9.4z M6.2,8.9
	l0.5,0.4c0,0,0.1,0,0.1,0l0.4-0.4l0-0.1C6.9,8.7,6.6,8.7,6.2,8.9L6.2,8.9L6.2,8.9z M7.3,9L7.1,9.3c0.1,0,0.2,0.1,0.3,0.1L7.3,9z
	 M7.5,11.3c-0.1,0.1-0.2,0.1-0.3,0.1l0.3,0.2L7.5,11.3L7.5,11.3z M5.3,12.8L6.1,12c-0.3-0.1-0.6-0.4-0.8-0.7l-0.7,0.9
	C4.8,12.5,5,12.7,5.3,12.8L5.3,12.8z M7.8,9.7c0,0.1,0.1,0.1,0.1,0.2c0,0,0.1-0.1,0.1-0.2C8,9.7,7.8,9.7,7.8,9.7z M6.3,12.1
	L6.3,12.1l-0.9,0.8c0.3,0.2,0.7,0.3,1,0.3L6.3,12.1z M7.8,11.1L7.8,11.1c-0.1,0-0.1,0.1-0.1,0.1l0,0.6l0.1,0
	c0.2-0.1,0.3-0.2,0.4-0.3C8,11.3,7.8,11.2,7.8,11.1L7.8,11.1z M6.2,9.4c0.1-0.1,0.2-0.1,0.3-0.1L6.2,9.1L6.2,9.4L6.2,9.4z M5.2,11.2
	C5.2,11.2,5.2,11.2,5.2,11.2l-1.2-0.1c0.1,0.4,0.3,0.7,0.5,1L5.2,11.2L5.2,11.2z M7.5,11.8L7,11.5c0,0-0.1,0-0.1,0l-0.4,0.4l0,0.1
	C6.8,12.1,7.2,12,7.5,11.8C7.5,11.9,7.5,11.8,7.5,11.8z M6.4,11.7l0.2-0.2c-0.1,0-0.2-0.1-0.3-0.1L6.4,11.7L6.4,11.7z M7.7,12l0,1.1
	c0.4-0.1,0.7-0.3,1-0.5L7.7,12L7.7,12L7.7,12z M5.9,11c-0.1-0.1-0.1-0.2-0.1-0.3L5.6,11L5.9,11L5.9,11z M6.1,11.2l-0.6,0l0,0
	c0.2,0.3,0.5,0.5,0.8,0.7l0,0L6.1,11.2C6.2,11.2,6.1,11.2,6.1,11.2L6.1,11.2z M6.1,9.6l0-0.6l0,0C5.7,9.1,5.5,9.4,5.3,9.7l0,0
	L6.1,9.6C6,9.6,6,9.6,6.1,9.6L6.1,9.6z M5.5,9.9l0.2,0.2c0-0.1,0.1-0.2,0.1-0.3L5.5,9.9L5.5,9.9z M5.3,10c0,0.1-0.1,0.3-0.1,0.4
	c0,0.2,0,0.4,0.1,0.6h0.1l0.4-0.5c0,0,0-0.1,0-0.1L5.3,10L5.3,10L5.3,10z M6.5,12.2l0.2,1.1c0.3,0,0.6,0,0.8-0.1l0-1.1
	C7.2,12.2,6.8,12.3,6.5,12.2z M8.5,8.2c0-0.1,0-0.2,0-0.2l0,0L7.7,8.7C7.9,8.8,8.1,9,8.3,9.1C8.4,8.8,8.5,8.5,8.5,8.2L8.5,8.2z
	 M6,8.7C6,8.7,6.1,8.7,6,8.7l0.1-1.2C5.7,7.6,5.4,7.8,5.1,8L6,8.7L6,8.7z M7.2,8.5L7.1,7.4c-0.3,0-0.6,0-0.8,0.1l0,1.1
	C6.6,8.5,6.9,8.5,7.2,8.5L7.2,8.5z M9.2,12.2c-0.3-0.2-0.6-0.4-0.9-0.6c-0.1,0.1-0.2,0.2-0.4,0.3l0.9,0.7
	C8.9,12.5,9.1,12.3,9.2,12.2z M8.3,7.8C8,7.6,7.6,7.5,7.3,7.5l0.2,1.1c0,0,0,0,0.1,0L8.3,7.8L8.3,7.8z M4,10.4C4,10.6,4,10.8,4,11
	l1.1,0C5,10.7,5,10.3,5.1,10L4,10.1C4,10.2,4,10.3,4,10.4z M4,10l1.1-0.2l0-0.1L4.3,8.9C4.1,9.2,4,9.6,4,10z M4.4,8.8l0.8,0.8
	C5.3,9.3,5.6,9,5.9,8.8L5,8.1C4.8,8.3,4.6,8.5,4.4,8.8L4.4,8.8z"/>
<circle class="st0" cx="6.9" cy="10.4" r="0.6"/>
<path class="st0" d="M6.9,6.7c-2,0-3.6,1.6-3.6,3.6S4.9,14,6.9,14c1.2,0,2.3-0.6,3-1.5c-0.1,0-0.3-0.1-0.4-0.2
	C8.3,13.7,6.4,14,5,12.9S3.3,9.8,4.3,8.4c1-1.3,2.8-1.6,4.1-0.8c0-0.2,0-0.3,0-0.5C8,6.9,7.4,6.7,6.9,6.7L6.9,6.7z"/>
<path class="st0" d="M10.9,12.6c-0.2,0.1-0.5,0-0.9-0.1c-1.2,1.7-3.6,2.2-5.3,1c-1.1-0.8-1.7-2-1.7-3.4c-0.1,0.2-0.1,0.5-0.3,0.5
	c-0.2,0-0.1-0.2-0.2-0.2c-0.1,0-0.1,0.1-0.2,0.1c0,0,0,0,0,0c0,0,0,0-0.1,0c0,0-0.1-0.1-0.1-0.1c0,0-0.1,0.1-0.1,0.1
	c-0.1,0-0.1-0.1-0.1-0.1c0,2.7,2.3,4.9,5,4.9c2,0,3.8-1.2,4.5-3.1c-0.4-0.1-0.7-0.3-1.1-0.5C10.4,12.1,10.9,12.6,10.9,12.6
	L10.9,12.6z M2.4,8.5c0.1,0.1,0,0.3,0.1,0.4C3.3,6.4,6,5.2,8.4,6c0.1,0,0.2,0.1,0.3,0.1c0-0.1,0.1-0.2,0.1-0.3
	c-2.5-1.1-5.4,0-6.5,2.5c0,0,0,0.1-0.1,0.1C2.3,8.5,2.4,8.4,2.4,8.5L2.4,8.5z M12.9,3.4h2.7c3.5,0,5-1.2,5.6-2.4c0-0.1,0-0.1-0.1,0
	c-0.8,0.7-1.9,1.9-6.5,1.9h-2c-3.1,0-4.2,1.4-4.5,2.3c0.2,0,0.3,0.1,0.5,0.1C9.2,4.3,10.2,3.4,12.9,3.4z"/>
<path class="st0" d="M12.9,4.1c-2.7,0-4.3,1.9-4.1,3.7c0.1,1.3-0.6,2.4-0.6,2.4s1-0.5,1-2.4c0-1.8,1.8-3.1,3.3-3.1c1.5,0,3.2,0,4,0
	c4.5,0,5.5-2.1,5.7-2.5c0-0.1,0,0,0,0c-0.9,1.3-2.2,2-5.8,2C14.1,4.2,13.4,4.1,12.9,4.1L12.9,4.1z"/>
<path class="st0" d="M13.9,5.6c-0.7,0-0.8,0.2-0.8,0.2c0,0,0,0.1-0.1,0.1c-0.2,0.1-0.4-0.1-0.5,0.1c-0.1,0.1-0.3,0-0.4,0.1
	c0,0,0,0.1,0,0.1c0.1,0,0.2,0,0.2,0.1c0,0,0,0.1,0.1,0.1c0,0,0.1,0.1,0.2,0.1c0,0,0,0.1,0.1,0.1c1.1,0.1,2.2,0.1,3.3-0.3
	C16.1,6.1,14.9,5.6,13.9,5.6L13.9,5.6z M9.5,8.1c0,0.1,0,0.3,0,0.3c0.8,0.1,1.6-0.1,2.3-0.4C12,7.9,11,7.4,10.2,7.4
	c-0.3,0-0.4,0.1-0.4,0.1c0,0-0.1,0.1-0.1,0.2c0,0.1,0,0.2,0,0.2C9.6,8,9.5,8,9.5,8.1L9.5,8.1z M10.6,6.2c0,0-0.1,0.1-0.1,0.1
	c-0.1,0.1-0.3,0.1-0.3,0.2c0,0.2-0.2,0.2-0.3,0.4c0,0.1-0.1,0.2-0.1,0.3c0.8,0,1.7,0,2.4-0.5C12.4,6.7,11.2,6.1,10.6,6.2L10.6,6.2z
	 M13.2,5.5c-0.1-0.2-0.3-0.3-0.5-0.4c-0.1,0-0.2,0-0.3,0c-0.2,0.1-0.4-0.1-0.6,0.1c-0.1,0-0.1,0.1-0.2,0.1c-0.1,0-0.2,0-0.3,0
	c0,0-0.1,0-0.1,0.1c0,0.2-0.1,0.2-0.3,0.2c-0.1,0-0.1,0.2-0.1,0.3C11.7,6,12.5,5.9,13.2,5.5L13.2,5.5z M9.1,9.4
	c0.2,0.1,1.2,0,1.7-0.4c-0.5-0.4-1.4-0.6-1.4-0.6C9.3,8.8,9.2,9.1,9.1,9.4L9.1,9.4z"/>
<path class="st0" d="M9,9.6C8.9,9.7,8.8,9.8,8.9,9.9c0.2,0.1,0.4,0.3,1.6,0.3c1.2,0,1.6-0.4,1.8-0.6c0-0.1-1-0.4-1.2-0.4
	c0,0,0,0.1-0.1,0.1c0,0-0.2,0-0.2,0c-0.1,0.1-0.1,0.2-0.1,0.2c-0.2,0-0.4-0.1-0.6,0c0,0,0,0.1-0.1,0.2c-0.1,0-0.3-0.1-0.4,0
	c0,0-0.1,0-0.1,0c-0.1,0-0.1,0-0.2-0.1c-0.1,0-0.1,0-0.2,0C9.1,9.7,9,9.6,9,9.6L9,9.6z M13.7,8.8c0.2-0.1,0.5-0.1,0.6-0.3
	c-1-0.5-2.1-0.5-2.2-0.4c0,0-0.1,0.1-0.1,0.1c-0.1,0-0.1,0-0.2,0.1c0,0,0,0.1,0,0.1c0,0-0.1,0-0.1,0.1c0,0-0.1,0-0.2,0
	s-0.1,0.1-0.1,0.1c-0.1,0.1-0.3,0-0.4,0c0,0,0,0.1,0,0.1c0.1,0.1,0.2,0.1,0.2,0.2c0,0,0,0.1-0.1,0.1c0.1,0.2,0.9,0.4,2,0.1
	C13.4,8.9,13.6,8.9,13.7,8.8L13.7,8.8z M15,7.4c0.1-0.1,0.2-0.1,0.3-0.1c0.1-0.2-1-0.4-1.5-0.4c-0.5,0-1.3,0.1-1.4,0.2
	c-0.1,0-0.1,0.1-0.1,0.2c-0.1,0-0.3,0-0.4,0c0,0,0,0.1,0,0.1c0.1,0.1,0.1,0.1,0.2,0.2c0,0,0.1,0,0.1,0c0.1,0.1,0.2,0.2,0.3,0.2
	c0.5,0.1,1.1,0.2,1.6,0c0.1,0,0.1-0.1,0.2-0.1c0.2,0,0.4,0,0.5-0.2C14.7,7.4,14.9,7.5,15,7.4L15,7.4z M16.3,5c0,0,0-0.1,0-0.1
	c-0.1,0-0.3-0.1-0.4,0.1c0,0-0.1,0-0.2,0c-0.1,0-0.1,0.1-0.1,0.1C15.4,5.2,15.3,5,15.1,5c0,0,0,0.1-0.1,0.1c-0.1,0-0.2-0.1-0.3-0.1
	c-0.1,0.1-0.2,0.2-0.3,0.1c-0.1-0.1-0.3-0.2-0.4-0.1c-0.1,0.1-0.3-0.1-0.4,0c-0.1,0-0.4,0.1-0.2,0.2C14,5.7,15.3,5.6,16.3,5L16.3,5z
	 M10.2,12c0-0.1-0.1,0-0.2-0.1c0,0-0.1-0.1-0.1-0.1c0,0-0.1,0-0.1,0c-0.1,0-0.1-0.1-0.1-0.1c-0.1-0.1-0.1-0.1-0.1-0.2
	c0-0.1-0.1-0.1-0.1-0.1c0,0-0.1,0-0.1,0c-0.1,0-0.1-0.1-0.2-0.2c0,0-0.1,0-0.1-0.1c0,0,0-0.1-0.1-0.1c0,0-0.1-0.1-0.1-0.1
	c-0.1,0-0.1-0.2-0.1-0.2s-0.1-0.1-0.1-0.1c-0.1-0.1-0.1-0.2-0.1-0.3c-0.1-0.1-0.2,0-0.3,0.1C8,10.6,8,10.8,8.1,11
	c0.6,0.7,1.4,1.2,2.3,1.4C10.3,12.3,10.2,12.1,10.2,12L10.2,12z M12.2,11.8c-0.1,0-0.2-0.1-0.3-0.1c-0.1,0-0.1,0.1-0.2,0
	c-0.1-0.1-0.2-0.2-0.3-0.2c-0.1-0.1-0.2-0.2-0.3-0.2c0,0-0.1,0.1-0.1,0.1c-0.1-0.1-0.2-0.2-0.4-0.3c-0.1-0.1-0.1,0.1-0.2,0.1
	c-0.2-0.1-0.2-0.3-0.4-0.4c-0.2-0.2-0.3-0.3-0.5-0.4c0,0,0,0-0.1,0.1c-0.2,0.1-0.3-0.1-0.5-0.2c-0.1-0.1-0.3-0.2-0.4-0.2
	c0,0,0,0.1,0,0.1c0.9,1.1,2.2,1.9,3.7,1.9c0,0,0.1,0,0-0.1C12.3,11.9,12.2,11.8,12.2,11.8z M13.5,11c0,0-0.1,0.1-0.1,0
	c-0.1,0-0.2-0.1-0.3-0.2c-0.1,0-0.1,0.1-0.1,0.1c-0.2,0-0.5-0.2-0.7-0.4c0,0-0.2,0-0.3,0c-0.1,0-0.3-0.2-0.4-0.2
	c-0.1,0-0.2-0.1-0.3,0c-0.1,0.1-0.2,0-0.3,0c0,0-0.1,0.1-0.1,0.1c-0.1,0-0.3-0.1-0.5,0c0,0,0,0,0,0c0,0.1,0.1,0.1,0.2,0.1
	c1,0.7,2.6,0.9,3.5,0.7c0,0,0-0.1-0.1-0.1c-0.1,0-0.2-0.1-0.2-0.1C13.6,11.1,13.6,11,13.5,11L13.5,11z M15.6,10c-0.1,0-0.2,0-0.3,0
	c0,0,0,0-0.1,0c-0.2,0-0.3-0.2-0.5-0.2c0,0,0,0.1-0.1,0.1c-0.1,0-0.2-0.1-0.3-0.1c-0.1,0-0.1,0-0.2,0c-0.1,0-0.1-0.1-0.2-0.1
	c-0.1,0-0.1,0.1-0.2,0c-0.2-0.1-0.4-0.3-0.6-0.2c-0.1,0-0.2-0.1-0.3,0c-0.1,0.1-0.1,0.1-0.2,0.2c-0.1,0-0.2,0-0.2,0.1
	c0,0-0.1,0.1-0.1,0.1c-0.1,0-0.2,0-0.3,0.1c0,0,0,0.1,0,0.1c0.8,0.3,2.2,0.6,3.8,0.2c0.1,0,0.1,0,0-0.1C15.8,10.1,15.7,10,15.6,10
	L15.6,10z M17.5,8.6c-0.1,0.1-0.3,0-0.5,0c0,0,0,0.1,0,0.1c-0.2,0-0.3,0-0.5,0c-0.1,0-0.3,0-0.4,0c0,0,0,0.1-0.1,0.1
	c0,0-0.1,0.1-0.1,0.1c-0.2,0-0.3-0.1-0.5-0.1c-0.4-0.1-0.8-0.2-1.2-0.1c-0.1,0-0.3,0.1-0.4,0.2c0,0-0.1,0.1-0.1,0.1
	c-0.2,0.1-0.5,0.1-0.7,0.2c-0.1,0-0.2,0.1-0.1,0.1c0,0,0.7,0.2,1.5,0.2c1.5,0,2.6-0.4,3.4-0.8C17.9,8.7,17.6,8.6,17.5,8.6L17.5,8.6z
	 M19.1,7c-0.1,0-0.2-0.1-0.3,0c-0.1,0.1-0.2,0.1-0.4,0.1c-0.1,0-0.1,0-0.2,0c0,0,0,0.1,0,0.1c-0.3,0.1-0.6,0-0.9,0.1
	c0,0,0,0.1-0.1,0.1c-0.3,0.1-0.5-0.1-0.8,0c-0.1,0,0,0.2-0.1,0.2c-0.2,0-0.5,0-0.7,0c-0.3,0-0.5,0.1-0.8,0.2c-0.1,0-0.1,0.1-0.2,0.2
	c-0.2,0-0.5,0-0.7,0.1c0,0,0,0.1,0,0.1c0.2,0.1,0.5,0.2,0.7,0.5c1.7,0,3.6-0.2,5.1-1.4C20,7,19.8,7,19.7,7c-0.1,0-0.2,0-0.3-0.1
	C19.3,6.9,19.2,7,19.1,7L19.1,7z M21,5.3c-0.1,0-0.3,0-0.4,0c0,0,0,0.1-0.1,0.1c-0.2,0-0.3,0.1-0.5,0.1c0,0-0.1,0-0.2,0.1
	c-0.1,0-0.2,0-0.2,0c0,0,0,0.1,0,0.2c-0.2,0.1-0.4-0.1-0.5,0c0,0,0,0.1,0,0.2C18.7,6,18.3,5.6,18.2,6c0,0.1-0.1,0-0.1,0
	c0,0-0.1,0-0.1,0c-0.1,0.1-0.2,0.2-0.4,0.1c-0.1,0-0.1,0.1-0.2,0.1c-0.1,0-0.2-0.1-0.3-0.1c0,0,0,0.1-0.1,0.2c-0.3,0-0.6,0-0.8,0.1
	c-0.1,0-0.1,0.1-0.2,0.2c-0.2,0-0.4,0-0.6,0.1c0,0,0,0.1,0,0.1c0.1,0,0.3,0,0.3,0.1c0.1,0.1,0.2,0.3,0.3,0.3
	C18.2,7.1,19.8,6.3,21,5.3C21,5.4,21,5.4,21,5.3L21,5.3z M20.4,4c0,0,0,0.1-0.1,0.2c-0.1,0.1-0.2,0.1-0.4,0.1c0,0,0,0.1-0.1,0.1
	c-0.1,0-0.1,0-0.2,0c-0.3,0.2-0.6,0.1-0.9,0.2c0,0.2-0.4,0.1-0.5,0.2c-0.2,0.1-0.1,0.1-0.4,0.1c-0.1,0,0,0.1-0.1,0.1
	c-0.2,0-0.5-0.1-0.6,0c0,0,0,0.1-0.1,0.1c-0.1,0-0.2,0-0.3,0.1c-0.1,0,0,0.2-0.1,0.2c-0.2,0.1-0.4,0-0.6,0.1c-0.1,0-0.2,0-0.3,0
	c-0.1,0-0.1,0.1,0,0.1c0.1,0,0.2,0,0.2,0.1c0.1,0.1,0.2,0.2,0.4,0.2c2.4,0.1,5.4-1.5,5.9-3.6c0-0.1,0-0.1,0,0
	C21.7,3.5,20.4,4,20.4,4L20.4,4z"/>
</svg>
