<?xml version="1.0" encoding="utf-8"?>
<!-- Generator: Adobe Illustrator 23.0.1, SVG Export Plug-In . SVG Version: 6.00 Build 0)  -->
<svg version="1.1" id="Layer_1" xmlns="http://www.w3.org/2000/svg" xmlns:xlink="http://www.w3.org/1999/xlink" x="0px" y="0px"
	 viewBox="0 0 24 16" style="enable-background:new 0 0 24 16;" xml:space="preserve">
<style type="text/css">
	.st0{fill:#ADAFAA;}
	.st1{fill:#002654;}
	.st2{fill:#FCB514;}
	.st3{fill:#FFFFFF;}
	.st4{fill:#CF0A2C;}
</style>
<path class="st0" d="M20,8c0-4.4-3.6-8-8-8S4,3.6,4,8s3.6,8,8,8S20,12.4,20,8z"/>
<path class="st1" d="M12,0.1C7.6,0.1,4.1,3.6,4.1,8s3.5,7.9,7.9,7.9s7.9-3.5,7.9-7.9S16.4,0.1,12,0.1z"/>
<path class="st0" d="M12,0.9C8.1,0.9,4.9,4.1,4.9,8s3.2,7.1,7.1,7.1s7.1-3.2,7.1-7.1S15.9,0.9,12,0.9z"/>
<g id="reg">
	<path class="st1" d="M18,13.9c-0.2,0-0.4,0.2-0.4,0.4s0.2,0.4,0.4,0.4s0.4-0.2,0.4-0.4S18.2,13.9,18,13.9z M18,14.6
		c-0.2,0-0.3-0.1-0.3-0.3S17.8,14,18,14s0.3,0.1,0.3,0.3S18.2,14.6,18,14.6z"/>
	<path class="st1" d="M18.1,14.2c0-0.1-0.1-0.1-0.1-0.1l0,0h-0.2v0.4h0.1v-0.2H18l0.1,0.2h0.1l-0.1-0.2
		C18.1,14.3,18.1,14.3,18.1,14.2z M18,14.3h-0.1v-0.1L18,14.3C18,14.2,18.1,14.2,18,14.3C18.1,14.2,18,14.3,18,14.3L18,14.3z"/>
</g>
<path class="st1" d="M12,10.1c1.7-1.3,3.4-2.7,5-4.3h0c-0.6,0-0.7-0.7-0.9-0.7c-0.1,0-0.4,0.1-0.5,0.2c0.1,0,0.2,0,0.4,0.1
	c0.2,0,0.3,0.1,0.3,0.3c0,0.2,0,0.5-0.5,0.5c-0.6,0-0.6-0.5-0.9-0.5c-0.1,0-0.5,0.2-0.9,0.2c-0.4,0-0.7-0.3-1.1-0.3
	c-0.1,0-0.2,0.1-0.2,0.2c0,0.2,0.2,0.2,0.2,0.4c0,0.1,0,0.1-0.1,0.2c0.1,0,0.1,0.1,0.1,0.2c0,0,0,0.1,0,0.1c0.1-0.1,0.1-0.1,0.2-0.1
	c0.3,0,0.4,0.4,0.4,0.6c0,0.3-0.3,0.3-0.5,0.3c-0.2,0-0.7,0.2-0.9,0.2c-0.2,0-0.5-0.2-0.5-0.4c-0.1,0.1-0.2,0.2-0.4,0.2
	C11,7.3,10.6,7,10.4,7c-0.2,0-0.5,0-0.5-0.4c0,0,0,0,0-0.1c-0.2,0.1-0.6,0-0.6,0c-0.4,0.2-0.5,0-0.5-0.1C8.8,6.5,8.7,6.7,8.5,6.7
	c-0.2,0-0.3-0.2-0.4-0.4C8,6.2,7.8,6.2,7.8,6.1C7.6,6,7.5,5.7,7,5.4C6.9,5.3,6.8,4.9,6.8,4.6C6.8,4,6.9,3.4,8,3.1
	c1.1-0.3,0.9-1.7,3-1.7c0.6,0,1.1,0.1,1.6,0.3c-0.1-0.1-0.2-0.1-0.2-0.2c0-0.1,0.1-0.3,1.8,0.2c1,0.3,1.9,0.6,1.8,0.8
	c-0.1,0.3-0.7,0-2-0.4c-0.5-0.1-0.9-0.2-1.2-0.3c0.9,0.4,1.8,0.9,3.5,1.4c0.6,0.1,0.9,0.2,0.9,0.5c0,0.1,0,0.1-0.1,0.1
	c0.3,0,0.4,0.4-0.3,0.4c-0.4,0-0.7-0.2-0.7-0.4c0-0.1,0-0.2,0.1-0.2c-0.2-0.1-0.4-0.1-0.5-0.1c0,0.1,0.1,0.2,0.1,0.3
	c0,0.3-0.1,0.4-0.1,0.6c0.1,0,0.2-0.1,0.3-0.1c0.4,0,0.2,0.6,0.7,0.7C17,4.9,17,5.1,17,5.1c0.2,0,0.3,0,0.3,0.4c0,0,0,0,0,0.1
	C17.8,5,18,4.7,18,4.7c0,0,0.1-0.1,0.2-0.1C17,2.5,14.7,1,12,1S7,2.5,5.8,4.7c0.1,0,0.1,0,0.2,0.1C6,4.8,8.3,7.3,12,10.1z M12.6,7.7
	c2.1-0.8,2.9-1.2,3-0.9c0.1,0.3-1,0.9-2.7,1.5c-1,0.4-1.2,0.2-1.3,0C11.5,8.2,11.6,8.1,12.6,7.7L12.6,7.7z M18.4,5
	c0,0.3-0.1,0.5-0.3,0.7c0,0-2.3,2.5-5.4,4.9c0.2,0.1,0.4,0.3,0.5,0.4c0,0,0,0,0-0.1c0.1-0.1,0.3-0.2,0.4,0c0.3,0.2,0.3,0.4,0.2,0.7
	c0.1,0,0.2,0.1,0.2,0.1c0,0,0.1,0,0.2,0.1c0,0,0.1,0,0.2,0.1c0,0,0.1,0,0.2,0.1c0,0,0.1,0,0.2,0.1c0,0,0.1,0,0.2,0.1
	c0,0,0.1,0,0.2,0.1c0,0,0.1,0,0.2,0.1c0,0,0.1,0,0.2,0.1c0,0,0,0,0,0c0.1,0,0.2,0.1,0.2,0.3c0.2-0.1,0.3-0.2,0.5-0.1
	c0.2,0.1,0.3,0.4,0.2,0.6C18.9,11.4,19.7,7.9,18.4,5L18.4,5z M15.1,13.3c0,0-0.1,0-0.2-0.1c0,0-0.1,0-0.2-0.1c0,0-0.1,0-0.2-0.1
	c0,0-0.1,0-0.2-0.1c0,0-0.1,0-0.2-0.1c0,0-0.1,0-0.2-0.1c0,0-0.1,0-0.2-0.1c0,0,0,0,0,0l0,0c0,0.3,0.1,0.7,0.5,1
	c0.4,0.3,0.7,0.2,0.9,0.1c0,0,0,0,0-0.1C15.2,13.4,15.1,13.4,15.1,13.3L15.1,13.3z"/>
<path class="st1" d="M11.3,6.1c-0.2,0-0.3,0.2-0.3,0.2c0,0,0,0.1,0,0.2c0,0,0.1-0.1,0.2-0.1c0.2,0,0.4,0.3,0.4,0.5
	c0-0.1,0-0.2,0-0.3C11.6,6.2,11.4,6.1,11.3,6.1z M7.7,12.9c0.2-0.1,0.4,0,0.5,0.1c0-0.1,0.1-0.3,0.2-0.3c0,0,0,0,0,0
	c0.1-0.1,0.2-0.1,0.2-0.1c0.1-0.1,0.2-0.1,0.2-0.1C8.9,12.4,9,12.4,9,12.4c0.1-0.1,0.2-0.1,0.2-0.1c0.1-0.1,0.2-0.1,0.2-0.1
	C9.4,12,9.5,12,9.5,12c0.1-0.1,0.2-0.1,0.2-0.1c0.1-0.1,0.2-0.1,0.2-0.1c0-0.1,0.1-0.1,0.2-0.1c0,0,0,0,0,0c-0.1-0.3,0-0.6,0.2-0.7
	c0.2-0.1,0.4-0.1,0.4,0c0,0,0,0,0,0.1c0.2-0.1,0.4-0.3,0.5-0.4C8.2,8.3,6,5.8,5.9,5.7C5.7,5.5,5.6,5.3,5.6,5
	c-1.4,2.9-0.6,6.4,1.9,8.4C7.5,13.3,7.6,13,7.7,12.9L7.7,12.9z M10,12.5c-0.1,0.1-0.2,0.1-0.2,0.1c-0.1,0.1-0.2,0.1-0.2,0.1
	c-0.1,0.1-0.2,0.1-0.2,0.1C9.4,13,9.3,13,9.3,13c-0.1,0.1-0.2,0.1-0.2,0.1c-0.1,0.1-0.2,0.1-0.2,0.1c-0.1,0.1-0.2,0.1-0.2,0.1
	c0,0,0,0,0,0.1c0.2,0.2,0.5,0.2,0.9-0.1c0.5-0.3,0.6-0.6,0.5-1l0,0c0,0,0,0,0,0C10.1,12.6,10,12.5,10,12.5L10,12.5z"/>
<path class="st1" d="M14,13.8c-0.8-0.5-0.8-1.3-0.7-1.8c-0.4-0.3-0.9-0.6-1.2-0.9c-0.3,0.3-0.9,0.6-1.2,0.9c0.1,0.6,0.1,1.3-0.7,1.8
	c-1,0.6-1.6,0-1.8-0.1c-0.1,0-0.1,0.1-0.2,0.1c1.1,0.8,2.5,1.3,4,1.3s2.9-0.5,4-1.3c-0.1,0-0.1,0-0.2-0.1C15.6,13.8,15,14.5,14,13.8
	L14,13.8z M9.9,5.7c-0.1,0-0.2,0.1-0.2,0.2c0,0.3,0.2,0.2,0.4,0.4c0-0.1-0.1-0.2-0.1-0.3c0,0,0-0.1,0-0.1C10.1,5.7,10,5.7,9.9,5.7
	L9.9,5.7z"/>
<path class="st1" d="M12.8,5.4c0.4,0,0.7,0.3,1.1,0.3c0.3,0,0.7-0.2,0.9-0.2c0.4,0,0.4,0.5,0.9,0.5C15.9,6.1,16,6,16,5.7
	c0-0.2-0.1-0.2-0.2-0.2c0,0-0.1-0.1-0.2-0.1c-0.1,0-0.3-0.1-0.3-0.1c0.1-0.1,0.6-0.2,0.7-0.2c0.3,0,0.3,0.7,0.9,0.7
	c0.2,0,0.3,0,0.3-0.3c0-0.2,0-0.3-0.2-0.3c-0.1,0-0.2,0-0.2,0c0-0.1,0-0.2-0.1-0.2c-0.6-0.1-0.3-0.7-0.7-0.7c-0.1,0-0.4,0.2-0.4,0
	c0-0.1,0.1-0.3,0.1-0.6c0-0.2-0.1-0.4-0.1-0.4c0.3,0,0.7,0.1,0.9,0.2c-0.1,0-0.3,0.1-0.3,0.2c0,0.2,0.3,0.3,0.6,0.3
	c0.6,0,0.5-0.2,0.3-0.2c-0.2,0-0.3,0-0.3,0c0.1,0,0.3,0,0.3-0.2c0-0.2-0.3-0.2-0.9-0.4c-2.5-0.7-3.6-1.7-5.3-1.7
	c-2.1,0-1.8,1.4-3,1.7C7,3.4,6.9,4,6.9,4.6c0,0.3,0.1,0.7,0.2,0.7C7.3,5.5,7.5,5.7,7.8,6C7.9,6.1,8,6.2,8.1,6.2
	c0.1,0.1,0.2,0.4,0.4,0.4c0.2,0,0.3-0.2,0.5-0.3C9,6.3,8.9,6.4,8.9,6.5c0,0.2,0.2,0.1,0.4,0c0.5,0.1,0.6,0,0.7-0.2c0,0,0-0.1,0-0.1
	C9.9,6.1,9.7,6.2,9.7,5.9c0-0.1,0.1-0.2,0.2-0.2c0.1,0,0.2,0.1,0.2,0.3c0,0.1,0.1,0.2,0.1,0.3c0,0.3-0.2,0.3-0.2,0.5
	C10,7,10.2,7,10.4,7c0.2,0,0.6,0.2,0.8,0.2c0.2,0,0.4-0.1,0.4-0.2c0-0.1-0.2-0.5-0.4-0.5c-0.1,0-0.2,0.1-0.2,0.1c0,0-0.1,0-0.1,0
	c0.1-0.1,0-0.1,0-0.2C10.9,6.2,11,6,11.3,6c0.2,0,0.5,0.2,0.5,0.5c0,0.3-0.1,0.5-0.1,0.5c0,0.2,0.3,0.3,0.4,0.3
	c0.2,0,0.6-0.2,0.9-0.2c0.2,0,0.4,0,0.4-0.2c0-0.2-0.1-0.5-0.3-0.5c-0.2,0-0.4,0.4-0.7,0.4c0,0,0.1-0.1,0.1-0.1
	c0.2-0.1,0.3-0.2,0.3-0.3c0-0.1-0.1-0.1-0.2-0.2c0.1,0,0.2,0,0.2-0.1c0-0.1-0.2-0.2-0.2-0.4C12.5,5.6,12.6,5.4,12.8,5.4L12.8,5.4z
	 M16.2,13c-0.2-0.1-0.4,0-0.6,0.2l0,0c0-0.2,0-0.3-0.1-0.4c0,0,0,0,0,0c-0.1-0.2-0.2-0.1-0.2-0.1c-0.1-0.2-0.2-0.1-0.2-0.1
	c-0.1-0.2-0.2-0.1-0.2-0.1c-0.1-0.2-0.2-0.1-0.2-0.1c-0.1-0.2-0.2-0.1-0.2-0.1c-0.1-0.2-0.2-0.1-0.2-0.1c-0.1-0.2-0.2-0.1-0.2-0.1
	c-0.1-0.2-0.2-0.1-0.2-0.1c0-0.1-0.1-0.1-0.1-0.1c0,0-0.1,0-0.1,0c0.1-0.3,0.1-0.6-0.2-0.8c-0.1-0.1-0.3-0.1-0.3,0
	c-0.1,0.1,0.1,0.2,0.1,0.2c0.2,0.2-0.7,1.7,0.6,2.5c1,0.6,1.6,0,1.8-0.2c0.1,0.1,0.3,0.2,0.5,0C16.4,13.3,16.4,13.1,16.2,13L16.2,13
	z M15.4,13.4c-0.3,0.2-0.6,0.3-1.1,0c-0.5-0.3-0.6-0.8-0.6-1.2c0,0,0.1,0.1,0.1,0.1c0,0,0,0,0,0c0.1,0.2,0.2,0.1,0.2,0.1
	c0.1,0.2,0.2,0.1,0.2,0.1c0.1,0.2,0.2,0.1,0.2,0.1c0.1,0.2,0.2,0.1,0.2,0.1c0.1,0.2,0.2,0.1,0.2,0.1c0.1,0.2,0.2,0.1,0.2,0.1
	c0.1,0.2,0.2,0.1,0.2,0.1c0.1,0.2,0.2,0.1,0.2,0.1C15.3,13.4,15.4,13.4,15.4,13.4L15.4,13.4z M10,13.8c1.3-0.8,0.4-2.3,0.6-2.5
	c0-0.1,0.2-0.1,0.1-0.2c0-0.1-0.2-0.1-0.3,0c-0.3,0.2-0.2,0.4-0.2,0.8c0,0-0.1,0-0.1,0c-0.1,0-0.1,0.1-0.1,0.1c0,0-0.1,0-0.2,0.1
	c0,0-0.1,0-0.2,0.1c0,0-0.1,0-0.2,0.1c0,0-0.1,0-0.2,0.1c0,0-0.1,0-0.2,0.1c0,0-0.1,0-0.2,0.1c0,0-0.1,0-0.2,0.1c0,0-0.1,0-0.2,0.1
	c0,0,0,0,0,0c-0.1,0-0.2,0.2-0.1,0.4c0,0,0,0,0,0C8.2,13,8,12.8,7.8,13c-0.2,0.1-0.2,0.4-0.1,0.6c0.2,0.3,0.4,0.1,0.5,0
	C8.4,13.7,9,14.4,10,13.8L10,13.8z M10.3,12.3c0,0.4,0,0.8-0.6,1.2c-0.5,0.3-0.8,0.2-1.1,0c0.1,0,0.1-0.1,0.1-0.1c0,0,0.1,0,0.2-0.1
	c0,0,0.1,0,0.2-0.1c0,0,0.1,0,0.2-0.1c0,0,0.1,0,0.2-0.1c0,0,0.1,0,0.2-0.1c0,0,0.1,0,0.2-0.1c0,0,0.1,0,0.2-0.1c0,0,0.1,0,0.2-0.1
	c0,0,0,0,0,0C10.2,12.3,10.2,12.3,10.3,12.3L10.3,12.3z"/>
<path class="st1" d="M11.4,10.6c-0.3,0.2-0.6,0.4-0.9,0.6l0.1,0.7c0.4-0.3,0.9-0.6,1.3-0.9c0.4,0.3,0.9,0.6,1.3,0.9l0.1-0.7
	c-0.3-0.2-0.6-0.4-0.9-0.6C15.7,8.2,18,5.7,18,5.7c0.2-0.2,0.3-0.5,0.3-0.8c0-0.1-0.1-0.1-0.2-0.1c0,0-2.4,2.6-6.1,5.4
	C8.3,7.4,5.9,4.8,5.9,4.8c-0.1-0.1-0.2,0-0.2,0.1c0,0-0.1,0.5,0.3,0.8C6,5.7,8.3,8.2,11.4,10.6z"/>
<path class="st1" d="M12.8,8.3c1.3-0.5,2.8-1.2,2.7-1.4c-0.1-0.2-1.1,0.3-2.9,0.9c-0.8,0.3-1,0.4-1,0.6C11.7,8.4,11.8,8.6,12.8,8.3
	L12.8,8.3z M15.9,2.4c0.1-0.2-0.8-0.5-1.7-0.7c-1.3-0.4-1.7-0.3-1.7-0.3c0,0.2,0.5,0.3,1.6,0.6C15.3,2.3,15.9,2.6,15.9,2.4L15.9,2.4
	z"/>
<g>
	<path class="st2" d="M12,0.2C7.7,0.2,4.2,3.7,4.2,8s3.5,7.8,7.8,7.8s7.8-3.5,7.8-7.8l0,0C19.8,3.7,16.3,0.2,12,0.2z M12,15.2
		c-4,0.1-7.3-3.1-7.4-7c-0.1-4,3.1-7.3,7-7.4c0.1,0,0.3,0,0.4,0c4,0.1,7.2,3.4,7,7.4C18.9,12,15.8,15.1,12,15.2z"/>
	<path class="st2" d="M13.8,12.3C13.9,12.3,13.9,12.3,13.8,12.3c0.1,0.2,0.2,0.1,0.3,0.1c0,0.2,0.1,0.2,0.2,0.1
		c0,0.2,0.1,0.2,0.2,0.1c0,0.2,0.1,0.2,0.2,0.1c0,0.2,0.1,0.2,0.2,0.1c0,0.2,0.1,0.2,0.2,0.1c0,0.2,0.1,0.2,0.2,0.1
		c0,0.2,0.1,0.2,0.2,0.1c0,0.1,0,0.1,0.1,0.2c0.1,0,0.1-0.1,0.2-0.2s0-0.2-0.1-0.3c0,0-0.1,0-0.1,0c0-0.2-0.1-0.2-0.2-0.1
		c0-0.2-0.1-0.2-0.2-0.1c0-0.2-0.1-0.2-0.2-0.1c0-0.2-0.1-0.2-0.2-0.1c0-0.2-0.1-0.2-0.2-0.1c0-0.2-0.1-0.2-0.2-0.1
		c0-0.2-0.1-0.2-0.2-0.1c0-0.2-0.1-0.2-0.2-0.1c0-0.1,0-0.1-0.1-0.2c-0.1,0-0.1,0.1-0.2,0.2C13.7,12.1,13.8,12.3,13.8,12.3
		L13.8,12.3z M8.6,13.4c0.1,0,0.1-0.1,0.1-0.2c0,0,0.2,0.1,0.2-0.1c0,0,0.2,0.1,0.2-0.1c0,0,0.2,0.1,0.2-0.1c0,0,0.2,0.1,0.2-0.1
		c0,0.1,0.2,0.1,0.2-0.1c0,0,0.2,0.1,0.2-0.1c0,0,0.2,0.1,0.2-0.1c0,0,0.2,0.1,0.2-0.1c0,0,0.1,0,0.1,0c0.1,0,0.1-0.1,0.1-0.3
		c0-0.1-0.1-0.2-0.2-0.2c-0.1,0-0.1,0.1-0.1,0.2c0,0-0.2-0.1-0.2,0.1c0,0-0.2-0.1-0.2,0.1c0,0-0.2-0.1-0.2,0.1c0,0-0.2-0.1-0.2,0.1
		c0,0-0.2-0.1-0.2,0.1c0,0-0.2-0.1-0.2,0.1c0,0-0.2-0.1-0.2,0.1c0,0-0.2-0.1-0.2,0.1c0,0-0.1,0-0.1,0c-0.1,0-0.1,0.1-0.1,0.3
		C8.4,13.3,8.5,13.4,8.6,13.4L8.6,13.4z"/>
	<path class="st2" d="M16.2,13c-0.4-0.3-0.7,1.2-1.9,0.5c-1.3-0.8,0-2.1-0.6-2.5c-0.1-0.1-0.2,0-0.2,0c0,0,0,0.1,0.1,0.1
		c0.2,0.3-0.7,1.7,0.6,2.5c1.1,0.7,1.7-0.3,1.8-0.2c0.1,0,0.3,0.2,0.4,0C16.4,13.3,16.3,13.1,16.2,13L16.2,13z M10.5,11.2
		c0.1-0.1,0.1-0.1,0.1-0.1c0,0-0.1-0.1-0.2,0c-0.6,0.4,0.7,1.6-0.6,2.5c-1.2,0.7-1.5-0.8-1.9-0.5c-0.1,0.1-0.2,0.3-0.1,0.5
		c0.2,0.2,0.3,0.1,0.4,0c0.1-0.1,0.6,0.9,1.8,0.2C11.2,12.9,10.3,11.5,10.5,11.2L10.5,11.2z"/>
</g>
<g>
	<path class="st3" d="M18.2,4.8C18.2,4.8,18.1,4.8,18.2,4.8c-0.1,0-2.4,2.6-6.2,5.5C8.2,7.4,5.9,4.8,5.9,4.8s-0.1-0.1-0.1,0
		c0,0-0.1,0.4,0.3,0.8c0,0,2.3,2.6,5.5,5c-0.3,0.2-0.6,0.4-0.9,0.7l0.1,0.5c0.4-0.3,0.9-0.6,1.3-0.9c0.4,0.3,0.8,0.6,1.3,0.9
		l0.1-0.5c-0.3-0.2-0.6-0.4-0.9-0.7c3.2-2.4,5.5-5,5.5-5C18.3,5.3,18.2,4.9,18.2,4.8L18.2,4.8z"/>
	<path class="st3" d="M7.1,5.2C7.6,5.6,7.8,5.9,7.9,6C8,6.1,8.1,6.1,8.2,6.2c0.1,0.2,0.2,0.3,0.3,0.3c0.1,0,0.3-0.3,0.6-0.3
		C9.3,6.2,9,6.3,9,6.5c0,0.1,0.3,0,0.3,0c0.1,0,0.5,0.2,0.7-0.1C9.9,6.2,9.6,6.3,9.6,5.9c0-0.1,0.1-0.3,0.3-0.3
		c0.2,0,0.3,0.2,0.3,0.3c0,0.1,0.1,0.1,0.1,0.2c0,0.3-0.2,0.4-0.2,0.5c0,0.3,0.2,0.3,0.3,0.3c0.3,0,0.7,0.2,0.8,0.2
		c0.2,0,0.3-0.1,0.3-0.2s-0.2-0.4-0.3-0.4c-0.1,0-0.1,0.1-0.2,0.1c-0.1,0-0.2-0.1-0.1-0.1c0,0,0-0.1,0-0.2c0-0.1,0.2-0.4,0.5-0.4
		c0.3,0,0.5,0.2,0.5,0.6c0,0.3-0.1,0.5-0.1,0.5c0,0.1,0.2,0.2,0.4,0.2s0.6-0.2,0.8-0.2s0.4,0,0.4-0.1S13.1,6.5,13,6.5
		s-0.4,0.4-0.7,0.4c0,0-0.1,0-0.1-0.1c0-0.1,0.1-0.2,0.1-0.2s0.3-0.1,0.3-0.2c0-0.1-0.2-0.1-0.2-0.2c0-0.1,0.2,0,0.2-0.1
		c0-0.1-0.2-0.2-0.2-0.4c0-0.2,0.1-0.3,0.3-0.3c0.4,0,0.7,0.3,1.1,0.3c0.3,0,0.7-0.2,0.9-0.2c0.5,0,0.5,0.5,0.9,0.5
		C15.9,6,16,5.9,16,5.7c0-0.1-0.1-0.1-0.1-0.1s-0.1-0.1-0.2-0.1c-0.2,0-0.4-0.1-0.4-0.2C15.2,5.2,15.9,5,16,5c0.3,0,0.4,0.7,0.9,0.7
		c0.1,0,0.2,0,0.2-0.3s0-0.2-0.1-0.2s-0.3,0.1-0.3,0c0-0.1,0.1-0.1,0-0.2c-0.6-0.1-0.4-0.7-0.6-0.7c-0.1,0-0.5,0.2-0.5,0
		c0-0.1,0.1-0.3,0.1-0.6c0-0.3-0.2-0.5,0-0.5c0.4,0,1,0.2,1,0.3c0,0.1-0.4,0-0.4,0.2c0,0.1,0.2,0.2,0.5,0.2s0.5-0.1,0.3-0.1
		s-0.4,0-0.4-0.1c0-0.1,0.3-0.1,0.3-0.2c0-0.2-0.3-0.2-0.8-0.3c-2.7-0.8-3.6-1.7-5.3-1.7C9,1.5,9.3,2.9,8,3.2C7.1,3.5,7,4,7,4.6
		C7,4.9,7.1,5.2,7.1,5.2L7.1,5.2z M8.1,5.8C8,5.8,8,5.7,8.1,5.8C8.1,5.5,8.1,5,8.2,5c0.1,0,0,0.1,0,0.2c0,0.1,0.2,0.1,0.2,0.3
		C8.4,5.6,8.2,5.8,8.1,5.8L8.1,5.8z M8.5,6.4c0,0-0.1-0.1-0.1-0.1c0-0.1,0.2-0.1,0.2-0.1C8.6,6.3,8.5,6.4,8.5,6.4L8.5,6.4z M8.6,4.6
		c0,0.1-0.1,0.2-0.2,0.2c-0.1,0-0.2-0.3-0.2-0.3s0-0.1,0.1-0.1C8.5,4.5,8.6,4.6,8.6,4.6L8.6,4.6z M7.8,3.6c0.4,0,0.6,0.2,0.6,0.5
		S8.2,4.5,8,4.5c-0.2,0-0.2-0.1-0.2-0.2c0-0.1,0.1-0.2,0.1-0.3c0-0.1-0.2-0.2-0.3-0.2C7.3,3.9,7.2,4.1,7.2,4
		C7.2,3.8,7.4,3.6,7.8,3.6L7.8,3.6z M12.6,7.9c-0.7,0.2-0.9,0.4-0.9,0.5c0,0.1,0.2,0.2,1.1-0.1c0.9-0.3,2.7-1.2,2.7-1.3
		C15.4,6.8,14.1,7.3,12.6,7.9L12.6,7.9z M14.1,1.9c1.1,0.3,1.8,0.6,1.8,0.5S15,2,14.2,1.8c-0.8-0.2-1.7-0.3-1.6-0.3
		C12.6,1.5,13,1.6,14.1,1.9L14.1,1.9z"/>
</g>
<path class="st4" d="M8.2,5.5C8.2,5.5,8.2,5.5,8.2,5.5c-0.1,0.1,0,0.1,0,0.1c0,0,0,0,0,0C8.3,5.5,8.3,5.5,8.2,5.5L8.2,5.5z"/>
</svg>
