<?xml version="1.0" encoding="utf-8"?>
<!-- Generator: Adobe Illustrator 23.0.1, SVG Export Plug-In . SVG Version: 6.00 Build 0)  -->
<svg version="1.1" id="Ebene_1" xmlns="http://www.w3.org/2000/svg" xmlns:xlink="http://www.w3.org/1999/xlink" x="0px" y="0px"
	 viewBox="0 0 24 16" style="enable-background:new 0 0 24 16;" xml:space="preserve">
<style type="text/css">
	.st0{fill:#CE1126;}
	.st1{fill:#FFFFFF;}
	.st2{fill:#BF910C;}
</style>
<path d="M14.9,5.9l-1.5-2.1L12.9,4c0,0-0.3-0.1-0.9-0.2l0.4-0.4V2.7h-0.3c0.4-0.7-0.3-1.5,1-2.3H9.8C7.3,1.2,7.9,5.8,7.9,5.8
	l0.5-0.2c0,0-0.3,0.6-0.2,1.1c0,0-0.3,0.7,0.1,1.4L8.1,8.5L8.1,10c-0.3,0.6-1.6,0.3-1.7,0.9c-0.1,0.3-0.7,0.5-0.7,0.5
	c-0.7,2.1,4.6,2.5,5.5,3.8c2.5,1.2,5.5,0.2,6.7-2.3c1.2-2.5,0.2-5.5-2.3-6.7C15.3,6.1,15.1,6,14.9,5.9z"/>
<g>
	<path class="st0" d="M10,2.4L9.8,0.8C8,1.6,8.3,5.2,8.3,5.2L10,2.6h1.6C12,2,11.6,1.1,12.2,0.8h-2.2C10.1,0.8,10,2.4,10,2.4z
		 M9.5,13.2c0.7,0.2,1.7,0.8,1.7,0.8c-0.1-0.3-0.3-0.5-0.3-0.5c-0.7-0.2-1.4-0.6-1.9-1.1l-1.8-1c0,0,1.1,0,1-0.8
		c-0.5,0.4-1.4,0.2-1.4,0.6c0,0.4,0.7,0.8,2.1,1.7l-2.2-1l0.1-0.1l-0.2-0.3c0,0.1-0.6,0.1-0.6,0.5c0,1.3,4.7,1.8,5.6,3.1
		C11.7,14.3,10.5,13.7,9.5,13.2L9.5,13.2z M15.2,10.8c0,0,0.5,0.4,0.5,0.6c0,0.1-1,0.7-1,0.7c0.3-0.5,0.6-0.7,0.6-0.9
		c0-0.2-0.4-0.2-0.4-0.6c-0.4,0.6-0.4,1-0.4,1l0.2,1.2l-0.5-0.1c-1,1-0.9,2.1-0.9,2.1c0.6-1.8,2.8-1.9,2.8-3.6
		C15.9,11,15.2,10.8,15.2,10.8L15.2,10.8z"/>
</g>
<path class="st1" d="M13.2,10.8l0.3-0.1l-0.3-1.3L13.4,9l0.9-0.3l0.3,0.1l0-0.4c0,0-0.3-0.2-0.6-0.2c-0.3,0-0.4,0.2-0.8,0.7
	c0,0-0.2-0.6-1.2-0.6c-0.8,0-1.8,0.4-1.8,0.4c-0.2,0.2-0.1,0.7,1,0.6L11,9.9l0.6,0.1c0,0-0.8,1.8-0.4,2.2c0.4,0.4,0.9,0.8,1,0.8
	c0.6,0,1-0.2,1-0.2c0,0,0.1-0.1,0.1-0.2c0-0.3-0.3-0.4-0.6-0.4c-0.6,0-0.8,0.2-0.8,0.2l0.1-0.4c0.1-0.3,1.2-0.1,1.2-0.1l0-0.4
	l-0.2,0l-0.5-0.1l-1.1,0l-0.1,0l1.3-0.2l0.3,0.1l0.2-0.1l-0.1-0.1L13,11.3l0-0.3l-0.8-0.1l0.6-0.2L13.2,10.8L13.2,10.8z"/>
<path class="st1" d="M14.4,9.1l-0.3,0c-0.1,0.4-0.4,0.2-0.4,0.1l-0.1,0.4l0.2,0.7l0.2,0.4L13.6,11l0.2,0.2l0.1,0.2l0.3-1.1l0.3-0.4
	c0-0.1-0.2-0.6-0.2-0.6L14.4,9.1L14.4,9.1z M11.9,13.8l0.7,0.5l0.2-0.6l-0.6-0.1L11.9,13.8z"/>
<path d="M17.5,14.5c-0.2,0-0.3,0.1-0.3,0.3c0,0.2,0.1,0.3,0.3,0.3c0.2,0,0.3-0.2,0.3-0.3C17.7,14.6,17.6,14.5,17.5,14.5z M17.5,15
	c-0.1,0-0.2-0.1-0.2-0.2c0-0.1,0.1-0.2,0.2-0.2c0,0,0,0,0,0c0.1,0,0.2,0.1,0.2,0.2C17.7,14.9,17.6,15,17.5,15z"/>
<path d="M17.6,14.7c0-0.1,0-0.1-0.1-0.1c0,0,0,0,0,0h-0.1v0.3h0.1v-0.1h0l0.1,0.1h0.1V14.7C17.6,14.8,17.6,14.7,17.6,14.7L17.6,14.7
	z M17.5,14.7L17.5,14.7L17.5,14.7L17.5,14.7C17.5,14.7,17.5,14.7,17.5,14.7C17.5,14.7,17.5,14.7,17.5,14.7L17.5,14.7z"/>
<g>
	<path class="st2" d="M14.6,8l-1.4-0.8l-2.9,1c0,0,1.1-0.3,1.9-0.3c0.9,0,1,0.5,1,0.5s0.3-0.5,0.7-0.5c0.5,0,0.8,0.3,0.8,0.3L14.6,8
		L14.6,8z M11.6,3.9l0.2-0.3h-1.2l-1,0.8l0.9-1.1h1.5V2.9h-1.6l-1.5,2l0.1,0.3C8.9,5.3,9.7,3.9,11.6,3.9z"/>
	<path class="st2" d="M10.6,11.4c0-1,0.2-2,0.2-2S9.4,9.5,9.6,8.3c0,0-0.3,0.3-0.6,0.1c0,0,0.5-0.1,0.5-0.7l0.1,0.4l3.7-1.5l1.5,1.3
		l0-0.6c-0.2,0.1-0.5-0.2-0.5-0.2l0.1,0c0,0,0.2,0.1,0.5,0l0-0.6l-1.6-2.3l-0.4,0.1c0,0-0.8-0.3-1.6-0.3c-1.2,0-2.6,1.2-2.6,2.4
		l0.8,0.1l2.2-1.6L9.4,7.2c0,0-0.2-0.4-0.5-0.4C8.8,6.8,8.5,7,8.5,7.6c0,0.4,0.2,0.6,0.2,0.6L8.5,8.6c0.2,2.7-0.1,3-0.7,2.9l1.1,0.5
		C8.9,10,8.8,9.5,9,9.5c0.3,0,0.3,1.9,0.4,2.8c0,0,0.8,0.9,2.4,1.1C11.7,13.3,10.6,12.6,10.6,11.4L10.6,11.4z M14.1,11.8L14,12.3
		l0.3,0L14.1,11.8z M15.4,6.6v1.6c0.7,0.6,1.2,1.5,1.2,2.5c0,1.3-0.8,2.5-2.1,3c-0.5,0.9-0.4,1.4-0.3,1.5c2.2-0.4,3.8-2.3,3.8-4.5
		C17.9,8.9,16.9,7.3,15.4,6.6L15.4,6.6z"/>
</g>
<g>
	<path d="M11.6,7L11.5,7c-0.8,0.1-0.6-0.1-0.8-0.1c0.1-0.1,0-0.2,0.2-0.4l0,0c-0.5,0.3-0.2,0.4-0.5,0.6l0,0
		C10.8,6.9,10.6,7.4,11.6,7L11.6,7z"/>
	<path d="M12.1,6.6L12.1,6.6c-0.6,0.2-0.6,0-0.7,0c0.1-0.1-0.1-0.2,0.3-0.6l0,0c-0.6,0.4-0.3,0.6-0.5,0.8l0,0
		C11.4,6.7,11.4,7.1,12.1,6.6z M10.6,7.4c0,0-0.1-0.1-0.1-0.1c-0.4,0-0.4-0.1-0.5-0.1c0.1-0.1,0-0.2,0.1-0.3l0,0
		C9.7,7.1,9.9,7.2,9.7,7.3l0,0C9.9,7.3,9.9,7.6,10.6,7.4L10.6,7.4z M9.2,7.2c0.2,0.6-0.2,0.9-0.3,0.9S8.6,7.9,8.6,7.9S8.8,8.3,9,8.3
		S9.7,7.7,9.2,7.2L9.2,7.2z"/>
	<path d="M12.6,6.1L12.6,6.1c-0.5,0.2-0.5,0-0.6,0.1c0-0.1-0.1-0.1,0.1-0.5l0-0.1c-0.6,0.5-0.2,0.5-0.4,0.8l0,0
		C12,6.2,11.9,6.6,12.6,6.1L12.6,6.1z M10.3,4.6C8.8,5.3,8.9,6.4,8.9,6.4l0.5,0l0.9-0.6C9.6,6,8.6,5.9,10.3,4.6L10.3,4.6z M13.6,6.2
		C12.8,6.4,12.7,5.2,13,5C12.1,5.6,13.1,6.9,13.6,6.2L13.6,6.2z M14.1,6.7L14.1,6.7c0.4,0.5,0.4,0.2,0.6,0.3l0,0
		c-0.1-0.2,0.1-0.4-0.4-0.8l0,0c0.2,0.3,0.1,0.5,0.2,0.6C14.4,6.8,14.4,7,14.1,6.7L14.1,6.7z"/>
	<path d="M14.2,6.6L14.2,6.6c-0.1-0.2,0.1-0.3-0.2-0.8l0,0.1c0.2,0.3,0,0.4,0.1,0.5c-0.1,0-0.1,0.1-0.3-0.1l0,0
		C14,6.7,14.1,6.4,14.2,6.6L14.2,6.6z M17.2,11.1c-0.1,0.3-0.3,0-0.4,0.7c0.1,0,0.2-0.2,0.3-0.2c0.1,0,0.1,0.3,0.2,0.3
		C17.5,11.2,17.2,11.3,17.2,11.1L17.2,11.1z"/>
	<circle cx="17.2" cy="10.7" r="0.2"/>
	<path d="M15.4,13.7c0.1,0.1,0.3,0,0.4,0.1c0.1,0.1-0.1,0.3,0,0.4c0.5-0.4,0.2-0.5,0.4-0.7C15.9,13.6,15.9,13.3,15.4,13.7L15.4,13.7
		z M16.9,12.3c-0.1,0.2-0.3-0.1-0.6,0.5c0.1,0.1,0.2-0.1,0.4-0.1s0,0.3,0.1,0.3C17.1,12.5,16.8,12.6,16.9,12.3L16.9,12.3z"/>
	<path d="M15.9,13.3c0.1,0.1,0.3-0.1,0.4,0c0.1,0.1,0,0.3,0.1,0.4c0.4-0.5,0.1-0.5,0.3-0.7C16.4,13.1,16.3,12.8,15.9,13.3z
		 M16.8,9.6c0.1,0.6,0.4,0.4,0.4,0.7c-0.1-0.3,0.2-0.1,0.1-0.8c-0.1,0-0.1,0.3-0.2,0.3C17,9.8,16.9,9.5,16.8,9.6z M16.3,8.5
		c0.3,0.6,0.5,0.2,0.6,0.5c-0.1-0.2,0.2-0.2-0.1-0.8c-0.1,0.1,0,0.3-0.1,0.3S16.4,8.5,16.3,8.5L16.3,8.5z"/>
	<path d="M16.6,9c0.2,0.6,0.4,0.3,0.5,0.6c-0.1-0.3,0.2-0.2,0-0.8c-0.1,0,0,0.3-0.2,0.3C16.8,9.2,16.7,9,16.6,9L16.6,9z M17.1,11.7
		c-0.1,0.3-0.3,0-0.5,0.6c0.1,0,0.2-0.2,0.3-0.1c0.1,0,0.1,0.3,0.2,0.3C17.4,11.9,17,12,17.1,11.7z M16.6,8.4
		c-0.2-0.2,0.2-0.2-0.3-0.7c-0.1,0.1,0,0.3-0.1,0.4c-0.1,0.1-0.3-0.1-0.4,0C16.3,8.6,16.4,8.2,16.6,8.4L16.6,8.4z M16,7.8
		c0.2-0.2-0.6-0.5-0.6-0.5S15.9,8,16,7.8z M14.8,14c0.1,0.1,0.3,0,0.3,0.1S15,14.4,15,14.5c0.6-0.3,0.3-0.5,0.5-0.6
		C15.3,14,15.4,13.7,14.8,14L14.8,14z"/>
	<path d="M14.2,14.5c0,0,0.8,0,0.7-0.2C14.8,14,14.2,14.5,14.2,14.5z M10.3,8.8L11.5,9c0,0.2,0.4,0.4,0.6,0.1l0.3,0.1l-0.3,0.2
		l0.5,0.1l0.2-0.4l-1.2-0.5C11.7,8.6,10.3,8.8,10.3,8.8z"/>
</g>
</svg>
