<?xml version="1.0" encoding="utf-8"?>
<!-- Generator: Adobe Illustrator 23.0.1, SVG Export Plug-In . SVG Version: 6.00 Build 0)  -->
<svg version="1.1" id="Ebene_1" xmlns="http://www.w3.org/2000/svg" xmlns:xlink="http://www.w3.org/1999/xlink" x="0px" y="0px"
	 viewBox="0 0 24 16" style="enable-background:new 0 0 24 16;" xml:space="preserve">
<style type="text/css">
	.st0{fill:#FFFFFF;}
	.st1{fill:#EA7200;}
	.st2{fill:#006D75;}
</style>
<path d="M18.2,4.5l-1.5,2.4c0.2-0.1,0.3-0.2,0.5-0.2l1.6-2.6c0,0-2.7,0.6-5.2,0.8c0.1,0.1,0.1,0.2,0.2,0.3C15.5,5,17.3,4.7,18.2,4.5
	L18.2,4.5z"/>
<path d="M18.5,10.8c-0.2-0.9-0.2-1-0.7-1.3l-0.1-0.1C18.5,8,19.1,6.2,19.1,6c0-0.1,0-0.1-0.1-0.1c-1.3,0.7-2.8,1.3-3.2,1.5l-0.1,0.1
	c-0.5-0.5-1-0.9-1.6-1.3c-1.5-3-3.8-5-5.3-5.8c0,0.3,1.5,2.6,1.7,4.5c-2.7-0.2-6-0.9-6-0.9l2.9,4.7C5.1,8.9,3,9,3,9
	c0,0.2,2.7,1.4,6.6,2.3c0.9,0.2,1.5,0.2,1.9,0.2c-0.1-0.1-0.2-0.2-0.2-0.3c0.6,0.3,1.1,0.7,1.6,1l-0.4,0c-0.9,0-1.7-0.1-2.1-0.1
	L10,11.5c-0.1,0-0.3-0.1-0.4-0.1c-0.2,0-0.4-0.1-0.5-0.1l0.6,1c-0.6,0.4-2,1.6-3,3.3l0.1,0.2c0,0,1-0.1,1.8-0.1c0,0,0.4-1.1,1.7-2.3
	l1.4,2.3l1.7-2.7c0.1,0,0.2,0,0.3,0c0.1,0.1,0.2,0.1,0.3,0.2c-0.1,0-0.1,0.1-0.1,0.1c0,0,0.1,0.1,0.1,0.2c0,0,0.1,0,0.2,0
	c0,0,0.1-0.1,0.1-0.2c0.1,0.1,0.2,0.1,0.3,0.1c0,0.1,0,0.2,0,0.2s0.1,0,0.2-0.1c0.8,0.2,1.2,0,1.2,0c0.8,0.2,1.2,0,1.2,0
	c0.3,0.1,0.5,0.2,1.4,0.2c0.4,0,0.6-0.1,0.6-0.1C19.2,13.1,18.8,11.6,18.5,10.8L18.5,10.8z"/>
<path d="M18.7,10.6l0,0.1c0,0,0.2,0.2,0.4,0.2l0.1-0.1c0,0-0.1-0.1-0.1-0.3C19,10.4,18.7,10.6,18.7,10.6L18.7,10.6z M20.4,6.4
	l-0.2,0.3l0,0.3c-0.9,1.7-1.8,3.2-1.8,3.2l0.1,0.3l0.1-0.1l0.1,0c0,0,0.9-0.9,2.1-3.1c0,0,0.3,0,0.4-0.3c0-0.3,0-0.5,0-0.6
	C20.9,6.3,20.4,6.4,20.4,6.4L20.4,6.4z"/>
<path class="st0" d="M14.1,12.1c-0.3,0.1-0.4,0-0.4,0c0.1-0.1,0.1-0.2,0.1-0.2c-0.3,0.1-0.4,0-0.4,0c0,0,0.1-0.1,0.1-0.1
	c-0.4,0-0.5,0.1-0.5,0.1c0.3,0,0.5,0.2,0.6,0.3C13.8,12.2,14,12.2,14.1,12.1L14.1,12.1L14.1,12.1z M15.3,13.1
	c0.2-0.1,0.4-0.2,0.4-0.2c-0.7,0-0.9-0.1-0.9-0.1c0.1-0.1,0.3-0.2,0.4-0.3c-0.1,0-0.1,0-0.2,0c0,0,0,0.1-0.1,0.1
	c-0.2,0-0.4,0.1-0.6,0.1c0.1,0.1,0.1,0.1,0.2,0.2l0.1,0c0,0,0,0.1,0,0.1c0.1,0.1,0.2,0.1,0.3,0.1c0-0.1,0-0.1,0.1-0.2
	c0,0,0.1,0.1,0.1,0.1c0.1,0.1,0.1,0.1,0.1,0.1c0.3,0.1,0.6,0.1,1.1,0l0.1-0.1C15.5,13.2,15.3,13.1,15.3,13.1L15.3,13.1z"/>
<path class="st0" d="M13.5,11.9c0,0,0.1,0,0.3-0.1c0,0,0,0.1-0.1,0.2c0,0,0.1,0,0.4-0.1c0,0,0,0.1-0.1,0.1c0,0,0.1,0,0.1,0
	c0.1,0,0.1,0,0.2,0c0.2,0,0.2,0,0.2,0.2c0,0,0.1,0.1,0.1,0.1c0.1,0,0.3,0,0.4,0c0,0-0.1,0.2-0.4,0.4c0,0,0.6,0.1,1,0
	c0,0-0.1,0.2-0.3,0.3c0,0,0.4,0,0.9,0c0,0-0.1,0.1-0.2,0.2c0,0,0.6,0.1,1,0C15.6,12.7,14.8,11.8,13.5,11.9
	C13.5,11.9,13.5,11.9,13.5,11.9L13.5,11.9z M7.5,14.6L7.1,15c0,0,1-0.2,1.6-0.1l0.2-0.3C8.6,14.5,7.5,14.6,7.5,14.6L7.5,14.6z"/>
<path class="st0" d="M7.6,14.4l-0.1,0.1c0,0,1-0.1,1.4,0.1l0.2-0.4C8.8,14.2,7.6,14.4,7.6,14.4L7.6,14.4z M7.8,14.2l-0.1,0.1
	c0,0,1.2-0.2,1.5-0.1l0,0C8.9,14.1,7.8,14.2,7.8,14.2L7.8,14.2z M8.2,13.7l-0.4,0.4c0,0,1-0.1,1.4,0l0.4-0.5
	C9.3,13.6,8.2,13.7,8.2,13.7z M8.7,13.2l-0.5,0.5c0,0,0.9-0.1,1.4,0l0.2-0.2C9.7,13.2,8.7,13.2,8.7,13.2z"/>
<path class="st0" d="M8.8,13.1L8.8,13.1c0,0,0.8,0,1.1,0.2l0.1-0.1C9.8,13.1,8.8,13.1,8.8,13.1L8.8,13.1z"/>
<path class="st0" d="M9.3,12.7L8.9,13c0,0,0.9,0,1.2,0.2l0.3-0.3C10.1,12.7,9.3,12.7,9.3,12.7L9.3,12.7z M8.8,15L8.8,15l0.1-0.1
	l0-0.1L8.8,15z M8.9,14.7L8.9,14.7l0.2-0.3l0-0.1L8.9,14.7z M9.2,14.3l0,0.1L9.2,14.3L9.2,14.3L9.2,14.3z M9.3,14.2l0,0.1l0.4-0.4
	l0-0.1L9.3,14.2z M9.7,13.7l0,0.1l0.2-0.2l0-0.1L9.7,13.7z M10,13.4l0,0.1L10,13.4L10,13.4L10,13.4z M10.1,13.3l0,0.1l0.3-0.3l0-0.2
	L10.1,13.3z"/>
<path d="M13.1,15.2c0-0.2-0.1-0.3-0.3-0.3s-0.3,0.1-0.3,0.3s0.1,0.3,0.3,0.3l0,0C12.9,15.6,13.1,15.4,13.1,15.2z M12.5,15.2
	c0-0.1,0.1-0.3,0.3-0.3s0.3,0.1,0.3,0.3s-0.1,0.3-0.3,0.3S12.5,15.4,12.5,15.2L12.5,15.2z"/>
<path d="M12.9,15.4l-0.1-0.2c0.1,0,0.1-0.1,0.1-0.1c0,0-0.1-0.1-0.1-0.1h-0.2v0.4h0.1v-0.2h0.1L12.9,15.4L12.9,15.4L12.9,15.4z
	 M12.8,15.2L12.8,15.2L12.8,15.2L12.8,15.2C12.8,15.1,12.8,15.1,12.8,15.2C12.8,15.2,12.8,15.2,12.8,15.2L12.8,15.2z"/>
<g>
	<path class="st1" d="M14.1,13.3c0.1-0.2,0.2-0.3,0.2-0.3c-0.1,0-0.2,0.1-0.3,0.2C14,13.1,14.1,13.2,14.1,13.3L14.1,13.3z
		 M14.7,13.4c0,0,0.1,0,0.1-0.1c0,0-0.1-0.1-0.1-0.2C14.7,13.2,14.7,13.4,14.7,13.4L14.7,13.4z M14.3,10.6c0.1,0.5,0.2,0.7,0.2,0.7
		s0.2,0.1,0.5,0.3C14.7,11,14.3,10.6,14.3,10.6z M10.5,12.8l0.1-0.1c0,0,0.6,0.1,4.1-0.3c-0.1-0.1-0.1,0-0.1-0.2c0,0,0-0.1-0.1-0.1
		c-0.1,0-0.1,0-0.2,0c-0.1,0-0.3,0.1-2,0.1c-1.4,0-2.3-0.1-2.4-0.1c-0.1,0-0.2,0.1-0.6,0.4C9.4,12.6,10.1,12.6,10.5,12.8L10.5,12.8z
		 M8.7,15c-0.5-0.1-1.6,0.1-1.6,0.1l-0.3,0.4l1.7-0.1L8.7,15L8.7,15z M20.4,7c-0.6,1-1.2,2.4-1.9,3.2l0.2-0.1l0,0l0,0.1l0.1,0
		l-0.1,0.2l0.1-0.1c0,0,0.6-0.6,2-3.3C20.5,6.9,20.4,7,20.4,7L20.4,7z M20.4,6.6l-0.1,0.2c0,0,0.3-0.1,0.7,0l0.1-0.2
		C20.7,6.4,20.4,6.6,20.4,6.6L20.4,6.6z"/>
	<path class="st1" d="M18.6,10.2c0,0-0.1,0-0.1,0.1l0.1,0.1l0,0l0-0.1L18.6,10.2L18.6,10.2L18.6,10.2z M19.1,10.6
		c-0.1-0.1-0.4,0-0.4,0s0.2,0.1,0.4,0.1C19.2,10.7,19.1,10.7,19.1,10.6z M12.9,12.9c-0.6,0.1-1.3,0.1-1.9,0.1l-0.2,0c0,0,0,0,0,0
		l-0.1,0.1l1.1,1.8l1.3-2C12.9,12.9,12.9,12.9,12.9,12.9 M16.6,7c0,0,0.1,0,0.1-0.1l1.5-2.4c-0.9,0.2-2.7,0.5-4.4,0.7
		c0,0,0,0.1,0.1,0.1l0.1,0.2c1.2-0.1,2.5-0.3,3.7-0.6l-1.4,2.2L16.6,7 M10,11.5c-0.1,0-0.3-0.1-0.4-0.1l0.4,0.7l0.1,0l0.3,0L10,11.5
		L10,11.5z"/>
</g>
<g>
	<path class="st2" d="M12.6,12.9C11.8,13,11.2,13,10.9,13c-0.2,0-0.2,0-0.2,0c0,0,0,0,0,0l1.1,1.7l1.1-1.8
		C12.8,12.9,12.7,12.9,12.6,12.9z M10.1,12.1l0.3,0L10,11.5c-0.1,0-0.2,0-0.3-0.1L10.1,12.1L10.1,12.1z M17.6,4.9l-1.4,2.2
		C16.3,7.1,16.4,7,16.6,7L18,4.6c-0.9,0.2-2.6,0.5-4.2,0.7l0.1,0.2C15.2,5.3,16.4,5.1,17.6,4.9z M10.7,5.4c0-0.1,0-0.2,0-0.3
		C9.7,5.2,9.2,5.4,9,5.5C9.3,5.4,9.9,5.4,10.7,5.4z M17.6,9.7c0,0-1.1-1.6-3.3-3.1c0.2,0.4,0.4,0.8,0.5,1.2c0,0.1,0,0.1,0,0.1
		c-0.5,0-2.1-0.9-3.8-0.7C11.9,7.9,12.8,9,12,8.6c0,0,0.9,0.5,1.9,1.6c0.7,0,0.9,0.1,0.9,0.2c0.1,0.2,0.2,0.6,0.7,1.1
		c0.2,0,0.3,0,0.3-0.2c0,0,0.1,0.3-0.1,0.4c1,0.8,3,1.6,3.3,1.6c0.1,0-0.1-1.1-0.7-2.4C18.2,10.1,18.1,9.8,17.6,9.7L17.6,9.7z
		 M8.4,8.7c0,0,0.3,0.2,0.8,0.5C9,9,8.7,8.8,8.4,8.7l-0.7,0l0.1,0.1L8.4,8.7L8.4,8.7z M12.8,10c-0.1,0.4-0.1,0.8,0,1.1
		c0-0.2,0.1-0.9,0.1-0.9L12.8,10L12.8,10z M12.4,9.6c-0.1,0.7,0,1.3,0,1.3c0-0.3,0.1-1.1,0.1-1.1L12.4,9.6L12.4,9.6z M12,9.3
		c-0.1,0.8,0.1,1.4,0.1,1.4c0-0.4,0.1-1.2,0.1-1.2S12,9.3,12,9.3z M11.2,8c0,0-1.4-1.2-3.2-1.5c-0.1,0-0.2,0.3-0.2,0.3S8,6.7,8,6.7
		C9.5,6.9,11.2,8,11.2,8z"/>
</g>
<path class="st0" d="M11.7,14.2l0.9-1.4C11.8,13,11.2,13,10.9,13L11.7,14.2L11.7,14.2z"/>
</svg>
