<?xml version="1.0" encoding="utf-8"?>
<!-- Generator: Adobe Illustrator 23.0.1, SVG Export Plug-In . SVG Version: 6.00 Build 0)  -->
<svg version="1.1" id="Ebene_1" xmlns="http://www.w3.org/2000/svg" xmlns:xlink="http://www.w3.org/1999/xlink" x="0px" y="0px"
	 viewBox="0 0 24 16" style="enable-background:new 0 0 24 16;" xml:space="preserve">
<style type="text/css">
	.st0{fill:#111111;}
	.st1{fill:#006847;}
	.st2{fill:#FFFFFF;}
	.st3{fill:#8F8F8C;}
</style>
<g>
	<path class="st0" d="M16.4,14.7c0-0.2-0.2-0.4-0.4-0.4s-0.4,0.2-0.4,0.4c0,0.2,0.2,0.3,0.4,0.3C16.3,15,16.4,14.9,16.4,14.7z
		 M15.8,14.7c0-0.2,0.1-0.3,0.3-0.3c0.2,0,0.3,0.1,0.3,0.3c0,0,0,0,0,0c0,0.2-0.1,0.3-0.3,0.3C15.9,15,15.8,14.8,15.8,14.7z"/>
	<path class="st0" d="M16.2,14.9l-0.1-0.2c0.1,0,0.1-0.1,0.1-0.2c0,0-0.1-0.1-0.1-0.1h-0.2v0.4H16v-0.2h0.1L16.2,14.9
		C16.1,14.9,16.2,14.9,16.2,14.9z M16.1,14.7L16.1,14.7L16.1,14.7L16.1,14.7C16.1,14.6,16.2,14.6,16.1,14.7
		C16.2,14.6,16.1,14.7,16.1,14.7L16.1,14.7z"/>
</g>
<path class="st1" d="M5.9,12.4H4.3l2.2-3.6L3,6h5.2l0.6-0.9h1.6L13.4,0L14,5.1c0.9,0.1,1.6,0.4,2,0.9h6.5l-6.1,3.3
	c-0.1,0.2-0.1,0.3-0.2,0.4c-0.4,0.7-0.9,1.2-1.5,1.7l0.4,4.3l-4-3.2c-0.2,0-0.4,0-0.6,0L3.8,16L5.9,12.4z"/>
<path class="st0" d="M6.5,12.1H4.9l2-3.4L4,6.3h4.4l0.6-0.9h1.6L13.2,1l0.4,4.4c1,0,1.7,0.4,2.2,0.9h5.3L16.1,9
	c-0.1,0.2-0.2,0.3-0.3,0.5c-0.4,0.7-0.9,1.3-1.6,1.7l0.4,3.7l-3.5-2.8c-0.3,0-0.5,0-0.8,0l-5.6,3C4.7,15.1,6.5,12.1,6.5,12.1z"/>
<path class="st2" d="M18.5,7h-3c-0.3-0.6-1-0.9-2.1-0.9H13l-0.3-3l-1.8,3H9.3L8.8,7H5.9l2,1.6l-1.7,2.9h2.8l-1.4,0.4l-0.9,1.6
	l3.6-1.9h0.1c0.4,0,0.7,0,1,0l2.5,2l-0.2-2.1c-0.7,0.1-1.3,0-1.6,0c1.7-0.3,2.6-1,3.3-2.1c0.4-0.7,0.5-1.4,0.4-1.9
	c0.2,0.3,0.4,0.6,0.4,1L18.5,7L18.5,7z"/>
<path class="st3" d="M13.6,11.3l0.2,2.1l-1.1-2C13,11.4,13.3,11.3,13.6,11.3 M12.7,3.1l-0.7,3h1L12.7,3.1z M8.3,7.8L5.9,7l2,1.6
	L8.3,7.8z M9.8,7.5h2.4c0.7,0,1.1,0.1,1.2,0.5l1-0.5c-0.3-0.6-1.1-0.7-1.6-0.7H10l0,0l-2.3,3.9l1.6-0.8L10.4,8L9.8,7.5L9.8,7.5z
	 M15.5,7l-1,0.5c0.1,0.2,0.2,0.6-0.1,1.2c-0.3,0.7-1.2,2-3.5,2H7.7l-1.6,0.8h2.8l-0.4,0.1l-2,1.8l3.6-1.9h0.1c0.4,0,0.7,0,1,0
	l0.6-0.1c1.7-0.3,2.6-1,3.3-2.1c0.4-0.7,0.5-1.4,0.4-1.9C15.6,7.3,15.6,7.1,15.5,7 M15.9,7.6C16,7.8,16,8.1,16,8.3L18.5,7L15.9,7.6
	L15.9,7.6z"/>
<path class="st0" d="M12.2,7.5H9.8L10.4,8L9.2,9.9h1.6c0.5,0,1.2,0,1.7-0.3c0.6-0.4,1-1.1,0.9-1.5C13.4,7.6,13,7.5,12.2,7.5z"/>
</svg>
