<?xml version="1.0" encoding="utf-8"?>
<!-- Generator: Adobe Illustrator 23.0.1, SVG Export Plug-In . SVG Version: 6.00 Build 0)  -->
<svg version="1.1" id="Ebene_1" xmlns="http://www.w3.org/2000/svg" xmlns:xlink="http://www.w3.org/1999/xlink" x="0px" y="0px"
	 viewBox="0 0 24 16" style="enable-background:new 0 0 24 16;" xml:space="preserve">
<style type="text/css">
	.st0{fill:#024930;}
	.st1{fill:#E2D6B5;}
	.st2{fill:#AF1E24;}
	.st3{fill:#EDAA00;}
	.st4{fill:#FFFFFF;}
</style>
<g>
	<path class="st0" d="M14.5,14c-0.2,0-0.3,0.2-0.3,0.4c0,0.2,0.2,0.3,0.4,0.3s0.3-0.2,0.3-0.4C14.9,14.2,14.7,14,14.5,14L14.5,14z
		 M14.6,14.7c-0.1,0-0.3-0.1-0.3-0.2s0.1-0.3,0.2-0.3c0.1,0,0.3,0.1,0.3,0.2C14.9,14.5,14.7,14.6,14.6,14.7
		C14.6,14.7,14.6,14.7,14.6,14.7z"/>
	<path class="st0" d="M14.7,14.3c0-0.1-0.1-0.1-0.1-0.1l-0.2,0l0,0.4l0.1,0l0-0.2l0.1,0l0.1,0.2l0.1,0l-0.1-0.2
		C14.7,14.4,14.7,14.3,14.7,14.3L14.7,14.3z M14.6,14.3L14.6,14.3l-0.1-0.1L14.6,14.3C14.6,14.3,14.6,14.3,14.6,14.3
		C14.6,14.3,14.6,14.3,14.6,14.3L14.6,14.3z"/>
</g>
<path class="st1" d="M21.1,3.8c0,0,0.7-0.6,0.7-0.6s-2.9-0.8-6.4-0.6c0,0-0.5-1.7-2.8-1.7c-1.7,0-2.7,1.1-3.1,1.9
	C6.3,3.6,3.8,5.3,3.8,5.3l0.6,0.5C2.8,6.6,1.2,7.8,1.2,7.8s0.1,0.8,1.1,2c0,0,0.6,0.5,2.3,1.1c0,0,0.3-0.1,0.5-0.2
	C5.3,10.9,5.6,11,5.8,11c0,0.2-0.1,0.5,0.3,0.9l-0.3,0.1c0,0,0.3,0.9,2.3,1.3c0.7-0.2,4.1-0.8,5.2,1.3l5.8-5.7l-1.2,0l4.6-4.8
	C22.5,4.2,21.8,4,21.1,3.8L21.1,3.8z"/>
<path class="st0" d="M21.4,4.5C20.7,4.2,19.8,4,19.8,4l0.6-0.5C17.2,2.9,15,3.1,15,3.1s-0.4-1.7-2.5-1.7c-2,0-2.7,1.8-2.7,1.8
	C7,3.7,4.4,5.3,4.4,5.3L5,5.8C3.3,6.6,1.6,8,1.6,8c0.2,0.8,0.9,1.7,0.9,1.7c0.7,0.5,2.1,1,2.1,1c0.2,0,0.4-0.2,0.4-0.2
	s0.7,0.3,1.5,0.3c0.3,0,0.6,0,0.6-0.1c0-0.2-0.6-0.2-0.6-0.5c0-0.2,0.3-0.4,1.7-0.4c0.8,0,1.7,0.1,1.7,0.1C9.3,9.9,8,10.1,8,10.4
	c0,0.2,0.9,0.3,0.9,0.6c0,0.5-0.7,0.6-1.5,0.6c-0.7,0-1-0.2-1.2-0.2c-0.1,0-0.1,0-0.1,0.1c0,0.2,0.3,0.5,0.6,0.6l-0.3,0.2
	c0.4,0.5,1.8,0.9,1.8,0.9c4-0.9,5.3,1.2,5.3,1.2l4.8-4.9l-1.1,0L21.4,4.5L21.4,4.5z"/>
<g>
	<path class="st2" d="M14.3,3.6c0.1,0.2,0.1,0.5,0,0.7c0.9,0.1,1.7,0.3,2.5,0.5C16,4.9,15,5,14.1,5.1c-0.6,0.9-1.8,1.2-2.7,0.7
		c-0.1-0.1-0.2-0.1-0.3-0.2C9.2,5.9,7.9,6.3,7.9,6.3c0.9,0.1,1.5,0.3,1.5,0.3C6.9,7,4.7,7.9,3.9,8.3c0.2,0.3,0.4,0.6,0.4,0.6L4,9.3
		c0.6,0.1,1.5,0.1,1.5,0.1l1.2-0.7l0.9,0.3l0.3-0.4l-0.3,0l0.6-1l0.5,1H8.5l0.2,0.3l0.7-0.1l0.3-0.4l-0.2,0l0.4-0.6H9.4l0.6-1l0.5,1
		l-0.2,0l0.3,0.6l-0.3,0l0.5,1l0.5-0.8l-0.4,0l0.6-0.8l-0.4,0l0.8-1.4l0.7,1.4h-0.3l0.5,0.8l-0.3,0l0.5,1l0.8-1.3l-0.4,0l0.6-1
		l-0.4,0l0.9-1.7l0.9,1.8l-0.3,0l0.6,1l-0.4,0l0.4,1l0.7-1.1l-0.4,0l0.9-1.2l-0.5,0l1.4-1.9l0.7,1.3l1.5-1.9
		C18.3,4,16.4,3.7,14.3,3.6L14.3,3.6z M10.5,4c0-0.1,0-0.2,0-0.2C8.7,4.1,6.9,4.6,5.6,5.3c0,0,2.1-0.7,4.9-1
		C10.5,4.2,10.5,4.1,10.5,4z"/>
</g>
<g>
	<path class="st3" d="M14.3,3.6c-1.3-0.1-2.6,0-3.9,0.2c0,0.1,0,0.2,0,0.2c0,0.1,0,0.2,0,0.3c1.2-0.1,2.6-0.2,3.9,0
		C14.4,4.1,14.4,3.8,14.3,3.6L14.3,3.6z M12.4,6c0.7,0,1.3-0.4,1.7-1c-1.1,0.1-2.1,0.3-3,0.5C11.5,5.8,11.9,6,12.4,6L12.4,6z"/>
	<path class="st3" d="M12.4,2.1c-1,0-1.8,0.7-2,1.7c0,0,1-0.4,3.7-0.7C13.8,2.5,13.2,2.1,12.4,2.1z"/>
</g>
<path class="st4" d="M12.7,4.8c-2.6,0.1-4.9,0.7-4.9,0.7L7.7,5.1L7.5,5.5c0,0-1.2,0.4-1.9,0.8c1-0.3,1.8-0.5,1.8-0.5
	C7.3,6,7.2,6.1,7.1,6.3C7.2,6.2,7.4,6,7.5,5.9C7.6,6,7.7,6,7.8,6.1l0-0.4C7.8,5.7,10.4,5,12.7,4.8L12.7,4.8z"/>
</svg>
