<svg xmlns="http://www.w3.org/2000/svg" viewBox="0 0 24 16"><path d="M15.06 2.087H3.566v.543c0 .84.328 1.628.89 2.2h-.89v.543c0 .84.328 1.628.89 2.2h-.89v.542c0 .84.328 1.63.89 2.2h-.89v.543c0 1.684 1.29 3.055 2.874 3.055h2.665l1.81-3.06a5.393 5.393 0 0 0 4.145 1.982 5.38 5.38 0 0 0 5.374-5.375 5.38 5.38 0 0 0-5.373-5.373z"/><path d="M11.044 11.587a.376.376 0 0 0 0 .752.376.376 0 0 0 0-.753zm0 .67a.296.296 0 1 1 .003-.59.296.296 0 0 1-.003.59z"/><path d="M11.198 11.875a.127.127 0 0 0-.127-.127h-.18v.43h.08v-.176h.06l.08.176h.088l-.085-.182a.127.127 0 0 0 .085-.12zm-.127.047h-.1v-.093h.1c.027 0 .048.02.048.045s-.02.047-.047.047z"/><path fill="#FFF" d="M15.063 2.267H3.74v.357c0 .994.48 1.872 1.2 2.388h-1.2v.358c0 .994.48 1.87 1.2 2.388h-1.2v.357c0 .996.48 1.873 1.2 2.387h-1.2v.36c0 1.583 1.21 2.872 2.694 2.872h2.562l1.89-3.196a5.194 5.194 0 0 0 4.177 2.117 5.2 5.2 0 0 0 5.194-5.195 5.198 5.198 0 0 0-5.194-5.193z"/><path d="M15.063 2.624H4.203c0 1.39 1.046 2.515 2.334 2.515h4.09c.065 0 .117.05.117.115a.116.116 0 0 1-.116.115H4.203c0 1.388 1.046 2.515 2.334 2.515h2.467a.115.115 0 0 1 0 .23h-4.8c0 1.39 1.045 2.514 2.333 2.514h.843c.064 0 .116.052.116.116a.117.117 0 0 1-.116.115H4.203c0 1.39 1.046 2.515 2.334 2.515h2.256l4.216-7.127a2.386 2.386 0 1 1-.332 1.262l-1.596 2.698a4.837 4.837 0 1 0 3.98-7.584z"/><circle fill="#F74902" cx="15.063" cy="7.46" r="1.373"/></svg>