<svg xmlns="http://www.w3.org/2000/svg" viewBox="0 0 24 16"><g fill="#002868"><path d="M16.714 11.31l2.165-1.143-.317-.393a.79.79 0 0 1-.134-.62l.964-3.713-3.06-.46-1.843 1.11.922-3.953h-.626c-.194 0-.478-.103-.628-.228L12 .104 9.84 1.91c-.15.124-.432.227-.627.227h-.626l.92 3.954-1.84-1.11-3.06.46.965 3.713c.05.19-.01.47-.134.62l-.316.393 2.164 1.144c.307.162.44.553.293.868l-.536 1.156h4.103v2.56h1.706v-2.56h4.104l-.534-1.156a.67.67 0 0 1 .29-.867z"/><path d="M13.536 13.648a.37.37 0 1 0 0 .74.37.37 0 0 0 0-.74zm0 .662a.29.29 0 1 1 0-.58.29.29 0 0 1 0 .58z"/><path d="M13.688 13.934a.127.127 0 0 0-.125-.126h-.18v.423h.08v-.17h.057l.08.17h.088l-.083-.18a.126.126 0 0 0 .083-.116zm-.125.045h-.1v-.094h.1c.025 0 .046.02.046.047s-.02.046-.047.046z"/></g><g fill="#FFF"><path d="M9.968 9.654l.084.67h.365l-.177-1.41h-.365l-.21.6-.21-.6H9.09l-.177 1.41h.365l.084-.67.303.67zM11.022 8.915l-.45 1.408h.364l.07-.222h.535l.072.223h.365l-.45-1.408h-.505zM14.616 9.782h.3v-.327h-.3v-.213h.442l-.074-.327h-.733v1.408h.764l.073-.327h-.47zM13.26 8.915v1.408h.762l.075-.327h-.472v-1.08zM12.133 8.915v1.408h.365v-.44h.124c.268 0 .484-.158.484-.483s-.217-.484-.484-.484h-.49zM13.113 7.847l.475.706h.384V7.145h-.365v.705l-.474-.705h-.385v1.408h.365zM14.376 8.553h.364V7.51h.286v-.365h-.855l-.08.366h.286zM7.44 7.51h.287v1.043h.364V7.51h.287v-.365H7.52zM10.4 7.962h.024l.254.59h.365l-.268-.62s.233-.068.233-.303c0-.327-.217-.485-.484-.485h-.488v1.408h.365v-.59zM15.825 7.11a.737.737 0 0 0-.733.738c0 .407.33.738.733.738.405 0 .734-.33.734-.738s-.33-.74-.735-.74zM11.89 8.587c.404 0 .732-.33.732-.738a.736.736 0 0 0-.733-.74.737.737 0 0 0-.735.74c0 .406.33.737.734.737zM9.91 7.85a.736.736 0 0 0-.733-.74.736.736 0 0 0-.733.74c0 .406.33.737.733.737.405 0 .733-.33.733-.738zM11.705 10.686l-.45 1.41h.365l.07-.223h.536l.07.222h.365l-.45-1.41h-.505zM10.68 11.554h.3v-.327h-.3v-.214h.44l-.073-.327h-.733v1.41h.762l.074-.33h-.47zM13.57 11.013l-.072-.327h-.732v1.41h.364v-.542h.3v-.327h-.3v-.214zM9.74 10.686h-.366v1.41h.762l.073-.33h-.47zM14.04 11.112c0-.083.147-.115.22-.115.126 0 .22.02.284.036v-.36a1.572 1.572 0 0 0-.283-.02c-.268 0-.583.1-.583.46 0 .44.584.373.584.556 0 .082-.145.114-.22.114-.19 0-.31-.046-.363-.06v.363c.052.016.172.042.364.042.27 0 .586-.1.586-.462 0-.44-.585-.373-.585-.556z"/></g><g fill="#002868"><ellipse cx="9.176" cy="7.849" rx=".369" ry=".374"/><path d="M10.644 7.63a.157.157 0 0 0-.157-.158h-.085v.314h.085c.086 0 .157-.07.157-.157zM12.498 9.242v.314h.085a.157.157 0 0 0 0-.314h-.085zM11.795 11.545h.326l-.162-.51z"/><ellipse cx="15.825" cy="7.848" rx=".368" ry=".374"/><circle cx="11.889" cy="7.848" r=".374"/><path d="M11.112 9.774h.326l-.163-.51z"/></g></svg>