<svg id="Layer_1" xmlns="http://www.w3.org/2000/svg" viewBox="0 0 24 16"><style>.silver{fill:#a4a9ad}.fg{fill:#111}.high{fill:#ce1126}.st4{fill:#FFF}</style><g id="reg" class="fg"><path d="M19.52 11.093a.42.42 0 0 0 0 .837.42.42 0 0 0 0-.837zm0 .747a.327.327 0 0 1-.328-.328.328.328 0 1 1 .328.328z"/><path d="M19.69 11.414a.142.142 0 0 0-.14-.142h-.203v.478h.09v-.193h.064l.092.193h.1l-.095-.202a.142.142 0 0 0 .094-.134zm-.14.052h-.112v-.104h.112c.028 0 .052.023.052.052 0 .03-.024.052-.052.052z"/></g><path class="silver" d="M22.005 5.487c-.275-1.92-1.953-2.517-2.962-2.704l.863-.567s-4.51-.98-10.34.863C4.238 4.76 1.55 7.4 1.996 10.512c.275 1.92 1.953 2.518 2.962 2.704l-.863.567s4.51.98 10.34-.862c5.328-1.684 8.015-4.322 7.57-7.435z"/><path class="st4" d="M21.737 5.57c-.364-2.537-3.5-2.58-3.5-2.58l.906-.595s-4.28-.695-9.537.965c-4.642 1.466-7.8 3.88-7.343 7.067.364 2.54 3.5 2.58 3.5 2.58l-.906.597s4.28.695 9.537-.965c4.642-1.467 7.8-3.88 7.343-7.07z"/><path class="high" d="M21.25 5.725c-.464-3.24-5.484-2.553-8.08-1.734-1.39.44-2.297.885-2.297.885 4.706-1.684 8.004-.482 8.004-.482-1.562-.11-3.03.396-3.03.396s1.578.317 1.787 1.78c.277 1.932-1.368 4.144-6.438 5.745-2.764.873-5.09 1.01-5.09 1.01s3.28.483 8.232-1.08c4.582-1.447 7.305-3.782 6.912-6.52z"/><path class="high" d="M12.006 9.88c1.406-.443 2.602-1.104 3.244-1.737.355-.35.542-.69.5-.98a.537.537 0 0 0-.14-.29c-.49-.53-2.138-.525-4.025.07-2.184.692-3.86 1.91-3.744 2.718.117.813 1.982.91 4.166.22z"/><path class="fg" d="M11.817 8.998c.912-.287 1.615-.775 1.57-1.088s-.82-.332-1.732-.045c-.912.29-1.615.775-1.57 1.088.044.313.82.333 1.732.045z"/><path class="fg" d="M5.124 11.607c1.562.11 3.03-.396 3.03-.396s-1.577-.317-1.787-1.78c-.277-1.932 1.368-4.144 6.438-5.746 2.765-.873 5.09-1.01 5.09-1.01s-3.28-.484-8.232 1.08C5.08 5.202 2.358 7.537 2.75 10.274c.464 3.24 5.485 2.554 8.08 1.734 1.388-.438 2.297-.884 2.297-.884-4.705 1.685-8.003.483-8.003.483z"/><path class="fg" d="M11.29 5.73c-1.74.55-2.65 1.245-2.966 1.975L7.692 9.17s.768-1.377 3.875-2.357c2.342-.74 3.773-.553 4.042.06.075.085.125.18.14.292.042.29-.145.63-.5.98-.587.823-1.707 1.71-2.69 2.31.785-.247 4.31-1.92 4.054-3.704-.238-1.656-2.298-1.976-5.324-1.02z"/></svg>