<svg xmlns="http://www.w3.org/2000/svg" viewBox="0 0 24 16"><g fill="#002654"><path d="M13.14 15.63a.238.238 0 0 0 .237-.238.238.238 0 0 0-.477 0c0 .132.107.24.24.24m0-.428a.188.188 0 1 1 0 .376.188.188 0 0 1 0-.376"/><path d="M13.092 15.418h.036l.053.11h.057l-.054-.115a.08.08 0 0 0-.027-.157h-.116v.272h.052v-.11zm0-.11h.063c.017 0 .03.013.03.03s-.014.028-.03.028h-.063v-.06z"/></g><path fill="#002654" d="M19.708 7.76a.2.2 0 0 0-.117-.122l-.3-.095.122-.21a.208.208 0 0 0 .008-.17l-.238-.505a.198.198 0 0 0-.11-.093l-.457-.12.08-.185a.136.136 0 0 0-.02-.133l-.43-.49a.217.217 0 0 0-.132-.064l-.468-.025.05-.156a.122.122 0 0 0-.04-.125l-.55-.432a.35.35 0 0 0-.226-.06l-.596.09a.116.116 0 0 0-.083.07l-.188.6c-.293-.403-.62-.35-.684-.334a.732.732 0 0 0-.212-.407l.304-.042.025-.112-.436.06a1.37 1.37 0 0 0-.16-.103l.176-.195a.88.88 0 0 1-.092-.14l.63-.155.026-.115-.703.175c-.052-.118-.077-.218-.077-.218l.375.07c-.086-.084-.12-.246-.13-.422l.683-.266.028-.126-.71.276c.002-.32.07-.646.07-.646l-.108-.085.77-1.66-1.182.033L13.734 1s-.478-.296-1.44-.45L12 .273l-.293.277c-.963.154-1.44.45-1.44.45l-.873.123L8.21 1.09l.772 1.66-.108.084s.07.327.07.646l-.71-.277.027.125.683.266c-.008.176-.043.337-.13.423l.376-.07s-.027.1-.08.217l-.7-.176.025.115.63.156a.842.842 0 0 1-.09.14l.174.194c-.06.033-.112.07-.158.105l-.438-.062.026.113.304.043c-.313.32-.2.66-.2.66a.954.954 0 0 0-.624.31l-.262-.826a.115.115 0 0 0-.082-.07l-.596-.092a.343.343 0 0 0-.226.06l-.55.432a.124.124 0 0 0-.038.125l.05.156-.47.025a.21.21 0 0 0-.13.065l-.43.49a.138.138 0 0 0-.02.133l.08.186-.456.12a.196.196 0 0 0-.11.092l-.24.505a.208.208 0 0 0 .008.17l.122.21-.3.095a.197.197 0 0 0-.117.12l-.13.464a.13.13 0 0 0 .01.087l.6 1.027s.076.1.427.123c.39.45.985.533.985.533s-.302-.325-.457-.69c.12-.01.52-.042.705-.042.222 0 .382.145 1.047-.018l.218.03c.325.453.96.405 1.772.84v-.126l.13.025s.414.525.7 1.06c0 0-.106 1.368.47 1.77 0 0 .06.062.007.24-.06.19-.068.364-.15.47s-.098.377.044.493c0 0 0 .065.06.108 0 0 .026-.053.032-.086 0 0 .025 0 .047-.008 0 0 .02.037.097.063 0 0 .004.06.057.1 0 0 .026-.056.033-.086 0 0 .08.006.133-.058 0 0 .014.008.04.013 0 0 .01.05.06.102 0 0 .03-.055.036-.096 0 0 .075-.002.115-.056 0 0 .012.002.025 0 0 0 .014.05.057.096 0 0 .033-.068.044-.118 0 0 .114-.034.114-.12s-.057-.347-.057-.347l.068.097s.06-.15-.095-.332c-.04-.29-.142-.477-.142-.477s.093-.093.112-.134c0 0 .113.518.385 1l-.122.622s-.092.13-.18.324c0 0-.187.102-.18.312l.085-.08s-.12.28.01.43c0 0-.018.103.06.17 0 0 .02-.055.032-.094 0 0 .025.007.04-.01 0 0 .056.066.108.097 0 0 0 .09.06.14 0 0 .025-.06.035-.104 0 0 .042.01.074-.023 0 0 .042.026.083.035 0 0 .002.052.058.107 0 0 .026-.063.034-.102 0 0 .075-.004.102-.045l.048.003s.01.062.057.104c0 0 .027-.06.036-.114 0 0 .17-.024.17-.213 0-.392.05-.682.05-.754 0 0 .272.22.604.22.63 0 1.356-.51 1.356-1.67 0-.164.023-.367.023-.367l-.053.042.037-.35-.062.048-.032-.27-.063.035-.045-.19-.056.027-.06-.18-.048.038-.072-.2-.078.116-.1-.152-.035.234-.074-.038-.01.245-.082-.032.005.227-.065-.016.102.307-.066-.003.1.206s.105.314.105.73c0 .467-.31.758-.688.758-.323 0-.615-.34-.615-.34s.013-.354.107-.507c.096-.15.448-.68.51-.952s.352-.433.304-1.577l.6-.838.235-.013v.09c.812-.434 1.645-.417 1.97-.87l.22-.03c.664.162.824.02 1.046.02.186 0 .585.03.704.04-.155.366-.457.69-.457.69s.596-.082.985-.532c.35-.024.427-.123.427-.123l.598-1.028a.125.125 0 0 0 .012-.087l-.132-.46z"/><g fill="#FFF"><path d="M11.76 12.26s.068.357.185.627c0 0-.007-.434-.028-.897l-.158.27zM10.84 3.944l.19.21s-.048.037-.104.1l.123.048c.02-.02.044-.027.063-.02.033.015.042.07.02.123-.02.054-.066.086-.1.072-.024-.01-.035-.042-.03-.08l-.146-.055a.617.617 0 0 0-.098.23l.292.073c.012-.017.027-.027.044-.027.036 0 .065.047.065.104 0 .06-.028.105-.064.105-.03 0-.056-.033-.063-.08l-.276-.067a.65.65 0 0 0 .067.273l.25.035c.004-.017.014-.03.027-.034.034-.015.08.017.103.07.022.053.014.107-.02.12-.026.014-.062-.007-.086-.044l-.18-.025c.096.09.23.14.402.14.362 0 .6-.165.6-.165v-.075a3.088 3.088 0 0 1-.543-.602l-.482-.473-.055.044zM11.23 5.38c.07.49.257.642.257.642s-.042-.165.043-.64c-.065-.066-.282-.057-.3 0M11.81 5.395c0-.04-.15-.09-.155-.05-.016.175.06.302.06.302s.094-.164.094-.252M11.84 5.387c0 .088.064.215.064.215s.068-.07.068-.22c0-.038-.132-.04-.132.005M13.084 5.076l-.18.025c-.025.038-.06.058-.088.046-.033-.014-.04-.068-.018-.122.022-.053.067-.084.1-.07.015.006.023.02.028.035l.25-.036a.635.635 0 0 0 .067-.273l-.277.07c-.007.045-.032.078-.062.078-.036 0-.065-.047-.065-.105 0-.058.028-.104.064-.104.017 0 .032.01.043.026l.293-.072a.574.574 0 0 0-.098-.23l-.144.055c.004.036-.007.068-.03.078-.034.014-.08-.02-.102-.072-.02-.053-.013-.108.02-.122.02-.008.044 0 .064.02l.123-.05a.853.853 0 0 0-.104-.1l.19-.21-.057-.044-.48.473s-.22.332-.544.602l-.004.076s.24.165.603.165c.172 0 .307-.05.404-.14M12.472 5.38c.085.477.042.642.042.642s.186-.15.258-.64c-.02-.057-.235-.066-.3 0M12.347 5.346c-.005-.04-.155.01-.155.05 0 .088.094.25.094.25s.077-.126.06-.3M12.162 5.387c0-.045-.134-.043-.134-.006 0 .15.067.222.067.222s.067-.127.067-.215M10.235 4.442l-.998-.248-.046.098 1.026.255c.005-.036.01-.07.02-.105M10.23 4.87l-.755-.103.114.125.675.094a.738.738 0 0 1-.035-.115M10.402 4.05l-1.335-.522v.114l1.282.5c.016-.032.034-.063.052-.093M9.16 2.617l-.184-.32.23.033-.245-.277.072-.1.522.23.05-.073s-.566-.243-1.116-.696l.596 1.258.076-.055zM15.024 2.297l-.184.32.075.055.596-1.258c-.55.454-1.115.696-1.115.696l.05.073.522-.23.07.1-.245.278.232-.033zM11.032 3.182a.33.33 0 0 0 .25-.08l-.02-.08a.237.237 0 0 1-.226.104c-.13-.01-.225-.11-.216-.22a.19.19 0 0 1 .028-.082l-.072-.016a.224.224 0 0 0-.028.092c-.01.142.116.268.284.282M13.25 2.9a.224.224 0 0 0-.027-.092l-.073.016a.18.18 0 0 1 .03.082c.008.11-.09.21-.217.22a.24.24 0 0 1-.226-.104l-.02.08c.06.057.15.088.25.08.17-.014.297-.14.284-.282M16.202 6.692c.17.442-.053 1.13-.053 1.13s.77-.595.616-1.632c-.454.157-.564.502-.564.502M17.71 6.918c-.476.167-.6.425-.6.425.086.61-.197 1.07-.197 1.07s.905-.467.797-1.495M17.96 8.02c.028.585-.29 1.088-.29 1.088s.892-.38.936-1.432c-.458.072-.646.345-.646.345M14.973 7.715c0 .662.234.896.234.896s-.06-.45.27-1.222c-.49 0-.504.258-.504.327M18.452 8.947c-.02.396-.316.79-.386.877.66-.198.953-.802.967-1.11-.2.002-.528.15-.58.233M7.798 6.692s-.11-.346-.564-.502c-.155 1.038.617 1.63.617 1.63S7.63 7.136 7.8 6.693M6.89 7.343s-.124-.258-.6-.425c-.108 1.028.797 1.495.797 1.495s-.282-.46-.197-1.07M6.04 8.02s-.187-.272-.645-.344c.044 1.052.937 1.432.937 1.432s-.32-.503-.29-1.087M8.524 7.39c.33.77.27 1.222.27 1.222s.235-.234.235-.896c-.002-.07-.016-.327-.506-.327M4.967 8.714c.014.31.305.912.967 1.11-.07-.086-.368-.48-.386-.877-.052-.082-.38-.23-.58-.233"/></g><path fill="#BF910C" d="M15.414 5.487l-1.45 1.153.078-.234 1.092-1.138s-.05-.3-.328-.432l-.2.027-1.13 1.244c-.207 1.036-.428 1.398-.616 1.523l-.018-.126s-.16.26-.293.378l-.077-.18-.21.285-.084-.187-.18.29-.178-.287-.084.187-.21-.286-.075.18c-.135-.116-.295-.377-.295-.377l-.017.126c-.187-.125-.408-.487-.616-1.523l-1.13-1.244.003.077 1.013 1.325.164.39L9.35 5.7l-.093.173.935 1.324-1.06-.857-.093.13.458.592-.17.006.272.378-.13.01.435.755-.196-.978.838 1.61.088-.318.413.844.107-.25.438.732.078-.233.327.535.327-.535.078.233.437-.732.11.25.412-.844.088.32.84-1.612-.195.98.435-.755-.132-.012.272-.378-.17-.006.607-.558.474.16.254-.856-.424-.32zM10.173 1.302l-.513.485.17.06z"/><path fill="#BF910C" d="M14.866 4.39c-.02-.032-.04-.066-.057-.1l-1.203.3a.83.83 0 0 1-.024.308l.943-.13.34-.377zM14.934 3.642l-1.474.576a.8.8 0 0 1 .128.27l1.176-.293c-.097-.223-.114-.407-.114-.407l.31.06a.896.896 0 0 1-.026-.206M9.927 2.48l1.446.32.098.27.204.032-.28.2.404.275-.023.04-.304-.117-.108.117.343.265-.03.04-.25-.118-.25.218.133.085.692.25.693-.25.195-.148-.203-.188-.358.148-.03-.04.412-.303-.102-.102-.382.14-.023-.038.404-.274-.28-.2.203-.032.097-.27 1.306-.29v.094l-.312.14-.186.405-.702.228.203.208-.117.086.287.228.056.044s.116.063.23.187l1.544-.602c.006-.297.058-.64.058-.64l-.313-.236.11-.195-.313.045.283-.32-.356.157-.81-1.273c-.603-.3-1.356-.4-1.356-.4L12 .446l-.152.144.12-.028.204.203c.52.1.67.218.67.218s-.304-.028-.498-.028c-.26 0-.344.034-.344.075v.21c0 .123.094.21.094.21l-.14.31.14.19-.032 1.02.11.125L12 3.39l-.17-.296.108-.125-.078-.974-.22-.187.19-.313-.173-.312-.28.328.078.11-.156.576.265.436-.07.085-.22-.24-1.19-.094-.04-.132.255-.21-.083-.105-.36.25.07.29zM10.208 4.675a.84.84 0 0 0 .022.196l.187.027a.824.824 0 0 1-.023-.308l-.177-.044a.784.784 0 0 0-.01.13"/><path fill="#BF910C" d="M9.748 3.578l-.117-.42.398-.398.257.156.218.554.25.085v.094s-.195.15-.352.4l.21.082c.113-.125.23-.187.23-.187l.054-.044.287-.227-.116-.086.203-.208-.7-.23-.188-.405-.313-.14-.155-.01-.475.507.218.437.093.038zM10.54 4.218l-.19-.075c-.05.09-.09.19-.115.3l.178.043a.776.776 0 0 1 .128-.268M16.107 6.694c.152-.498.733-.624.733-.624.07.357.04.665-.04.926a.692.692 0 0 0 .156-.07l.592-1.55-.49-.407-.397.06-.19.604.064.148s.2-.012.392.03c0 0 .042.275 0 .445 0 0-.03-.218-.074-.317-.34.032-.81.48-.81.715 0 .135.084.235.125.276a.937.937 0 0 0-.06-.236M17.535 6.498s.164-.015.394.057c0 0 .008.308-.032.442 0 0-.02-.196-.055-.322-.318-.013-.798.326-.8.61.194-.357.744-.49.744-.49.047.297.02.55-.048.766.056 0 .144-.02.144-.02l.687-1.334-.408-.45-.388.032-.276.617.037.093zM18.502 7.218s.253.047.393.107c0 0-.034.252-.096.435 0 0-.013-.2-.035-.34-.245-.057-.93.29-.93.556 0 .082.02.136.033.162a1.36 1.36 0 0 0 0-.143c.25-.384.832-.424.832-.424 0 .308-.062.563-.157.775.08 0 .148-.038.148-.038l.597-1.047-.222-.496-.392-.037-.186.39.015.1zM19.236 7.803L19 8.187l.008.103s.136.025.323.105c0 0-.044.262-.148.43 0 0 .038-.152-.01-.3-.45-.08-.845.313-.845.41 0 .043.016.08.025.1a.64.64 0 0 0 .01-.115c.298-.322.765-.296.765-.296-.018.29-.104.518-.224.7.155-.023.197-.056.197-.056l.59-1.013-.11-.396-.344-.057zM15.536 8.48l-.063-.143s-.082.027-.167.003c-.032.338.026.52.026.52s-.338-.186-.428-.822l-.042-.027-.092-.154-.228.258.144-.02-.762.866.14.374.177.244.33-.16-.218-.217.513.063-.218-.28.56.166.35-.134L15.4 8.9l.283.012-.11-.17.37.092-.407-.355zM7.713 6.23s-.284-.268-.572-.307c0 0-.28.463.038.994a1.905 1.905 0 0 1-.017-.847s.58.126.733.624a.93.93 0 0 0-.06.232c.266-.17.328-.414.328-.414l-.41-1.326-.686-.07-.128.078.207.506s.36.124.57.53M6.714 6.87s-.353-.23-.575-.214c0 0-.15.477.107.856a1.673 1.673 0 0 1-.034-.716s.58.14.76.518c.083-.095.104-.222.104-.222-.13-.047-.17-.117-.17-.117l-.44-1.128-.522.023-.09.124.206.46s.363.054.654.416M5.84 7.61s-.338-.187-.588-.187c0 0-.11.492.167.827a1.91 1.91 0 0 1-.12-.68s.582.04.832.425a1.565 1.565 0 0 0 0 .137c.032-.03.086-.092.086-.146 0-.12-.028-.304-.028-.304-.15-.012-.185-.054-.185-.054l-.486-.916-.476.118-.056.117.187.312s.342.005.664.35M5.637 8.92c0 .052.007.105.02.16a.118.118 0 0 0 .048-.1c0-.034-.016-.194-.024-.27a1.744 1.744 0 0 1-.155-.23c-.275-.008-.343-.103-.343-.103l-.34-.606-.29.1-.045.12.208.332s.418.028.66.285c0 0-.234-.1-.57-.1-.04.21.103.714.293.816a1.406 1.406 0 0 1-.225-.7s.467-.026.764.296M9.458 8.114l-.228-.258-.092.156-.042.027c-.09.636-.427.822-.427.822s.06-.188.023-.534l-.606.65.527-.038-.128.192.472-.062-.156.2.576.234.32-.28.22-.456-.604-.675.144.02zM12.95 9.7l-.542.665-.082-.202-.326.398-.25-.397-.09.202-.576-.666.332.596-.503-.353.515.613-.384-.177.48.52-.256-.05.43.517-.118-.012.42.522.42-.522-.117.012.43-.518-.258.05 1.15-1.556-.615.56zM11.207 13.255l.064.278-.575.263v.077l.108.04.075-.093.032.123.134.02.052-.124.062.085.145-.025.006-.14.092.088.104-.06-.19-.667zM12.234 14.87l-.626.22v.067l.083.067.087-.1.01.152.127.016.065-.125.04.13.134-.01.033-.12.078.088.104-.052.005-.973-.162.238z"/><path fill="#BF910C" d="M7.347 6.316l-.067-.04c-.03.405.083 1 .41 1.312-.188-.28-.312-.48-.343-1.272M6.332 7.01c.017.405.246.98.606 1.25-.218-.257-.414-.44-.538-1.222l-.068-.028zM5.54 7.77l-.07-.017c.06.4.323.992.71 1.223-.243-.232-.432-.44-.64-1.206M8.987 7.69l-.073-.093c.03.133-.03.753-.082.89a2.36 2.36 0 0 0 .155-.798M5.09 8.796l-.07-.014c.12.366.385.803.785.956-.266-.177-.4-.258-.715-.942M16.363 6.574l-.056.062c.03.497.05.738-.1 1.04.286-.35.18-.947.156-1.102M17.27 7.242l-.06.055c-.03.498-.046.718-.23 1 .324-.314.294-.898.29-1.055M17.754 9.012c.345-.29.352-.896.358-1.052l-.065.05c-.064.495-.09.735-.293 1.002M15.015 7.69c-.007.108.028.47.156.795-.053-.136-.112-.756-.082-.89l-.073.094zM18.12 9.775c.358-.19.48-.723.514-.86l-.066.033c-.15.424-.218.63-.448.827"/><path fill="#BF910C" d="M16.72 8.57c.085-.12.252-.407.302-.79a1.68 1.68 0 0 0 .012-.297c-.178-.11-.228-.35-.228-.35a.754.754 0 0 1-.062.02 2.045 2.045 0 0 1-.76.908c-.005.005-.01.007-.01.007l.004-.008c.022-.054.146-.387.187-.748.008-.074.013-.15.012-.224a1.318 1.318 0 0 1-.333-.307l-.145.33-.458-.147-.313.253-.118.465.073.126c0-.03-.003-.06-.003-.092 0-.278.23-.443.73-.416a3.36 3.36 0 0 0-.29.905l.033.026.212-.038.094.21.738.643c.19.167.724.146.724.146l.264-.076.154-.193.112.02a2.414 2.414 0 0 0 .187-.55l-.024-.13c-.117-.132-.166-.138-.156-.5-.078.16-.178.293-.284.405-.238.25-.51.39-.634.445l-.072.03s.02-.025.05-.07M7.28 8.572c.03.043.05.067.05.067s-.026-.01-.07-.03a2.073 2.073 0 0 1-.634-.445 1.59 1.59 0 0 1-.284-.405c.01.362-.04.368-.157.5l-.023.13a2.284 2.284 0 0 0 .186.55l.112-.018.154.192.264.077s.532.022.723-.145l.74-.642.094-.21.21.037.033-.026a3.39 3.39 0 0 0-.29-.905c.503-.027.73.137.73.415v.092l.072-.125-.118-.465-.314-.253-.457.147-.144-.328c-.093.114-.2.23-.332.307 0 .073.004.148.012.223.04.36.165.693.186.748l.003.01-.01-.008a2.045 2.045 0 0 1-.575-.567c-.067-.1-.13-.214-.183-.34a.744.744 0 0 1-.062-.02s-.05.238-.228.35c-.005.103 0 .2.012.295.05.383.216.67.3.792"/><path fill="none" d="M11.145 12.29l.164.106z"/><path fill="#BF910C" d="M11.377 11.732l-.273-.354.062.357-.193-.09.166.308-.213-.07.173.3-.15-.05.243.69.087.016.13-.198.16-.562-.193-.348zM13.107 10.958l-.69.85.156.264h-.198l.132.27-.165.007.222.452-.087.05-.21.7.124.04.593-1.067c0-.002.23-1.312.124-1.567M14.285 13.75l-.024-.204-.06.313-.075-.254-.017.406-.054-.155-.028.202c-.066.12-.144.214-.227.288-.35.315-.783.267-.783.267l.086.053c.23.026.512-.055.757-.25.235-.19.438-.485.53-.897l-.105.23zM13.54 5.013c-.19.385-.692.4-.692.4l-.025.127s-.058.497-.468.687c0 0 .153-.258.058-.712 0 0-.015.157-.152.295l-.077-.2s-.03.062-.08.11c0 0-.077-.067-.103-.12-.025.053-.103.12-.103.12-.05-.048-.08-.11-.08-.11l-.077.2a.516.516 0 0 1-.152-.295c-.096.454.057.712.057.712-.41-.19-.467-.687-.467-.687l-.023-.128s-.504-.015-.694-.4l-.195-.026c.065.168.162.26.162.26a.958.958 0 0 0 .367.452l.236.748-.05.117-.163-.29-.04.157-.095-.17c.105.475.247.925.392 1.12l.102-.145s.09.274.235.42l.144-.163.153.26.127-.188.166.28.167-.28.128.188.152-.26.143.162c.145-.146.234-.42.234-.42l.102.146c.145-.196.287-.646.393-1.12l.04-.21 1.053-1.16-.873.123z"/><g fill="#002654"><path d="M12.506 2.72l.22-.24.6-.126-.226-.188-.476-.654-.078.11.155.576-.263.437zM14.19 3.718l.094-.04.28-.576-.32-.436-.18.1.305.39zM13.224 6.43l-.04-.156-.162.29-.062-.15-.148.18.327-.935.155-.142.016-.093-.436.14-.05-.024s-.058.498-.468.688c0 0 .153-.258.058-.712 0 0-.015.157-.152.295l-.078-.2s-.03.063-.08.112c0 0-.077-.068-.103-.12-.024.052-.102.12-.102.12-.05-.05-.08-.112-.08-.112l-.078.2a.516.516 0 0 1-.152-.295c-.096.454.057.712.057.712-.41-.19-.467-.687-.467-.687l-.05.024-.437-.14.017.093.156.14.326.937-.15-.18-.01.03-.05.118-.164-.29-.04.158-.094-.17c.105.475.247.925.392 1.12l.102-.145s.09.274.235.42l.144-.163.153.26.127-.188.166.28.167-.28.128.188.152-.26.143.162c.145-.146.234-.42.234-.42l.102.146c.145-.196.287-.646.393-1.12l-.096.17z"/></g><g fill="#FFF"><path d="M13.247 3.554l.047.063.335-.024.25-.366-.134-.156-.25.398zM13.917 2.385l.203-.023.024-.172-.617-.436-.06.094.49.405zM13.707 7.326l-.53.5.065-.567s-.168.35-.416.62l-.035-.148s-.178.267-.284.328l-.068-.146-.19.23-.074-.12-.174.243-.172-.243-.072.12-.192-.23-.068.146c-.107-.062-.286-.328-.286-.328l-.036.148c-.248-.27-.416-.62-.416-.62l.066.565-.53-.5.343.858-.928-.95.838 1.61.088-.32.413.845.107-.25.438.732.078-.233.327.535.327-.535.078.233.437-.732.11.25.412-.844.088.32.84-1.612-.928.95.343-.856zM11.104 11.378l.23.53-.102-.04.09.253-.144-.05.13.326-.163-.107.133.55.13-.198.16-.562-.19-.348zM12.573 12.07h-.198l.132.27-.165.008.22.453-.085.05-.21.7.124.042-.003-.22.076-.07-.025-.197.092-.076-.04-.133.134-.05-.06-.184.103-.06-.07-.175.128-.03-.11-.19.18-.017-.116-.21.177-.008-.14-.306.14.048.25-.756-.69.85zM13.86 14.417l-.09.014.03-.08c-.35.314-.783.266-.783.266l.086.053c.232.024.512-.057.757-.253M11.655 7.06c0-.056-.11-.205-.198-.583 0 0-.074.21-.018.525.013.078.215.1.215.057M11.826 7.057c0-.1-.06-.16-.06-.16s-.056.08-.056.16c0 .03.116.028.116 0M11.924 6.904s-.05.073-.057.16c0 .026.116.023.116-.002-.004-.114-.06-.158-.06-.158M12.562 7.002c.056-.315-.02-.525-.02-.525-.087.378-.196.527-.196.582 0 .04.2.02.216-.058M12.174 7.057c0 .028.115.03.115 0 0-.08-.056-.16-.056-.16s-.06.06-.06.16M12.133 7.064c-.006-.087-.056-.16-.056-.16s-.054.044-.06.158c0 .026.116.03.116.002"/><path d="M11.176 7.234s.09.274.235.42l.144-.163.153.262.127-.19.166.282.167-.28.128.188.152-.26.143.162c.145-.146.234-.42.234-.42l.102.146c.145-.196.287-.646.393-1.12l-.096.17-.04-.157-.162.29-.062-.15-.148.18c.03.316.03.67-.48.67-.102 0-.332-.03-.332-.03s-.23.028-.328.028c-.51 0-.514-.352-.482-.667l-.148-.18-.012.03-.05.118-.163-.288-.04.158-.095-.17c.105.475.247.925.392 1.12l.102-.146z"/></g><g fill="#CE1126"><path d="M11.67 4.456c.075 0 .2.12.2.222 0 .034-.018.045-.018.045l.075.074.073-.272.073.27.075-.073s-.02-.01-.02-.045c0-.1.127-.222.2-.222.057 0 .067.04.067.04.068-.068.165-.22.165-.22l-.56.217-.562-.215s.097.15.166.22c0 0 .01-.04.067-.04M12 5.12c-.037.088-.206.162-.206.162l.024.014s.09-.046.182.005c.093-.05.182-.004.182-.004l.025-.014S12.04 5.208 12 5.12M12.355 6.227s.153-.258.058-.712c0 0-.015.157-.152.295l-.077-.2s-.03.062-.08.11c0 0-.077-.067-.103-.12-.025.053-.103.12-.103.12-.05-.048-.08-.11-.08-.11l-.077.2a.516.516 0 0 1-.152-.295c-.096.454.057.712.057.712-.41-.19-.467-.687-.467-.687l-.05.024c.08.528.215 1.092.215 1.092s.005-.172.144-.446c0 0 .057.385.188.69 0 0 .026-.05.086-.11 0 0 .055.04.09.085 0 0 .032-.043.067-.078 0 0 .062.04.083.078.02-.038.084-.078.084-.078a.737.737 0 0 1 .066.078c.036-.045.09-.085.09-.085.06.06.086.11.086.11.13-.306.188-.69.188-.69.14.274.145.446.145.446s.132-.563.214-1.092l-.05-.024s-.058.497-.47.687M11.225 2.94c0-.013 0-.025-.004-.037l-.302-.064a.125.125 0 0 0-.035.072c-.006.077.065.145.16.153.094.007.175-.048.182-.125M12.78 2.903a.15.15 0 0 0-.005.037c.008.077.09.132.183.125.095-.008.165-.076.16-.153a.124.124 0 0 0-.035-.073l-.304.063zM16.74 8.61l.112.2.688.11.112.02c.027-.058.06-.127.088-.206a4.642 4.642 0 0 0-.365-.57c-.238.25-.51.39-.634.446M15.98 8.06a3.35 3.35 0 0 0 .185-.748c-.058-.023-.117-.047-.18-.07 0 0-.064.517-.04.802l.034.017zM16.56 7.495a2.045 2.045 0 0 1-.575.567l.608.28.127.23c.085-.123.252-.41.302-.793a3.68 3.68 0 0 0-.46-.285M16.457 8.443l-.437-.186c-.08-.034-.12-.005-.09.064l.058.128.378.324.142.04c.067.017.1-.022.072-.085l-.123-.284zM7.44 7.495a3.473 3.473 0 0 0-.46.284c.05.383.217.67.302.79l.126-.227.608-.28a2.045 2.045 0 0 1-.576-.568M8.057 8.044c.023-.285-.042-.8-.042-.8-.062.022-.12.045-.18.068.042.36.166.693.187.748l.035-.016zM6.26 8.734c.03.08.06.148.088.205l.112-.018.688-.11.112-.2a2.1 2.1 0 0 1-.634-.447c-.22.304-.324.487-.366.57M7.98 8.257l-.436.187-.122.284c-.028.063.004.1.072.083l.14-.037.38-.324.056-.13c.032-.07-.008-.097-.09-.063M14.13 12.938l.012-.4-.09.115-.032-.622-.134.434.092-.133v.513l.113-.148z"/><path d="M14.43 12.518l-.095.095.022-.344-.11.087.016-.224-.09.1-.06-.254.005.484.07-.085.006.18.087-.103-.037.64.122-.097-.024.537.06-.188.048-.52-.08.066zM14.16 13.056l-.073.078-.043-.2-.023.364.077-.08-.002.206.077-.073.01.17.064-.334-.084.076z"/></g><path fill="#002654" d="M11.956 6.578l.044.14.045-.14.026-.417.11-.377-.18.21-.18-.21.11.378z"/><g fill="#FFF"><path d="M11.14 3.024c.022.002.044-.013.046-.033s-.017-.038-.04-.04-.046.013-.048.033.016.04.04.04M13.05 3.004c.024 0 .042-.02.04-.04 0-.02-.022-.036-.047-.034s-.043.02-.04.042.022.035.047.032"/></g></svg>