<svg xmlns="http://www.w3.org/2000/svg" viewBox="0 0 24 16"><g fill="#002868"><path d="M20.076 7.28c0-1.638-1.02-3.253-2.825-4.245l-.69.55c1.233.777 1.96 1.938 1.96 3.257 0 3.076-3.8 5.862-8.03 5.862-.436 0-.86-.03-1.272-.093L7.79 13.67c.9.306 1.907.467 2.958.467 5.022 0 9.328-3.39 9.328-6.855"/><path d="M13.688 8.425l-2.583.505 5.73-4.71-2.667.358L19.354.465l-6.037 1.59a9.484 9.484 0 0 0-.24-.004c-4.947 0-9.152 3.363-9.152 6.91 0 1.74.938 3.126 2.39 4.023l-2.23 2.552 9.603-7.11zm-9.074.012c0-3.182 3.98-5.863 8.033-5.863h.083L8.812 6.957l2.253-.356-4.438 4.293 1.8-.325-1.257 1.437c-1.528-.724-2.556-1.97-2.556-3.568M17.7 12.076h.1v.3h.036v-.3h.104v-.036h-.24zM18.133 12.313l-.086-.273h-.058v.336h.035v-.286l.09.286h.036l.09-.286v.286h.037v-.336h-.058z"/></g></svg>