<svg xmlns="http://www.w3.org/2000/svg" viewBox="0 0 24 16"><path d="M18.674 10.715a.333.333 0 1 0 .002.666.333.333 0 0 0-.002-.665zm0 .597a.262.262 0 0 1-.262-.264.262.262 0 0 1 .524 0 .263.263 0 0 1-.262.264z"/><path d="M18.81 10.973a.11.11 0 0 0-.11-.11h-.16v.38h.07v-.156h.05l.073.156h.078l-.075-.162a.12.12 0 0 0 .076-.107zm-.11.043h-.093v-.084h.092c.02 0 .038.02.038.04 0 .024-.017.044-.04.044z"/><path d="M20.54 10.295c0-.63.616-2.965-3.87-6.498l.754-.168-.39-1.28-.747.498v-.775h-1.47C13.86 1.383 13.398.5 11.89.5c-.63 0-1.292.125-1.436.125-.11 0-.447-.07-1.018-.07-1.65 0-1.8 1.23-1.595 1.66C5.673 3.703 4.6 4.773 4.6 5.16c0 .15.088.343.088.623 0 .61-1.318 1.954-1.318 2.666 0 .662.846.708.846.708.048.195-.28.846.014 1.178-.408.443.068.664.068 1.016 0 .238-.166.312-.166.752 0 .502.235 1.105 1.473 1.105.49 0 .922-.077 1.266-.077.096 1.04.54 1.447.612 1.707.06.21.196.66.47.66.36 0 2.34-.648 3.845-1.56.753.278 1.712.187 2.06.187.38 0 .537.232.762.232.134 0 1.155-1.144 1.093-3.644.64 1.084 1.02 1.79 1.057 2.193.832-.298 1.53-2.263 1.23-3.515 0 0 1.046 1.7 2.634 1.45a2.003 2.003 0 0 1-.095-.55z"/><path fill="#D18A00" d="M10.56 11.848c.385-.59.166-1.605-.565-1.324-.422-.69-.9-1.623-.9-2.776 0-1.23.25-1.55.25-2.637 0-1.85-.855-2.215-1.404-2.587C6.634 3.408 4.9 4.62 4.9 5.266c0 .19.084.37.084.556 0 .668-1.3 1.965-1.3 2.593 0 .236.188.433.49.433s1.07-.11 1.36-.143c.29-.03.32-.17.32-.246 0-.19-.296-.45-.52-.45-.19 0-.206.11-.206.138 0 .123.177.158.177.158.225-.03.226.167.012.167-.176 0-.373-.13-.373-.354 0-.226.18-.282.314-.282.562 0 .885.508.792.832.697.346.677.853.562.853-.24 0-.074-.64-.98-.64-.255 0-.787.075-.913.09-.123.013-.16.03-.176.136-.015.1-.146.476-.146.706 0 .34.227.363.373.363.382 0 1.03-.093 1.03-.245 0-.1-.165-.07-.225-.07-.115 0-.167-.07-.167-.11 0-.103.165-.15.36-.15.326 0 .36.212.344.31-.037.22.315.166.315.63 0 .054-.004.187-.115.187-.112 0-.113-.14-.113-.217 0-.076-.127-.2-.236-.2-.114 0-.532.216-1.432.134-.355.446.064.478.064.93 0 .5-.154.47-.154.776 0 .61.67.77 1.34.77 1.383 0 2.945-.32 3.495-1.31-.188.874-.893 1.187-2.092 1.46.137.97.338 1.195.484 1.457.146.264.178.63.436.63.31 0 2.13-.655 3.355-1.394l-.894-1.922z"/><path d="M12.165 11.72c-.03 0-.062.044-.062.16 0 .134.15.41.335.59.006-.093.005-.17.005-.212 0-.154-.087-.54-.278-.54zM8.83 9.928c-.265-.29-.664-1.13.13-1.848-.607-.163-1.44 1.46-.13 1.848zM7.882 4.328c.037.043.1.05.144.014.032-.028.054-.095.012-.144a5.35 5.35 0 0 0-.65-.635l.164-.123c.158.132.77.657 1.155 1.136.037.044.1.05.144.015a.102.102 0 0 0 .017-.14c-.377-.47-.944-.96-1.147-1.136.067-.048.125-.093.155-.114.413.3.647.588.65.59a.1.1 0 0 0 .142.017.102.102 0 0 0 .018-.143 3.963 3.963 0 0 0-.753-.673.1.1 0 0 0-.12.003l-.648.485c-.06.044-.048.123-.002.162.405.315.717.684.72.688zM7.688 5.178c-.617 0-.82-.662-1.595-.662-.416 0-.63.163-.63.3 0 .14.16.26.16.26.08.17-.46.356-.177.47l.35.136c-.114.198-.04.565-.02.657-.713.005-.644.227-.025.236.003.102-.07.375.04.375.118 0 .268-.136.325-.396.52-.064 1.106-.243 1.106-.243.105-.028.21-.123.01-.242l-.957-.563s-.082-.048-.028-.173l.073-.17c.02-.05.073-.057.098-.057.272 0 .68.407 1.22.407.235 0 .496-.137.496-.27 0-.13-.32-.064-.444-.064z"/><g fill="#FFF"><path d="M6.21 5.843a1.162 1.162 0 0 0-.004.485c.613-.037.864-.15.864-.15l-.86-.335zM5.265 10.938c-.067.033.206.6.157.854.04.115.21.537.498.39.286-.145.044-.528-.025-.63-.236-.11-.563-.65-.63-.614zM7.792 6.915c-.237.063-.454.298-.883.413-.16.04-.438 0-.52 0 .064.09.235.242.235.242s-.063.156-.076.263c.07-.042.278-.168.437-.21.43-.112.734-.013.97-.075.112-.03.316-.087.234-.402-.08-.313-.288-.262-.398-.23z"/></g><g fill="#CF0A2C"><path d="M10.31 10.615c-.262-.076-.573.2-.694.613-.12.414-.005.81.256.89.262.075.572-.198.693-.614.12-.414.005-.813-.255-.89zM5.57 10.797c-.128-.178-.197-.018-.333.055-.136.068-.31.03-.236.238.078.225-.085.682-.014.82.058.11.182.154.283.104a.3.3 0 0 0 .152-.223c.05-.253-.098-.604-.03-.64.065-.035.266.29.5.4.087.04.178.05.27.006.1-.053.138-.182.082-.293-.072-.138-.537-.273-.674-.466zM7.423 7.763c-.07.02-.177.08-.353.126-.175.046-.395.047-.43-.088a.063.063 0 0 1 0-.036c.012-.11.17-.254.17-.254s-.21-.047-.274-.136a.11.11 0 0 1-.017-.032c-.037-.134.157-.242.332-.288.174-.047.298-.047.37-.064.14-.038.26-.132.23-.244-.056-.21-.327-.158-.477-.12-.75.2-.916.507-.86.72.055.214.298.27.298.27s-.184.167-.128.38c.055.212.352.398 1.102.2.15-.04.413-.128.36-.336-.032-.115-.183-.136-.324-.1zM15.104 3.618c-2.188 1.638-3.365 4.08-3.723 4.916 0 0-.046.098.01.205l.692 1.35c.03.056.09.065.138.022l1.14-1.03c.078-.07.104-.185.104-.185.52-2.975 1.22-4.43 1.658-5.088a.49.49 0 0 1-.022-.15c.004-.014.004-.028.004-.042z"/></g><g fill="#00833E"><path d="M16.92 2.746l-.588.39.137.447.66-.146zM15.307 4.112a.547.547 0 0 1-.11-.13c-.7 1.123-1.595 3.935-1.595 6.342 0 2.463.754 3.77 1.025 3.77.21 0 .947-1.317.947-3.017 0-.465-.39-2.326-.39-5.82.002-.75.058-.95.123-1.145zM11.554 8.607l.62 1.342 1.13-1.048s.546-3.178 1.517-4.93c-2.562 2.486-3.266 4.635-3.266 4.635zM15.705 3.206a.457.457 0 1 0 0 .914.457.457 0 0 0 0-.914z"/></g><g fill="#FFD100"><path d="M13.92 4.04c.152 0 .133-.204-.01-.204-2.19 0-3.445.278-3.638.324-.122-1.073-.74-1.416-.74-2.11 0-.27.18-.324.325-.324.512 0 .896.6 1.606.6.66 0 .802-.468 1.18-.468.563 0 .315 1.502 1.315 1.502.316 0 .523-.126.523-.126.138-.075.01-.236-.106-.176 0 0-.2.103-.398.103-.846 0-.477-1.506-1.355-1.506-.42 0-.56.464-1.168.464-.68 0-.948-.607-1.62-.607-.383 0-.52.256-.52.513 0 .77.76 1.354.76 2.408 0 1.074-.367 2.017-.367 3.507 0 1.737 1.65 2.25 1.65 3.868 0 .916.352 1.48.744 1.48.215 0 .416-.127.512-.463a.412.412 0 0 0 .152.035c.11 0 .52-.12.52-.602 0-1.38-2.37-2.094-2.37-4.257 0-1.04.166-2.704.42-2.704.135 0 .302.582.62.582.397 0 .26-1.15.435-1.15.14 0 .352.538.603.538.203 0 .27-.417.357-.744.033-.153-.182-.195-.213-.04-.055.242-.17.564-.17.564-.13-.13-.338-.523-.59-.523-.402 0-.343 1.148-.434 1.148-.168 0-.274-.596-.64-.596-.473 0-.612 1.642-.612 2.934 0 2.273 2.375 3.035 2.375 4.226 0 .3-.22.402-.307.402a.382.382 0 0 1-.107-.02c.013-.083.02-.175.02-.276 0-.7-.387-.834-.544-.834-.156 0-.245.137-.245.363 0 .303.27.64.53.832-.04.188-.122.362-.298.362-.34 0-.535-.79-.535-1.264 0-1.71-1.65-2.203-1.65-3.91 0-1.454.368-2.386.368-3.352 0-.06 0-.117-.004-.175.227-.05 1.64-.365 3.63-.32z"/><path d="M15.023 4.582s-1.248 2.627-1.248 5.688c0 2.027.63 3.576.803 3.576.137 0 .777-.965.777-2.98 0-.81-.44-3.9-.332-6.284z"/></g><g fill="#00833E"><path d="M14.428 8.438l-.45.348c-.054.436-.09.887-.095 1.35l.496-.338c.003-.396.016-.85.048-1.36zM14.762 6.382c-.088.743-.145 1.41-.182 2.002l.504.372c-.068-.74-.14-1.57-.17-2.364-.004-.113-.13-.22-.152-.01zM14.525 9.875l.7.482c-.026-.387-.077-.89-.13-1.45l-.523-.39c-.03.514-.043.967-.047 1.358zM14.61 6.387c.017-.137-.097-.115-.12-.035-.19.64-.377 1.42-.494 2.277l.44-.34c.037-.565.09-1.202.173-1.903zM13.992 11.742c.035.234.076.45.123.648.072.078.273.22.443-.29.29.48.47.417.527.376.04-.176.074-.37.102-.584l-.693-.46-.502.31zM14.568 11.342l.635.424a6.915 6.915 0 0 0 .033-1.26l-.71-.49a17.94 17.94 0 0 0 .042 1.326zM14.377 9.938l-.494.338c0 .484.035.936.092 1.342l.445-.277a17.493 17.493 0 0 1-.043-1.402z"/></g><g fill="#CF0A2C"><path d="M12.396 7.164c-.303.5-.55 1.03-.657 1.274-.044.105-.062.164-.062.164l.533 1.15.983-.914c.012-.05.1-.54.252-1.2.22-.937.59-2.308.996-3.14a18.885 18.885 0 0 0-2.044 2.666z"/><circle cx="15.705" cy="3.662" r=".292"/></g><path fill="#FFF" d="M13.725 5.563c-.025-.013-.06-.003-.07.023-.203.402-.38.784-.533 1.14l-.624.276a7.872 7.872 0 0 0-.1.16l.66-.292c-.17.404-.31.77-.427 1.09l-.83.337a7.03 7.03 0 0 0-.06.14l.843-.343c-.258.735-.364 1.187-.367 1.194-.006.027.01.06.04.062a.053.053 0 0 0 .063-.04c0-.007.103-.44.35-1.15l.448.75.076-.072.002-.002-.48-.806c.105-.292.23-.625.384-.99l.346.595c.012-.05.02-.1.035-.15l-.327-.568c.168-.396.363-.828.596-1.284.012-.024 0-.054-.025-.07z"/><g fill="#FF671B"><path d="M16.037 2.316h-.963l.615.666h.347zM19.607 7.112c-1.05-1.686-2.88-3.103-3.3-3.417-.007.097-.1.257-.147.336-.057.062-.123.134-.156.153.072.29.184.707.332 1.19.22.536.467 1.197.676 1.886.238.57.515 1.137.828 1.64 1.3 2.088 2.596 1.8 2.596 1.8-.223-.354.43-1.56-.83-3.588z"/></g><path fill="#FFF" d="M19.22 7.232c-.83-1.333-2.593-2.918-2.993-3.27a.557.557 0 0 1-.09.12c.252.717 1.234 3.405 2.14 4.86.882 1.42 1.745 1.35 1.745 1.35s.29-1.298-.803-3.06z"/><g fill="#FF671B"><path d="M16.27 4.145c.14.392.418 1.147.762 1.982l.092-.506-.45-.72a.053.053 0 0 1 .02-.075c.026-.015.058-.008.07.018l.433.69.666.165a25.393 25.393 0 0 0-1.593-1.553z"/><path d="M17.273 5.663l.795 1.278 1.032.306c-.29-.46-.69-.948-1.107-1.405l-.72-.177zM17.105 6.31c.193.463.406.946.625 1.4l.258-.697-.78-1.257-.103.553zM19.932 10.184c.023-.2.06-.738-.16-1.48l-.684-.124.402.648c.018.023.008.057-.018.072-.023.016-.06.008-.074-.018l-.406-.656-.258.77c.536.64 1.012.762 1.198.788zM18.152 7.077l.86 1.38.724.133a5.632 5.632 0 0 0-.553-1.208l-1.03-.305zM18.654 9.3l.266-.79-.86-1.383-.263.715c.188.382.38.74.568 1.043.098.156.194.295.29.416z"/></g><g fill="#D18A00"><path d="M6.12 5.038l-.388.104c-.082.02-.086.068-.008.106l.295.142a.06.06 0 0 0 .08-.03l.1-.23c.03-.07-.007-.11-.08-.092z"/><ellipse transform="rotate(-73.776 10.092 11.367)" cx="10.092" cy="11.367" rx=".496" ry=".275"/></g><path fill="#FFD100" d="M17.012 7.26a21.45 21.45 0 0 0-.676-1.886c-.148-.484-.26-.9-.332-1.19a.613.613 0 0 1-.582.008c-.186 4.312.242 5.058.32 6.29 1.088 1.715 1.127 2.215 1.127 2.215s1.27-.89.978-3.535a10.603 10.603 0 0 1-.62-1.1"/><path fill="#001970" d="M17.37 8.787a9.023 9.023 0 0 0-.144-.725 13.907 13.907 0 0 0-.215-.8c-.208-.69-.456-1.35-.675-1.887-.217-.526-.404-.93-.494-1.126a.626.626 0 0 1-.26.002c-.042.464-.19 2.448.093 4.234.404 2.562 1.377 3.49 1.377 3.49s.673-.968.32-3.19z"/><g fill="#FFD100"><path d="M16.123 7.156l-.336-2.124c-.016-.096-.143-.084-.148.055-.028.645-.04 1.554.038 2.482l.445-.414zM16.477 9.396l-.166-1.05-.466.464c.074.39.162.738.256 1.05l.377-.464zM15.69 7.71c.022.254.056.508.095.758.012.07.02.14.033.208l.473-.465-.145-.92-.456.42zM15.898 5.015l.34 2.153.75.422a21.46 21.46 0 0 0-.953-2.636c-.03-.083-.156-.065-.137.06zM16.768 10.61l-.262-1.073-.367.45c.132.41.274.75.41 1.02l.218-.396zM16.26 7.31c.05.304.098.607.14.886l.84.48a10.757 10.757 0 0 0-.208-.933l-.772-.434zM16.422 8.336l.166 1.04.77.417a8.35 8.35 0 0 0-.094-.977l-.842-.48zM17.26 11.062l-.416-.357-.234.424a4.2 4.2 0 0 0 .422.65c.062-.132.156-.368.228-.718zM17.36 9.922l-.743-.4.26 1.066.406.35c.05-.278.082-.616.076-1.016z"/></g></svg>