<svg xmlns="http://www.w3.org/2000/svg" viewBox="0 0 24 16"><g fill="#CE1126"><path d="M12.444 12.767a.4.4 0 1 0 .4.4.4.4 0 0 0-.4-.4zm0 .714a.314.314 0 1 1 0-.627.314.314 0 0 1 0 .628z"/><path d="M12.61 13.074a.137.137 0 0 0-.137-.136h-.193v.457h.086v-.185h.062l.087.186h.095l-.09-.193c.05-.02.09-.07.09-.13zm-.136.05h-.107v-.1h.107c.027 0 .05.022.05.05s-.023.05-.05.05z"/></g><path fill="#CE1126" d="M20.896 4.923c.896-.766 1.765-2 1.765-3.416 0-.205-.25-.263-.35-.124-.924 1.26-1.795 1.74-2.32 1.922.874-.662 1.732-1.744 1.952-2.97A.196.196 0 0 0 21.61.16c-1.07 1.07-2.547 2.214-6.51 2.214-.96 0-2.054-.028-2.762-.028-3.218 0-4.4 1.99-4.668 2.543a5.785 5.785 0 0 0-.8-.06 5.538 5.538 0 0 0-5.53 5.533c0 3.05 2.48 5.53 5.53 5.53a5.5 5.5 0 0 0 5.098-3.384c.06.005.125.016.18.016.7 0 .848-.205.848-.378 0-.093-.092-.204-.137-.27 1.027-.005 1.33-.054 1.774-.207a.166.166 0 0 0 .115-.16c0-.152-.313-.403-.538-.6 1.438-.023 2.497-.28 2.497-.616 0-.065-.007-.148-.39-.45.813-.22 2.238-.767 2.238-1.124 0-.137-.12-.222-.26-.32 1.265-.476 2.326-1.314 2.326-1.615 0-.243-.356-.263-.534-.277.63-.403 1.506-1.09 1.506-1.387 0-.305-.48-.184-.7-.197z"/><path fill="#FFF" d="M20.526 5c1.007-.753 1.964-2.056 1.964-3.494 0-.03-.03-.035-.042-.022-1.557 2.125-2.972 2.104-2.972 2.104-.062 0-.076-.087-.026-.12 1.004-.592 2.08-1.81 2.323-3.164.004-.018-.023-.04-.042-.02-1.143 1.142-2.713 2.264-6.63 2.264-1.256 0-1.91-.028-2.762-.028-3.396 0-4.44 2.258-4.565 2.557a5.36 5.36 0 1 0 4.087 7.25c.102.02.198.03.288.03.546 0 .678-.123.678-.208 0-.058-.35-.44-.176-.44 1.21 0 1.482-.044 1.927-.197-.213-.333-.985-.766-.588-.766 1.92 0 2.55-.37 2.55-.45 0-.09-.613-.53-.613-.53.884-.147 2.46-.854 2.46-1.043 0-.108-.45-.292-.376-.397 1.402-.466 2.444-1.372 2.444-1.537 0-.132-.822-.117-.822-.117V6.58c.712-.37 1.794-1.263 1.794-1.46 0-.125-1.016.085-.9-.12z"/><path fill="#CE1126" d="M8.188 9.35a1.686 1.686 0 0 0-.67-.518l-.043.043.09.612c.027.022.054.045.08.07l.448.003.095-.21zM6.246 8.883l.495.37a.945.945 0 0 1 .108-.006l.44-.435-.008-.06a1.672 1.672 0 0 0-1.034.07v.06zM7.32 9.027l-.242.24c.103.018.2.052.29.097l-.048-.337zM7.5 11.285a1.122 1.122 0 0 1-.274.137l.272.203.003-.34zM5.285 12.816l.79-.777a1.854 1.854 0 0 1-.757-.66l-.663.888c.183.21.395.396.63.548zM7.793 9.733c.043.062.08.13.11.202.025-.047.062-.115.104-.2l-.214-.002zM6.308 12.132l-.058-.02-.81.798a2.89 2.89 0 0 0 1.03.347l-.162-1.125zM7.787 11.05l-.04.006a.88.88 0 0 1-.07.08l-.006.62.05.035c.15-.088.284-.2.398-.33-.164-.15-.283-.292-.33-.41zM6.24 9.44c.085-.058.178-.104.276-.137L6.244 9.1l-.003.34zM5.223 11.216c-.01-.02-.02-.036-.027-.055l-1.138-.01c.1.36.266.69.485.977l.68-.91zM7.496 11.842L7 11.472a.928.928 0 0 1-.106.008l-.44.434.008.06a1.656 1.656 0 0 0 1.034-.07v-.062zM6.422 11.7l.242-.24a1.08 1.08 0 0 1-.292-.098l.05.337zM7.67 12.04l-.01 1.137c.357-.1.687-.267.976-.485l-.913-.68-.054.027zM5.948 10.993a1.13 1.13 0 0 1-.137-.276l-.202.272.34.003zM6.098 11.17l-.62-.006-.034.048c.18.302.453.543.78.682l.044-.043-.09-.61a1.38 1.38 0 0 1-.08-.07zM6.065 9.59l.005-.62-.048-.036c-.302.18-.543.455-.68.782l.04.043.613-.09c.023-.027.046-.055.07-.08zM5.535 9.913l.238.243c.02-.104.053-.2.098-.292l-.335.05zM5.26 9.953c-.032.132-.05.27-.05.41 0 .22.043.432.122.624h.06l.37-.495a1.23 1.23 0 0 1-.007-.106l-.435-.442-.06.01zM6.492 12.18l.16 1.097a2.95 2.95 0 0 0 .833-.056l.01-1.108a1.86 1.86 0 0 1-1.003.067zM8.494 8.16c0-.077-.002-.152-.005-.23l-.033-.02-.79.776c.23.11.437.268.604.46.123-.322.224-.68.224-.987zM6.02 8.715a.453.453 0 0 1 .053-.027l.01-1.14c-.358.1-.688.267-.977.486l.913.68zM7.25 8.545L7.09 7.45a2.954 2.954 0 0 0-.834.056L6.25 8.612a1.882 1.882 0 0 1 1.002-.068zM9.17 12.165a5.512 5.512 0 0 1-.903-.58c-.11.127-.238.238-.38.33l.89.663a2.96 2.96 0 0 0 .393-.413zM8.303 7.815a2.922 2.922 0 0 0-1.033-.347l.164 1.125c.02.006.04.012.058.02l.81-.798zM3.95 10.363c0 .21.02.415.063.613l1.108.01a1.855 1.855 0 0 1-.067-1.003l-1.096.16a3.21 3.21 0 0 0-.008.22zM3.977 9.964L5.103 9.8l.02-.058-.8-.812a2.888 2.888 0 0 0-.346 1.034zM4.417 8.777l.777.79c.146-.31.377-.57.66-.757l-.888-.663a2.95 2.95 0 0 0-.55.63z"/><circle fill="#CE1126" cx="6.871" cy="10.363" r=".603"/><path fill="#CE1126" d="M6.87 6.748a3.615 3.615 0 1 0 2.952 5.702 4.52 4.52 0 0 1-.415-.17 3.18 3.18 0 1 1-.93-4.663 4.775 4.775 0 0 1 .01-.49 3.603 3.603 0 0 0-1.615-.38z"/><path fill="#CE1126" d="M10.888 12.59c-.233.057-.535.022-.858-.072a3.824 3.824 0 0 1-6.976-2.356c-.118.18-.084.476-.294.476-.166 0-.074-.227-.196-.227-.075 0-.086.105-.18.105-.012 0-.02-.004-.028-.004-.02 0-.03.046-.068.046-.05 0-.082-.06-.122-.06-.044 0-.058.085-.115.085-.06 0-.116-.1-.14-.145a4.963 4.963 0 0 0 9.562 1.8 6.878 6.878 0 0 1-1.09-.453c.033.33.506.81.506.81zM2.4 8.464c.114.094.022.26.104.375a4.626 4.626 0 0 1 6.22-2.713c.042-.1.09-.203.145-.31a4.963 4.963 0 0 0-6.603 2.69c.04.028.085-.083.132-.043zM12.932 3.363h2.73c3.49 0 5.018-1.248 5.62-2.353.033-.067-.01-.08-.075-.02-.76.68-1.893 1.87-6.52 1.87h-1.954c-3.07 0-4.228 1.385-4.53 2.31.154.038.306.084.453.137.546-.984 1.587-1.944 4.276-1.944z"/><path fill="#CE1126" d="M12.868 4.067c-2.733 0-4.308 1.877-4.127 3.67.135 1.337-.612 2.422-.612 2.422S9.17 9.686 9.17 7.783c0-1.803 1.795-3.116 3.307-3.116 1.462 0 3.16.01 4 .01 4.46 0 5.54-2.062 5.694-2.464.028-.06-.01-.048-.026-.02-.93 1.256-2.235 1.974-5.773 1.974-2.273 0-2.993-.1-3.502-.1z"/><path fill="#CE1126" d="M13.887 5.63c-.738 0-.812.205-.812.205-.024.03-.012.096-.063.116-.17.066-.355-.074-.5.114-.088.113-.3-.026-.438.054-.03.018 0 .097.024.107.064.028.17.02.21.053.044.035.04.084.08.113.048.037.14.053.18.11.03.042.042.128.088.13 1.108.064 2.245.064 3.297-.343.118-.188-1.032-.658-2.066-.658zM9.533 8.072c.014.107-.013.272.01.274a4.313 4.313 0 0 0 2.266-.38c.198-.085-.775-.592-1.586-.592-.263 0-.44.112-.44.112-.048.026-.084.133-.137.21-.04.06.036.15.005.19-.058.07-.13.113-.12.186zM10.588 6.195c-.038.006-.066.066-.094.106-.07.1-.29.078-.29.19.003.205-.225.242-.26.39-.03.115-.092.202-.1.326.817.004 1.66-.048 2.384-.465.19-.085-.998-.638-1.64-.545zM13.19 5.494c-.058-.237-.346-.282-.542-.396-.078-.046-.17-.025-.26.014-.194.084-.445-.06-.646.086-.057.042-.087.12-.16.138-.094.024-.186.028-.28.04-.034.005-.1.028-.094.067.02.167-.137.202-.26.245-.12.042-.078.2-.082.318.798.01 1.626-.104 2.325-.512zM9.13 9.43c.203.106 1.194-.036 1.71-.357-.53-.45-1.38-.614-1.38-.614-.117.32-.24.64-.33.97z"/><path fill="#CE1126" d="M8.98 9.617c-.098.052-.21.198-.12.257.157.107.418.346 1.62.346 1.173 0 1.62-.362 1.84-.587 0-.146-1.03-.442-1.17-.36-.04.02-.046.062-.052.08-.047.02-.19.022-.224.047-.08.06-.064.154-.086.16-.183.045-.41-.07-.582.01-.047.02-.043.15-.104.154-.124.01-.262-.066-.382-.028-.02.008-.085.017-.128.044-.067-.034-.1-.042-.187-.063-.063-.015-.125.028-.202.015-.073-.012-.154-.11-.224-.075zM13.73 8.77c.218-.112.48-.122.637-.337-.97-.508-2.105-.455-2.243-.375-.035.02-.074.09-.118.118-.066.044-.13.022-.173.067-.026.026.003.096-.016.122-.024.034-.078.04-.11.06-.036.018-.107-.013-.16.01s-.057.073-.092.09c-.13.066-.32-.01-.41-.01-.045.003-.033.075-.02.09.06.057.228.074.22.16 0 .018-.04.076-.066.08.09.19.917.442 2.007.08.18-.054.37-.064.544-.154zM14.972 7.372c.09-.06.203-.062.256-.146.117-.153-1.018-.405-1.48-.405-.456 0-1.302.116-1.446.167-.06.025-.063.147-.134.156-.136.017-.27.033-.406.045-.045.003-.034.075-.02.087a.39.39 0 0 1 .153.226c.004.01.096.002.116.02.09.076.153.185.264.212.538.13 1.057.165 1.607.037.06-.015.103-.063.155-.07.193-.024.394-.035.544-.178.106-.103.274-.07.392-.15zM16.276 5.047c.032-.02.006-.122-.02-.125-.124-.02-.258-.068-.39.05-.046.042-.13-.046-.192-.008-.05.03-.1.11-.147.132-.128.057-.252-.076-.393-.06-.042.004-.03.097-.073.106-.12.03-.226-.104-.294-.06-.105.07-.193.155-.32.098-.122-.056-.282-.17-.366-.098-.145.126-.32-.057-.448-.008-.107.042-.397.11-.2.226.615.372 1.897.298 2.844-.253zM10.188 12.02c-.032-.058-.115-.026-.173-.06-.042-.025-.062-.112-.102-.146-.032-.025-.107.033-.146.01-.056-.032-.098-.103-.14-.15-.05-.054-.093-.11-.14-.164a.603.603 0 0 0-.148-.13c-.03-.018-.09.02-.127.012-.065-.018-.104-.13-.156-.178-.03-.027-.08-.03-.106-.057-.027-.026-.033-.075-.062-.107-.037-.043-.094-.058-.136-.092-.057-.046-.098-.162-.142-.227s-.107-.07-.15-.127c-.05-.07-.08-.19-.145-.26-.063-.073-.224.042-.272.14-.08.158-.075.36.047.497.602.672 1.382 1.23 2.276 1.377-.068-.095-.137-.263-.178-.336zM12.166 11.796c-.092-.025-.17-.075-.255-.11-.05-.02-.1.06-.155.026-.112-.067-.21-.163-.298-.234-.07-.057-.213-.2-.274-.17-.023.01-.058.143-.116.1-.14-.105-.23-.218-.36-.332-.06-.053-.117.12-.193.083-.174-.086-.244-.274-.38-.41-.155-.154-.305-.335-.52-.393-.036-.01-.016.043-.05.07-.164.128-.346-.092-.505-.165-.147-.067-.276-.175-.44-.187-.036-.003-.034.05-.022.066.94 1.11 2.243 1.945 3.674 1.912.033 0 .102.003.046-.066-.047-.054-.096-.174-.152-.19zM13.495 10.986c-.042-.006-.106.05-.143.044-.11-.02-.2-.12-.334-.19-.056-.03-.084.1-.128.098-.224-.013-.546-.25-.745-.37-.035-.02-.25.022-.284.03-.127.025-.29-.2-.39-.247-.077-.034-.184-.072-.256-.018-.1.073-.216.034-.323.032-.04 0-.078.088-.13.104-.146.047-.31-.055-.453.017-.004.002-.023.032-.022.043.01.09.11.105.177.146 1.033.654 2.627.866 3.515.668.02-.006-.01-.082-.07-.128-.062-.048-.153-.065-.192-.093-.09-.06-.138-.12-.22-.134zM15.573 10.033c-.11.033-.193-.047-.284-.013-.022.01-.036.043-.054.043-.17.003-.285-.18-.46-.167-.043.004-.042.08-.078.088-.107.025-.203-.104-.3-.058a.228.228 0 0 1-.184.012c-.086-.025-.15-.102-.232-.114-.072-.012-.146.06-.228.037-.205-.06-.364-.254-.585-.208-.11.023-.203-.05-.278-.006-.083.05-.106.108-.19.158-.056.034-.188.03-.247.065-.046.026-.057.096-.108.117-.097.04-.21.012-.3.062-.012.005-.018.056.02.066.843.285 2.205.6 3.833.177.05-.016.06-.045.02-.092-.09-.1-.213-.206-.347-.167zM17.52 8.607c-.143.067-.31-.007-.47.03-.04.01-.01.07-.05.076-.156.02-.318-.018-.465.04-.115.044-.253-.007-.38-.005-.047.002-.048.066-.055.12-.007.042-.072.07-.093.063-.156-.046-.306-.06-.464-.085-.398-.06-.792-.186-1.166-.074-.122.04-.284.068-.377.164-.036.037-.074.11-.122.127-.23.085-.48.1-.706.182-.07.024-.2.12-.15.134 0 0 .703.204 1.47.204 1.48 0 2.605-.364 3.43-.813-.05-.062-.292-.21-.4-.16zM19.143 6.99c-.09.03-.215-.057-.292 0-.115.085-.25.07-.37.058-.056-.006-.145-.026-.195.013-.032.026.015.067.045.095-.3.103-.63.006-.914.12-.02.01-.034.114-.086.125-.26.052-.504-.05-.763-.003-.065.012-.036.15-.104.154-.232.013-.458-.007-.69-.017-.274-.012-.528.088-.788.168-.078.024-.1.147-.184.16-.224.034-.452-.006-.657.096-.015.007-.015.075 0 .084.25.142.54.24.71.47 1.748-.02 3.63-.248 5.084-1.44.028-.024-.144-.06-.236-.082-.09-.02-.164-.02-.274-.057-.098-.03-.188.028-.283.06zM20.957 5.345a1.134 1.134 0 0 0-.43-.024c-.03.008-.05.06-.078.064-.19.03-.323.12-.515.126-.04 0-.126.03-.178.054-.07.033-.165-.048-.22.013-.035.04.026.134-.037.164-.168.08-.363-.06-.526.045-.048.03.05.135-.01.154-.236.073-.644-.293-.797.087-.024.06-.098.032-.144.02-.045-.01-.107-.03-.134-.01-.146.118-.23.165-.433.108-.052-.015-.053.138-.152.114-.113-.028-.223-.11-.327-.064-.048.02-.013.148-.083.155-.283.028-.575-.013-.836.104-.065.028-.07.145-.16.16-.2.032-.398.01-.584.07-.03.008-.023.097.022.103.12.018.254 0 .346.054.112.068.184.256.293.26 2.245.044 3.866-.76 4.98-1.687.044-.04.022-.055 0-.068zM20.406 4.028c-.033.016-.022.126-.087.156-.11.05-.237.05-.355.085-.044.013-.042.072-.08.095-.06.04-.146.007-.192.04-.284.21-.62.116-.936.168.005.237-.37.092-.523.195-.167.113-.145.082-.395.084-.078 0-.036.115-.1.117-.198.002-.455-.06-.603-.017-.027.008-.035.133-.088.147-.11.03-.224.04-.327.074-.08.025.024.177-.083.21-.183.06-.384.017-.567.12-.073.043-.18.003-.272.02-.08.016-.11.1-.045.136.06.033.158.024.216.053.137.067.248.163.394.172 2.37.146 5.438-1.54 5.92-3.58.018-.083-.02-.068-.037-.022-.516 1.225-1.84 1.745-1.84 1.745z"/></svg>