<svg xmlns="http://www.w3.org/2000/svg" viewBox="0 0 24 16"><g fill="#002654"><path d="M15.28 14.25a.364.364 0 1 0-.73 0 .364.364 0 0 0 .73 0zm-.652 0a.286.286 0 1 1 .572 0 .286.286 0 0 1-.572 0z"/><path d="M15.064 14.46l-.082-.177a.124.124 0 0 0-.042-.24h-.176v.416h.078v-.17h.056l.08.17h.086zm-.124-.248h-.098v-.09h.098c.025 0 .046.02.046.044s-.02.046-.046.046z"/></g><path d="M22.26 6.65a.27.27 0 0 0-.13-.14l-1.144-.55-.353-.272-.513-.636-.17-.76a.268.268 0 0 0-.128-.174l-.804-.457-.505-.506a.28.28 0 0 0-.083-.057L15.284 1.73a.28.28 0 0 0-.16-.018l-4.284.856c-1.167-.09-2.19.056-2.233.062-.262.044-.264.328-.172.42L2.02 4.33a.265.265 0 0 0-.16.1l-.68.893c-.12.16-.03.4.18.428.046.007 4.686.643 4.686 3.457 0 1.036-.71 2.056-.72 2.065-.102.146-.04.38.172.42l2.62.472c.2.16.867.628 1.837.628 1.15 0 1.474-.435 1.548-.79.57-.243 1.286-.818 1.286-1.28 0-.29-.26-.483-.503-.483-.028 0-.053.01-.08.013 0 0-.12-.226-.417-.226-.127 0-.264.062-.37.108.26-.302.695-.66 1.39-.892 1.07-.354 2.467-.655 3.167-.796-1.063 3.09-4.704 4.71-4.742 4.728-.217.095-.177.37-.09.426l-.396.18c-.284.124-.164.537.13.512 3.842-.326 6.668-1.672 8.636-4.104h.792c.045 0 .09-.012.13-.033.774-.433 1.294-.415 1.3-.415a.272.272 0 0 0 .254-.148c.384-.78.797-1.194.8-1.197a.266.266 0 0 0 .062-.292L22.26 6.65z" fill="#fcb514"/><path d="M20.845 6.19l-.4-.308-.572-.71-.183-.82-.835-.475-.53-.533-3.146-1.368-4.32.863c-1.168-.098-2.214.055-2.214.055l.364.313-6.937 1.385-.68.893s4.922.635 4.922 3.72c0 1.14-.768 2.222-.768 2.222l2.69.485s.668.61 1.72.61c1.22 0 1.3-.513 1.3-.712.537-.173 1.266-.764 1.266-1.09 0-.13-.137-.215-.234-.215-.082 0-.192.064-.282.104.052-.115-.02-.316-.216-.316-.163 0-.438.23-.973.28 0 0 .407-1.09 1.907-1.585 1.515-.504 3.644-.895 3.644-.895-.9 3.535-5.027 5.325-5.027 5.325l1.523-.343c-.706.373-2.008.946-2.008.946 3.837-.326 6.63-1.647 8.59-4.177l.134.072h.727c.865-.483 1.442-.447 1.442-.447.412-.837.854-1.27.854-1.27l-.592-1.45-1.17-.56z" fill="#002654"/><path d="M5.02 6.152c.148.09.29.184.428.284.123.09.24.18.353.278.024-.146.054-.286.09-.42.26-.99.79-1.65.79-1.65a3.046 3.046 0 0 0-1.66 1.508z" fill="#FFF"/><g fill="none"><path d="M15.612 2.903l-.516-.253-1.66.368s.344.392.344 1.062c0 .216-.05.425-.137.627l.76.06c0-.027-.01-.046-.01-.073 0-1.322 1.22-1.79 1.22-1.79zM14.402 4.766l-.76-.058"/></g><path d="M14.464 5.208a1.946 1.946 0 0 1-.062-.44c0-.027-.01-.046-.01-.073 0-1.322 1.22-1.79 1.22-1.79l-.516-.255-1.66.368s.344.392.344 1.062c0 .216-.05.425-.137.627-.07.163-.16.32-.273.472-.567.75-1.643 1.34-2.693 1.615-.216.056-.366.142-.47.264a.656.656 0 0 0-.104.172l-.437 1.02c-1.314.56-1.526 1.733-1.423 2.398.035-.958 1.022-2.322 2.653-2.03 0 0 .23-.462.745-.845-.124-.28-.145-.61-.064-.96.007.343.093.63.235.847.147-.09.3-.167.462-.228-.047-.35.046-.717.273-1.063-.13.373-.138.715-.054.993a2.58 2.58 0 0 1 .5-.088c.05-.417.284-.793.674-1.087-.294.365-.426.745-.41 1.08.244.005.48.042.704.11l.602-.66.51-.56c-.002 0-.433-.335-.606-.95z" fill="none"/><path d="M20.293 7.235l.6-.21s.71.45 1.028-.128l-1.085-.51a2.44 2.44 0 0 1-.877.307c-.813.117-1.434-.225-1.434-.225-.675 0-1.136.107-1.53.305-.323.16-.603.38-.92.65l.95-1.043.146-.867s.298.724 1.118.724c.397 0 .7-.22.7-.22.89.672 1.706.3 1.706.3l-.304-.253-.29.155.18-.272-.11-.126-.395.203.246-.374-.085-.1-.332.147.19-.324-.133-.205-.126-.658-.797-.386-.547-.51-3.062-1.24-3.015.67c.71.17 1.298.542 1.298.542s.227.52-.067 1.098a2.63 2.63 0 0 0-1.504.54c-.69.52-.982 1.226-.982 1.226l-.467.108.54-1.263.195-.456c-1.21.178-1.754-.85-1.754-.85l-.092-.315-7.016 1.57c.757.052 1.59.293 2.352.68.18-.605.63-1.074.63-1.074L9.1 3.99s.15.495.81.892l-.013.12c-.305.062-.784.26-1.24.617A3.194 3.194 0 0 0 7.4 8.206c0 .623.207 1.134.207 1.134s-.26-.35-.41-.945c-.065-.25-.11-.54-.11-.87 0-.612.176-1.194.375-1.656.257-.598.552-.995.552-.995s-.84.342-1.42 1.214c-.18.27-.333.593-.43.972.418.442.728.948.868 1.5.053.21.082.428.082.653 0 1.067-.446 1.74-.446 1.74l1.495.303s.565.822 1.778.822c.384 0 .888-.043.888-.288 0-.185-.453-.436-.453-.97 0-.87 1.092-1.772 2.264-2.158 1.37-.45 3.46-.977 4.513-.977 2.984 0 2.886 1.97 2.886 1.97l.144-.007a3.618 3.618 0 0 1 1.424-.457l.05-.003s.295-.55.637-.948c-.003 0-.446-.93-2.002-1.007z" fill="#FFF"/><path d="M10.617 10.92c.097.436.388.56.416.72 0 0 .754-.154 1.256-.9-.978.49-1.673.18-1.673.18M19.455 9.12c0-.427-.705-.835-1.037-.835-1.367 0-1.35 2.905-6.17 5.366 4.106-.59 7.207-3.384 7.207-4.53M9.588 3.89s.44.748 1.224.748l.814-.056.67-.7.914-.14a4.33 4.33 0 0 0-1.11-.46l-.765 1.068.486-1.135a7.312 7.312 0 0 0-.423-.08l-.657.92.407-.952a8.495 8.495 0 0 0-.5-.046l-.502.702.305-.713c-.71-.03-1.23.028-1.23.028l.175.15.193.664z" fill="#FFF"/><g fill="#fcb514"><path d="M7.465 5.87c-.315.074-.605.148-.867.22-.18.27-.334.593-.43.972.417.442.727.948.867 1.5.042-.046.098-.104.164-.167-.065-.25-.11-.54-.11-.87 0-.612.176-1.194.375-1.655M5.8 6.714c.024-.146.054-.286.09-.42-.17.052-.317.1-.442.14.123.09.24.183.353.28M20.893 7.024s-.41-.187-.935-.33c-.813.117-1.434-.225-1.434-.225-.675 0-1.136.107-1.53.305 4.353.383 4.9 1.35 4.61 2.42l.052-.004s.294-.55.636-.947c0 0-.443-.93-2-1.007l.6-.212zM10.857 6.45l-.466.11.54-1.263c-.82.08-1.585.194-2.273.323a3.188 3.188 0 0 0-1.255 2.587c0 .623.207 1.134.207 1.134-.17-.72.224-1.428.224-1.428s.908-.58 2.373-.853c.103-.124.252-.21.47-.265 1.05-.273 2.125-.866 2.692-1.616-.525-.002-1.037.014-1.53.044-.69.52-.983 1.226-.983 1.226M17.17 5.515a21.12 21.12 0 0 0-2.706-.308c.173.615.604.95.604.95l-.51.56c.92-.016 1.88.022 1.88.022l-.363.684.948-1.043.148-.865z"/></g><g fill="#002654"><path d="M15.612 2.903l-.516-.253-1.66.368s.343.392.343 1.062c0 .388-.153.76-.41 1.1-.567.75-1.643 1.342-2.693 1.615-.216.056-.366.142-.47.264a.656.656 0 0 0-.104.172l-.437 1.02c-1.314.56-1.526 1.733-1.423 2.398.035-.958 1.022-2.322 2.653-2.03 0 0 .23-.46.745-.845-.123-.28-.145-.61-.063-.96.006.343.093.63.234.847.147-.09.3-.167.462-.228-.047-.35.046-.717.273-1.063-.13.373-.138.715-.054.993.162-.044.33-.075.5-.088.05-.417.284-.793.674-1.087-.294.365-.426.745-.41 1.08.244.005.48.043.704.11l.602-.66.51-.56s-.433-.337-.605-.952a1.86 1.86 0 0 1-.07-.513c-.002-1.32 1.217-1.79 1.217-1.79M18.94 5.438c-.013-.27.03-.767-.97-1.077l-1.197-.368s.925.827.925 1.014a.592.592 0 0 0 .907.503l.02.242c.42.033.91-.033 1.034-.58-.172.395-.552.34-.72.266"/><path d="M19.194 5.36l.15-.575-1.17-.56c.763.45 1.02.7 1.02 1.136"/></g><path d="M18.373 5.416c.124 0 .217-.06.217-.06a2.976 2.976 0 0 0-.03-.125.243.243 0 0 1-.124.04.214.214 0 0 1-.22-.218.22.22 0 0 1 .163-.21c-.12-.168-.24-.24-.24-.24s-.207.116-.207.373.215.44.44.44" fill="#fcb514"/></svg>