<svg xmlns="http://www.w3.org/2000/svg" viewBox="0 0 24 16"><g fill="#002654"><path d="M20.528 1.184H6.435c.934 1.456 1.244 1.935.45 1.912l-1.17-1.912H3.47l5.093 8.32c-.07-.004-.138-.008-.207-.008-2.087 0-3.723 1.168-3.723 2.66s1.636 2.66 3.723 2.66c2.088 0 3.723-1.168 3.723-2.66 0-.378-.103-.74-.31-1.082L10.627 9.21s.918.186 1.607-.134l-.332-.428s1.4.13 2.69-.255l-.437-.463s1.964-.05 3.325-1.797h-.134s1.014-.488 1.44-1.57h-.132s.65-.484.87-1.478h-.19s1.033-.728 1.194-1.9z"/><path d="M11.21 14.254h.11v.336h.04v-.336h.12v-.04h-.27zM11.693 14.52l-.096-.306h-.065v.376h.04v-.32l.102.32h.04l.1-.32v.32h.04v-.376h-.064z"/></g><path fill="#FFF" d="M20.18 1.43H6.892c1.088 1.65.767 1.914-.143 1.914L5.575 1.43H3.91l5.117 8.358a5.065 5.065 0 0 0-.67-.047c-1.948 0-3.476 1.062-3.476 2.416 0 1.354 1.528 2.414 3.478 2.414 1.95 0 3.478-1.06 3.478-2.414 0-.332-.093-.652-.277-.954l-1.45-2.366s1.008.332 1.714.11l-.446-.574s1.664.14 2.776-.086l-.53-.562s2.48-.025 3.404-1.555h-.424s1.168-.165 1.758-1.427h-.432s1.006-.463 1.278-1.517h-.467c0 .002 1.045-.69 1.44-1.797z"/><path fill="#FCB514" d="M19.902 1.602H7.2c.752 1.146.895 1.99-.552 1.91l-1.17-1.91H4.22l5.156 8.422a4.7 4.7 0 0 0-1.016-.11c-1.822 0-3.304 1.006-3.304 2.242s1.48 2.242 3.304 2.242 3.305-1.006 3.305-2.242c0-.3-.084-.59-.25-.863L9.732 8.55s1.058.37 1.79.29c0 0-.333-.41-.48-.665 0 0 1.204.145 2.777.008l-.59-.626.154.002c2.552 0 3.32-1.31 3.32-1.31h-.694s1.723-.438 2.092-1.425h-.64s1.363-.668 1.497-1.425h-.78s1.36-.767 1.722-1.798z"/><path fill="#002F87" d="M19.608 1.785H7.525c1.002 1.635 0 2.004-.982 1.904L5.377 1.784h-.832L9.77 10.32a4.42 4.42 0 0 0-1.41-.223c-1.725 0-3.122.922-3.122 2.06 0 1.137 1.397 2.06 3.12 2.06 1.726 0 3.123-.923 3.123-2.06 0-.27-.08-.53-.224-.77L9.318 8.225s1.252.435 1.83.435c0 0-.264-.336-.423-.697 0 0 1.5.16 2.7.067l-.653-.69s.194.036.612.036c2.112 0 2.922-.94 2.922-.94h-6.28l-.092-.15h5.21s2.124-.406 2.637-1.276H9.155l-.092-.15h7.94s1.48-.713 1.69-1.275H8.282l-.093-.15h9.568c0-.002 1.395-.727 1.85-1.65z"/></svg>