<svg xmlns="http://www.w3.org/2000/svg" viewBox="0 0 24 16"><path d="M17.465 12.688a.32.32 0 0 0 0 .64.32.32 0 0 0 0-.64zm0 .572a.25.25 0 0 1-.25-.25c0-.14.11-.252.25-.252s.25.11.25.25a.25.25 0 0 1-.25.252z"/><path d="M17.596 12.935a.108.108 0 0 0-.108-.108h-.154v.364h.068v-.146h.05l.068.147h.076l-.072-.153a.112.112 0 0 0 .072-.102zm-.11.04h-.085v-.08h.087a.04.04 0 0 1 .04.04.04.04 0 0 1-.04.04zM19.537 2.215c0-1.375-1.262-1.977-2.532-1.93 0 0 .524.507.524.882 0 .2-.15.413-.567.413h-1.88c-.422 0-.674-.145-.674-.39 0-.398.626-.864.626-.864s-1.27.077-2.123.744a6.65 6.65 0 0 0-6.466 10.06.68.68 0 0 1-.34.088c-.466 0-.47-1.032-.47-1.032s-1.174 1.37-1.174 3.2c0 1.126.476 2.095.476 2.095s1.317-1.587 3.97-1.587c0 0-1.26-.505-1.26-1.115 0 0 .007-.064.05-.145a6.65 6.65 0 0 0 10.037-8.538c.64-.102 1.8-.54 1.8-1.88z"/><path fill="#CE1126" d="M17.57.58s.245.23.245.587-.278.7-.853.7h-1.88c-.73 0-.96-.375-.96-.676 0-.3.17-.462.17-.462s-1.845.36-1.845 1.86c0 1.262 1.41 1.258 1.41 1.258h.413L13.12 6.89l-1.75-2.216C11.262 4.537 10.836 4 10.202 4c-.88 0-1.265.99-1.396 1.335l-1.858 4.913s.688-.25 1.6-.25c.768 0 1.414.154 1.414.154l.86-2.277 1.095 1.984-.774.81c-.51.532-1.572.237-2.596.237-1.91 0-1.727.596-2.44.596-.507 0-.638-.614-.638-.614s-.722 1.192-.722 2.495c0 .846.298 1.59.298 1.59s1.488-1.27 2.99-1.27c0 0-.67-.32-.67-.928 0-.173.228-.727.967-.727 1.143 0 1.62.68 3 .68 1.934 0 3.007-1.198 3.385-2.196l2.53-6.688s2.004.004 2.004-1.63C19.252.713 17.57.58 17.57.58z"/><g fill="#FFF"><path d="M10.202 3.715c.354 0 .882.136 1.393.782l1.436 1.82.828-2.186s-1.694-.014-1.694-1.543c0-.333.073-.618.196-.86-.076-.003-.152-.006-.23-.006a5.952 5.952 0 0 0-5.43 8.383l1.842-4.87c.38-1.007.938-1.518 1.66-1.518zM14.984 10.635c-.436 1.15-1.623 2.38-3.65 2.38-1.38 0-1.917-.633-2.897-.676a5.95 5.95 0 0 0 8.815-7.695l-2.268 5.99z"/><path d="M10.937 10.472l.63-.658-.694-1.26-.732 1.935s-.755-.207-1.592-.207c-.65 0-1.24.146-1.626.27.048.087.098.172.15.256.3-.105.744-.188 1.476-.188 1.053 0 2.006.25 2.39-.15z"/></g></svg>