<svg id="Layer_1" xmlns="http://www.w3.org/2000/svg" viewBox="0 0 24 16"><style>.gold{fill:#f3bc52}.bg{fill:#ce1126}.fg{fill:#111}</style><g id="reg" class="fg"><path d="M10.642 14.334zm0 .75a.33.33 0 0 1 0-.66.33.33 0 1 1 0 .66z"/><path d="M10.814 14.657a.142.142 0 0 0-.143-.143h-.2v.48h.09V14.8h.064l.09.194h.1l-.094-.203a.142.142 0 0 0 .094-.133zm-.142.052h-.112v-.105h.112c.03 0 .053.023.053.053s-.024.05-.053.05z"/></g><path class="fg" d="M20.176 6.788s.19-.55.19-1.412c0-2.6-2.065-4.55-4.93-4.55-2.195 0-3.768 1.48-4.684 1.48-.377 0-.824-.76-.824-.76s-.622.31-.505 1.048c0 0-.495-.292-1.297-.292-.98 0-1.76.624-1.987 1.17-1.15.442-.95.965-1.93 1.057 0 0 .04 1.034 1.135 1.264-.562.562-1.712.67-1.712.67 0 .354.8 1.264 2.382 1.002-.407.583-.072 1.147-1.16 1.668 0 0 .135.222.7.366 0 0 .02.494.16.993 0 0-.598-.148-1.045.074 0 0 .578.44.636 1.26.064.925.565 2.346 2.114 2.193-.234.178-.7.352-.7.352s.424.71 1.488.71c1.09 0 1.384-1.165 2.452-1.165 1.007 0 1.487.753 3.127.753 3.438 0 5.875-3.41 6.148-5.676H15.7s-.448 1.55-1.51 1.55c-.687 0-1.39-.476-1.39-1.773 0-1.393 1.18-3.872 2.885-3.872.508 0 .676.397.676.858 0 .5-.194 1.032-.194 1.032h4.01zM7.473 9.878c-.783 0-1.08-.605-1.08-.605.26-.058.413-.48.663-.48.27 0 .292.384 1.388.746-.1.045-.453.34-.97.34z"/><path fill="none" d="M7.08 8.987c-.188 0-.26.295-.444.335 0 0 .246.383.824.383.3 0 .59-.164.59-.164-.76-.18-.81-.553-.97-.553z"/><path class="gold" d="M20.037 6.612s.143-.537.143-1.236C20.18 2.89 18.24.99 15.436.99c-2.023 0-3.74 1.5-4.665 1.5-.393 0-.88-.675-.88-.675s-.537.36-.15 1.18c0 0-.635-.515-1.6-.515-1.414 0-1.863 1.132-1.863 1.132-1.075.375-.996.977-1.865 1.046 0 0 .096.95 1.27.987-.448.83-1.816.953-1.816.953s.388.726 1.587.726c.774 0 1.313-.3 1.313-.3-1.2.647-.427 1.544-1.612 2.128 0 0 .26.147.577.2 0 0 .023.746.265 1.458 0 0-.333-.273-.988-.158 0 0 .442.5.476 1.133.054 1.017.603 2.068 1.65 2.068.582 0 .9-.28.9-.28-.14.53-1.046.878-1.046.878s.48.45 1.193.45c1.113 0 1.272-1.178 2.462-1.178.91 0 1.698.786 3.146.786 3.66 0 5.764-3.852 5.934-5.328H15.83s-.505 1.543-1.638 1.543c-1.02 0-1.574-.767-1.574-1.953 0-1.505 1.21-4.068 3.078-4.068.682 0 .873.557.873 1.01 0 .492-.155.9-.155.9h3.622zm-13.4 2.71c.183-.04.255-.335.444-.335.16 0 .21.373.97.554 0 0-.29.165-.59.165-.578 0-.824-.383-.824-.383z"/><path class="bg" d="M19.703 6.22s.092-.32.092-.844c0-2.207-1.867-4.01-4.36-4.01-1.93 0-3.452 1.506-4.685 1.506-.463 0-.762-.426-.762-.426s.035.958 1.283 1.47c-1.512-.07-1.91-1.08-3.08-1.08-1.157 0-1.596.914-1.596.914s.304-.294.756-.294c1.125 0 1.055 1.127 2.44 2.108-.796 0-1.103-.428-2.075-.428-1.938 0-1.514 1.28-3.03 1.635 0 0 .29.217.74.217 1.065 0 1.072-.522 1.834-.522.78 0 .664.562 1.59 1.217-.214.066-.853-.416-1.493-.416-.635 0-.978.443-1.08 1.032-.102.592-.414.742-.414.742.637.038.685-.644 1.144-.644.436 0 .71.596 1.27.71.452.09.986.214 1.188.542-.952.093-1.14.573-1.99.573-.962 0-1.37-.752-1.37-.752-.052 1.125.688 2.63 1.99 2.63.683 0 1.173-.24 1.667.026-1.594.454-.954 1.814-2.042 2.324 0 0 .183.09.46.09.92 0 1.09-1.234 2.462-1.234 1.016 0 1.783.794 3.14.794 2.986 0 5.158-3.057 5.412-4.523H16.11s-.572 1.562-1.918 1.562c-1.31 0-1.992-.995-1.992-2.368 0-1.96 1.532-4.485 3.492-4.485.857 0 1.312.737 1.312 1.388 0 .336-.088.547-.088.547h2.787z"/><path class="bg" d="M8.292 4.633s-.54-.73-1.394-.73c-1.076 0-1.403.888-2.05.957 0 0 .217.398.89.398 1.41 0 1.24-1.024 2.554-.625zM9.008 12.257c-.636-.232-1.035.23-1.606.23-1.015 0-1.047-1.214-1.745-1.44 0 0 .163.352.163.567 0 .39.233 1.883 1.323 1.883.913 0 .887-.726 1.865-1.24z"/><path class="fg" d="M6.392 9.272s.298.606 1.08.606c.52 0 .87-.294.972-.34-1.096-.362-1.118-.747-1.388-.747-.25 0-.405.425-.664.482zm1.66.27s-.29.163-.592.163c-.578 0-.824-.383-.824-.383.184-.04.256-.335.445-.335.16 0 .21.373.97.554z"/></svg>