<svg xmlns="http://www.w3.org/2000/svg" viewBox="0 0 24 16"><path d="M19.585 9.032c0 .212.172.385.387.385a.386.386 0 0 0 0-.774.388.388 0 0 0-.387.39zm.69 0a.304.304 0 1 1-.607 0 .304.304 0 0 1 .607 0z"/><path d="M19.812 9.253h.083v-.18h.06l.083.18h.092l-.087-.188a.128.128 0 0 0 .087-.125.13.13 0 0 0-.13-.13h-.188v.443zm.084-.36H20a.048.048 0 0 1 0 .098h-.104v-.096z"/><path d="M18.96 9.22c.58-.794.914-1.63.914-2.456 0-1.883-1.877-3.313-5.14-3.313-.117 0-.236.003-.355.007-.302-.592-.985-.87-1.44-.952l-.847-1.34-1.923 3.14c-3.435 1.263-6.215 3.735-6.215 6.12 0 .856.39 1.62 1.123 2.197l-1.42 2.32s2.934-.425 6.31-.606l.248-.655c1.344-.13 2.694-.48 3.938-.99a.788.788 0 0 0 .056.43l.222.446c.355.706.995 1.367 2.097 1.367 3.077 0 3.986-2.562 3.986-2.562 0-1.432-.658-2.47-1.557-3.15z" fill="#2a6190"/><g fill="#adafaa"><path d="M12.554 11.493c-1.563 0-2.61.783-4.032.783-1.98 0-2.59-1.398-2.59-2.366 0-2.98 3.515-4.778 3.515-4.778l.07-.113c-.012.004-.04.02-.087.042-.583.287-3.738 1.974-3.738 4.848a2.635 2.635 0 0 0 .43 1.463l-2 3.263s2.465-.352 5.677-.53l.744-1.97c.652-.192 1.288-.386 2.108-.386 1.74 0 2.856.933 2.856.933s-.636-1.19-2.954-1.19z"/><path d="M12.674 2.526l-.58-.913L7.948 8.39c0 .08.007.228.038.396.088.48.376 1.16 1.313 1.16 1.875 0 4.584-1.732 6.646-1.732a4.075 4.075 0 0 1 .334.013l-3.605-5.7z"/></g><g fill="#75263d"><path d="M12.1 2.064l-4.115 6.72c.088.482.376 1.162 1.313 1.162 1.875 0 4.584-1.733 6.646-1.733.015 0 .03 0 .045.002l-3.89-6.15M6.275 11.578l-1.687 2.756s2.1-.28 5.044-.457l.627-1.66c-.56.16-1.15.298-1.897.298-.837 0-1.594-.345-2.088-.937z"/></g><path d="M19.974 12.72c-.03-.483-.4-1.164-.4-1.164-.195.3-.517.65-.612.75l-.002.896-.058.006-.122.012-.31-.478c-2.24 1.572-3.92.605-3.92.605l.503.775c.9 1.15 3.836.736 5.088-1.396l-.166-.006z"/><g fill="#FFF"><path d="M10.71 12.38l-.2.527c1.182-.04 2.38-.28 3.49-.667-1.22-.566-3.1.072-3.29.14zM9.43 5.062c-2.637 1.024-4.68 2.86-4.68 4.704 0 .798.355 1.417.92 1.89l.314-.514a2.642 2.642 0 0 1-.292-1.232c0-2.875 3.154-4.562 3.738-4.848zM18.608 8.98c.315-.52.49-1.06.49-1.6 0-2.058-2.375-2.94-4.572-3.115-.015.17-.054.354-.122.555l2.176 3.44c.68.09 1.396.327 2.028.72zM13.554 3.92a.94.94 0 0 1 .69.56c.18-.683-.044-1.682-1.57-1.952a4.56 4.56 0 0 0-.592-.063l-.118.568-.398.122-.245.89-.32.26-.47.765c1.034-.73 2.01-1.178 2.723-1.18.108.002.207.01.3.03z"/><path d="M15.945 8.402c-2.26 0-4.74 1.76-6.688 1.76-.58 0-.753-.214-.753-.214l-.084.13s-2.388-1.146.873-4.694c0 0-2.807 1.464-3.03 4.426l.17-.142s-.09 1.994 2.168 1.994c1.815 0 2.46-.674 4.144-.674 3.593 0 4.17 2.048 4.17 2.048s-2.356.693-2.512-.606c0 0-.36 1.523 2.66.758 0 0 .19-.3.167-.688 0 0 .278.28.325.492 0 0 .23-.26-.138-.964 0 0 .313.286.518.703l.126-.105s.01-.305-.597-1.123l-.412.26s-.96-1.815-4.53-1.583c0 0 2.974-1.056 4.703 1.093l.373-.255s1.038 1.008 1.305 2.188l.058-.005.003-.894.005-1.07.3.353s.145-.266-.028-.818c0 0 .7.683.906 1.957l.056-.71c-.004-.613-1.018-3.618-4.255-3.618z"/></g><g fill="#adafaa"><path d="M12.124 6.91L11.28 9.16s-1.178.444-1.955.57c1.557.12 4.263-1.644 6.03-1.644-.798-.25-2.71.505-2.71.505l-.52-1.68zM11.05 4.54c1.907-1.066 2.688-.78 2.98-.524-.908-.952-2.82.28-2.82.28l-.16.243zM17.363 13.903l.138-.228c-1.864.617-2.636-.02-2.636-.02.63.708 1.99.4 2.5.248z"/><path d="M15.146 14.034c.538.657 2.173.59 3.452-.177l.096-.253c-.8.55-2.587 1.06-3.548.43z"/></g><g fill="#2a6190"><path d="M12.103 7.644l-.518 1.374.84-.345c-.1-.32-.214-.68-.322-1.03zM13.914 3.715c-.645-.614-2.168-.112-2.168-.112l-.042.163c1.534-.573 2.21-.05 2.21-.05z"/><path d="M17.018 8.705s1.07.332 1.55 1.276l-.208.364-.025.374-.337-.362-.177.11S16.9 9.17 14.623 9.17c-2.37 0-3.458 1.403-5.49 1.403-2.584 0-1.848-2.593-1.675-3.12 0 0-.503.94-.503 1.8 0 .464.08 1.636 2.04 1.636 1.8 0 3.597-1.517 5.696-1.517 1.463 0 2.713 1.04 3.038 1.45l.235-.123.482.508.104-.768.29-.448c-.002.002-.422-1.02-1.822-1.285zM19.264 11.588l-.3-.352-.003 1.07c.096-.102.418-.452.614-.75 0 0 .37.68.4 1.163l.167.007c-.205-1.274-.906-1.957-.906-1.957.175.553.03.818.03.818z"/></g></svg>