<svg id="Layer_2" xmlns="http://www.w3.org/2000/svg" viewBox="0 0 24 16"><style>.silver{fill:#a4a9ad}.bg{fill:#111}.high{fill:#b5985a}.fg{fill:#f95602}</style><g id="reg" class="bg"><path d="M19.663 11.282l-.086-.184a.13.13 0 0 0-.043-.252h-.184v.436h.082v-.177h.06l.082.177h.09zm-.13-.26h-.102v-.095h.104a.048.048 0 1 1 0 .096z"/><path d="M19.89 11.064a.383.383 0 1 0-.767 0 .383.383 0 0 0 .766 0zm-.683 0a.3.3 0 1 1 .6 0 .3.3 0 0 1-.6 0z"/></g><path class="silver" d="M14.162 2.26c-5.48 0-9.844 3-9.844 3s5.38-.432 5.38.682c0 .976-4.26 2.565-4.26 2.565s3.36.088 3.36.9c0 1.368-6.98 3.21-6.98 3.21s2.445 1.124 6.265 1.124c6.84 0 14.1-3.878 14.1-6.9 0-2.785-4.084-4.58-8.02-4.58z"/><path class="bg" d="M14.162 2.505c-3.958 0-7.355 1.608-8.866 2.452 0 0 4.646-.327 4.646.984 0 .818-1.997 1.8-3.392 2.387 1.146.11 2.492.385 2.492 1.078 0 1.277-4.277 2.643-6.433 3.25.972.324 2.917.84 5.473.84 6.874 0 13.856-3.873 13.856-6.657-.002-2.677-4.04-4.333-7.778-4.333z"/><path class="fg" d="M6.802 12.6l-.807.215s.722.08 1.858.08c8.155 0 13.57-4.962 13.57-5.752a.498.498 0 0 0-.028-.16c-2.89 3.438-8.63 5.81-14.593 5.618z"/><path d="M14.26 3.177c-3.045 0-6.362 1.18-6.362 1.18s3.413-.17 3.413 1.257c0 1.33-2.41 2.308-2.41 2.308s1.463.343 1.463 1.188c0 1.924-4.746 3.118-4.746 3.118 9.958.483 15.646-4.84 15.646-5.825 0-.916-2.77-3.226-7.003-3.226z" fill="#FFF"/><path class="high" d="M14.26 3.372c-1.91 0-3.944.476-5.17.82 0 0 2.416.1 2.416 1.42 0 1.077-1.347 1.906-2.078 2.277.477.192 1.13.575 1.13 1.22 0 1.43-2.28 2.448-3.73 2.95 9.03 0 14.238-4.8 14.238-5.658 0-.78-2.673-3.03-6.806-3.03z"/><path d="M12.592 4.812s2.668.602 3.86 1.4l-5.2 1.346 4.932-.16c-1.1.803-5.107 2.726-5.107 2.726s4.926-.733 8.04-3.578c-2.77-2.49-6.525-1.734-6.525-1.734z" fill="#FFF"/><path class="bg" d="M13.734 4.907s2.064.527 3.19 1.384L13.01 7.306l3.8-.124c-1.06.894-4.188 2.4-4.188 2.4 1.645-.435 4.243-1.34 6.185-3.03-1.73-1.447-3.82-1.67-5.073-1.643z"/></svg>