<svg xmlns="http://www.w3.org/2000/svg" viewBox="0 0 24 16"><g fill="#111"><path d="M16.445 14.702a.358.358 0 0 0-.717 0 .36.36 0 0 0 .717 0zm-.64 0a.282.282 0 1 1 .563 0 .282.282 0 0 1-.563 0z"/><path d="M16.234 14.906l-.08-.173a.122.122 0 0 0-.04-.237h-.174v.41h.077v-.166h.055l.078.166h.084zm-.12-.243h-.097v-.09h.096c.025 0 .045.02.045.046 0 .023-.02.043-.045.043z"/></g><path fill="#006847" d="M5.924 12.45H4.328l2.174-3.64L3 5.99h5.188l.556-.933h1.645L13.442 0l.513 5.083c.86.087 1.562.397 2.048.906h6.47l-6.148 3.29a5.324 5.324 0 0 1-.23.442c-.407.7-.9 1.246-1.503 1.664l.432 4.288L11 12.432c-.192.01-.39.017-.59.02L3.78 16l2.144-3.55z"/><path fill="#111" d="M6.518 12.113H4.92l2.02-3.38-2.988-2.41H8.38l.556-.93h1.643l2.63-4.358.44 4.362c.97.042 1.73.36 2.205.927h5.28l-5.07 2.716a5.14 5.14 0 0 1-.264.515c-.415.717-.93 1.264-1.564 1.666l.373 3.69-3.5-2.82a13.36 13.36 0 0 1-.786.023L4.7 15.126l1.818-3.013z"/><path fill="#FFF" d="M18.46 6.995h-2.957c-.315-.582-1.036-.93-2.07-.93h-.39l-.3-2.96-1.786 2.96h-1.64l-.557.93H5.854l1.96 1.58-1.71 2.866H8.91l-1.435.39-.937 1.55 3.618-1.938h.15c.365 0 .702-.015 1.017-.04l2.456 1.98-.216-2.063c-.664.07-1.307.014-1.604.006 1.728-.276 2.636-1.03 3.263-2.107.428-.733.547-1.39.405-1.91.245.3.372.606.42.99l2.41-1.305z"/><path fill="#8F8F8C" d="M13.564 11.316l.215 2.062-1.072-2.025a7.1 7.1 0 0 0 .856-.037m-.82-8.212l-.7 2.96h1l-.3-2.96zm-4.44 4.654l-2.45-.763 1.96 1.58.49-.817zm1.5-.253h2.43c.702 0 1.12.13 1.225.49l1.015-.497c-.276-.644-1.067-.715-1.562-.715H9.998l-.006-.002-2.322 3.894 1.57-.768 1.172-1.912-.61-.49zm5.7-.51l-1.03.504c.068.174.162.592-.093 1.214-.29.708-1.16 1.96-3.53 1.96H7.67l-1.567.768H8.91l-.36.098-2.012 1.84 3.618-1.94h.15c.365 0 .702-.015 1.017-.038l.637-.078c1.728-.276 2.636-1.03 3.263-2.107.428-.732.547-1.39.405-1.91 0 0-.05-.166-.125-.312m.35.65c.105.2.167.412.194.654l2.41-1.306-2.603.652z"/><path fill="#111" d="M12.234 7.505h-2.43l.608.49-1.17 1.91h1.61c.537 0 1.157-.02 1.673-.322.65-.382 1.037-1.056.947-1.528-.076-.406-.497-.55-1.238-.55z"/></svg>