<svg xmlns="http://www.w3.org/2000/svg" viewBox="0 0 24 16"><path fill="#111" d="M18.518.22H5.482V11.07l.104.075 6.266 4.527.148.108.148-.107 6.265-4.527.104-.075V.22z"/><path fill="#FFF" d="M5.734 10.97L12 15.497l6.266-4.53V.502H5.734v10.47z"/><path fill="#111" d="M16.395 13.434a.128.128 0 0 0-.127-.127h-.182v.43h.08v-.176h.058l.08.177h.09l-.084-.182a.135.135 0 0 0 .085-.12zm-.127.046h-.102v-.094h.102c.025 0 .046.02.046.047s-.02.047-.046.047z"/><path fill="#111" d="M16.24 13.145a.375.375 0 1 0 0 .75.375.375 0 0 0 0-.75zm0 .67a.294.294 0 1 1 .294-.294.293.293 0 0 1-.294.294z"/><g fill="#ACAEA9"><path d="M6.147 10.758L12 14.988l5.852-4.23V8.183H6.147v2.575zM6.147 7.82H17.85V.916H6.148V7.82z"/></g><g fill="#111"><path d="M6.517 10.57L12 14.533l5.482-3.963V8.824H6.517v1.746zM6.517 7.277h10.966V1.284H6.517v5.993z"/></g><g fill="#ACAEA9"><path d="M7.86 5.582v-1.3c0-1.51.352-2.05.352-2.05H6.846s.352.54.352 2.05c0 1.508-.352 2.047-.352 2.047h4.46s.373-.507.373-1.278c0 0-.51.53-1.705.53H7.86zM12.07 2.232s.352.54.352 2.05c0 1.508-.353 2.047-.353 2.047h1.014V4.802h3.057V6.33h1.015s-.353-.54-.353-2.05c0-1.51.353-2.048.353-2.048H12.07z"/></g><g fill="#FFF"><path d="M12.223 2.327c.106.25.294.846.294 1.955 0 1.108-.188 1.703-.294 1.953h.767V4.708h3.246v1.526h.766c-.106-.25-.293-.845-.293-1.953s.186-1.703.292-1.954h-4.78zM7.766 5.677V4.28c0-1.108.187-1.703.294-1.954H7c.105.25.292.846.292 1.955 0 1.11-.187 1.704-.293 1.954h4.256c.07-.11.27-.47.316-.98-.243.167-.75.423-1.598.423H7.766z"/></g><path fill="#ACAEA9" d="M12.99 4.15h3.245V2.885H12.99V4.15z"/><path d="M13.084 2.98h3.057v1.076h-3.056z"/><path fill="#FFF" d="M13.647 12.633l.408-2.332-.086-.036s-.33.443-.395.527a1.64 1.64 0 0 0-.746-.49l.154-.378-.28.113.018-.033-.347.018c-.024-.04-.188-.332-.21-.37l.087-.155.088-.074-.1-.19-.212.015-.004.118-.024.04-.024-.04-.005-.118-.21-.015-.1.19.086.073.09.154-.21.37c-.05 0-.35-.017-.35-.017l.02.033c-.085-.033-.28-.113-.28-.113l.154.38a1.65 1.65 0 0 0-.747.49c-.062-.085-.394-.528-.394-.528l-.085.037.406 2.33s.58.15 1.65.15c1.07 0 1.647-.147 1.647-.147z"/><path d="M11.662 12.674s-.53-.05-.844-.17c.214.03.562.072.88.072 0 0-.43-.043-.715-.15.216.027.522.06.805.06 0 0-.42-.042-.705-.147.256-.056.57-.1.917-.1s.66.044.916.1c-.285.104-.704.147-.704.147.28 0 .588-.033.804-.06-.285.106-.715.15-.715.15.318 0 .667-.042.882-.073-.314.12-.845.17-.845.17.78-.02 1.242-.137 1.242-.137l.356-2.08-.362.484c-.16-.26-.47-.468-.865-.583l.108-.266-.56.25v-.136L12 9.76l-.26.445v.137l-.56-.25.108.266c-.396.115-.704.324-.864.584l-.362-.484.358 2.08s.463.114 1.242.136z" fill="#111"/><g fill="#ACAEA9"><path d="M11.74 10.393l-.473-.21.473 1.15v-.94zM12.26 10.393v.94l.473-1.15-.474.21zM12.21 10.373l-.21-.275-.212.275.212.252.21-.252z"/><path d="M13.656 11.81a.204.204 0 0 1-.164-.202c0-.113.087-.205.193-.205a.13.13 0 0 1 .04.004l.132-.766-.573.767c.013.367-.077.516-.077.516s-.19-.078-.406-.12l-.073-.372a.158.158 0 0 1-.088-.026h-.003l-.19.342s-.236-.023-.355-.023l.107-.328-.2-.512-.197.51.106.328c-.12 0-.358.024-.358.024l-.174-.316c-.01.002-.022.002-.034.002a.15.15 0 0 1-.067-.016l-.078.387c-.215.044-.407.122-.407.122s-.09-.148-.077-.516l-.573-.766.132.766c.013-.004.026-.004.04-.004a.2.2 0 0 1 .194.205.203.203 0 0 1-.166.203l.114.662c.18-.07.787-.28 1.543-.28.756 0 1.363.21 1.544.28l.112-.66z"/></g><g fill="#111"><path d="M12.09 10.365a.09.09 0 0 0-.09-.09c-.05 0-.088.04-.088.09s.038.088.088.088a.09.09 0 0 0 .09-.088zM12.48 10.457a.09.09 0 0 0-.07-.035c-.05 0-.09.04-.09.09 0 .04.03.076.067.086a.1.1 0 0 0 .047.014.083.083 0 0 0 .084-.084.084.084 0 0 0-.04-.07zM11.623 10.457a.09.09 0 0 0-.07-.035c-.05 0-.09.04-.09.09 0 .04.03.076.068.086.015.008.03.014.048.014a.083.083 0 0 0 .084-.084.084.084 0 0 0-.04-.07z"/></g><g fill="#FFF"><path d="M10.49 11.03l.098.13c.24-.47.722-.523.722-.523-.412.154-.585.395-.64.633l.092.12s-.012.333.055.474a.392.392 0 0 1 .07-.025c-.214-.886.482-1.048.482-1.048-.493.254-.446.707-.347 1.004l.136-.033.073-.367a.17.17 0 1 1 .196-.262c.045.03.076.08.076.137a.16.16 0 0 1-.084.142l.157.285a5.1 5.1 0 0 1 .255-.018l-.505-1.23c-.39.114-.697.325-.838.58zM12.593 11.383a.17.17 0 1 1 .222-.25c.046.03.076.08.076.137a.16.16 0 0 1-.117.154l.07.338.134.033c.1-.297.145-.75-.348-1.004 0 0 .696.163.482 1.048.026.008.05.016.07.025.066-.14.055-.473.055-.473l.094-.12c-.056-.24-.227-.48-.64-.634 0 0 .48.053.72.523l.1-.132c-.14-.254-.446-.465-.838-.58l-.504 1.23c.086.003.17.01.254.017l.17-.312z"/><path d="M11.294 11.092a.145.145 0 0 0 0 .29c.08 0 .146-.065.146-.145s-.066-.145-.146-.145zM12.825 11.236c0-.08-.065-.145-.146-.145s-.146.065-.146.146.064.146.145.146.145-.066.145-.146zM10.373 11.607c0-.035-.026-.064-.06-.064a.04.04 0 0 0-.016.002l.02.125a.06.06 0 0 0 .056-.063z"/><path d="M10.313 11.424a.124.124 0 0 0-.037.006l.004.023a.096.096 0 0 1 .033-.006c.082 0 .146.072.146.16 0 .08-.055.145-.127.156l.005.023a.18.18 0 0 0 .146-.18c0-.1-.077-.182-.17-.182zM13.626 11.607c0 .033.023.06.055.062l.022-.126c-.005-.002-.01-.002-.017-.002-.033 0-.06.03-.06.065z"/><path d="M13.66 11.787l.005-.023a.155.155 0 0 1-.126-.156c0-.088.064-.16.145-.16.012 0 .02.002.033.006l.005-.023a.13.13 0 0 0-.038-.005c-.094 0-.17.082-.17.184 0 .09.063.163.146.177zM12.075 10.365c0-.04-.033-.076-.075-.076s-.076.034-.076.075c0 .043.034.076.076.076s.075-.032.075-.075zM12.408 10.586a.074.074 0 0 0 .076-.074.075.075 0 0 0-.076-.076.076.076 0 0 0-.076.076c0 .04.035.074.076.074zM11.552 10.586a.074.074 0 0 0 .076-.074.075.075 0 0 0-.076-.076.075.075 0 0 0 0 .15z"/></g><g fill="#111"><circle cx="11.294" cy="11.236" r=".129"/><circle cx="12.68" cy="11.236" r=".129"/><path d="M11.995 11.45a.09.09 0 0 0 .033.01.078.078 0 0 0 .077-.08.076.076 0 0 0-.043-.067c.01.014.02.033.02.053a.086.086 0 0 1-.087.085z"/><circle cx="11.995" cy="11.365" r=".068"/><circle cx="12" cy="10.365" r=".067"/><circle cx="12.408" cy="10.511" r=".067"/><circle cx="11.552" cy="10.511" r=".067"/><path d="M11.598 12.043h-.002c.01.004.022.008.034.008a.077.077 0 0 0 .077-.077.078.078 0 0 0-.043-.068c.012.016.02.033.02.053a.086.086 0 0 1-.086.085zM10.938 12.158h-.002c.01.008.02.01.034.01a.077.077 0 0 0 .077-.076c0-.03-.018-.06-.043-.07.012.016.02.03.02.053-.002.046-.04.083-.086.083zM12.355 12.043a.08.08 0 0 0 .032.008.077.077 0 0 0 .077-.077.078.078 0 0 0-.043-.068c.012.016.02.033.02.053a.086.086 0 0 1-.085.085zM13.016 12.158c.01.008.02.01.033.01a.076.076 0 0 0 .075-.076c0-.03-.018-.06-.043-.07.013.016.02.03.02.053 0 .046-.04.083-.086.083z"/><circle cx="11.598" cy="11.958" r=".069"/><circle cx="10.938" cy="12.073" r=".069"/><circle cx="12.355" cy="11.958" r=".069"/><circle cx="13.016" cy="12.073" r=".069"/><path d="M10.282 11.375l.083.004-.036-.11zM10.475 11.438l.024-.112-.094.067zM10.615 11.46l-.112.01.035.073zM10.538 11.668l.11-.03-.102-.052zM10.528 11.697l-.045.07.11.024zM10.366 11.834l.08.08-.004-.113zM13.67 11.27l-.037.11.084-.005zM13.594 11.393l-.093-.067.024.112zM13.497 11.47l-.113-.01.077.083zM13.454 11.586l-.102.05.11.032zM13.405 11.79l.112-.022-.046-.07zM13.557 11.8l-.004.114.08-.08zM11.72 10.188l.28-.48.278.48h.224l.025-.053h-.22l-.278-.48.136-.233.033-.033-.024-.036-.05.005-.008.042-.118.203-.117-.203-.01-.043-.05-.006-.022.035.034.032.136.234-.278.48h-.22l.026.052z"/></g></svg>