<svg xmlns="http://www.w3.org/2000/svg" viewBox="0 0 24 16"><path d="M18.215 4.487L16.71 6.894c.163-.077.337-.156.51-.235l1.608-2.602s-2.734.598-5.225.85c.06.093.117.186.176.28 1.708-.18 3.49-.51 4.435-.7z"/><path d="M18.456 10.847c-.208-.865-.24-1.022-.702-1.255l-.075-.098c.846-1.517 1.458-3.327 1.458-3.543 0-.052-.023-.067-.056-.05-1.347.682-2.826 1.29-3.154 1.52l-.087.12a18.706 18.706 0 0 0-1.586-1.268C12.748 3.316 10.438 1.24 8.95.495c0 .31 1.472 2.577 1.698 4.483-2.665-.182-6.045-.92-6.045-.92l2.91 4.71c-2.39.146-4.488.196-4.488.196 0 .166 2.67 1.442 6.61 2.334.863.195 1.504.164 1.924.164a19.82 19.82 0 0 0-.236-.252c.57.348 1.093.695 1.562 1.008l-.388.002c-.948 0-1.664-.05-2.117-.084l-.41-.652a9.842 9.842 0 0 1-.43-.087c-.18-.04-.353-.082-.47-.11l.595.963c-.558.4-1.986 1.613-3.02 3.304l.09.167s1-.06 1.844-.085c0 0 .378-1.08 1.734-2.333l1.4 2.264 1.697-2.747c.11-.013.222-.025.335-.04.117.074.23.144.34.206a.386.386 0 0 0-.146.146s.097.067.103.2c0 0 .084.013.172-.013 0 0 .06-.092.11-.2.112.057.217.105.315.145 0 .095.016.165.016.165s.107.033.238-.083c.752.172 1.202.026 1.202.026.764.226 1.152-.027 1.152-.027.3.13.55.205 1.368.205.445 0 .592-.053.592-.128.004-.36-.374-1.822-.752-2.575z"/><path d="M18.676 10.58l.028.1s.244.168.422.218l.14-.103s-.08-.104-.054-.257c-.186-.12-.536.043-.536.043zM20.392 6.41l-.192.34.042.262c-.86 1.692-1.817 3.223-1.817 3.223l.118.287.14-.097.096.008s.916-.877 2.084-3.14c0 0 .34.01.365-.263.027-.277.046-.47.046-.58-.422-.154-.884-.04-.884-.04z"/><path fill="#FFF" d="M14.116 12.077c-.307.1-.438.03-.438.03.06-.062.1-.18.1-.18-.272.076-.357 0-.357 0 .045-.025.09-.13.09-.13-.354 0-.547.06-.547.06.293.036.484.165.647.33.23-.016.37-.036.47-.053l.036-.057zM15.253 13.105c.208-.123.36-.24.36-.24-.685.03-.942-.053-.942-.053.123-.122.275-.228.372-.324-.073.012-.15.02-.223.025-.002.033-.04.07-.143.135-.205.032-.406.062-.604.09.056.06.116.117.183.173l.148-.047c0 .04-.01.09-.027.138.08.057.173.107.276.15a.523.523 0 0 1 .07-.2c.036.01.055.11.074.138.05.074.117.086.13.147.287.066.65.084 1.13.023l.134-.107c-.7.014-.937-.045-.937-.045z"/><path fill="#FFF" d="M13.52 11.898s.15.01.322-.052c0 0 .01.115-.07.22 0 0 .147-.002.446-.07 0 0-.025.06-.062.126a.74.74 0 0 1 .138-.016c.097 0 .108.02.192.02.16 0 .18.034.202.22.033.047.07.08.096.107.118-.01.254-.022.39-.042 0 0-.15.212-.38.368 0 0 .636.06.966.02 0 0-.142.172-.34.272 0 0 .44.028.914.02 0 0-.093.103-.186.178 0 0 .584.13 1 .032-1.5-.597-2.326-1.5-3.58-1.5-.02.054-.047.098-.047.098zM7.47 14.6l-.336.432s.992-.154 1.587-.064l.166-.283c-.325-.17-1.416-.085-1.416-.085z"/><path fill="#FFF" d="M7.624 14.406l-.104.13s1.025-.077 1.397.096l.243-.365c-.33-.055-1.536.14-1.536.14zM7.8 14.19l-.117.144s1.227-.19 1.517-.12l.02-.03c-.303-.1-1.42.005-1.42.005zM8.214 13.714l-.356.408s.993-.104 1.402.012l.412-.477c-.418-.07-1.458.057-1.458.057zM8.748 13.178l-.472.468s.87-.118 1.444-.043l.225-.25c-.215-.182-1.197-.175-1.197-.175z"/><path fill="#FFF" d="M8.838 13.096l-.025.022s.85-.014 1.174.19l.05-.052c-.264-.15-1.2-.16-1.2-.16z"/><path fill="#FFF" d="M9.307 12.69l-.405.35s.944.016 1.176.172l.348-.343c-.306-.176-1.12-.18-1.12-.18zM8.765 15.005l.012.086.137-.236-.015-.083zM8.946 14.696l.013.082.227-.333-.016-.093zM9.22 14.284l.014.1.023-.03-.02-.096zM9.284 14.196l.02.1.387-.436-.015-.12zM9.726 13.685l.016.12.235-.25-.03-.115zM9.993 13.39l.03.115.046-.047-.017-.133zM10.104 13.27l.016.135.308-.3-.004-.158z"/><path d="M13.056 15.234a.33.33 0 1 0-.33.33.33.33 0 0 0 .33-.33zm-.59 0a.26.26 0 1 1 .52 0 .26.26 0 0 1-.52 0z"/><path d="M12.86 15.423l-.073-.16a.112.112 0 0 0-.037-.217h-.16v.377h.07v-.154h.052l.07.153h.08zm-.11-.224h-.09v-.084h.09c.022 0 .04.02.04.042s-.018.04-.04.04z"/><g fill="#EA7200"><path d="M14.104 13.262c.116-.156.194-.256.214-.318-.103.044-.234.068-.305.177 0 0 .05.05.09.142zM14.7 13.37s.077-.01.146-.078c0 0-.073-.11-.115-.215-.05.13-.03.292-.03.292zM14.343 10.63c.062.492.18.7.18.7s.186.147.54.29c-.358-.66-.72-.99-.72-.99zM10.474 12.828l.142-.08s.585.095 4.086-.267c-.084-.06-.125-.048-.125-.187 0-.045.007-.053-.068-.053-.078 0-.11-.02-.2-.02-.113 0-.28.112-1.995.112-1.365 0-2.32-.114-2.385-.114-.062 0-.186.116-.55.41 0 .002.718-.007 1.094.2zM8.69 15.02c-.526-.1-1.612.082-1.612.082l-.292.42 1.7-.08.205-.42zM20.388 6.952c-.568 1.02-1.188 2.375-1.863 3.21l.195-.12.042-.043-.035.114.082-.04-.125.22.115-.094s.58-.65 2.043-3.294c-.325-.05-.455.046-.455.046zM20.447 6.555l-.118.188s.285-.054.667-.022l.138-.193c-.42-.08-.688.028-.688.028z"/><path d="M18.642 10.183s-.054.044-.138.067l.07.15.045-.033-.02-.055.075-.14-.033.01zM19.15 10.575c-.12-.062-.352.03-.352.03s.235.055.368.115c0 0-.022-.054-.016-.145zM12.862 12.873a26.917 26.917 0 0 1-1.948.11l-.24.002c-.01.007-.015.014-.024.02l-.067.06 1.132 1.807 1.257-2.008c-.037.002-.073.006-.11.01M16.56 6.963c.05-.022.1-.045.15-.07l1.505-2.406c-.943.19-2.727.52-4.436.7.016.03.032.057.05.085l.113.192a50.868 50.868 0 0 0 3.667-.562l-1.408 2.233.36-.172M9.97 11.483a9.842 9.842 0 0 1-.43-.087l.445.712.106.007.29.02-.41-.652z"/></g><g fill="#006D75"><path d="M12.568 12.898c-.75.06-1.343.078-1.654.084-.154.003-.24.003-.24.003-.01.007-.015.014-.024.02l1.065 1.703 1.147-1.835c-.1.01-.198.018-.294.025zM10.092 12.115l.29.02-.413-.65a9.842 9.842 0 0 1-.31-.062l.432.692zM17.61 4.902l-1.408 2.233c.106-.053.228-.11.358-.173l1.47-2.347c-.93.182-2.592.484-4.2.657l.113.192a49.69 49.69 0 0 0 3.667-.562zM10.678 5.444c0-.104-.004-.21-.015-.316-.915.097-1.462.313-1.67.412.32-.09.89-.117 1.685-.096zM17.637 9.667s-1.114-1.564-3.256-3.14c.183.375.353.764.505 1.166.02.056.018.105-.03.105-.47 0-2.125-.91-3.752-.748.845.805 1.686 1.934.87 1.52 0 0 .85.526 1.85 1.58.744 0 .893.125.937.23.084.2.207.557.695 1.13.224 0 .265-.014.347-.214 0 0 .06.256-.052.444 1.016.803 2.988 1.61 3.29 1.61.12 0-.13-1.104-.7-2.43-.188-.838-.29-1.074-.703-1.253zM8.38 8.71s.29.173.768.532c-.117-.203-.426-.424-.765-.63l-.74.056.054.088.683-.045zM12.75 10.012a3.037 3.037 0 0 0 .007 1.145c-.02-.212.146-.924.146-.924l-.152-.22zM12.38 9.648c-.118.73.047 1.31.047 1.31-.035-.267.104-1.056.104-1.056l-.15-.254zM12.01 9.318c-.12.78.067 1.4.067 1.4-.036-.353.085-1.18.085-1.18l-.152-.22zM11.17 8.034S9.738 6.848 7.96 6.55c-.065 0-.193.27-.193.27s.188-.17.245-.17c1.522.294 3.158 1.384 3.158 1.384z"/></g><path fill="#FFF" d="M11.715 14.25l.854-1.352c-.752.06-1.344.078-1.655.084l.8 1.27z"/></svg>