<svg id="Layer_1" xmlns="http://www.w3.org/2000/svg" viewBox="0 0 24 16"><style>.silver{fill:#a4a9ad}.bg{fill:#002654}.fg{fill:#ce1126}.st3{fill:#FFF}</style><g id="reg" class="bg"><path d="M16.885 11.85a.313.313 0 1 0 0 .626.313.313 0 0 0 0-.627zm0 .56a.246.246 0 0 1-.246-.246.247.247 0 1 1 .246.246z"/><path d="M17.016 12.09c0-.058-.05-.105-.106-.105h-.152v.358h.068v-.146h.047l.068.146h.076l-.072-.15a.112.112 0 0 0 .072-.102zm-.11.04h-.083v-.08h.084a.04.04 0 0 1 .038.04c0 .02-.015.04-.038.04z"/></g><path class="silver" d="M17.3 11.285l3.373-7.764s-2.44 1.447-5.23 2.552l4.793-3.563-3.017.518c-.434-.26-1.935-1.036-4.358-1.036l-.394.01L11.958.5l-.774 1.603C6.766 2.67 3.327 5.28 3.327 8.097c0 1.26.54 2.913 3.026 3.808l-1.254 3.1 3.317-2.617c.713.097 1.503.146 2.356.146.997 0 1.978-.076 2.92-.22l3.63 3.187-1.238-3.736s.73-.238 1.214-.48z"/><path class="bg" d="M20.05 4.223s-2.845 1.656-6.014 2.75l-.11-.307 5.434-3.77-6.04 1.547L16.7 3.08s-1.43-.798-3.838-.798c-.2 0-.4.005-.602.014l-.35-1.027-1.88 3.897-2.87.817L9.826 4.89l.874-1.78.182-.372.158-.324C7.03 2.99 3.62 5.38 3.62 8.097c0 1.523.838 2.92 3.133 3.637L5.567 14.32 8.33 12.08c.715.104 1.526.16 2.442.16 1.147 0 2.158-.098 3.013-.236l3.064 2.722-1.146-3.152c.89-.262 1.37-.502 1.37-.502l2.976-6.85z"/><path class="fg" d="M15.708 3.054s-1.137-.553-3.354-.48l.1.3c.247-.03 1.582-.156 3.254.18zM12.455 10.327c-1.297-.245-2.073-.496-2.073-.496s.6-.23 1.483-.637a32.66 32.66 0 0 0 2.832-1.463c.823-.48 1.648-1.024 2.36-1.61 0 0-4.15 2.265-7.596 2.265-2.316 0-3.386-1.075-3.386-1.795 0-2.146 3.778-3.257 4.625-3.48l.182-.372C7.25 3.453 5.9 4.878 5.9 4.878s-1.214.735-1.674 2.098c-.107.317-.173.67-.173 1.054 0 1.642 1.075 3.787 6.59 3.787 3.912 0 5.994-1.037 5.994-1.037a26.65 26.65 0 0 1-4.182-.453z"/><path class="silver" d="M8.526 7.868l.237-.516-1.387-.382s-.395.704 1.15.898z"/><g class="silver"><path d="M17.002 4.018l-4.42 1.07-.777-2.432L10.572 5.6l-3.353.837 2.346.574-.45.9.125.004.174.002c.16 0 .326-.006.493-.016.41-.024.833-.078 1.265-.155.33-.058.662-.13.996-.214.44-.108.886-.237 1.326-.377l-.254-.677 3.762-2.458zM15.26 11.85a1.007 1.007 0 0 0-.292.15.553.553 0 0 0-.174.27 1.58 1.58 0 0 0-.038.15l1.025.81-.52-1.38zM7.318 11.908a.37.37 0 0 0-.098-.022.472.472 0 0 0-.087-.01l-.558 1.114 1.047-.78c-.067-.12-.144-.246-.304-.302z"/></g><g class="st3"><path d="M8.763 9.595c1.367 0 2.51-.245 3.103-.4a32.66 32.66 0 0 0 2.832-1.464c-.86.327-3.58 1.296-5.506 1.296-2.922 0-3.836-1.693-3.836-2.648 0-.854.546-1.5.546-1.5s-1.008.704-1.008 1.876c0 1.93 1.924 2.84 3.87 2.84z"/><path d="M9.887 10.497c-5.43 0-5.673-2.894-5.66-3.52-.108.316-.174.67-.174 1.053 0 0 .056 3.2 6.262 3.2 2.02 0 3.84-.425 4.416-.574a26.71 26.71 0 0 1-2.275-.33c-.43.07-1.288.17-2.568.17zM16.722 8.176c-.177-.37-.692-.435-1.15-.144-.46.292-.69.826-.516 1.196.177.372.69.436 1.15.145.46-.293.69-.826.516-1.197z"/><path d="M12.125 9.558l-.004-.13-.114.142-.18.024.113.06-.113.145.19-.1.132.094-.025-.156.178-.1zM13.503 8.904L13.5 8.77l-.12.15-.188.023.116.063-.116.15.2-.103.135.098-.022-.16.183-.105zM14.505 9.012L14.5 8.89l-.106.133-.17.023.105.058-.106.135.178-.094.125.088-.02-.145.167-.098zM13.12 9.764v-.12l-.108.13-.17.018.103.062-.108.132.182-.09.12.092-.017-.147.17-.09zM14.114 9.902V9.78L14 9.912l-.168.02.104.058-.108.136.183-.092.12.094-.016-.15.17-.09zM14.934 8.042l-.006-.155-.136.17-.216.028.134.074-.134.172.23-.12.157.114-.028-.187.21-.122zM16.285 7.24l-.123.225.257-.172.23.12-.084-.222.237-.17-.266.052-.047-.186-.13.223-.264.056zM18.438 6.13l-.32.036-.025-.236-.184.26-.32.043.21.11-.177.267.328-.183.253.173-.065-.284zM16.752 10.02v-.187l-.172.204-.26.027.16.092-.168.208.28-.14.19.14-.028-.224.26-.143zM17.252 8.788l-.004-.172-.154.19-.24.033.15.08-.15.19.254-.13.178.125-.03-.207.233-.136zM17.682 7.575l-.006-.186-.166.205-.26.034.16.087-.16.21.276-.143.19.137-.032-.225.256-.148zM15.367 9.884l-.127.154-.196.02.12.07-.125.155.208-.106.143.106-.02-.17.192-.104-.194.014zM11.805 3.07l-.633 2.873 1.24-.805zM16.283 4.392l-5.11 1.552s1.877.41 1.934.417c.058.01 3.176-1.968 3.176-1.968z"/><path d="M12.17 7.532l-.997-1.59v1.804c.328-.06.66-.13.996-.214zM9.24 7.914l.174.002c.16 0 .326-.006.493-.016l1.265-1.958-1.484 1.095-.447.877z"/><path d="M10.636 5.65l-2.756.743 3.292-.45zM14.794 12.27l.68.538L14.97 12a.57.57 0 0 0-.174.27zM6.795 12.72l.522-.812a.37.37 0 0 0-.098-.022l-.425.833z"/></g><path class="fg" d="M15.64 8.138c-.375.236-.57.678-.438.986.13.308.54.367.913.13.375-.236.57-.677.44-.985-.135-.31-.543-.368-.915-.132z"/></svg>