<svg xmlns="http://www.w3.org/2000/svg" viewBox="0 0 24 16"><g fill="#003893"><path d="M18.404 13.737a.41.41 0 1 0 0 .822.41.41 0 0 0 0-.823zm0 .735a.323.323 0 1 1 0-.647.323.323 0 0 1 0 .647z"/><path d="M18.573 14.053a.14.14 0 0 0-.14-.14h-.198v.47h.09v-.19h.062l.09.19h.096l-.093-.198a.14.14 0 0 0 .093-.132zm-.14.05h-.108V14h.11c.028 0 .05.023.05.052s-.022.052-.05.052z"/></g><path d="M12 .59C7.746.59 4.298 3.906 4.298 8S7.746 15.41 12 15.41s7.702-3.317 7.702-7.41S16.254.59 12 .59z" fill="#f95602"/><path d="M19.205 7.562c-.008-.122-.015-.244-.03-.364h.004c-.22-1.813-1.163-3.41-2.548-4.522A7.41 7.41 0 0 0 12 1.064c-.958 0-1.87.18-2.708.505a7.3 7.3 0 0 0-1.916 1.1C5.786 3.94 4.77 5.856 4.77 8c0 3.83 3.237 6.936 7.23 6.936S19.23 11.83 19.23 8c0-.147-.008-.294-.017-.44" fill="#003893"/><path d="M11.29 11.92l.986-.234c.088-.02.16-.08.2-.163l.612-1.304.542-1.154.38-.813.19-.4.387-.824 2.044-4.352a6.952 6.952 0 0 0-.467-.344l-1.28 2.6-1.538-3.31a.11.11 0 0 0-.1-.065h-2.668a.11.11 0 0 0-.11.11v2.168L9.29 1.568a7.3 7.3 0 0 0-1.916 1.1v4.036c0 .062.05.11.11.11h1.516c.06 0 .11-.05.11-.11V4.9l1.116 1.86c.02.035.056.056.096.056h1.698a.11.11 0 0 0 .11-.11v-3.5l1.748 3.762-.21.424-1.227 2.498-.21.427a.296.296 0 0 1-.227.163l-3.32.457a.115.115 0 0 0-.073.043.114.114 0 0 0-.02.084l.2 1.327c.006.032.023.06.05.077s.057.022.087.016l.33-.078" fill="#FFF"/><g fill="#f95602"><path d="M13.165 10.057l-.643-.328-.08.16.647.33zM13.42 9.515l-.634-.324-.08.163.638.324zM12.575 9.62l.64.327.077-.162-.638-.325zM10.256 12.167l-.058-.367a.05.05 0 0 0-.037-.04l-.645-.157a.05.05 0 0 0-.06.035l-.195.766-.34 1.326a.05.05 0 0 0 .033.06l.38.123a.053.053 0 0 0 .04-.004.047.047 0 0 0 .022-.032l.1-.388.52.17.074.47a.05.05 0 0 0 .032.04l.397.13a.05.05 0 0 0 .047-.01.05.05 0 0 0 .017-.046l-.328-2.077z"/><path d="M13.672 7.392c-.445-.07-1 .225-1.39.018-.447-.014-.97.016-1.366-.194-.26-.04-.535-.038-.77-.132-.126.236-.27-.077-.42-.03a.216.216 0 0 0-.147.233c-.048.244-.344.102-.497.204-.28.16-.436-.242-.704-.238-.184-.05-.4-.027-.503.16-.157.04-.237-.166-.416-.1-.123-.077.057-.13.01-.223-.102-.112-.292-.194-.436-.1-.026.19.18.356.07.558-.106.02-.1-.134-.19-.17-.102-.05-.107.075-.162.124-.2-.01-.158-.232-.222-.354-.232-.036-.418.106-.61.19-.134.103-.046.322-.16.43-.09-.07-.082-.198-.17-.278-.076-.05-.166-.085-.26-.053-.085.02-.11.093-.127.168.002.045.047.08.096.067.056.014.1.08.074.138-.03.04-.05.122-.12.107-.075-.072-.183-.174-.29-.13-.045.04 0 .095 0 .138-.05.165.07.26.16.376.03.13.043.316-.055.41-.133.026-.167.173-.18.284.032.112.155.104.2.197.024.077-.06.135-.127.178.026.127.057.252.09.377a.554.554 0 0 1 .227-.054c.045.023.075.063.075.108.044.085.134.17.236.12.104-.044.197-.186.308-.128v1.279l.34.485c.083.123.138.093.138-.012V9.76c.178-.004.38.015.544-.05.325.022.713.112.995-.073.25-.045.48-.13.75-.128.182-.015.34.066.512.054.267-.302.646.056.962-.136.245-.125.454.094.717.054.165-.002.415-.186.558.034.12.06.29.037.393-.04.063-.23.33-.14.504-.194.116-.025.343-.143.497-.133l.03-.065.632.32.076-.16-.628-.32.752-1.533zM14.744 7.546c.18-.237.638.046.697-.32.07-.19.286-.12.42-.213.04-.07-.03-.12-.045-.183.175-.19.41-.323.6-.52.134-.132.344-.102.517-.105.08-.05.197-.12.215-.214l-.023-.03a1.66 1.66 0 0 0-.74.083c-.255.23-.536.396-.842.488-.21.266-.644.39-.954.497l-.388.825c.196-.052.456-.192.544-.306z"/><path d="M7.67 10.63l-.69-.622c-.266-.24-.452-.03-.452.125v.643c0 .123.04.195.097.27l.625.814c.035.046.05.092.05.146v.09c0 .073-.065.067-.115.022l-.135-.115c-.05-.037-.045-.114-.045-.18v-.083c0-.044-.047-.123-.094-.16l-.31-.287c-.05-.045-.072-.007-.072.114v.372a.65.65 0 0 0 .21.424l.715.644c.174.155.323.004.323-.354v-.41a.95.95 0 0 0-.197-.548l-.526-.685s-.048-.06-.048-.142v-.07s.02-.104.102-.03l.134.12a.19.19 0 0 1 .058.14v.097c0 .057.015.1.067.147l.252.226c.105.096.157.027.157-.057v-.385a.354.354 0 0 0-.106-.265zM8.837 13.29l-.38-.225v-1.887c0-.02-.01-.042-.028-.054l-.355-.21c-.02-.01-.043-.01-.062 0s-.033.032-.033.055v2.23c0 .022.012.043.03.054l.764.453a.06.06 0 0 0 .062 0 .06.06 0 0 0 .03-.054v-.31a.064.064 0 0 0-.03-.053zM13.745 11.812l-.992.197a.063.063 0 0 0-.05.06v2.23c0 .018.01.035.022.047s.032.017.05.014l.97-.173c.478-.085.478-.372.478-.434v-1.75s0-.286-.478-.19zM15.452 11.146a.05.05 0 0 0-.048-.003l-.894.437a.047.047 0 0 0-.027.044v2.245c0 .017.008.032.022.04s.03.012.047.005l.894-.403a.047.047 0 0 0 .03-.045v-.317a.05.05 0 0 0-.023-.042.05.05 0 0 0-.047-.004l-.376.17a.05.05 0 0 1-.07-.045v-.426c0-.02.013-.037.03-.046l.456-.205a.047.047 0 0 0 .03-.045v-.32a.054.054 0 0 0-.023-.04.048.048 0 0 0-.048-.003l-.373.183c-.016.007-.033.006-.048-.003s-.023-.024-.023-.042v-.454c0-.02.012-.037.028-.045l.46-.225a.05.05 0 0 0 .027-.045v-.328a.047.047 0 0 0-.023-.04zM16.53 11.876s.28-.21.28-.59V10.7c0-.313-.2-.342-.428-.185l-.745.514a.048.048 0 0 0-.02.04v2.22c0 .02.01.035.025.044s.035.007.05-.003l.38-.257a.047.047 0 0 0 .022-.04v-.856l.078-.055.416.545a.05.05 0 0 0 .067.01l.277-.187c.01-.008.02-.02.02-.033a.044.044 0 0 0-.01-.038l-.412-.544zM17.574 9.31l-.48.53c-.124.14-.15.287-.15.457v.226c0 .158.03.3.235.344l.263.06c.085.02.132.042.132.103v.06c0 .092-.02.114-.06.153s-.13.132-.13.016v-.1c0-.082-.034-.082-.087-.03l-.304.313c-.036.032-.052.07-.052.135v.2c0 .357.185.428.373.18l.455-.602a.975.975 0 0 0 .188-.637c0-.17-.146-.24-.25-.26l-.223-.038c-.08-.015-.1-.07-.1-.146v-.12c0-.038 0-.135.063-.202l.045-.046c.047-.048.08-.047.08.04v.174c0 .036.02.057.053.023l.278-.287c.047-.05.053-.125.053-.177v-.29c0-.303-.207-.275-.383-.08zM14.43 9.61c-.563 0-1.018.153-1.018.343v.564c0 .19.455.343 1.017.343.56 0 1.016-.153 1.016-.343v-.564c0-.19-.457-.343-1.017-.343zM14.25 8.806c.218.166.254-.15.43-.17.11-.024.204.073.274.153.264.112.582.037.796-.14.23-.1.524-.06.758-.16.156-.103.307-.226.527-.19.652-.224 1.584-.546 2.262-.784-.008-.12.015-.197 0-.317l-.27.05c-.093.343-.488.115-.654.36-.213.012-.444.03-.557.243-.068.02-.166.02-.192-.062.046-.195-.274-.264-.127-.473-.01-.09-.116-.1-.184-.07-.142.05-.152.203-.17.327-.192.035-.21-.303-.42-.224a.886.886 0 0 1-.794.244c-.548-.042-.73.67-1.196.82-.2.032-.503-.084-.722-.162l-.38.813.222-.056c.147-.035.263-.133.397-.204zM12.378 12.034l-.354-.042c-.018-.002-.034.003-.048.015s-.02.03-.02.047v1.238l-.654-1.356c-.003-.006-.01-.01-.013-.015-.01-.01-.022-.018-.037-.02l-.514-.06a.062.062 0 0 0-.07.06v2.366c0 .03.02.058.052.062l.354.05a.064.064 0 0 0 .05-.016.064.064 0 0 0 .02-.047V12.88l.773 1.507a.063.063 0 0 0 .058.034l.396-.022a.062.062 0 0 0 .058-.062v-2.24a.06.06 0 0 0-.054-.062z"/></g><g fill="#003893"><path d="M13.537 12.31l-.355.07v1.5l.377-.068c.186-.033.186-.244.186-.244V12.46s0-.193-.21-.15zM16.27 11.07l-.153.108a.045.045 0 0 0-.02.04v.395c0 .02.01.035.025.044a.05.05 0 0 0 .05-.003l.108-.074a.287.287 0 0 0 .104-.214v-.23c0-.067-.05-.108-.113-.065zM9.938 13.183l-.14-.89-.198.78zM6.376 9.76v-.483l-.478-.42v.934c.146-.038.326.012.478-.03z"/></g><ellipse cx="14.429" cy="9.954" rx="1.017" ry=".343" fill="#FFF"/></svg>