<svg baseProfile="basic" xmlns="http://www.w3.org/2000/svg" viewBox="0 0 24 16"><g fill="#024930"><path d="M14.536 14.044a.346.346 0 1 0 .062.69.346.346 0 0 0-.062-.69zm.054.616a.27.27 0 1 1 .247-.295.272.272 0 0 1-.247.295z"/><path d="M14.7 14.296a.117.117 0 0 0-.126-.106l-.166.015.035.393.073-.006-.014-.16.053-.004.09.153.08-.006-.092-.16a.122.122 0 0 0 .068-.118zm-.112.054l-.093.008-.008-.087.093-.007a.044.044 0 0 1 .047.04.044.044 0 0 1-.04.047z"/></g><path fill="#E2D6B5" d="M21.11 3.83c.008 0 .735-.573.735-.573s-2.913-.79-6.39-.584c0 0-.493-1.655-2.828-1.672C10.89.99 9.89 2.073 9.577 2.918c-3.283.71-5.788 2.37-5.788 2.37l.597.46C2.84 6.554 1.245 7.85 1.245 7.85s.15.783 1.09 2.034c0 0 .63.49 2.295 1.132 0 0 .32-.078.48-.157.228.077.464.143.696.187-.01.21-.074.512.312.87l-.283.15s.342.865 2.26 1.332c.736-.173 4.077-.78 5.214 1.327l5.844-5.67-1.236-.007 4.6-4.83s-.756-.258-1.408-.39z"/><path fill="#024930" d="M21.406 4.455c-.705-.273-1.646-.476-1.646-.476l.59-.45c-3.168-.658-5.344-.472-5.344-.472s-.423-1.653-2.536-1.667c-2.043-.014-2.668 1.807-2.668 1.807-2.802.53-5.445 2.12-5.445 2.12l.638.49c-1.655.8-3.374 2.17-3.374 2.17.238.756.94 1.675.94 1.675.652.46 2.09 1.032 2.09 1.032.207-.046.433-.17.433-.17s.714.29 1.48.295c.278 0 .59-.03.592-.14 0-.188-.572-.25-.57-.46 0-.155.346-.368 1.655-.36.783.006 1.67.067 1.67.067-.644-.004-1.913.15-1.915.45 0 .234.86.252.858.566-.004.454-.678.605-1.463.6-.703-.005-1.036-.207-1.195-.21-.062 0-.1.03-.1.07 0 .164.31.495.56.59l-.34.193c.377.507 1.79.894 1.79.894 4.047-.853 5.276 1.17 5.276 1.17l4.77-4.868-1.114-.008 4.37-4.91z"/><g fill="#AF1E24"><path d="M14.345 3.608a1.85 1.85 0 0 1 .037.702 12.34 12.34 0 0 1 2.522.54c-.925.024-1.87.105-2.78.215a1.968 1.968 0 0 1-2.99.472c-1.9.366-3.237.737-3.237.737.94.05 1.47.27 1.47.27-2.432.474-4.697 1.395-5.433 1.71.173.28.4.607.4.607l-.366.447c.647.123 1.45.06 1.45.06l1.21-.73.944.29.288-.387-.31-.002.63-1 .515 1.007H8.46l.157.346.654-.11.28-.352-.248-.002.376-.57h-.28l.595-.99.495 1.03-.223-.002.332.602-.265-.003.537.994.548-.758-.373-.004.568-.84-.36-.003.82-1.384.692 1.41h-.292l.473.83-.338-.002.457 1.03.795-1.28-.434-.003.65-1.04-.396-.005.872-1.74.89 1.835-.318-.002.576.966-.398-.004.438.956.736-1.1-.39-.004.85-1.21-.453-.003 1.365-1.856.702 1.287 1.528-1.853c-1.74-.664-3.728-1.027-5.733-1.106zM10.467 4.047c0-.08.007-.16.017-.24-1.828.266-3.535.777-4.924 1.517 0 0 2.14-.732 4.924-1.01a2.126 2.126 0 0 1-.017-.267z"/></g><g fill="#EDAA00"><path d="M14.345 3.608a21.21 21.21 0 0 0-3.86.198c-.01.08-.016.16-.017.24 0 .092.006.18.017.268 1.217-.122 2.558-.155 3.897-.005a1.936 1.936 0 0 0-.037-.7zM12.42 6.026a1.968 1.968 0 0 0 1.704-.96c-1.068.128-2.09.298-2.988.47.342.302.79.486 1.283.49z"/><path d="M12.446 2.096a1.964 1.964 0 0 0-1.96 1.71s.988-.437 3.67-.688a1.964 1.964 0 0 0-1.71-1.022z"/></g><path fill="#FFF" d="M12.654 4.772c-2.565.066-4.876.69-4.876.69l-.052-.34-.237.393c-.002 0-1.164.417-1.932.814.984-.333 1.782-.535 1.782-.535-.08.17-.16.333-.242.503.15-.13.29-.256.438-.387.106.058.207.115.312.17l-.04-.373s2.59-.702 4.846-.935z"/></svg>