<svg xmlns="http://www.w3.org/2000/svg" viewBox="0 0 24 16"><path fill="#0038A8" d="M15.96.335l-.577.56-.574-.56H9.19l-.575.56-.576-.56H4.028l1.2 2.13v10.348c0 .21 0 1.834 1.964 1.834h3.106c1.115 0 1.658 1.02 1.658 1.02h.09s.543-1.02 1.658-1.02h3.107c1.962 0 1.962-1.625 1.962-1.834V2.465l1.2-2.13h-4.013z"/><path fill="#FFF" d="M18.674 2.438l1.13-2.004H16l-.617.6-.615-.6H9.232l-.615.6L8 .434H4.2l1.13 2.004v10.374c0 .52.182 1.733 1.863 1.733h3.106c.997 0 1.55.767 1.703 1.01.15-.243.705-1.01 1.702-1.01h3.107c1.68 0 1.862-1.212 1.862-1.733V2.438z"/><path fill="#0038A8" d="M18.793 14.283a.384.384 0 1 0 .002.768.384.384 0 0 0-.002-.767zm0 .685a.3.3 0 1 1 0-.603.3.3 0 0 1 0 .603z"/><path fill="#0038A8" d="M18.95 14.578a.13.13 0 0 0-.128-.13h-.186v.438h.082v-.178h.06l.083.178h.09l-.085-.186a.128.128 0 0 0 .086-.122zm-.128.048h-.104v-.096h.104c.025 0 .047.02.047.048s-.022.048-.048.048zM16.186.893l-.803.78-.8-.78H9.418l-.803.78-.803-.78H4.98l.805 1.427v10.493c0 .582.244 1.275 1.406 1.275h3.106c.79 0 1.352.443 1.703.797.35-.354.913-.797 1.702-.797h3.107c1.16 0 1.403-.693 1.403-1.275V2.32L19.018.89h-2.832z"/><path fill="#CE1126" d="M10.934 5.48l6.937 5.025V5.48z"/><g fill="#FFF"><path d="M6.13 4.773h11.74v.283H6.13zM6.13 12.812c0 .825.566.932 1.062.932h3.105c.707 0 1.28.37 1.703.712.425-.34.996-.712 1.703-.712h1.125l-8.698-6.3v5.368zM6.13 6.86l9.503 6.884h.404L6.13 6.568zM9.725 5.48l8.146 5.9v-.29l-7.74-5.61zM13.084 11.073l.687.498.2-.275-.406-.294.325-.447.405.295.2-.277-.405-.293.324-.448.404.294.202-.276-.688-.498zM9.643 5.953l-.635-.46-1.25 1.724.282.204.56-.77.156.113-.264.984.28.204.268-.996a.42.42 0 0 0 .502-.143l.195-.27a.42.42 0 0 0-.094-.587zM15.203 12.608l.268-.998a.42.42 0 0 0 .503-.143l.195-.27a.422.422 0 0 0-.094-.588l-.637-.46-1.248 1.722.28.204.56-.77.155.112-.264.986.283.204zM11.625 7.39l-1.247 1.723.28.203.75-1.034-.297 1.363.283.203 1.248-1.724-.28-.203-.75 1.035.297-1.362zM8.963 8.09l.28.202.355-.285.47.34-.16.426.28.203.776-2.065-.282-.202-1.72 1.38zM13.604 8.822l-.234-.17a.422.422 0 0 0-.59.093l-.754 1.04a.42.42 0 0 0 .095.59l.236.17c.06.044.128.07.197.078l-.006.062.15.108.668-.922-.55-.395-.17.235.267.192-.21.293a.145.145 0 0 1-.204.032l-.12-.087a.145.145 0 0 1-.032-.203L13.024 9a.145.145 0 0 1 .203-.03l.12.086c.065.047.08.138.032.203l-.167.228.28.203.204-.28a.42.42 0 0 0-.093-.588zM17.12 11.37a.574.574 0 0 0-.802.128c-.338.467.314 1.033.137 1.278a.257.257 0 0 1-.416-.3l.08-.112-.282-.204-.076.107a.6.6 0 0 0 .135.843.6.6 0 0 0 .842-.135c.335-.462-.317-1.03-.136-1.278a.225.225 0 0 1 .316-.05.227.227 0 0 1 .053.318l-.068.093.28.203.065-.087a.576.576 0 0 0-.13-.804zM8.798 4.078h-.5v-.553h.5v-.34h-.5v-.552h.5V2.29h-.85v2.13h.85zM15.123 3.467h.193l.363.952h.347l-.37-.965a.422.422 0 0 0 .325-.41v-.332a.422.422 0 0 0-.422-.422h-.785v2.13h.348v-.953zM6.587 3.142l.56 1.277h.346V2.29h-.347v1.28l-.56-1.28H6.24v2.13h.347zM13.764 4.42h.29a.422.422 0 0 0 .423-.422V2.713a.422.422 0 0 0-.422-.422h-.29a.422.422 0 0 0-.423.423v1.285c0 .232.19.42.422.42zM16.758 3.538l.156-.25.498 1.13h.348l-.643-1.456.418-.67h-.347l-.43.69v-.69h-.348v2.127h.348zM12.346 4.42h.347v-.882l.46-1.247h-.348l-.285.776-.286-.775h-.346l.458 1.248zM9.89 4.42l.182-1.116.183 1.115h.415l.348-2.13h-.348l-.208 1.274-.207-1.273H9.89l-.207 1.274-.208-1.273h-.347l.347 2.13z"/></g><g fill="#0038A8"><path d="M13.834 4.078h.148c.08 0 .146-.065.146-.146V2.778a.146.146 0 0 0-.146-.146h-.148a.145.145 0 0 0-.145.146v1.154c0 .08.064.146.144.146zM10.173 8.063l.28-.74-.62.495zM9.386 6.188l-.297-.215-.29.4.296.215a.147.147 0 0 0 .204-.033l.118-.163a.147.147 0 0 0-.032-.204zM15.635 2.98v-.202a.146.146 0 0 0-.146-.146h-.366v.493h.365c.078 0 .145-.064.145-.146zM15.73 11.212l.117-.164a.146.146 0 0 0-.03-.203l-.297-.215-.29.4.296.214a.147.147 0 0 0 .204-.032z"/></g></svg>