<svg xmlns="http://www.w3.org/2000/svg" viewBox="0 0 24 16"><path d="M16.943 5.957l.357.118-.002.23c-.19-.007-.343-.043-.343.513 0 .415.08.55.08.666 0 .2-.018.247-.642.247 0 0-.098-.118-.44-.25 0 0-.006-.032-.02-.09l2.643-4.597h-.8c.06-.114 0-.303-.148-.452-.17-.168-.39-.22-.494-.118-.047.047-.062.118-.048.198l-.328.345c.008-.052.026-.326-.49-.474-.155-.307-.286-.692-.595-.692-.253 0-.472.192-.472.192s-.943-.88-1.86-.88c-.8 0-1.898.783-2.383.783-.516 0-.973-1.25-1.698-1.25-.392 0-.852.313-1.348.616-.496.3-.588.67-.71.97-.08.2-.333.47-.63.762H4.29l4.643 8.074a.52.52 0 0 1-.1.01H5.37l-.64 1.15H8.83a.823.823 0 0 0 .53-.232l.066-.07 2.01 3.494 1.856-3.23h1.566v-.325h-.376l-.066-.21h.057l.272-.125c0-.313-.377-.753-.377-.753l-.062-.35.515-.895 2.4-.886c.425-.157.473-.777.473-.777s.392.184.606-.293c0 0 .434.14.67.14.203 0 .49-.11.49-.418 0 0 .313-.19.417-.512l-2.827-.937-.103.31z"/><g fill="#DBCEA5"><path d="M13.36 8.963c0-.05-.735-.244-1.024-.355-.266.104.078.157.078.5 0 .203-.1.44-.1.44l-.146.043s-.293.54-.48.46c-.27.474-.378.582-.805.582a.666.666 0 0 1-.363-.106l-.93 1.014 1.84 3.203 1.586-2.755h-1.14c0-.294.187-.535.187-.535 0-.468.288-.566.503-.586.454-.04.64 0 .64-.223 0-.157-.014-.343-.014-.343h.168c0-.61-.172-.76-.172-1.07 0-.12.172-.17.172-.267zM14.09 10.12l.356-.62-.398.195zM15.285 3.818L15.2 3.63c-.432.073-.82-.146-.93-.204-.11-.056.01-.298.01-.298s-.03-.052-.098-.1h-.452c-.085.076-.105.194-.036.266.48.498.866 1.033 1.173 1.548l.502-.527-.085-.497zM13.227 11.62l.097-.167h-.16zM17.184 3.03l-.064.07c.263.312.154.63.154.63 0 .24-.127.235-.127.235 0 .56-.293.46-.293.46 0 .735-.81.438-.81.438a1.07 1.07 0 0 1-.332-.097l-.55.612c.357.692.57 1.307.684 1.69l2.322-4.04h-.984zM9.91 9.256c-.15-.358-.084-.44-.084-.44s-.476-.39-.335-.877c0 0-1.225-1.778-1.225-2.832 0-.545.264-.492.264-.938 0-.366-.25-.64-.43-.64-.207 0-.85.425-1.79.98l.356-.817-.856.88s-.167-.86.294-1.32l.228-.224H4.696L9.16 10.79a.748.748 0 0 0 .21-.14l.703-.71a1.958 1.958 0 0 1-.164-.686z"/><path d="M12.543 11.662h.155l.067-.21h-.34z"/></g><path fill="#FFF" d="M13.597 11.453l-.12.21h.492l.058-.21zM18.99 6.634l-.122.17.315.104-.044-.224zM17.785 6.235l-.116.17.81.27-.004-.212z"/><ellipse transform="rotate(-103.455 18.965 7.227)" fill="#FFF" cx="18.966" cy="7.228" rx=".105" ry=".188"/><ellipse transform="rotate(142.064 12.4 11.14)" fill="#FFF" cx="12.398" cy="11.139" rx=".188" ry=".105"/><path fill="#FFF" d="M9.47 10.753a1.02 1.02 0 0 1-.64.268h-.022l-.39.865h.41a.68.68 0 0 0 .424-.188l1.138-1.24-.26-.37-.66.666zM4.973 11.885h.558l.48-.864h-.557zM14.143 11.453l-.09.32h-.888l-.117-.32h-.168l-.1.32h-.3l-.182-.32h-.096a.95.95 0 0 0-.206.425h2.75v-.105h-.348l-.103-.32h-.152zM17.407 6.32l.152.05.18-.266.843.28.01.328.166.055.19-.263.283.094.07.35.116.038a.997.997 0 0 0 .306-.336l-2.61-.864-.034.1.33.11-.005.324zM11.907 7.953l2.39-2.51c-.874-1.214-2.148-2.307-3.3-2.307-1.025 0-1.718.755-1.718 1.554 0 1.44 1.292 2.558 2.627 3.263zM12.572 8.27c.806.347 1.55.53 1.94.53.36 0 .852-.1.852-.88 0-.512-.277-1.233-.722-1.96l-2.07 2.31zM6.103 3.442c-.167.188-.188.732-.188.732l1.36-1.17-.545 1.002s.92-.418 1.004-.627c0 0-.19-.46-.607-.88 0 0-.856.754-1.024.942zM7.974 1.873c0-.148.21-.297.235-.368 0 0-.136-.183-.327-.09-.03.416-.136.614-.183.867.156.13.104-.196.328-.196.075 0 .184.093.184.2 0 .125-.068.19-.068.19l.157-.012s.068-.067.068-.2c0-.305-.394-.31-.394-.39zM15.517 4.358l-3.844 4.04c-.14.146.23.402.36.253l3.68-4.107c.135-.15-.054-.327-.196-.185zM10.72 8.723s.058-.21-.106-.21c-.336 0-.658.278-.658.42 0 .075.03.14.03.14s.438-.42.735-.35zM11.38 8.714c0-.146-.128-.17-.266-.17s-.21.093-.21.15c0 .152.154.317.222.317.038.002.253-.117.253-.296zM11.588 8.764c-.085 0-.133.102-.133.277 0 .06.072.103.114.103.027 0 .092-.064.092-.262 0-.06-.02-.116-.074-.116zM11.898 8.934c-.146 0-.093.325-.093.433 0 .106-.04.16-.04.16.03.055.025.206.123.206.056 0 .137-.084.137-.294 0-.317.005-.506-.127-.506zM12.15 9.018l-.02.193.13.022.034-.11c-.036-.02-.067-.125-.144-.104zM10.088 9.32c.072.83.57 1.182.57 1.182l.098-.05s-.25-.476-.524-1.358l-.144.226zM10.432 8.984c.218.892.485 1.413.597 1.442 0 0 .075-.13.075-.9 0 0-.19-.808-.673-.542zM11.298 9.32c.04.913-.106.897-.106 1.037 0 .227.388-.063.388-.64 0-.68-.282-.397-.282-.397zM9.696 7.905c-.258.357.165.73.165.73s.156.01.242-.076c0 0-.133-.488-.406-.655zM10.314 8.235c0-.052-.073-.046-.073-.425 0-.3-.338-.188-.338-.028s.275.357.275.474c0 0 .137.05.137-.02zM10.583 8.037c0-.604-.207-.5-.207-.283 0 .242.136.353.207.283zM10.782 7.596c-.075.166-.02.412-.02.582 0 .176.116.17.17.14-.066-.134.116-.595-.15-.722zM11.05 7.686c-.034.215.034.598.034.598s.14.06.187-.014c-.01-.076-.01-.247-.01-.348 0-.258-.21-.236-.21-.236zM11.435 7.885c-.053.334.062.51.062.51.042-.024.073-.008.073-.29 0-.283-.135-.22-.135-.22zM16.5 2.89c.238-.12-.01-.432-.18-.335-.708.46-.783 1.16-.783 1.16s.063.104.233.076c0 0 .378-.727.73-.9zM15.948 3.797s.017.084.123.084c.202 0 .61-.432.61-.784 0-.072-.107-.075-.107-.075-.373.242-.625.777-.625.777zM16.88 2.958c.254 0 .453-.262.453-.317 0-.054-.056-.092-.155-.092s-.362.284-.362.364c0 .017.012.046.065.046zM15.464 4.225s.073-.054.194-.047c-.076-.24-.212-.182-.212-.182-.054.08.018.23.018.23zM16.423 4.855c.088-.38-.302-.777-.302-.777-.274-.02-.282.076-.282.076s.196.7.585.7zM16.326 3.956s.092.59.358.59c.025-.09-.083-.59-.358-.59zM16.56 3.75s.154.44.317.44c0 0 .062-.293-.214-.53-.086 0-.102.09-.102.09zM17.162 3.865c0-.213-.34-.59-.34-.59l-.083.165.328.494s.094.047.094-.07zM16.897 3.14l.31.54s-.01-.308-.242-.59c0 0-.068-.007-.068.05zM15.103 3.502s-.385-.203-.688-.29l-.02.063s.167.254.708.227zM15.282 3.413c.028.012.114-.077.055-.116-.07-.046-.61-.345-.776-.392-.09.094-.04.15-.04.15l.762.358zM15.412 3.166c.043.023.113-.116.068-.146a5.813 5.813 0 0 0-.828-.48c-.074.1-.05.187-.05.187l.81.44zM15.62 2.844c0-.14-.607-.607-.702-.607s-.138.117-.138.117l.77.55c.025.018.07-.044.07-.06zM15.818 2.664l-.564-.646c-.075-.085-.205.076-.205.076l.637.625c.06.056.162-.026.13-.056zM15.97 2.423l-.475-.645c-.12 0-.145.103-.145.103l.516.55c.066.07.103-.007.103-.007zM15.976 2.08l-.15-.32c-.014-.03-.118-.026-.118.035 0 .046.108.285.268.285z"/><path d="M13.282 14.426a.316.316 0 1 0-.632 0 .316.316 0 0 0 .632 0zm-.565 0a.248.248 0 0 1 .497 0c0 .14-.11.25-.25.25a.248.248 0 0 1-.247-.25z"/><path d="M13.096 14.607l-.07-.153a.11.11 0 0 0 .07-.102c0-.06-.05-.106-.108-.106h-.152v.36h.068v-.146h.05l.067.147h.076zm-.11-.215h-.083v-.078h.084a.04.04 0 0 1 .04.04.04.04 0 0 1-.04.038z"/></svg>