<svg id="Layer_2" xmlns="http://www.w3.org/2000/svg" viewBox="0 0 24 16"><style>.bg{fill:#111}.fg{fill:#fcb514}</style><g id="reg" class="bg"><path d="M18.147 14.56a.41.41 0 1 0 .003-.824.41.41 0 0 0-.003.823zm0-.735a.322.322 0 1 1 .004.644.322.322 0 0 1-.003-.645z"/><path d="M18.067 14.192h.063l.09.19h.098l-.094-.2a.14.14 0 0 0-.046-.27h-.2v.47h.09v-.19zm0-.19h.11a.05.05 0 0 1 .05.05.05.05 0 0 1-.05.052h-.11V14z"/></g><path class="fg" d="M12 16a8 8 0 0 0 0-16 8 8 0 0 0 0 16z"/><path class="bg" d="M12 15.702A7.7 7.7 0 0 0 19.702 8 7.702 7.702 0 1 0 12 15.702z"/><path class="fg" d="M16.935 3.68a6.355 6.355 0 0 0-.615-.612L14.986 4.4l.624.605 1.325-1.324zM12.435 1.458A6.275 6.275 0 0 0 12 1.44a6.3 6.3 0 0 0-.435.017v2.108h.87V1.458zM8.32 3.707l-.64-.64c-.22.19-.423.396-.614.614L8.32 4.936V3.707zM7.682 12.934l.64-.64v-1.23L7.068 12.32c.19.217.395.423.614.614zM8.874 7.566H5.458c-.01.143-.017.288-.017.434s.008.29.018.435h3.416v-.87zM15.23 8l.446.435h2.867c.01-.144.017-.29.017-.435s-.007-.29-.016-.434h-2.867L15.23 8zM14.986 11.6l1.333 1.334c.218-.19.423-.396.613-.614l-1.324-1.324-.624.605zM11.565 14.542c.145.01.29.017.435.017.146 0 .29-.008.435-.018v-2.106h-.87v2.106z"/><path class="fg" d="M9.21 10.36l-.553.537v1.2h5.336l1.35-1.312V8.58L14.747 8l.596-.58V5.214L13.993 3.9H8.657v1.203l.554.538v4.72z"/><path fill="#FFF" d="M11.208 12.436H8.686l-.728.728c.918.72 2.032 1.2 3.25 1.347v-2.074zM14.13 12.436h-1.337v2.074a6.532 6.532 0 0 0 3.25-1.347L14.73 11.85l-.6.586zM8.874 10.006V8.792H5.49a6.524 6.524 0 0 0 1.347 3.25l2.037-2.036zM8.874 5.995L6.837 3.958a6.533 6.533 0 0 0-1.347 3.25h3.384V5.995zM14.73 4.15l1.312-1.313a6.53 6.53 0 0 0-3.25-1.346v2.076h1.336l.6.584zM15.68 8.793v1.766l1.483 1.482a6.535 6.535 0 0 0 1.348-3.25h-2.83zM11.208 3.565V1.49a6.523 6.523 0 0 0-3.25 1.347l.73.73h2.52zM15.68 7.208h2.83a6.53 6.53 0 0 0-1.347-3.25L15.68 5.442v1.766z"/><path class="bg" d="M8.935 11.015v.807h4.946l1.186-1.154v-1.97L14.35 8l.715-.697v-1.97L13.88 4.18H8.935v.805l.554.538v4.954l-.555.538z"/><path class="fg" d="M13.795 10.14V9.105l-.543-.53h-2.58v2.092h2.58l.543-.527zM13.795 6.895V5.86l-.543-.528h-2.58v2.09h2.58l.543-.527z"/><path class="bg" d="M13.518 5.98l-.38-.37h-2.187v1.535h2.19l.378-.368V5.98zM13.518 9.223l-.38-.368h-2.187v1.534h2.19l.378-.368v-.8z"/><path fill="#FFF" d="M13.18 6.636V6.12l-.178-.173h-1.715v.862h1.715zM13.18 9.88v-.516l-.178-.173h-1.715v.863h1.715z"/></svg>