<svg id="Layer_1" xmlns="http://www.w3.org/2000/svg" viewBox="0 0 24 16"><style>.silver{fill:#adafaa}.bg{fill:#002654}.fg{fill:#fcb514}.st3{fill:#FFF}.st4{fill:#cf0a2c}</style><path class="silver" d="M20 8c0-4.41-3.59-8-8-8S4 3.59 4 8s3.59 8 8 8 8-3.59 8-8z"/><path class="bg" d="M12 .1C7.644.1 4.1 3.644 4.1 8s3.544 7.9 7.9 7.9 7.9-3.544 7.9-7.9S16.356.1 12 .1z"/><path class="silver" d="M12 .862C8.064.862 4.862 4.064 4.862 8S8.064 15.138 12 15.138 19.138 11.936 19.138 8 15.936.862 12 .862z"/><g id="reg" class="bg"><path d="M17.994 13.928a.374.374 0 1 0 0 .75.374.374 0 0 0 0-.75zm0 .67a.294.294 0 1 1 0-.59.294.294 0 0 1 0 .59z"/><path d="M18.147 14.216a.127.127 0 0 0-.127-.127h-.18v.427h.08v-.174h.058l.08.174h.09l-.085-.18a.128.128 0 0 0 .084-.12zm-.127.046h-.1v-.093h.1c.026 0 .047.02.047.046 0 .025-.02.046-.047.046z"/></g><path class="bg" d="M12 10.112a51.815 51.815 0 0 0 4.95-4.273h-.034c-.604 0-.743-.69-.93-.69-.076.006-.36.096-.532.17.113.04.22 0 .353.086.173-.016.303.068.303.282 0 .213-.047.496-.453.496-.555 0-.57-.544-.947-.544-.115 0-.514.174-.85.174-.426 0-.698-.31-1.06-.31-.14 0-.175.122-.175.185 0 .162.2.218.2.394a.18.18 0 0 1-.096.16c.05.037.094.084.094.16 0 .03-.01.056-.02.08.077-.06.146-.106.225-.106.253 0 .366.43.366.595 0 .267-.252.292-.474.292-.207 0-.662.192-.85.192-.187 0-.466-.16-.497-.36-.074.097-.217.163-.395.163-.196 0-.572-.217-.79-.217-.17.016-.476-.007-.476-.408 0-.024.004-.045.01-.065-.25.13-.592.02-.592.02-.422.21-.482-.023-.48-.112-.09.067-.2.197-.35.197-.244 0-.305-.243-.448-.377-.057-.06-.208-.117-.287-.205-.135-.135-.263-.36-.72-.726-.127-.1-.235-.463-.235-.79 0-.607.092-1.223 1.193-1.503 1.125-.284.912-1.722 3.01-1.722.592 0 1.08.112 1.57.29-.134-.068-.194-.142-.167-.24.025-.09.1-.263 1.822.21 1.04.287 1.858.56 1.783.835-.09.326-.708-.034-1.973-.38-.506-.14-.915-.233-1.198-.322.878.355 1.83.89 3.46 1.357.57.147.937.16.937.458a.19.19 0 0 1-.064.143c.326-.022.443.404-.26.404-.397 0-.685-.155-.685-.367a.24.24 0 0 1 .13-.216 2.97 2.97 0 0 0-.537-.103c.025.088.055.2.055.34 0 .272-.062.398-.085.553.12-.022.24-.08.334-.08.403 0 .174.59.672.652.19.036.185.174.185.174.187-.036.316-.022.316.354 0 .024 0 .047-.002.07.46-.467.712-.743.72-.753a.208.208 0 0 1 .164-.07C17.002 2.46 14.672.962 12 .962S6.998 2.46 5.807 4.66a.212.212 0 0 1 .163.07c.026.03 2.34 2.584 6.03 5.382zm.564-2.4c2.1-.777 2.905-1.194 3.013-.902.106.288-1.014.887-2.743 1.526-1.035.383-1.22.174-1.273.028-.067-.184-.008-.278 1.004-.652zM18.373 5.017a1.07 1.07 0 0 1-.3.716c-.028.03-2.292 2.53-5.384 4.892.16.118.357.26.547.395a.18.18 0 0 1 .027-.07c.07-.11.262-.153.44-.042.27.172.28.43.228.726a.237.237 0 0 1 .188.126s.092-.01.174.12c0 0 .097-.008.175.122 0 0 .09-.013.174.12 0 0 .096-.007.175.122 0 0 .095-.01.174.12 0 0 .094-.01.175.122 0 0 .094-.01.174.12 0 0 .09-.01.175.122.003 0 .007-.002.01 0 .12.02.2.126.217.272.158-.144.315-.227.518-.1a.46.46 0 0 1 .167.564 7.028 7.028 0 0 0 1.94-8.447zM15.06 13.266s-.098.01-.176-.12c0 0-.092.01-.175-.122 0 0-.096.008-.176-.12 0 0-.096.008-.175-.122 0 0-.095.01-.176-.12 0 0-.095.01-.175-.12 0 0-.092.01-.176-.12-.004-.002-.008 0-.012 0l-.025-.006c-.013.34.092.68.545.967.414.26.7.207.928.056a.282.282 0 0 1-.038-.052s-.09.01-.173-.122z"/><path class="bg" d="M11.265 6.078c-.232 0-.325.183-.328.22 0 .042.035.093.04.15 0 0 .092-.093.197-.093.203 0 .38.33.436.51.02-.084.04-.196.04-.343 0-.275-.2-.444-.385-.444zM7.735 12.9c.203-.128.36-.045.518.1.017-.147.096-.254.216-.274.003 0 .007.002.01 0 .084-.13.176-.12.176-.12.08-.13.175-.12.175-.12.082-.132.176-.122.176-.122.08-.13.175-.12.175-.12.08-.13.176-.122.176-.122.083-.133.175-.12.175-.12.08-.13.176-.122.176-.122.083-.13.174-.12.174-.12a.24.24 0 0 1 .163-.124c.008-.002.017-.002.025-.003-.052-.296-.043-.554.23-.726.176-.11.368-.07.438.04a.195.195 0 0 1 .027.072c.19-.136.387-.278.548-.396-3.092-2.362-5.356-4.86-5.383-4.89a1.07 1.07 0 0 1-.3-.716 7.025 7.025 0 0 0 1.942 8.445.46.46 0 0 1 .166-.563zM9.99 12.54c-.08.13-.174.12-.174.12-.08.13-.175.12-.175.12-.078.132-.174.122-.174.122-.08.13-.175.12-.175.12-.08.134-.174.122-.174.122-.078.13-.175.12-.175.12-.08.132-.173.122-.173.122a.282.282 0 0 1-.038.05c.228.152.513.206.928-.055.453-.285.557-.625.545-.966l-.025.006c-.004 0-.008-.002-.012 0-.084.132-.175.12-.175.12z"/><path class="bg" d="M13.985 13.827c-.83-.523-.83-1.254-.734-1.82-.39-.26-.903-.614-1.25-.867-.347.252-.86.607-1.25.868.094.565.093 1.296-.735 1.82-1.015.64-1.634.02-1.838-.148a.48.48 0 0 1-.205.087c1.142.8 2.53 1.27 4.028 1.27s2.886-.47 4.028-1.27a.493.493 0 0 1-.205-.087c-.204.167-.822.787-1.838.147zM9.937 5.7c-.13 0-.17.125-.17.166 0 .296.225.177.36.358.047-.124-.076-.176-.076-.312 0-.04.017-.07.017-.098 0-.072-.063-.114-.13-.114z"/><path class="bg" d="M12.8 5.43c.386 0 .655.31 1.06.31.342 0 .712-.175.85-.175.43 0 .425.544.947.544.268 0 .378-.123.378-.42 0-.2-.12-.206-.228-.206-.04 0-.095-.064-.22-.064-.14 0-.26-.06-.292-.098.105-.08.598-.247.687-.247.28 0 .342.69.935.69.158 0 .32-.042.32-.35 0-.24-.045-.312-.163-.294-.09.02-.17.03-.17.03.045-.088.028-.164-.105-.19-.556-.087-.337-.652-.66-.652-.113 0-.416.154-.416.045 0-.115.09-.296.09-.593 0-.197-.077-.42-.077-.42.283 0 .686.106.868.183-.116.02-.285.062-.285.216 0 .162.268.29.61.29.556 0 .496-.25.292-.25-.21 0-.288-.02-.318-.035.097-.036.27-.04.27-.185 0-.244-.323-.232-.88-.385-2.49-.684-3.57-1.746-5.276-1.746-2.074 0-1.807 1.418-2.993 1.72-1.05.264-1.137.826-1.137 1.427 0 .324.108.653.206.73.245.21.414.348.727.733.057.064.22.135.288.203.142.142.2.355.395.355.173 0 .296-.244.53-.308-.056.054-.107.117-.107.192 0 .172.196.128.4.032.456.12.618-.01.74-.16.025-.028.02-.07-.006-.098-.148-.137-.368-.06-.368-.39 0-.065.058-.242.246-.242.107 0 .247.087.197.252-.032.104.077.178.077.258 0 .296-.223.315-.223.502 0 .338.248.346.393.333.232 0 .627.216.796.216.212 0 .373-.1.373-.23 0-.103-.207-.525-.38-.525-.094 0-.166.118-.22.118-.04 0-.06-.014-.064-.02.05-.082-.028-.133-.028-.23 0-.068.126-.296.403-.296.222 0 .46.2.46.52 0 .283-.082.473-.082.54 0 .17.267.32.428.32.176 0 .616-.19.85-.19.25 0 .398-.04.398-.217 0-.158-.11-.52-.29-.52-.16 0-.393.358-.69.358a.37.37 0 0 1 .088-.127c.19-.094.32-.173.32-.28 0-.095-.127-.128-.197-.187.13-.013.197-.043.197-.136 0-.134-.2-.192-.2-.395.002-.13.088-.26.253-.26zM16.224 12.964c-.212-.134-.375.02-.563.216l.007-.028c.03-.18-.033-.332-.15-.352-.013-.003-.027.002-.04.004-.062-.16-.175-.12-.175-.12-.058-.16-.175-.12-.175-.12-.062-.16-.175-.122-.175-.122-.057-.16-.175-.12-.175-.12-.064-.163-.175-.122-.175-.122-.06-.16-.175-.12-.175-.12-.057-.16-.175-.122-.175-.122-.062-.164-.176-.12-.176-.12-.026-.07-.072-.117-.132-.127a.155.155 0 0 0-.112.026c.064-.324.09-.6-.17-.765-.135-.085-.284-.06-.333.018-.06.095.056.177.1.235.176.222-.746 1.69.595 2.537 1.023.645 1.58-.015 1.794-.178.103.082.32.22.488-.046.133-.207.098-.457-.084-.572zm-.823.47c-.254.21-.583.337-1.098.012-.543-.343-.614-.764-.57-1.168.026.037.06.06.103.068.014.003.028-.002.042-.004.06.16.174.12.174.12.06.16.176.12.176.12.062.16.175.122.175.122.058.16.176.12.176.12.064.163.175.122.175.122.06.16.176.12.176.12.057.16.175.122.175.122.063.163.177.12.177.12.025.066.068.112.124.125zM9.974 13.763c1.34-.846.42-2.315.594-2.537.046-.058.162-.14.102-.235-.048-.076-.198-.102-.334-.016-.26.164-.234.44-.17.765a.158.158 0 0 0-.112-.026c-.06.01-.105.057-.132.126 0 0-.114-.043-.176.12 0 0-.118-.037-.175.122 0 0-.115-.038-.174.12 0 0-.11-.04-.175.122 0 0-.117-.038-.174.12 0 0-.113-.037-.175.122 0 0-.116-.038-.174.12 0 0-.113-.04-.174.12-.014 0-.028-.005-.042-.003-.115.02-.18.17-.148.352 0 .01.004.02.005.028-.188-.195-.35-.35-.563-.216-.182.114-.217.365-.085.574.167.268.384.13.488.047.218.16.773.82 1.796.176zm.293-1.485c.044.404-.026.826-.57 1.168-.513.325-.843.198-1.098-.013.055-.013.098-.06.123-.125 0 0 .114.043.176-.12 0 0 .117.036.174-.122 0 0 .116.038.175-.12 0 0 .11.04.174-.122 0 0 .118.038.175-.12 0 0 .112.037.174-.122 0 0 .118.038.175-.12 0 0 .112.04.173-.12.014 0 .028.005.042.003a.152.152 0 0 0 .102-.067z"/><path class="bg" d="M11.437 10.627c-.273.2-.592.43-.878.63l.128.698c.415-.273.917-.62 1.312-.91.395.29.897.637 1.312.91l.13-.698c-.286-.2-.605-.43-.878-.63 3.127-2.377 5.426-4.914 5.453-4.944a1 1 0 0 0 .27-.843c-.01-.098-.116-.148-.2-.06-.027.03-2.365 2.61-6.087 5.427C8.277 7.39 5.94 4.81 5.914 4.78c-.085-.088-.19-.038-.2.06-.004.016-.09.468.27.843.027.03 2.326 2.567 5.453 4.944z"/><path class="bg" d="M12.808 8.265c1.322-.49 2.782-1.2 2.698-1.43-.07-.187-1.107.28-2.915.947-.843.312-1.01.41-.957.555.037.103.198.29 1.175-.072zM15.95 2.426c.053-.19-.8-.485-1.73-.74-1.27-.35-1.732-.32-1.73-.26.004.18.49.265 1.582.566 1.19.327 1.82.65 1.88.434z"/><g><path class="fg" d="M12 .2A7.8 7.8 0 1 0 19.8 8 7.8 7.8 0 0 0 12 .2zm0 15.038A7.24 7.24 0 1 1 12 .763a7.24 7.24 0 0 1 0 14.475z"/><path class="fg" d="M13.848 12.272c.028.005.057-.008.083-.034.023.197.136.17.176.12.023.198.135.17.175.122.024.197.136.17.176.12.022.197.135.17.175.122.023.196.136.168.176.12.023.198.135.17.175.122.023.197.136.17.176.12.022.197.135.17.175.122.008.084.042.146.092.155.07.013.147-.085.17-.22s-.015-.25-.086-.263c-.028-.005-.057.008-.083.033-.023-.197-.135-.17-.175-.12-.022-.197-.135-.17-.175-.122-.022-.196-.135-.168-.175-.12-.022-.198-.135-.17-.175-.122-.022-.196-.135-.168-.175-.12-.023-.198-.135-.17-.175-.122-.022-.197-.135-.17-.175-.12-.022-.198-.135-.17-.175-.122-.007-.084-.04-.146-.09-.155-.072-.012-.148.087-.17.22-.024.134.015.252.085.265zM8.578 13.36c.05-.01.084-.07.092-.155.04.048.153.076.175-.12.04.047.152.075.175-.122.04.048.153.075.175-.12.04.047.153.075.175-.122.04.05.153.077.175-.12.04.047.153.076.175-.12.04.047.152.075.175-.122.04.048.153.076.175-.12.026.024.056.037.083.033.07-.01.11-.13.086-.263-.024-.134-.1-.232-.17-.22-.05.01-.085.07-.092.155-.04-.048-.153-.076-.175.12-.04-.047-.153-.075-.175.122-.04-.048-.153-.076-.175.12-.04-.047-.153-.075-.175.122-.04-.047-.153-.076-.175.12-.04-.047-.153-.075-.175.122-.04-.047-.153-.075-.175.12-.04-.047-.153-.075-.175.122-.026-.026-.055-.04-.083-.033-.07.012-.11.13-.086.264.02.134.097.232.168.22z"/><path class="fg" d="M16.184 13.028c-.44-.278-.737 1.23-1.922.482-1.307-.824-.025-2.086-.64-2.474-.105-.066-.207-.04-.23-.006-.02.036.046.08.1.148.227.288-.742 1.69.574 2.52 1.126.71 1.674-.256 1.767-.198.075.048.26.24.412-.003.136-.216.045-.402-.06-.47zM10.51 11.178c.052-.067.12-.112.097-.148-.022-.034-.124-.06-.23.006-.613.388.67 1.65-.638 2.474-1.186.748-1.483-.76-1.923-.482-.106.067-.198.253-.06.47.152.242.335.05.41.002.094-.058.642.908 1.768.198 1.315-.83.346-2.232.574-2.52z"/></g><g><path class="st3" d="M18.212 4.85c-.012-.077-.07-.018-.07-.018S15.798 7.438 12 10.302c-3.797-2.864-6.142-5.47-6.142-5.47s-.058-.06-.07.02c0 0-.085.43.252.78 0 0 2.327 2.584 5.523 4.996-.3.22-.606.442-.92.663l.1.538c.43-.284.85-.577 1.257-.875.408.298.828.592 1.258.875l.1-.537c-.315-.22-.622-.442-.92-.662 3.194-2.412 5.522-4.996 5.522-4.996.337-.35.252-.78.252-.78z"/><path class="st3" d="M7.14 5.25c.48.38.623.626.734.736.094.093.186.102.288.204.15.15.198.333.34.333.15 0 .312-.323.63-.323.215 0-.13.143-.13.283 0 .12.262-.044.32-.044.095 0 .466.165.684-.13-.1-.098-.39-.058-.39-.444 0-.106.09-.318.322-.318.187 0 .328.164.27.35-.02.06.08.13.08.236 0 .324-.223.36-.223.502 0 .286.202.264.313.257.26 0 .664.217.8.217.167 0 .3-.072.3-.155s-.196-.45-.304-.45c-.062 0-.128.118-.222.118-.104 0-.164-.065-.127-.13.02-.037-.04-.097-.04-.194 0-.12.164-.374.48-.374.263 0 .537.228.537.595 0 .306-.083.482-.083.542 0 .113.214.245.35.245s.65-.192.816-.192.356.012.356-.14-.105-.444-.216-.444-.365.36-.69.36c-.04 0-.082-.01-.082-.063 0-.055.087-.18.132-.206s.284-.128.284-.215c0-.05-.22-.11-.22-.206 0-.1.22-.02.22-.116 0-.086-.2-.165-.2-.395 0-.166.114-.337.327-.337.413 0 .672.31 1.06.31.33 0 .69-.175.85-.175.482 0 .47.544.947.544.223 0 .3-.084.3-.345 0-.142-.068-.13-.15-.13s-.096-.062-.22-.062c-.18 0-.38-.094-.38-.186 0-.096.676-.312.774-.312.347 0 .38.69.935.69.14 0 .245-.03.245-.275s-.04-.223-.084-.217-.27.07-.27-.002c0-.07.107-.14-.02-.162-.59-.098-.42-.65-.65-.65-.11 0-.49.207-.49-.03 0-.132.09-.31.09-.594 0-.312-.177-.497-.005-.497.375 0 1.032.192 1.032.284 0 .066-.37.028-.37.193 0 .098.212.216.535.216s.453-.1.292-.1-.41-.005-.41-.116c0-.112.287-.062.287-.18 0-.172-.292-.16-.826-.31-2.66-.758-3.584-1.744-5.254-1.744-2.055 0-1.726 1.4-2.974 1.717-.987.252-1.078.756-1.078 1.357 0 .337.114.622.177.672zm.945.52c-.11 0-.082-.077-.082-.077.143-.193.07-.653.247-.653.1 0-.043.102-.043.22 0 .135.197.096.197.252 0 .1-.16.258-.32.258zm.425.653s-.082-.06-.082-.102c0-.097.166-.125.166-.095 0 .083-.084.198-.084.198zm.134-1.778c0 .068-.14.23-.227.23-.067 0-.174-.26-.174-.282s.03-.066.13-.066c.097 0 .27.05.27.118zm-.8-1.033c.394 0 .6.233.6.487s-.215.44-.452.44c-.15 0-.196-.128-.196-.192 0-.088.13-.165.13-.27 0-.128-.157-.217-.315-.217-.266 0-.446.23-.446.117 0-.135.27-.365.68-.365zM12.617 7.854c-.676.25-.95.354-.913.458.02.057.16.222 1.078-.117.914-.34 2.715-1.164 2.652-1.332-.03-.083-1.303.43-2.817.99zM14.092 1.92c1.115.306 1.758.59 1.786.486s-.858-.423-1.677-.648c-.817-.225-1.667-.336-1.64-.31.086.082.416.165 1.532.47z"/></g><path class="st4" d="M8.212 5.467c-.027 0-.052.045-.052.06 0 .018.042.076.074.076.018 0 .04-.008.04-.024 0-.066-.002-.113-.062-.113z"/></svg>