<svg id="Layer_1" xmlns="http://www.w3.org/2000/svg" viewBox="0 0 24 16"><style>.st0{fill:#af1e2d}.st1{fill:#FFF}.st2{fill:#192168}</style><g id="reg" class="st2"><path d="M20.233 12.332a.384.384 0 1 0 0 .77.384.384 0 0 0 0-.77zm0 .686a.302.302 0 1 1-.002-.604.302.302 0 0 1 .003.604z"/><path d="M20.39 12.627a.13.13 0 0 0-.13-.13h-.186v.438h.083v-.18h.06l.083.18h.09l-.087-.186a.13.13 0 0 0 .088-.123zm-.13.048h-.103v-.096h.103c.027 0 .048.02.048.047s-.02.048-.048.048z"/></g><path class="st2" d="M18.94 7.873l1.425-1.497-.688-3.168-3.036-.9-.31.288c-1.024-.338-3.216-.742-4.682-.74-4.98.01-8.768 2.742-8.782 6.112-.016 3.535 3.413 6.176 8.825 6.176 3.79 0 7.67-2.02 9.31-3.17l-2.06-3.1z"/><path class="st1" d="M18.406 8.202s-2.15 1.468-4.52 1.91V5.947c2.573.324 4.098 2.006 4.098 2.006L19.7 6.18l-.55-2.485-2.345-.686-.297.323c-.95-.372-2.914-.854-5.088-.854-4.354 0-7.91 2.467-7.917 5.51-.006 2.966 3.012 5.533 7.884 5.533 4.5 0 7.75-2.145 8.767-2.72l-1.748-2.6zm-7.427-.785V5.71c.594-.028 1.255.002 1.723.058v1.65H10.98zm1.722 1.13v1.717a10.53 10.53 0 0 1-1.724.036V8.546h1.724zM9.742 5.81v4.372c-.718 0-3.008-.842-3.008-2.168 0-1.64 2.34-2.093 3.008-2.203z"/><path class="st1" d="M9.113 9.42V6.573c-.82.24-1.743.704-1.743 1.44 0 .505.778 1.114 1.743 1.407zM17.286 8.14a6.582 6.582 0 0 0-2.766-1.45V9.32a12.375 12.375 0 0 0 2.766-1.18zM11.442 6.917h.805V6.25l-.805-.032zM11.424 9.072h.828v.7h-.828z"/><path class="st0" d="M18.28 8.82c-2.812 1.65-4.686 1.972-6.97 1.95-3.21-.03-5.038-1.314-5.038-2.844 0-1.38 1.677-2.694 5.104-2.694 2.306 0 5.085.618 6.57 2.082l1.235-1.26-.42-2-1.822-.532-.33.374c-1-.4-2.69-.954-5.286-.954-3.92 0-7.356 2.264-7.356 5.004 0 2.862 2.993 5.106 7.24 5.106 4.308 0 6.836-1.623 8.296-2.39l-1.22-1.843z"/></svg>