<svg xmlns="http://www.w3.org/2000/svg" viewBox="0 0 24 16"><path d="M14.9 5.91l-1.533-2.097-.498.23s-.333-.126-.906-.202l.36-.362v-.824h-.254c.443-.72-.256-1.465 1.022-2.334H9.79c-2.495.84-1.874 5.522-1.874 5.522l.478-.18s-.298.624-.172 1.094c0 0-.328.712.07 1.392l-.235.332.05 1.524c-.332.58-1.59.265-1.707.916-.05.275-.714.505-.714.505-.698 2.08 4.616 2.47 5.49 3.75A5.005 5.005 0 1 0 14.9 5.91z"/><g fill="#CE1126"><path d="M10.016 2.433L9.77.847c-1.752.748-1.518 4.338-1.518 4.338l1.782-2.587h1.644c.284-.563-.063-1.46.566-1.845h-2.17l-.058 1.68zM9.473 13.178c.718.16 1.678.77 1.678.77-.07-.255-.274-.5-.274-.5a4.98 4.98 0 0 1-1.93-1.13l-1.84-1.012s1.097.006 1-.805c-.476.35-1.388.214-1.388.59 0 .413.724.833 2.148 1.737l-2.203-1.01.132-.144-.152-.295c-.016.113-.575.115-.575.492 0 1.33 4.703 1.825 5.566 3.082.102-.653-1.184-1.275-2.16-1.774zM15.207 10.754s.475.41.475.55c0 .142-.995.73-.995.73.334-.462.604-.685.604-.884 0-.197-.352-.25-.447-.628-.36.58-.378.953-.378.953l.177 1.214-.482-.06c-1.01 1.01-.898 2.117-.898 2.117.635-1.837 2.783-1.863 2.783-3.598-.162-.13-.838-.396-.838-.396z"/></g><path fill="#FFF" d="M13.246 10.815l.302-.146-.33-1.283.133-.394.906-.348.263.112-.037-.412s-.26-.25-.56-.25c-.293 0-.41.21-.81.697 0 0-.232-.606-1.173-.606-.796 0-1.75.37-1.75.37-.17.23-.147.72 1 .633l-.162.753.636.09s-.81 1.788-.365 2.218c.42.407.855.844 1.005.844.592 0 .965-.154 1.038-.228.033-.033.056-.106.056-.2 0-.33-.33-.367-.588-.367-.558 0-.76.194-.76.194l.107-.36c.07-.265 1.195-.126 1.195-.126l-.026-.35-.225.034-.473-.073-1.115.03-.055-.042 1.33-.235.29.06.25-.063-.136-.12-.145.056-.027-.295-.793-.132.625-.217.39.155z"/><path fill="#FFF" d="M14.388 9.116l-.252.048c-.104.42-.4.246-.447.145l-.12.433.2.652.165.358-.286.24.22.25.078.182.323-1.063.26-.426c.047-.073-.21-.582-.21-.582l.068-.238zM11.934 13.777l.71.485.186-.645-.62-.09z"/><path d="M17.465 14.472a.295.295 0 0 0 0 .592.297.297 0 0 0 0-.592zm0 .528a.232.232 0 1 1 0-.463.232.232 0 0 1 0 .463z"/><path d="M17.586 14.7a.1.1 0 0 0-.1-.102h-.143v.338h.062V14.8h.046l.065.137h.07l-.067-.143a.1.1 0 0 0 .068-.095zm-.1.036h-.08v-.074h.08c.02 0 .036.017.036.037s-.015.036-.037.036z"/><g fill="#BF910C"><path d="M14.633 8.022l-1.44-.824-2.877.98s1.066-.277 1.85-.277c.855 0 1.004.46 1.004.46s.264-.475.662-.475c.48 0 .814.28.814.28l-.013-.143zM11.55 3.87l.24-.256h-1.25l-1.044.842.924-1.083h1.517V2.93h-1.65l-1.474 2 .07.343S9.696 3.87 11.55 3.87z"/><path d="M10.582 11.396c0-.97.236-1.976.236-1.976s-1.44.1-1.185-1.116c0 0-.314.256-.6.145 0 0 .542-.145.542-.735l.14.43 3.742-1.494 1.473 1.28-.033-.575c-.165.06-.52-.184-.52-.184l.055-.044s.24.123.453.035l-.033-.567-1.62-2.253-.368.138s-.793-.335-1.562-.335c-1.175 0-2.638 1.162-2.638 2.446l.787.057 2.15-1.595-2.16 2.113s-.19-.373-.466-.373c-.19 0-.48.226-.48.78 0 .436.213.65.213.65l-.252.34c.185 2.73-.124 3.01-.685 2.854l1.096.53c0-1.913-.07-2.494.116-2.494.308 0 .276 1.9.357 2.795 0 0 .79.917 2.362 1.067 0 0-1.12-.713-1.12-1.918zM14.143 11.808l-.184.49.284.046zM15.38 6.576v1.622a3.186 3.186 0 0 1 1.183 2.477 3.197 3.197 0 0 1-2.115 3.005c-.52.85-.376 1.352-.31 1.497a4.573 4.573 0 0 0 3.8-4.502 4.57 4.57 0 0 0-2.557-4.1z"/></g><g><path d="M11.61 7.04l-.11-.068c-.755.142-.626-.116-.81-.116.072-.07.006-.21.198-.403l-.017-.023c-.467.278-.195.45-.517.617l.012.027c.385-.13.244.34 1.246-.033z"/><path d="M12.11 6.558l-.06-.025c-.545.255-.543.007-.652.04.056-.093-.107-.207.26-.56l-.004-.036c-.64.425-.334.59-.535.793l.018.025c.218-.14.234.255.973-.237zM10.63 7.383s-.066-.062-.144-.093c-.428.044-.365-.125-.513-.118.132-.102-.01-.184.095-.287l-.018-.022c-.384.216-.152.354-.376.446l.01.026c.217-.065.19.286.947.047zM9.243 7.17c.223.557-.176.946-.337.946s-.26-.202-.26-.202.12.396.366.396.71-.586.23-1.14z"/><path d="M12.578 6.073l-.04-.013c-.425.226-.453.053-.517.07.046-.09-.145-.115.13-.467l-.012-.064c-.597.528-.17.545-.427.76l.03.012c.23-.188.185.2.838-.3zM10.26 4.627c-1.453.72-1.4 1.727-1.4 1.727l.475.022.895-.585c-.637.176-1.663.098.03-1.163zM13.576 6.17c-.78.213-.842-.928-.623-1.166-.86.55.195 1.854.623 1.165zM14.062 6.697l-.043.024c.453.49.455.15.614.29l.02-.036c-.128-.198.054-.38-.36-.81l-.003.043c.233.304.128.467.197.593-.11-.05-.13.152-.425-.103z"/><path d="M14.21 6.558l.02-.024c-.133-.226.125-.276-.23-.785l-.015.065c.16.336.023.407.06.484-.06-.017-.115.102-.313-.132l-.034.012c.315.508.385.193.512.378zM17.25 11.057c-.055.276-.28.018-.407.666.098.02.184-.2.31-.176.128.025.126.26.223.28.125-.648-.18-.494-.127-.77z"/><circle cx="17.25" cy="10.675" r=".237"/><path d="M15.384 13.69c.063.077.27-.036.352.063.082.1-.07.28-.006.357.51-.42.174-.495.392-.675-.22.18-.228-.164-.738.256zM16.9 12.328c-.145.243-.27-.076-.605.493.085.05.24-.126.35-.06s.032.285.117.336c.335-.57-.006-.525.137-.768z"/><path d="M15.877 13.296c.075.064.26-.083.356 0 .1.084-.02.288.057.353.43-.503.086-.52.27-.733-.184.213-.253-.123-.683.38zM16.824 9.567c.138.646.358.384.418.66-.06-.276.25-.127.112-.772-.097.02-.09.256-.217.282-.125.028-.216-.19-.313-.17zM16.275 8.504c.34.566.464.246.61.487-.147-.24.194-.2-.146-.766-.085.05-.004.27-.114.338s-.266-.11-.35-.058z"/><path d="M16.594 9.013c.242.614.418.32.52.582-.103-.263.227-.166-.016-.78-.092.036-.047.268-.167.314-.118.047-.243-.153-.336-.117zM17.133 11.69c-.1.265-.28-.027-.51.59.092.035.214-.166.335-.12.12.045.08.276.172.31.23-.617-.096-.515.003-.78zM16.56 8.435c-.184-.214.16-.23-.27-.732-.075.064.042.27-.056.353-.1.084-.282-.064-.357 0 .43.5.5.165.682.38zM16.038 7.832c.157-.206-.612-.47-.612-.47s.454.676.612.47zM14.77 14.02c.05.087.272.015.334.128s-.12.262-.074.35c.58-.315.266-.453.514-.588-.248.134-.19-.205-.773.11z"/><path d="M14.164 14.49s.813.018.736-.23c-.078-.246-.736.23-.736.23zM10.27 8.805l1.264.177c.042.212.37.412.6.09l.346.1-.278.218.533.073.21-.41-1.205-.49-1.47.242z"/></g></svg>